<svg width="240" height="150" viewBox="0 0 240 150" fill="none" xmlns="http://www.w3.org/2000/svg">
<path d="M27.7985 128.413C27.7985 128.413 2.54408 101.526 19.7253 70.2075C32.9809 46.047 65.045 50.352 81.4976 60.5715C88.505 64.9215 103.561 56.9415 122.655 32.7022C144.822 4.56222 230.64 21.7312 215.818 75.4965C208.646 101.515 237.646 102.46 222.87 128.468L27.7985 128.413Z" fill="#EBF3FA"/>
<path d="M207.552 128.198H143.482C140.403 128.197 137.45 126.972 135.273 124.791C133.096 122.61 131.874 119.652 131.874 116.569V61.0177C131.877 52.425 134.406 44.0234 139.146 36.8611C143.886 29.6988 150.628 24.0928 158.529 20.7427C163.172 18.777 162.06 17.5852 167.091 17.31C167.898 17.2665 174.706 17.3047 175.52 17.3047C181.253 17.3004 186.931 18.428 192.228 20.6232C197.526 22.8183 202.339 26.0379 206.393 30.0976C210.447 34.1574 213.662 38.9778 215.853 44.283C218.045 49.5882 219.171 55.2741 219.167 61.0155V116.566C219.167 118.094 218.867 119.607 218.284 121.018C217.7 122.43 216.844 123.712 215.766 124.793C214.687 125.873 213.406 126.729 211.997 127.314C210.588 127.898 209.077 128.199 207.552 128.198ZM145.51 63.3345H205.524V61.0177C205.524 44.4472 192.063 30.9667 175.517 30.9667C158.97 30.9667 145.51 44.4472 145.51 61.0177V63.3345Z" fill="#0A5DCB"/>
<path d="M199.822 128.198H135.753C132.673 128.198 129.719 126.973 127.542 124.792C125.364 122.611 124.141 119.653 124.141 116.569V61.0177C124.117 55.2623 125.228 49.5588 127.411 44.2346C129.594 38.9103 132.805 34.0702 136.86 29.9921C140.916 25.9139 145.735 22.6779 151.043 20.4699C156.35 18.2618 162.04 17.1252 167.788 17.1252C173.535 17.1252 179.225 18.2618 184.532 20.4699C189.84 22.6779 194.659 25.9139 198.715 29.9921C202.77 34.0702 205.981 38.9103 208.164 44.2346C210.347 49.5588 211.458 55.2623 211.434 61.0177V116.569C211.434 118.096 211.134 119.608 210.551 121.019C209.967 122.43 209.112 123.712 208.033 124.792C206.955 125.872 205.675 126.729 204.266 127.313C202.857 127.897 201.347 128.198 199.822 128.198ZM137.78 63.3345H197.795V61.0177C197.795 44.4472 184.333 30.9667 167.787 30.9667C151.241 30.9667 137.78 44.4472 137.78 61.0177V63.3345Z" fill="#1977F3"/>
<path d="M173.188 85.1048C173.19 83.8083 172.724 82.5549 171.877 81.5745C171.128 80.4615 169.579 79.6995 167.787 79.6995C165.996 79.6995 164.447 80.4645 163.698 81.5745C163.113 82.2534 162.706 83.0672 162.514 83.9428C162.321 84.8184 162.349 85.7282 162.594 86.5904C162.84 87.4526 163.296 88.2401 163.921 88.882C164.546 89.5239 165.32 90.0001 166.175 90.2678V98.4593C166.175 99.12 166.897 99.6593 167.787 99.6593C168.678 99.6593 169.4 99.1238 169.4 98.4593V90.2678C170.498 89.9235 171.458 89.2369 172.14 88.3082C172.821 87.3795 173.188 86.2572 173.188 85.1048Z" fill="white"/>
<path d="M96.006 78.1853C95.9034 78.8798 95.1118 79.6853 94.2671 80.2853C93.3579 80.934 92.994 81.6 92.6712 81.9353C92.5514 82.0718 92.478 82.1468 92.478 82.1468L91.5044 81.0165C91.5211 81.0042 91.5362 80.9898 91.5493 80.9738C91.7665 80.7368 92.317 80.1488 92.6839 79.479C93.4882 78.0038 94.6123 77.7863 94.6123 77.7863C94.6123 77.7863 95.6907 77.9445 96.006 78.1853Z" fill="#FFBE9D"/>
<path d="M45.8054 92.2492L46.4615 92.7825C46.4615 92.7825 48.2588 92.1382 48.6602 94.2735C48.6602 94.2735 48.7681 95.184 48.1929 95.1855C47.6178 95.187 47.8544 95.0857 47.0396 95.1105C46.2248 95.1352 45.5486 94.704 45.4295 94.0417L45.0393 93.4807L45.8054 92.2492Z" fill="#E59D78"/>
<path d="M45.7915 93.5145C46.3157 92.967 46.273 92.5627 46.273 92.5627C46.273 92.5627 40.2129 87.594 39.5981 87.189C39.1795 86.913 34.9549 82.8622 32.6333 80.535C31.5145 79.416 30.317 79.8022 28.8506 80.2237L27.6427 80.5702C26.1846 80.9895 25.8056 83.0317 27.0016 84.0247C30.3717 86.82 35.9772 89.964 37.0264 90.6247C39.6303 92.265 44.7273 94.2142 44.7273 94.2142C45.1248 94.0539 45.4865 93.816 45.7915 93.5145Z" fill="#992525"/>
<path d="M52.7075 124.041C52.7075 124.041 54.1784 125.144 56.4318 124.562C56.4318 124.562 58.2486 124.147 58.647 125.054C58.647 125.054 55.8604 126.472 55.1549 126.86C54.6239 127.152 54.069 127.61 53.6773 127.97C53.6037 128.036 53.5172 128.087 53.4232 128.119C53.3293 128.152 53.2297 128.164 53.1307 128.157C53.0317 128.149 52.9352 128.121 52.8473 128.075C52.7593 128.029 52.6817 127.965 52.6191 127.888C52.4963 127.738 52.3563 127.557 52.2028 127.349C51.7729 126.766 50.7716 124.882 50.7716 124.882L52.7075 124.041Z" fill="#233862"/>
<path d="M53.5681 123.481C53.5681 123.481 52.6731 125.549 50.6062 125.168C50.6062 125.168 46.3876 121.679 43.4916 118.055C42.5592 116.879 41.7572 115.688 41.2861 114.6C39.3674 110.151 34.1888 103.516 30.8959 100.153L39.1338 97.1685C39.1338 97.1685 41.7721 102.485 45.283 109.013C47.8143 113.715 50.7971 119.05 53.5681 123.481Z" fill="#3C8FFE"/>
<path d="M45.2837 109.01L43.4969 118.055C42.5592 116.879 41.7572 115.688 41.2861 114.6C39.3674 110.151 34.1888 103.516 30.8959 100.153L39.1338 97.1685C39.1338 97.1685 41.7729 102.482 45.2837 109.01Z" fill="#1977F3"/>
<path d="M38.5503 125.241C38.5503 125.241 38.4605 126.891 40.4578 127.111C40.4578 127.111 41.5991 127.117 41.6029 128.167L35.7974 128.186C35.7974 128.186 35.6289 127.762 35.5877 126.855C35.5562 126.158 36.2617 124.336 36.2617 124.336L38.5503 125.241Z" fill="#233862"/>
<path d="M36.4325 97.1655C36.4325 97.1655 40.1021 101.204 42.4319 108.479C43.6998 112.438 40.1103 122.39 39.4086 125.848C39.4086 125.848 37.0002 126.053 35.3533 125.416C35.3533 125.416 35.2283 118.273 36.1914 112.768C36.7306 109.688 31.3595 106.18 29.0124 100.613C27.4157 96.8265 29.3584 96.8902 31.7451 96.7995L36.4325 97.1655Z" fill="#3C8FFE"/>
<path d="M32.196 79.1482C30.1545 80.3032 25.9749 79.2382 25.9749 79.2382C25.9749 79.2382 27.6719 77.295 26.9005 74.1645L28.5039 74.9797L30.2264 75.8557C30.3174 76.3671 30.3804 76.8832 30.4151 77.4015C30.4353 77.6572 30.4525 77.943 30.4645 78.255C31.0914 78.4442 31.6782 78.747 32.196 79.1482Z" fill="#FFBE9D"/>
<path d="M39.6834 96.957C39.6834 97.3163 39.27 97.4888 39.1817 97.506C38.3579 97.656 36.0587 98.556 33.9873 98.7578C32.2431 98.9408 30.624 98.7668 28.8453 98.409C28.6094 98.3618 28.056 98.2125 28.0171 97.9868C27.9684 97.74 21.1549 84.0773 26.4511 78.2085C26.5754 78.0705 27.6209 78.3188 28.5772 78.546C29.3833 78.7367 30.2288 78.6674 30.9932 78.348L31.8919 78.8205C32.9928 79.4348 35.0762 81.618 35.3196 83.331C35.4439 84.2025 35.9412 84.8475 36.085 85.6133C36.1381 85.8968 36.1928 86.1743 36.249 86.4435C36.3573 86.973 36.4689 87.477 36.5837 87.9555C36.8953 89.2515 37.224 90.3668 37.5476 91.3305C37.8906 92.3535 38.2276 93.2055 38.5294 93.9165C38.9195 94.8398 39.2491 95.5298 39.4558 96.0578C39.5995 96.429 39.6834 96.7208 39.6834 96.957Z" fill="#BC3F3F"/>
<path d="M39.4543 96.057C29.837 91.5187 26.5059 82.8052 26.5059 82.8052C26.5059 82.8052 34.3199 85.692 36.2475 86.4435C36.3559 86.973 36.4675 87.477 36.5823 87.9555C36.8938 89.2515 37.2226 90.3667 37.5461 91.3305C37.8891 92.3535 38.2261 93.2055 38.5279 93.9165C38.9181 94.839 39.2476 95.529 39.4543 96.057Z" fill="#992525"/>
<path d="M51.6546 93.8183H46.3449C43.8962 93.8155 41.5486 92.8401 39.817 91.106C38.0855 89.372 37.1115 87.0209 37.1088 84.5685V67.2435C37.1113 64.7911 38.0853 62.4399 39.8168 60.7058C41.5484 58.9717 43.8961 57.9964 46.3449 57.9938H51.6546C54.1034 57.9964 56.4512 58.9717 58.1828 60.7058C59.9143 62.4399 60.8882 64.7911 60.8908 67.2435V84.5685C60.8881 87.0209 59.9141 89.372 58.1825 91.106C56.451 92.8401 54.1034 93.8155 51.6546 93.8183ZM46.3449 63.4568C45.3425 63.458 44.3815 63.8573 43.6728 64.5672C42.9641 65.2772 42.5655 66.2397 42.5645 67.2435V84.5685C42.5657 85.5723 42.9644 86.5346 43.6731 87.2443C44.3818 87.9541 45.3427 88.3533 46.3449 88.3545H51.6546C52.6569 88.3533 53.6178 87.9541 54.3265 87.2443C55.0352 86.5346 55.4339 85.5723 55.4351 84.5685V67.2435C55.4341 66.2397 55.0355 65.2772 54.3268 64.5672C53.618 63.8573 52.657 63.458 51.6546 63.4568H46.3449Z" fill="#F99746"/>
<path d="M107.339 79.0972H58.6471V72.7147H107.339C108.184 72.7147 108.995 73.0509 109.592 73.6494C110.19 74.2479 110.526 75.0596 110.526 75.906C110.526 76.7523 110.19 77.564 109.592 78.1625C108.995 78.761 108.184 79.0972 107.339 79.0972Z" fill="#F99746"/>
<path d="M101.227 77.8118H106.342V90.3188C106.342 90.9981 106.072 91.6495 105.592 92.1298C105.113 92.6102 104.462 92.88 103.784 92.88C103.106 92.88 102.455 92.6102 101.976 92.1298C101.496 91.6495 101.227 90.9981 101.227 90.3188V77.8118H101.227Z" fill="#F99746"/>
<path d="M45.0808 93.4267L45.9121 93.732C45.9121 93.732 47.5762 92.5537 48.6126 94.4707C48.6126 94.4707 48.9871 95.3077 48.394 95.4892C47.8008 95.6707 48.0195 95.5005 47.183 95.7787C46.3465 96.057 45.5272 95.8537 45.2126 95.2597L44.6472 94.8442L45.0808 93.4267Z" fill="#FFBE9D"/>
<path d="M45.7652 94.6043C46.0723 93.801 46.2146 93.4373 46.2146 93.4373C46.2146 93.4373 39.9351 88.3118 39.2955 87.8715C38.8589 87.5715 34.5183 84.3225 32.4019 81.7905C31.8868 81.1741 31.2142 80.7094 30.4558 80.4461C29.6975 80.1828 28.882 80.1309 28.0965 80.2958L26.7776 80.5725C25.1862 80.907 24.6687 82.9253 25.9037 83.985C29.3816 86.9708 35.247 90.435 36.3403 91.1543C39.0551 92.9423 45.0605 95.448 45.0605 95.448C45.0605 95.448 45.5241 95.235 45.7652 94.6043Z" fill="#BC3F3F"/>
<path d="M83.4626 80.1863C82.8193 80.4863 82.0397 80.6888 81.1028 80.7405C77.5793 80.9333 76.7794 77.8403 76.6342 75.7905C77.0223 75.6569 77.4339 75.6059 77.8429 75.6405C78.093 75.654 78.3536 75.6803 78.5686 75.7065C78.9999 75.4815 79.7735 74.3858 80.2214 72.5565L80.3712 72.627L82.9129 73.827C82.9129 73.827 82.6433 74.652 82.4441 75.4485C82.2883 76.0688 82.1768 76.6688 82.2696 76.836C82.4703 76.9178 82.5902 76.9688 82.5902 76.9688C82.9829 78.0109 83.2751 79.0883 83.4626 80.1863Z" fill="#FFBE9D"/>
<path d="M30.4143 77.4C28.4065 77.5133 27.1012 75.8528 27.1012 75.8528C27.1012 75.8528 28.0089 75.3495 28.5039 74.9783L30.2264 75.8543C30.3172 76.3657 30.3799 76.8817 30.4143 77.4Z" fill="#E69D78"/>
<path d="M31.2703 75.3375C31.2703 75.3375 28.2276 77.5238 26.8975 75.6053C25.5675 73.6868 24.2764 72.6803 26.1644 71.2005C28.0523 69.7208 28.9398 70.1895 29.5389 70.722C30.138 71.2545 32.0275 74.7188 31.2703 75.3375Z" fill="#FFBE9D"/>
<path d="M29.8608 68.9895C29.7989 68.5568 29.6795 68.1343 29.5059 67.7333C29.5059 67.7333 29.3149 68.5253 27.8695 68.4158C26.4241 68.3063 24.134 68.5583 23.3701 70.2075C23.3215 70.3125 23.2788 70.4205 23.2398 70.5315C23.102 70.1655 23.0683 69.6173 23.0683 69.6173C22.7935 70.3275 23.0683 71.2155 23.0683 71.2155L23.0571 71.2905C22.7381 71.5605 22.4707 72.4005 22.4707 72.4005C22.5666 72.1658 22.8017 72.0135 23.0107 71.919C23.0039 73.2023 23.5237 74.457 24.4336 74.8305C25.7681 75.3773 25.7569 74.9603 27.0989 75.8513C27.0989 75.8513 27.4584 75.4013 27.2127 75.1013C26.9671 74.8013 26.0407 74.364 26.5589 73.9275C27.0772 73.491 27.2674 73.9815 27.4576 73.6815C27.6478 73.3815 26.6945 72.507 27.9212 71.688C29.1479 70.869 29.9694 69.7268 29.8608 68.9895Z" fill="#233862"/>
<path d="M83.1496 126.459L82.0262 126.877C82.0262 126.877 77.1584 120.115 76.5593 114.165C76.4522 113.103 76.4844 112.074 76.7195 111.124C76.7195 111.124 76.6716 110.851 76.5885 110.37C76.5503 110.145 76.5024 109.876 76.4484 109.565C76.2904 108.658 76.074 107.415 75.8231 106C75.2502 102.743 74.508 98.5807 73.9321 95.5207L74.2317 95.424L77.4991 94.368L78.1732 92.22L80.6063 91.578C80.6063 91.578 81.15 92.643 81.6361 97.6733C81.7259 98.3333 81.8068 99.0608 81.8682 99.8483C82.0924 102.786 82.0149 105.738 81.6368 108.66C81.525 109.534 81.3827 110.435 81.2099 111.365C81.0819 112.044 81.0602 112.971 81.1163 114.034C81.365 118.9 83.1496 126.459 83.1496 126.459Z" fill="#818181"/>
<path d="M81.872 99.8505L76.5885 110.37C76.5503 110.145 76.5024 109.876 76.4484 109.565C76.2904 108.658 76.074 107.415 75.8231 106C75.2502 102.743 74.508 98.5807 73.9321 95.5207L74.2317 95.424L77.4991 94.368L78.1732 92.22L80.6063 91.578C80.6063 91.578 81.15 92.643 81.6361 97.6733C81.7267 98.3333 81.8106 99.0607 81.872 99.8505Z" fill="#4F4F4F" fill-opacity="0.2"/>
<path d="M79.5474 92.925L79.4253 91.875C77.3763 92.4203 71.9004 90.3517 71.9004 90.3517C71.9004 90.3517 69.9158 92.0992 70.1779 96.2887C70.3045 98.3332 70.5374 107.022 70.777 109.593C70.8646 110.525 70.9418 111.188 70.9732 111.453C70.9785 111.532 70.9577 111.611 70.9141 111.678C70.5606 112.28 70.2599 112.911 70.0154 113.565C67.6324 119.923 70.3823 127.752 70.3823 127.752L71.0953 127.464C71.0953 127.464 72.665 118.759 73.9381 114.91C74.1538 114.257 74.3605 113.743 74.55 113.437C75.1027 112.544 75.6157 111.084 76.0815 109.348C76.9614 106.066 77.6691 101.795 78.1409 98.4997C78.2068 98.5027 79.5474 92.925 79.5474 92.925Z" fill="#818181"/>
<path d="M92.0503 79.893C92.6696 80.1398 93.2755 80.6265 93.8746 81.2325C93.8746 81.2325 90.3795 87.3375 88.368 88.2248C87.2633 88.7123 83.8079 85.0155 83.0942 82.9433C82.9197 82.437 83.5638 80.7435 83.3526 80.3873C83.1097 79.9814 82.9501 79.5312 82.883 79.0628C82.8666 79.0022 82.8593 78.9395 82.8613 78.8768C82.8178 78.5229 82.8391 78.164 82.9242 77.8178C83.0043 77.6123 83.2305 77.5238 83.5668 77.529H83.6851C85.4952 78.5963 87.8737 83.8343 88.2654 83.9573C89.2906 82.659 92.0503 79.893 92.0503 79.893Z" fill="#0062E2"/>
<path d="M81.3103 65.8718C81.305 65.7218 81.1867 64.0718 78.6794 63.984C78.6794 63.984 79.9128 64.134 80.1255 64.674C80.1255 64.674 79.286 64.0035 78.6022 64.2195C77.9185 64.4355 77.5171 65.6348 77.5133 66.0293C77.5096 66.4238 77.8878 67.695 78.3229 67.8038C78.4959 67.8388 78.6741 67.8388 78.8471 67.8038C78.7236 67.9972 78.6111 68.1976 78.5101 68.4038C77.5096 70.4603 78.5416 72.4703 79.3886 72.2483C79.9315 72.1058 80.0851 73.0343 80.0851 73.0343L85.3626 68.7555C85.3626 68.7555 83.4259 64.7415 81.3103 65.8718Z" fill="#BC3F3F"/>
<path d="M82.8543 73.6957C82.8543 73.6957 82.5847 74.5207 82.3854 75.3172C80.8989 74.9017 80.4481 73.3372 80.3125 72.4987L82.8543 73.6957Z" fill="#E59D78"/>
<path d="M83.2282 74.6925C83.2282 74.6925 79.6732 73.8675 80.2199 71.6588C80.7666 69.45 80.6752 67.8555 82.9683 68.2883C85.2615 68.721 85.4921 69.6728 85.4891 70.455C85.4861 71.2373 84.1673 74.85 83.2282 74.6925Z" fill="#FFBE9D"/>
<path d="M85.6891 69.2003C85.3064 68.3993 84.8571 68.442 84.5755 68.5845C82.9047 67.0365 81.2669 68.301 81.2669 68.301C80.8696 69.2275 80.1634 69.9871 79.2688 70.4498C79.2688 70.4498 79.8155 71.01 81.3979 70.998C81.8817 70.998 82.3715 70.773 82.8103 70.4655C82.2578 71.0091 81.634 71.4749 80.9561 71.85C82.9377 71.4705 84.2669 69.1725 84.401 68.925C84.5695 69.1733 84.89 69.702 84.917 70.1483C84.9537 70.7543 84.7455 71.9318 85.0922 71.9768C85.0967 71.9805 86.262 70.401 85.6891 69.2003Z" fill="#BC3F3F"/>
<path d="M74.5372 128.344H68.889C68.889 128.344 68.7534 127.482 69.0485 126.829C69.3308 126.201 69.7734 125.916 69.6671 125.157C70.0258 125.527 70.6107 125.941 71.427 125.832C71.5266 125.995 72.0726 126.863 72.4066 127.107C72.7758 127.369 74.4204 127.275 74.5372 128.344Z" fill="#233862"/>
<path d="M86.6559 128.344H81.0099C81.0099 128.344 80.7995 127.444 81.1694 126.829C81.4982 126.286 81.3724 125.976 81.129 125.528C81.429 125.657 81.7537 125.718 82.0801 125.707C82.3609 125.69 82.659 125.563 82.9196 125.411C83.1623 125.688 84.2032 126.869 84.5282 127.103C84.8967 127.369 86.542 127.275 86.6559 128.344Z" fill="#233862"/>
<path d="M94.3352 79.0973H102.928L102.45 75.7598L94.7786 76.068L94.3352 79.0973Z" fill="#F99746"/>
<path d="M95.8441 72.7148C95.4434 73.1145 95.4524 74.3955 94.6076 74.9985C93.6985 75.6472 93.3345 76.3132 93.0117 76.6485C92.8927 76.785 92.8193 76.86 92.8193 76.86L91.8457 75.7297C91.862 75.7172 91.8768 75.7029 91.8899 75.687C92.1071 75.45 92.6583 74.862 93.0245 74.1922C93.8288 72.717 94.9536 72.4995 94.9536 72.4995C94.9536 72.4995 95.528 72.474 95.8441 72.7148Z" fill="#FFBE9D"/>
<path d="M78.0228 77.8519V75.5799C76.8558 75.2394 74.4845 75.5799 73.9001 76.5632C73.3156 77.5466 74.1923 80.7715 74.1923 83.3433C74.1923 85.915 71.8543 87.3762 71.4159 88.3406C71.0653 89.1122 71.0555 90.1623 71.0945 90.5909C72.4739 91.9002 78.3324 92.3249 81.0892 92.3736C81.5817 90.513 82.7856 86.067 83.6609 83.1679C84.5362 80.2689 84.0257 78.1998 83.6609 77.5276C83.3804 77.2682 82.8146 77.0298 82.5668 76.9431V79.4423L78.0228 77.8519Z" fill="#1977F3"/>
<path d="M92.4427 74.8387L93.8746 76.4437C93.8746 76.4437 90.0477 79.7805 89.2486 80.4735C88.681 80.9572 88.1448 81.3517 87.7082 81.5782C87.6651 81.6009 87.6205 81.6207 87.5749 81.6375C86.4515 82.1302 84.0251 82.0755 81.6009 81.7125C81.2654 81.6637 80.9344 81.6075 80.6108 81.555C79.5031 81.3695 78.4103 81.1035 77.3411 80.7592C76.8452 80.6074 76.3632 80.4135 75.9003 80.1795C75.7716 80.116 75.6466 80.0454 75.5258 79.968C73.6303 78.8302 73.7217 77.7735 73.7577 77.3948C73.7936 77.016 74.067 76.5142 74.6998 76.3087C76.2043 75.8197 81.2511 77.7675 81.9948 77.9085C82.4441 78.003 83.6019 78.4147 83.9921 78.4867C84.741 78.6202 85.3574 78.7065 85.7797 78.7117C86.0531 78.7117 86.5361 78.5452 87.1195 78.2872C88.1343 77.841 92.4427 74.8387 92.4427 74.8387Z" fill="#0062E2"/>
<path d="M92.9443 79.5593C92.8252 79.3635 92.8132 79.0455 92.8132 79.0455C92.9787 78.6203 93.345 78.1455 93.4813 78.0488C93.6176 77.952 93.7965 77.724 93.8392 77.8778C93.8819 78.0315 93.6775 78.834 93.4386 79.1528C93.3126 79.3296 93.142 79.4699 92.9443 79.5593Z" fill="#E59D78"/>
<path d="M178.133 60.4245C179.338 62.5245 180.853 63.3345 180.853 63.3345H187.155C187.155 63.3345 177.211 58.8233 178.133 60.4245Z" fill="#ED7D2B"/>
<path d="M182.599 76.7783C182.763 76.9665 182.905 76.956 182.824 77.181C182.824 77.181 182.787 77.2928 182.786 77.2935C182.636 77.7098 182.352 78.0015 181.775 78.4658C181.7 78.525 181.625 78.5745 181.569 78.6248C181.554 78.6383 181.452 78.6585 181.438 78.672C181.424 78.6855 181.337 78.8678 181.326 78.8775C180.788 79.374 180.897 79.23 179.931 80.2373C178.829 81.3855 178.861 81.267 178.645 81.1628C178.463 81.0735 178.387 80.8628 178.795 80.175L178.855 80.0753C178.91 79.9845 178.965 79.8915 179.018 79.8C179.501 78.975 179.376 78.5903 179.263 77.364C179.17 76.3673 177.715 71.7975 177.715 71.7975L179.826 71.4338C179.826 71.4338 180.463 75.0728 181.163 75.6338C181.538 75.9338 181.958 75.9338 182.317 76.1588L182.392 76.206C182.603 76.3403 182.434 76.5893 182.599 76.7783Z" fill="#FFBE9D"/>
<path d="M182.973 76.6695C183.049 76.7525 183.099 76.8555 183.117 76.9662C183.136 77.0768 183.122 77.1905 183.078 77.2935C182.893 77.709 182.409 78.171 181.852 78.6337C181.777 78.6945 181.715 78.75 181.657 78.8017L181.613 78.8415L181.579 78.8723C181.041 79.3688 181.243 79.4827 180.277 80.49C179.175 81.6382 178.416 81.6593 178.201 81.555C178.018 81.4658 178.389 80.8568 178.8 80.172C179.571 79.8708 180.249 79.3706 180.764 78.7223C181.428 77.8748 181.87 76.785 182.322 76.1535L182.397 76.2008C182.609 76.3305 182.803 76.4882 182.973 76.6695Z" fill="#BC3F3F"/>
<path d="M165.553 75.225C165.421 75.8775 164.999 75.6945 163.961 75.4403C162.923 75.186 163.164 75.4358 161.686 75.2715C160.208 75.1073 160.074 74.8733 160.029 74.6528C159.989 74.4578 160.297 74.3258 161.078 74.235C161.176 74.2245 161.275 74.2118 161.374 74.1998C162.258 74.0888 162.905 73.5173 163.709 73.0485C164.469 72.6038 165.604 70.7933 165.604 70.7933L167.631 70.9538C167.631 70.9538 166.567 72.5708 166.156 73.2743C165.914 73.6875 165.927 74.235 165.957 74.6573C165.978 74.8838 165.598 74.9918 165.553 75.225Z" fill="#FFBE9D"/>
<path d="M163.847 75.6382C162.809 75.384 163.056 75.6862 161.578 75.522C160.101 75.3577 159.653 74.8065 159.608 74.5867C159.567 74.3917 160.298 74.3227 161.081 74.232L161.088 74.2477C161.721 74.6542 162.452 74.8817 163.204 74.9062C164.206 74.9302 165.268 74.643 165.96 74.6542C165.986 74.8851 165.981 75.1184 165.945 75.348C165.814 76.0012 164.885 75.8917 163.847 75.6382Z" fill="#BC3F3F"/>
<path d="M173.709 62.373L175.604 67.4775L178.076 74.142C178.517 74.1751 178.961 74.1346 179.389 74.022C179.981 73.851 180.662 73.4025 180.662 73.4025C180.662 73.4025 179.976 66.246 178.694 62.1382C178.366 61.0837 177.998 60.231 177.593 59.751C175.606 57.4005 173.709 62.373 173.709 62.373Z" fill="#ED7D2B"/>
<path d="M175.639 54.2663C176.879 53.865 180.419 54.3803 183.975 55.077L184.719 53.847L192.398 53.247C192.398 53.247 194.928 58.872 193.545 62.4608C193.209 63.3345 192.108 63.3338 192.108 63.3345H186.078C182.259 63.3345 177.995 60.705 177.444 60.5948C176.541 60.414 176.18 62.2223 175.278 64.1198C174.375 66.0173 166.792 72.528 166.792 72.528C166.792 72.528 165.626 72.5393 165.144 72.3585C164.626 72.1643 164.437 71.9085 164.437 71.9085C164.437 71.9085 172.837 55.17 175.639 54.2663Z" fill="#F99746"/>
<path d="M184.761 43.2555C187.495 44.7638 193.043 47.8898 193.074 47.8695C193.074 47.8695 195.113 48.639 196.269 47.8695C198.198 46.5878 199.232 43.1363 195.705 40.1663C193.947 38.685 192.698 38.3243 192.508 35.9595C192.405 34.6763 190.653 30.441 187.743 30.8325C187.5 30.869 187.255 30.8853 187.01 30.8813C186.491 30.8649 185.979 30.9973 185.533 31.263C183.885 32.2448 180.661 42.675 184.761 43.2555Z" fill="#233862"/>
<path d="M187.053 41.9723C187.041 41.9798 188.401 42.444 189.306 42.0413C190.161 41.6663 190.804 40.257 190.794 40.2563C190.406 40.2383 189.979 39.8978 189.651 37.6658L189.486 37.7258L186.704 38.7278C186.704 38.7278 186.906 39.6218 187.036 40.4723C187.146 41.187 187.205 41.871 187.053 41.9723Z" fill="#FFBE9D"/>
<path d="M186.704 38.7278C186.704 38.7278 186.906 39.6218 187.036 40.4723C188.634 40.1843 189.26 38.5905 189.486 37.7258L186.704 38.7278Z" fill="#E59D78"/>
<path d="M186.29 39.615C186.29 39.615 190.095 39.1035 189.741 36.735C189.387 34.3665 189.639 32.7053 187.195 32.9318C184.751 33.1583 184.414 34.1318 184.341 34.9523C184.267 35.7728 185.291 39.687 186.29 39.615Z" fill="#FFBE9D"/>
<path d="M184.476 33.654C184.476 33.654 186.912 35.754 188.569 35.9257C190.226 36.0975 190.853 35.5627 190.853 35.5627C190.192 34.9701 189.66 34.2476 189.289 33.4402C189.204 33.2503 189.071 33.0863 188.902 32.9654C188.733 32.8445 188.535 32.771 188.328 32.7525C187.148 32.6497 184.905 32.6032 184.476 33.654Z" fill="#233862"/>
<path d="M186.002 33.4658C186.002 33.4658 185.186 34.2548 184.93 34.8398C184.682 35.4053 184.608 36.756 184.805 37.2923C184.805 37.2923 183.532 34.8173 184.255 33.6173C185.017 32.3445 186.002 33.4658 186.002 33.4658Z" fill="#233862"/>
<path d="M183.849 47.586C183.963 55.3005 183.88 53.688 184.723 54.42C184.926 54.5962 185.496 54.702 186.248 54.7515C188.61 54.9082 192.763 54.519 192.92 54.0817C193.465 52.569 193.08 52.0987 193.534 49.7835C193.582 49.5367 193.641 49.2705 193.71 48.9802C194.089 47.3895 194.459 46.8487 193.111 44.2935C191.891 41.979 190.624 40.1002 190.51 40.1685C187.29 42.081 187.034 40.4737 187.034 40.4737C187.034 40.4737 183.793 43.8232 183.849 47.586Z" fill="#BC3F3F"/>
<path d="M175.604 67.4775L178.076 74.142C178.517 74.1751 178.961 74.1346 179.389 74.022C179.981 73.851 180.662 73.4025 180.662 73.4025C180.662 73.4025 179.976 66.246 178.694 62.1382L175.604 67.4775Z" fill="#F99746"/>
<path d="M187.036 40.4722C187.036 40.4722 183.726 41.0347 183.337 42.462C182.949 43.8892 180.662 52.2795 180.662 52.2795C180.662 52.2795 182.344 52.5795 183.122 51.804C183.899 51.0285 185.824 44.5807 185.824 44.5807L187.036 40.4722Z" fill="#BC3F3F"/>
<path d="M186.248 54.75C188.61 54.9067 192.763 54.5175 192.92 54.0802C193.465 52.5675 193.08 52.0972 193.534 49.782L192.395 46.569C192.395 46.569 192.584 50.1465 191.53 51.0877C190.477 52.029 187.217 52.9042 186.704 53.6902C186.458 54.069 186.295 54.45 186.248 54.75Z" fill="#992525"/>
<path d="M188.954 53.25C188.954 53.25 186.624 52.7303 186.248 52.9373C185.871 53.1443 184.953 53.8988 184.838 54.1613C184.724 54.4238 185.675 53.9618 185.985 53.8785C186.185 53.8245 186.713 54.0083 186.975 54.0953C188.074 54.4628 188.748 54.2738 188.748 54.2738L188.954 53.25Z" fill="#FFBE9D"/>
<path d="M190.515 40.1663C190.515 40.1663 193.644 40.359 194.727 41.8725C196.252 44.0018 199.276 53.0783 197.543 54.2888C195.591 55.6523 188.658 54.645 188.658 54.645C188.658 54.645 188.428 53.5658 188.748 53.043C189.069 52.5203 194.286 51.675 194.526 51.4358C194.766 51.1965 191.515 46.734 191.515 46.011C191.515 45.288 190.515 40.1663 190.515 40.1663Z" fill="#BC3F3F"/>
<path d="M186.135 53.5837C186.135 53.5837 185.647 54.2145 185.487 54.2895C185.406 54.3335 185.315 54.3533 185.223 54.3465L185.553 53.7532L186.135 53.5837Z" fill="#FFBE9D"/>
<path d="M186.248 52.9343L184.828 53.6243C184.856 53.6587 184.893 53.6852 184.934 53.7012C184.975 53.7173 185.02 53.7223 185.064 53.7158C185.238 53.7075 185.679 53.5463 185.679 53.5463L186.248 52.9343Z" fill="#FFBE9D"/>
<path d="M185.487 55.2563H174.258L170.88 46.8435H182.092L185.487 55.2563Z" fill="#163560"/>
<path d="M174.126 54.9285H188.954V55.2562H174.258L174.126 54.9285Z" fill="#11294A"/>
<path d="M177.092 51.0495C177.008 50.754 177.178 50.514 177.473 50.514C177.629 50.5226 177.778 50.5785 177.901 50.6742C178.024 50.7698 178.115 50.9007 178.162 51.0495C178.246 51.3495 178.076 51.585 177.78 51.585C177.625 51.5764 177.476 51.5206 177.353 51.4249C177.23 51.3292 177.139 51.1983 177.092 51.0495Z" fill="white"/>
<path d="M230.248 128.684H15.0619C14.9864 128.684 14.914 128.654 14.8603 128.601C14.8067 128.548 14.776 128.476 14.775 128.4C14.7752 128.324 14.8054 128.251 14.859 128.198C14.9126 128.144 14.9853 128.114 15.0611 128.114H230.248C230.324 128.114 230.396 128.145 230.45 128.198C230.503 128.252 230.533 128.324 230.533 128.4C230.532 128.475 230.502 128.547 230.448 128.6C230.395 128.653 230.323 128.683 230.248 128.684Z" fill="#2E3552"/>
</svg>
