<svg width="171" height="149" viewBox="0 0 171 149" fill="none" xmlns="http://www.w3.org/2000/svg">
<path d="M59.4448 112.982L57.7301 114.887C57.3787 112.584 57.0274 110.256 56.1718 108.087C53.6226 101.638 47.0747 97.6027 40.5251 95.1142C33.9755 92.6257 26.9533 91.178 20.9184 87.6383C19.2072 86.6374 17.4047 85.1221 17.5312 83.1635C17.5588 82.7644 17.6619 82.3738 17.8351 82.0119C20.9801 82.2196 24.1081 82.6285 27.1992 83.2363C32.006 84.1974 36.725 85.7178 41.0609 88.002C44.6433 89.879 47.904 92.2995 50.7237 95.1748C53.4943 98.0097 55.7923 101.317 57.3014 104.971C58.0545 106.865 58.6239 108.825 59.0021 110.824C59.1497 111.541 59.2885 112.262 59.4448 112.982Z" fill="#1977F3"/>
<path d="M61.9764 110.184L59.6538 112.754L59.4447 112.982C59.2866 112.262 59.1478 111.541 59.0002 110.823C58.6219 108.824 58.0525 106.865 57.2996 104.971C55.7904 101.317 53.4924 98.0063 50.7254 95.1679C47.9057 92.2926 44.645 89.8721 41.0626 87.9951C36.7266 85.7109 32.0077 84.1853 27.2009 83.2294C24.1098 82.6216 20.9818 82.2127 17.8368 82.005C17.8738 81.922 17.9154 81.8411 17.9615 81.7626C18.3716 81.0674 18.9274 80.4664 19.5919 79.9997C22.7929 77.6324 27.1464 77.5043 31.1134 78.0948C43.48 79.9304 54.6713 88.1977 59.9366 99.3812C61.5231 102.749 62.6071 106.514 61.9764 110.184Z" fill="#1977F3"/>
<path d="M59.6538 112.754L59.4447 112.982C59.2866 112.262 59.1478 111.541 59.0002 110.823C58.6219 108.824 58.0525 106.864 57.2996 104.971C55.7904 101.317 53.4924 98.0062 50.7254 95.1679C47.9057 92.2926 44.645 89.8721 41.0626 87.9951C36.7266 85.7109 32.0077 84.1853 27.2009 83.2294C24.1098 82.6216 20.9818 82.2126 17.8368 82.005C17.8738 81.922 17.9154 81.841 17.9615 81.7626C21.6804 82.0088 25.3737 82.5444 29.007 83.3644C33.6873 84.4398 38.2727 86.0798 42.4365 88.4678C45.9444 90.4623 49.1097 92.992 51.8146 95.9628C54.471 98.9067 56.6249 102.299 57.9725 106.007C58.6875 107.983 59.0933 110.024 59.5115 112.068C59.5572 112.302 59.6063 112.527 59.6538 112.754Z" fill="white"/>
<path d="M64.1881 115.881L63.6276 118.271C62.252 116.489 60.8606 114.688 59.1177 113.249C53.9367 108.978 46.5192 108.573 39.8256 109.46C33.1319 110.347 26.5348 112.341 19.7832 112.115C17.87 112.052 15.644 111.595 14.8236 109.889C14.6583 109.54 14.5617 109.164 14.5389 108.779C17.2878 107.518 20.1171 106.433 23.0088 105.534C27.5117 104.149 32.206 103.283 36.9338 103.22C40.8373 103.165 44.7254 103.715 48.4553 104.852C52.1219 105.981 55.6163 107.723 58.6047 110.114C60.1311 111.366 61.533 112.757 62.7913 114.271C63.2534 114.807 63.7084 115.346 64.1881 115.881Z" fill="#1977F3"/>
<path d="M64.998 112.366L64.2479 115.592L64.1881 115.881C63.7138 115.346 63.2587 114.802 62.7967 114.262C61.5384 112.749 60.1365 111.357 58.6101 110.106C55.6234 107.714 52.1272 105.972 48.4606 104.843C44.7307 103.707 40.8426 103.156 36.9391 103.212C32.2114 103.265 27.517 104.14 23.0141 105.525C20.1224 106.425 17.2931 107.509 14.5443 108.771C14.5381 108.684 14.5381 108.596 14.5443 108.509C14.5612 107.735 14.7457 106.972 15.0854 106.274C16.6666 102.81 20.2892 100.715 23.9031 99.402C35.191 95.3013 48.5133 97.1508 58.2095 104.182C61.1206 106.305 63.8086 108.982 64.998 112.366Z" fill="#1977F3"/>
<path d="M64.2479 115.592L64.1881 115.881C63.7138 115.346 63.2587 114.802 62.7967 114.262C61.5384 112.749 60.1365 111.357 58.6101 110.106C55.6234 107.714 52.1272 105.972 48.4606 104.843C44.7307 103.707 40.8426 103.156 36.9391 103.212C32.2113 103.266 27.517 104.14 23.0141 105.525C20.1224 106.425 17.2931 107.509 14.5443 108.771C14.5381 108.684 14.5381 108.596 14.5443 108.509C17.7951 107.019 21.16 105.783 24.6076 104.814C29.0595 103.582 33.6959 102.871 38.3288 102.982C42.2245 103.06 46.083 103.747 49.7607 105.016C53.3799 106.28 56.7882 108.161 59.6747 110.674C61.2067 112.012 62.5085 113.549 63.8244 115.085C63.9545 115.256 64.102 115.424 64.2479 115.592Z" fill="white"/>
<path d="M41.3929 111.207C37.6049 112.363 33.7358 113.242 29.8169 113.838C27.865 114.137 25.8973 114.368 23.9261 114.513C21.9549 114.659 19.9696 114.711 18.0423 114.288C17.1195 114.088 16.2259 113.774 15.3824 113.355C14.5552 112.915 13.7878 112.374 13.0985 111.744C13.0194 111.673 12.8719 111.767 12.9404 111.864C13.9067 113.219 15.5757 114.07 17.1393 114.548C18.9928 115.111 20.9675 115.204 22.8948 115.119C24.9222 115.029 26.9461 114.807 28.956 114.536C30.9659 114.264 32.9634 113.91 34.9452 113.484C37.1705 113.005 39.3742 112.432 41.5563 111.763C41.9076 111.654 41.7548 111.096 41.3929 111.207Z" fill="#3877BA"/>
<path d="M44.4672 79.4386C44.1524 79.1175 43.7941 78.8407 43.4026 78.616C43.0407 78.377 42.6723 78.1461 42.2975 77.9233C41.5366 77.4804 40.7506 77.0809 39.9433 76.7267C38.3443 76.0228 36.6717 75.4944 34.9556 75.1508C31.4124 74.4494 27.755 74.5375 24.251 75.4088C22.269 75.9036 20.3668 76.6683 18.5991 77.6809C18.5218 77.7242 18.5886 77.835 18.6676 77.7969C21.887 76.1989 25.4172 75.3018 29.0191 75.1664C32.4759 75.0648 35.913 75.7152 39.086 77.0713C39.9726 77.4497 40.8366 77.8775 41.6738 78.3528C42.0814 78.5848 42.4837 78.829 42.8773 79.0853C43.2708 79.3416 43.6714 79.6793 44.1194 79.8784C44.179 79.9084 44.2474 79.917 44.3127 79.9027C44.3781 79.8884 44.4363 79.8521 44.4775 79.8C44.5186 79.748 44.5401 79.6834 44.5383 79.6175C44.5364 79.5515 44.5113 79.4883 44.4672 79.4386Z" fill="#1977F3"/>
<path d="M47.6508 81.3037C47.584 81.2413 47.5155 81.1836 47.4452 81.1305C47.2943 81.0023 47.1353 80.8838 46.9691 80.7755C46.8146 80.677 46.6525 80.5907 46.4842 80.5175C46.3916 80.4733 46.2952 80.4374 46.1961 80.4101C46.1012 80.3876 46.0028 80.3876 45.908 80.372C45.8872 80.3668 45.8652 80.3692 45.846 80.3786C45.8269 80.3881 45.8118 80.404 45.8035 80.4235C45.7952 80.443 45.7943 80.4647 45.8009 80.4848C45.8075 80.5049 45.8212 80.522 45.8395 80.533C45.9132 80.5833 45.9782 80.6473 46.0485 80.7062C46.1188 80.7651 46.1961 80.8067 46.2699 80.8534C46.4263 80.9521 46.5738 81.0612 46.7196 81.1721C46.852 81.2738 46.9787 81.3825 47.0991 81.4976C47.1606 81.5582 47.2204 81.6206 47.2748 81.6829L47.3697 81.7903C47.4296 81.8518 47.5116 81.8879 47.5981 81.8907C47.6633 81.8898 47.7256 81.8637 47.7716 81.8181C47.8176 81.7725 47.8436 81.7109 47.844 81.6465C47.8493 81.4872 47.7492 81.3972 47.6508 81.3037Z" fill="#1977F3"/>
<path d="M23.0072 91.1884C20.6406 90.555 18.5426 89.1899 17.0216 87.2937C16.5955 86.755 16.2058 86.1893 15.855 85.6001C15.8111 85.5256 15.6793 85.5741 15.7092 85.659C16.6263 87.957 18.601 89.8463 20.8164 90.9425C21.4693 91.2668 22.1523 91.5284 22.8561 91.7235C22.9281 91.7433 23.0051 91.734 23.0702 91.6978C23.1353 91.6616 23.1831 91.6014 23.2031 91.5304C23.2232 91.4595 23.2138 91.3836 23.177 91.3194C23.1403 91.2553 23.0792 91.2081 23.0072 91.1884Z" fill="#1977F3"/>
<path d="M16.0737 100.496C17.0758 99.8637 17.4833 98.7278 16.9839 97.9584C16.4845 97.189 15.2674 97.0775 14.2653 97.7095C13.2633 98.3414 12.8558 99.4773 13.3551 100.247C13.8545 101.016 15.0717 101.128 16.0737 100.496Z" fill="#2363A8"/>
<path d="M21.4154 96.9221C21.886 96.9221 22.2675 96.605 22.2675 96.2139C22.2675 95.8227 21.886 95.5056 21.4154 95.5056C20.9448 95.5056 20.5634 95.8227 20.5634 96.2139C20.5634 96.605 20.9448 96.9221 21.4154 96.9221Z" fill="#2363A8"/>
<path d="M123.453 112.982L125.167 114.887C125.519 112.584 125.87 110.256 126.726 108.087C129.277 101.638 135.823 97.6027 142.374 95.1142C148.925 92.6257 155.946 91.178 161.979 87.6383C163.692 86.6374 165.493 85.1221 165.368 83.1635C165.34 82.7644 165.237 82.3738 165.064 82.0119C161.919 82.2195 158.79 82.6285 155.698 83.2363C150.893 84.1974 146.174 85.7178 141.838 88.002C138.256 89.8786 134.995 92.2991 132.175 95.1748C129.405 98.0097 127.109 101.317 125.6 104.971C124.846 106.865 124.276 108.825 123.899 110.824C123.746 111.541 123.613 112.262 123.453 112.982Z" fill="#1977F3"/>
<path d="M120.925 110.184L123.247 112.754L123.453 112.982C123.613 112.262 123.751 111.541 123.899 110.823C124.276 108.824 124.846 106.864 125.6 104.971C127.109 101.317 129.405 98.0062 132.174 95.1679C134.993 92.2922 138.254 89.8717 141.837 87.9951C146.172 85.7109 150.891 84.1853 155.696 83.2294C158.788 82.6216 161.917 82.2126 165.062 82.005C165.025 81.922 164.984 81.8411 164.938 81.7626C164.528 81.0655 163.972 80.4626 163.307 79.9945C160.106 77.6272 155.742 77.4991 151.786 78.0896C139.419 79.9252 128.226 88.1925 122.962 99.376C121.376 102.749 120.29 106.514 120.925 110.184Z" fill="#1977F3"/>
<path d="M123.247 112.754L123.453 112.982C123.613 112.262 123.751 111.541 123.899 110.823C124.276 108.824 124.846 106.864 125.6 104.971C127.109 101.317 129.405 98.0062 132.174 95.1679C134.993 92.2922 138.254 89.8717 141.837 87.9951C146.173 85.7109 150.892 84.1853 155.697 83.2294C158.788 82.6216 161.917 82.2126 165.062 82.005C165.025 81.922 164.984 81.841 164.938 81.7626C161.219 82.0088 157.525 82.5444 153.892 83.3644C149.21 84.4398 144.627 86.0798 140.463 88.4678C136.954 90.4623 133.788 92.992 131.083 95.9628C128.428 98.9067 126.274 102.299 124.934 106.007C124.217 107.983 123.813 110.024 123.393 112.068C123.342 112.302 123.295 112.527 123.247 112.754Z" fill="white"/>
<path d="M118.718 115.881L119.271 118.271C120.649 116.489 122.04 114.688 123.783 113.249C128.964 108.978 136.381 108.573 143.075 109.46C149.769 110.347 156.366 112.341 163.117 112.115C165.031 112.052 167.257 111.595 168.077 109.889C168.241 109.54 168.338 109.164 168.362 108.779C165.613 107.518 162.783 106.434 159.892 105.534C155.387 104.149 150.695 103.283 145.965 103.22C142.062 103.165 138.175 103.716 134.445 104.852C130.773 105.976 127.284 107.716 124.294 110.108C122.769 111.359 121.367 112.751 120.109 114.264C119.647 114.807 119.192 115.346 118.718 115.881Z" fill="#1977F3"/>
<path d="M117.903 112.366L118.651 115.592L118.718 115.881C119.192 115.346 119.647 114.802 120.109 114.262C121.367 112.749 122.769 111.357 124.294 110.106C127.281 107.714 130.777 105.972 134.445 104.843C138.175 103.707 142.062 103.156 145.965 103.212C150.695 103.265 155.387 104.14 159.892 105.525C162.786 106.425 165.619 107.51 168.37 108.772C168.37 108.686 168.381 108.599 168.37 108.511C168.352 107.736 168.167 106.974 167.828 106.275C166.246 102.812 162.624 100.716 159.012 99.4037C147.724 95.303 134.401 97.1525 124.705 104.183C121.78 106.305 119.092 108.982 117.903 112.366Z" fill="#1977F3"/>
<path d="M118.651 115.592L118.718 115.881C119.192 115.346 119.647 114.802 120.109 114.262C121.367 112.749 122.769 111.357 124.294 110.106C127.281 107.714 130.777 105.972 134.445 104.843C138.175 103.707 142.062 103.156 145.965 103.212C150.695 103.266 155.387 104.14 159.892 105.525C162.787 106.425 165.619 107.51 168.371 108.772C168.371 108.686 168.381 108.599 168.371 108.511C165.119 107.021 161.754 105.785 158.305 104.815C153.854 103.584 149.217 102.872 144.586 102.983C140.69 103.062 136.832 103.749 133.154 105.018C129.533 106.282 126.127 108.163 123.24 110.676C121.708 112.014 120.406 113.55 119.09 115.086C118.945 115.256 118.799 115.424 118.651 115.592Z" fill="white"/>
<path d="M141.508 111.207C145.297 112.363 149.166 113.242 153.086 113.838C155.04 114.137 157.005 114.368 158.977 114.513C160.948 114.659 162.935 114.711 164.862 114.288C166.72 113.911 168.434 113.03 169.811 111.744C169.892 111.673 170.04 111.767 169.969 111.864C169.005 113.219 167.334 114.07 165.772 114.548C163.919 115.111 161.942 115.204 160.017 115.119C157.989 115.029 155.965 114.807 153.956 114.536C151.946 114.264 149.948 113.91 147.966 113.484C145.741 113.005 143.537 112.432 141.355 111.763C140.993 111.654 141.139 111.096 141.508 111.207Z" fill="#3877BA"/>
<path d="M138.432 79.4386C138.748 79.1179 139.106 78.8411 139.498 78.616C139.86 78.377 140.228 78.1461 140.603 77.9233C141.364 77.4787 142.15 77.0774 142.957 76.7215C144.556 76.0179 146.228 75.4894 147.943 75.1456C151.487 74.4442 155.144 74.5323 158.648 75.4037C160.631 75.8981 162.534 76.6628 164.302 77.6757C164.379 77.719 164.31 77.8298 164.233 77.7917C161.014 76.1939 157.484 75.2968 153.882 75.1612C150.425 75.0596 146.988 75.71 143.815 77.0661C142.928 77.4445 142.064 77.8723 141.227 78.3476C140.817 78.5785 140.416 78.8227 140.024 79.0801C139.614 79.3468 139.228 79.6741 138.78 79.8733C138.721 79.9008 138.654 79.9078 138.591 79.8931C138.527 79.8784 138.47 79.843 138.43 79.7925C138.39 79.742 138.368 79.6795 138.368 79.6152C138.368 79.551 138.391 79.4887 138.432 79.4386Z" fill="#1977F3"/>
<path d="M135.25 81.3037C135.317 81.2413 135.385 81.1807 135.454 81.1305C135.606 81.0027 135.765 80.8842 135.932 80.7755C136.086 80.6767 136.248 80.5904 136.417 80.5175C136.509 80.473 136.605 80.4371 136.705 80.4101C136.8 80.3876 136.896 80.3876 136.993 80.372C137.014 80.3668 137.036 80.3692 137.055 80.3786C137.074 80.3881 137.089 80.404 137.097 80.4235C137.106 80.443 137.106 80.4647 137.1 80.4848C137.093 80.5049 137.08 80.522 137.061 80.533C136.987 80.5833 136.922 80.6473 136.852 80.7062C136.782 80.7651 136.705 80.8067 136.629 80.8534C136.473 80.9521 136.327 81.0612 136.181 81.1721C136.048 81.2733 135.922 81.382 135.802 81.4976C135.74 81.5582 135.679 81.6206 135.626 81.6829C135.573 81.7452 135.563 81.7556 135.529 81.7903C135.47 81.852 135.389 81.8881 135.303 81.8907C135.237 81.8898 135.175 81.8638 135.128 81.8182C135.082 81.7726 135.056 81.711 135.055 81.6465C135.06 81.5788 135.08 81.5128 135.113 81.4536C135.147 81.3943 135.194 81.3431 135.25 81.3037Z" fill="#1977F3"/>
<path d="M159.894 91.1884C162.26 90.5549 164.357 89.1898 165.878 87.2937C166.304 86.7551 166.695 86.1893 167.046 85.6001C167.09 85.5256 167.222 85.5741 167.19 85.659C166.273 87.957 164.3 89.8463 162.085 90.9425C161.431 91.2671 160.748 91.5287 160.043 91.7235C159.971 91.743 159.894 91.7336 159.829 91.6972C159.764 91.6608 159.717 91.6005 159.697 91.5296C159.677 91.4586 159.687 91.3828 159.724 91.3188C159.761 91.2548 159.822 91.2079 159.894 91.1884Z" fill="#1977F3"/>
<path d="M169.54 100.24C170.039 99.4706 169.631 98.3346 168.629 97.7027C167.627 97.0708 166.41 97.1823 165.911 97.9516C165.411 98.721 165.819 99.857 166.821 100.489C167.823 101.121 169.04 101.009 169.54 100.24Z" fill="#2363A8"/>
<path d="M161.485 96.9221C161.956 96.9221 162.337 96.605 162.337 96.2139C162.337 95.8227 161.956 95.5056 161.485 95.5056C161.015 95.5056 160.633 95.8227 160.633 96.2139C160.633 96.605 161.015 96.9221 161.485 96.9221Z" fill="#2363A8"/>
<path d="M121.864 80.043C121.005 82.5245 117.333 83.8199 113.846 84.4779C111.657 84.889 109.434 85.0995 107.205 85.1065C107.117 85.1059 107.029 85.0989 106.942 85.0858C107.595 85.4927 107.398 86.8279 106.648 88.7224C104.758 93.502 99.3624 101.842 95.2725 107.855C92.4615 112.011 90.2531 115.041 90.2531 115.041C90.2531 115.041 90.3339 115.157 90.4639 115.374C91.2343 116.72 91.7202 118.205 91.8923 119.741C92.0186 120.867 91.9653 122.005 91.7341 123.115C91.459 124.411 90.9661 125.653 90.2759 126.789C87.9006 130.762 82.5457 135.102 71.423 138.738L68.2606 141.925L61.8305 148.403H0.556152C11.9477 141.04 45.2966 119.632 46.4438 114.375C48.0355 107.058 48.3254 93.7133 49.9575 89.4272C51.0942 86.4417 53.1744 81.624 55.1333 77.2566C57.0922 72.8892 58.951 68.9304 59.5957 67.7546C59.7416 67.476 59.865 67.1865 59.9647 66.8887C61.0188 63.9327 61.6548 57.7106 62.8653 57.191C64.2128 56.623 74.2199 64.3985 64.789 79.3208C64.789 79.3208 65.0209 85.8616 66.8973 84.8987C70.2072 83.2034 83.2045 67.4948 83.2045 67.4948C83.2045 67.4948 115.635 58.282 118.63 59.8666C120.914 61.0788 119.612 69.2456 106.017 74.0252C104.291 74.6283 102.531 75.1359 100.747 75.5457C100.747 75.5457 102.446 75.5076 104.883 75.5457C105.793 75.5647 106.805 75.5924 107.869 75.6409C114.407 75.944 122.948 76.9155 121.864 80.043Z" fill="#FFC6BF"/>
<path d="M71.423 138.749L70.6886 139.485C69.8822 136.877 62.7282 134.239 60.2756 133.522C56.9042 132.608 55.5918 128.175 53.5591 126.412C51.5264 124.649 47.7439 123.551 42.8703 126.909C39.9539 128.919 27.1745 139.765 17.0848 148.403H0.556152C11.9477 141.04 45.2966 119.632 46.4438 114.375C48.0355 107.058 48.3254 93.7133 49.9575 89.4272C51.0942 86.4417 53.1744 81.6241 55.1333 77.2566C51.4298 90.0714 53.3764 91.2421 51.4298 97.7655C50.5233 100.8 47.6508 113.086 51.0415 119.644C52.6719 122.794 57.6298 124.864 59.3726 127.983C60.3161 129.673 61.7584 131.811 66.0593 133.524C70.0737 135.121 71.1928 137.438 71.423 138.749Z" fill="#F0B2AA"/>
<path d="M90.276 126.795C88.4419 126.204 85.5132 126.123 80.9787 126.933C62.2803 130.275 63.4346 122.914 63.4346 122.914L74.8753 115.377H90.464C91.2089 116.645 93.528 121.371 90.276 126.795Z" fill="#F0B2AA"/>
<path d="M120.654 19.9363H64.724C62.0693 19.9363 59.9172 22.0576 59.9172 24.6744V117.868C59.9172 120.484 62.0693 122.606 64.724 122.606H120.654C123.309 122.606 125.461 120.484 125.461 117.868V24.6744C125.461 22.0576 123.309 19.9363 120.654 19.9363Z" fill="white"/>
<path d="M119.529 12.1799H65.8396C64.9729 12.1796 64.1146 12.3477 63.3138 12.6745C62.513 13.0013 61.7853 13.4803 61.1724 14.0844C60.5594 14.6884 60.0732 15.4055 59.7415 16.1947C59.4098 16.984 59.239 17.8299 59.239 18.6843V117.951C59.2393 118.883 59.4434 119.805 59.8375 120.653C60.2316 121.501 60.8065 122.256 61.5229 122.865L61.6617 122.983C62.8402 123.938 64.3193 124.458 65.8448 124.455H119.529C121.28 124.455 122.959 123.77 124.197 122.55C125.436 121.331 126.132 119.676 126.134 117.951V18.6843C126.133 16.9586 125.436 15.3039 124.198 14.0841C122.959 12.8644 121.28 12.1794 119.529 12.1799ZM124.733 115.415C124.733 119.187 121.453 122.245 117.405 122.245H67.9671C63.9263 122.245 60.6392 119.187 60.6392 115.415V25.1246C60.6392 22.7781 62.679 20.8766 65.1966 20.8766H120.187C122.704 20.8766 124.744 22.7815 124.744 25.1246L124.733 115.415Z" fill="#30334D"/>
<path d="M69.8823 16.7361C69.8823 17.1501 69.7577 17.5549 69.5243 17.8992C69.2909 18.2435 68.9592 18.5119 68.5711 18.6704C68.1829 18.8288 67.7559 18.8703 67.3438 18.7895C66.9318 18.7087 66.5533 18.5093 66.2563 18.2165C65.9592 17.9237 65.7569 17.5506 65.675 17.1445C65.593 16.7384 65.6351 16.3174 65.7958 15.9348C65.9566 15.5523 66.2289 15.2253 66.5782 14.9952C66.9275 14.7652 67.3381 14.6424 67.7582 14.6424C68.3214 14.6429 68.8614 14.8636 69.2596 15.2561C69.6579 15.6487 69.8818 16.1809 69.8823 16.7361Z" fill="white"/>
<path d="M69.1953 16.736C69.1953 17.0162 69.111 17.2901 68.9531 17.523C68.7952 17.756 68.5707 17.9376 68.3081 18.0448C68.0455 18.152 67.7566 18.18 67.4778 18.1254C67.199 18.0707 66.943 17.9358 66.742 17.7377C66.541 17.5396 66.4041 17.2872 66.3487 17.0124C66.2932 16.7376 66.3217 16.4528 66.4304 16.194C66.5392 15.9351 66.7234 15.7139 66.9597 15.5582C67.1961 15.4026 67.4739 15.3195 67.7582 15.3195C68.1392 15.3199 68.5044 15.4693 68.7738 15.7349C69.0433 16.0005 69.1948 16.3605 69.1953 16.736Z" fill="#30334D"/>
<path d="M74.2286 16.7361C74.2286 17.0164 74.1442 17.2905 73.986 17.5236C73.8279 17.7567 73.6031 17.9382 73.3402 18.0453C73.0773 18.1523 72.7881 18.1801 72.5092 18.125C72.2303 18.0699 71.9742 17.9345 71.7734 17.7359C71.5726 17.5372 71.4362 17.2843 71.3813 17.0092C71.3265 16.7341 71.3557 16.4491 71.4653 16.1904C71.5749 15.9316 71.7599 15.7107 71.9969 15.5557C72.2339 15.4007 72.5123 15.3185 72.7968 15.3195C73.177 15.3209 73.5412 15.4707 73.8096 15.7362C74.0779 16.0017 74.2286 16.3613 74.2286 16.7361Z" fill="white"/>
<path d="M98.2611 111.264H68.7369C68.4084 111.264 68.1431 111.133 68.1431 110.972C68.1431 110.811 68.4084 110.679 68.7369 110.679H98.2611C98.5896 110.679 98.8549 110.811 98.8549 110.972C98.8549 111.133 98.5896 111.264 98.2611 111.264Z" fill="#B8D9FF"/>
<path d="M113.38 117.059H84.8471C84.5186 117.059 84.2533 116.929 84.2533 116.768C84.2533 116.605 84.5186 116.475 84.8471 116.475H113.38C113.709 116.475 113.974 116.605 113.974 116.768C113.981 116.932 113.716 117.059 113.38 117.059Z" fill="#B8D9FF"/>
<path d="M113.616 111.264H101.643C101.314 111.264 101.049 111.133 101.049 110.972C101.049 110.811 101.314 110.679 101.643 110.679H113.616C113.945 110.679 114.212 110.811 114.212 110.972C114.212 111.133 113.945 111.264 113.616 111.264Z" fill="#B8D9FF"/>
<path d="M73.4892 114.006H68.7369C68.4084 114.006 68.1431 113.876 68.1431 113.713C68.1431 113.552 68.4084 113.422 68.7369 113.422H73.4892C73.8178 113.422 74.083 113.552 74.083 113.713C74.083 113.876 73.8178 114.006 73.4892 114.006Z" fill="#B8D9FF"/>
<path d="M79.9106 117.059H68.7369C68.4084 117.059 68.1431 116.929 68.1431 116.768C68.1431 116.605 68.4084 116.475 68.7369 116.475H79.9106C80.2391 116.475 80.5044 116.605 80.5044 116.768C80.5044 116.932 80.2391 117.059 79.9106 117.059Z" fill="#B8D9FF"/>
<path d="M113.616 114.006H107.904C107.576 114.006 107.311 113.876 107.311 113.713C107.311 113.552 107.576 113.422 107.904 113.422H113.616C113.944 113.422 114.212 113.552 114.212 113.713C114.212 113.876 113.944 114.006 113.616 114.006Z" fill="#B8D9FF"/>
<path d="M103.916 114.006H77.5631C77.2346 114.006 76.9675 113.876 76.9675 113.713C76.9675 113.552 77.2346 113.422 77.5631 113.422H103.916C104.245 113.422 104.51 113.552 104.51 113.713C104.51 113.876 104.245 114.006 103.916 114.006Z" fill="#B8D9FF"/>
<path d="M102.591 59.3078C108.059 53.9171 108.059 45.1771 102.591 39.7865C97.1216 34.3958 88.2548 34.3958 82.7859 39.7865C77.317 45.1771 77.317 53.9171 82.7859 59.3078C88.2548 64.6984 97.1216 64.6984 102.591 59.3078Z" fill="#1977F3"/>
<path d="M97.5044 47.6932C98.6536 44.9584 97.3361 41.8232 94.5616 40.6904C91.7872 39.5576 88.6064 40.8563 87.4572 43.5911C86.308 46.3258 87.6255 49.4611 90.3999 50.5939C93.1744 51.7266 96.3552 50.428 97.5044 47.6932Z" fill="white"/>
<path d="M97.4668 51.0451C97.2547 50.8819 96.9924 50.795 96.7234 50.7988C96.4544 50.8025 96.1948 50.8968 95.9875 51.0659C95.0324 51.8334 93.8412 52.2582 92.609 52.2708C91.3769 52.2834 90.177 51.8829 89.206 51.1351C88.9938 50.9699 88.7302 50.8823 88.4599 50.887C88.1896 50.8917 87.9292 50.9886 87.7232 51.1611C86.6269 52.0876 85.9575 53.4245 85.9575 55.1631V55.319C85.9575 55.7507 86.1315 56.1648 86.4412 56.47C86.7509 56.7753 87.171 56.9468 87.609 56.9468H97.769C98.207 56.9468 98.627 56.7753 98.9367 56.47C99.2464 56.1648 99.4204 55.7507 99.4204 55.319V55.1631C99.4204 53.35 98.6737 51.975 97.4668 51.0451Z" fill="white"/>
<path d="M104.965 76.1743H71.205C70.2988 76.1743 69.5641 76.8984 69.5641 77.7917V78.3701C69.5641 79.2634 70.2988 79.9876 71.205 79.9876H104.965C105.871 79.9876 106.606 79.2634 106.606 78.3701V77.7917C106.606 76.8984 105.871 76.1743 104.965 76.1743Z" fill="#B8D9FF"/>
<path d="M104.965 84.949H71.3069C70.4007 84.949 69.666 85.6731 69.666 86.5664V87.1448C69.666 88.0381 70.4007 88.7622 71.3069 88.7622H104.965C105.871 88.7622 106.606 88.0381 106.606 87.1448V86.5664C106.606 85.6731 105.871 84.949 104.965 84.949Z" fill="#B8D9FF"/>
<path d="M114.175 76.1743H110.211C109.305 76.1743 108.57 76.8984 108.57 77.7917V78.3701C108.57 79.2634 109.305 79.9876 110.211 79.9876H114.175C115.081 79.9876 115.816 79.2634 115.816 78.3701V77.7917C115.816 76.8984 115.081 76.1743 114.175 76.1743Z" fill="#B8D9FF"/>
<path d="M114.175 84.949H110.211C109.305 84.949 108.57 85.6731 108.57 86.5664V87.1448C108.57 88.0381 109.305 88.7622 110.211 88.7622H114.175C115.081 88.7622 115.816 88.0381 115.816 87.1448V86.5664C115.816 85.6731 115.081 84.949 114.175 84.949Z" fill="#B8D9FF"/>
<path d="M73.1305 85.6642L73.2429 86.4434C73.2442 86.4527 73.2475 86.4615 73.2527 86.4693C73.2579 86.4771 73.2648 86.4836 73.2729 86.4884C73.281 86.4933 73.2901 86.4962 73.2995 86.4971C73.3089 86.498 73.3184 86.4968 73.3273 86.4936L74.0757 86.2218C74.0894 86.2175 74.1043 86.218 74.1177 86.2232C74.1311 86.2283 74.1424 86.2379 74.1495 86.2502C74.1567 86.2625 74.1594 86.2769 74.1572 86.291C74.1549 86.305 74.1479 86.3178 74.1372 86.3274L73.5082 86.814C73.5009 86.8199 73.495 86.8273 73.4909 86.8356C73.4868 86.844 73.4847 86.8532 73.4847 86.8625C73.4847 86.8718 73.4868 86.881 73.4909 86.8894C73.495 86.8978 73.5009 86.9051 73.5082 86.911L74.1214 87.4149C74.1348 87.4234 74.1444 87.4368 74.1481 87.4521C74.1517 87.4675 74.1492 87.4836 74.141 87.4972C74.1327 87.5107 74.1195 87.5205 74.104 87.5246C74.0885 87.5286 74.0721 87.5266 74.0581 87.5188L73.3237 87.2262C73.3151 87.2226 73.3058 87.2211 73.2965 87.2217C73.2872 87.2222 73.2782 87.2248 73.27 87.2293C73.2619 87.2338 73.2549 87.2401 73.2496 87.2477C73.2443 87.2552 73.2408 87.2638 73.2394 87.2729L73.1024 88.0487C73.1024 88.0648 73.0959 88.0802 73.0844 88.0916C73.0728 88.103 73.0572 88.1094 73.0409 88.1094C73.0246 88.1094 73.0089 88.103 72.9974 88.0916C72.9859 88.0802 72.9794 88.0648 72.9794 88.0487L72.8652 87.2695C72.8642 87.2603 72.8611 87.2515 72.8561 87.2437C72.8511 87.2359 72.8443 87.2293 72.8364 87.2245C72.8284 87.2196 72.8194 87.2166 72.8101 87.2157C72.8008 87.2148 72.7914 87.216 72.7826 87.2192L72.0324 87.4911C72.0183 87.4964 72.0027 87.4966 71.9884 87.4915C71.9742 87.4865 71.9623 87.4765 71.9548 87.4635C71.9474 87.4505 71.9449 87.4353 71.9479 87.4207C71.9508 87.4061 71.959 87.393 71.971 87.3838L72.5999 86.8989C72.6073 86.893 72.6132 86.8856 72.6172 86.8773C72.6213 86.8689 72.6234 86.8597 72.6234 86.8504C72.6234 86.8411 72.6213 86.8319 72.6172 86.8235C72.6132 86.8151 72.6073 86.8077 72.5999 86.8019L71.9868 86.298C71.9756 86.2884 71.9681 86.2753 71.9658 86.2609C71.9634 86.2465 71.9662 86.2317 71.9737 86.2191C71.9812 86.2066 71.993 86.197 72.0069 86.1921C72.0209 86.1872 72.0361 86.1873 72.05 86.1923L72.7914 86.4867C72.8002 86.4899 72.8095 86.4912 72.8188 86.4905C72.8281 86.4898 72.8371 86.4872 72.8453 86.4827C72.8535 86.4783 72.8606 86.4722 72.8661 86.4648C72.8717 86.4574 72.8756 86.449 72.8775 86.44L73.0128 85.6642C73.0174 85.6525 73.0255 85.6425 73.036 85.6354C73.0465 85.6284 73.0589 85.6246 73.0716 85.6246C73.0843 85.6246 73.0967 85.6284 73.1072 85.6354C73.1177 85.6425 73.1258 85.6525 73.1305 85.6642Z" fill="white"/>
<path d="M76.662 85.6642L76.7744 86.4434C76.776 86.4525 76.7795 86.4612 76.7848 86.4688C76.79 86.4764 76.7969 86.4828 76.8049 86.4876C76.8129 86.4924 76.8219 86.4954 76.8312 86.4964C76.8404 86.4975 76.8499 86.4965 76.8587 86.4937L77.6089 86.2218C77.623 86.2152 77.6391 86.2142 77.6539 86.2189C77.6688 86.2236 77.6812 86.2337 77.6888 86.2471C77.6964 86.2605 77.6985 86.2763 77.6948 86.2912C77.6911 86.3061 77.6817 86.319 77.6687 86.3274L77.0415 86.814C77.0341 86.8199 77.0282 86.8273 77.0241 86.8357C77.0201 86.844 77.018 86.8532 77.018 86.8625C77.018 86.8718 77.0201 86.881 77.0241 86.8894C77.0282 86.8978 77.0341 86.9052 77.0415 86.911L77.6546 87.4149C77.6681 87.4234 77.6777 87.4368 77.6813 87.4521C77.685 87.4675 77.6824 87.4837 77.6742 87.4972C77.666 87.5107 77.6527 87.5205 77.6372 87.5246C77.6218 87.5286 77.6053 87.5266 77.5914 87.5188L76.85 87.2262C76.8412 87.2227 76.8318 87.2212 76.8224 87.2217C76.813 87.2222 76.8039 87.2248 76.7956 87.2293C76.7874 87.2338 76.7802 87.24 76.7747 87.2476C76.7692 87.2551 76.7655 87.2638 76.7639 87.2729L76.6286 88.0488C76.6261 88.0633 76.6185 88.0765 76.6071 88.086C76.5956 88.0955 76.5812 88.1007 76.5662 88.1007C76.5513 88.1007 76.5368 88.0955 76.5254 88.086C76.514 88.0765 76.5063 88.0633 76.5039 88.0488L76.3914 87.2695C76.3902 87.2602 76.3868 87.2514 76.3816 87.2436C76.3764 87.2358 76.3695 87.2293 76.3615 87.2245C76.3534 87.2196 76.3443 87.2167 76.3349 87.2158C76.3255 87.2149 76.316 87.2161 76.3071 87.2193L75.5569 87.4911C75.5429 87.4956 75.5278 87.4951 75.5141 87.4897C75.5004 87.4844 75.4891 87.4745 75.482 87.4618C75.475 87.4491 75.4726 87.4343 75.4754 87.4201C75.4781 87.4059 75.4858 87.393 75.4972 87.3838L76.1261 86.8989C76.1335 86.893 76.1394 86.8857 76.1435 86.8773C76.1475 86.8689 76.1496 86.8597 76.1496 86.8504C76.1496 86.8411 76.1475 86.8319 76.1435 86.8235C76.1394 86.8151 76.1335 86.8078 76.1261 86.8019L75.5112 86.298C75.4993 86.2885 75.4913 86.2751 75.4887 86.2602C75.4861 86.2454 75.489 86.2301 75.4969 86.2172C75.5049 86.2043 75.5173 86.1947 75.5319 86.1901C75.5464 86.1855 75.5622 86.1863 75.5762 86.1923L76.3176 86.4867C76.3263 86.4899 76.3355 86.4912 76.3447 86.4905C76.3539 86.4898 76.3628 86.4871 76.3708 86.4827C76.3789 86.4782 76.3858 86.4721 76.3912 86.4647C76.3966 86.4574 76.4002 86.4489 76.402 86.44L76.539 85.6642C76.539 85.6481 76.5455 85.6327 76.557 85.6213C76.5685 85.6099 76.5842 85.6035 76.6005 85.6035C76.6168 85.6035 76.6324 85.6099 76.644 85.6213C76.6555 85.6327 76.662 85.6481 76.662 85.6642Z" fill="white"/>
<path d="M80.1949 85.6642L80.3074 86.4435C80.3086 86.4527 80.312 86.4615 80.3172 86.4693C80.3224 86.4771 80.3293 86.4836 80.3373 86.4885C80.3454 86.4933 80.3545 86.4962 80.3639 86.4971C80.3733 86.4981 80.3828 86.4969 80.3917 86.4937L81.1401 86.2218C81.1539 86.2175 81.1687 86.218 81.1821 86.2232C81.1956 86.2284 81.2068 86.2379 81.214 86.2502C81.2212 86.2626 81.2238 86.2769 81.2216 86.291C81.2193 86.305 81.2123 86.3179 81.2016 86.3274L80.5727 86.814C80.5653 86.8199 80.5594 86.8273 80.5553 86.8357C80.5513 86.8441 80.5492 86.8532 80.5492 86.8625C80.5492 86.8718 80.5513 86.881 80.5553 86.8894C80.5594 86.8978 80.5653 86.9052 80.5727 86.911L81.1876 87.415C81.1981 87.4248 81.2049 87.4379 81.2068 87.4521C81.2087 87.4663 81.2056 87.4808 81.1979 87.493C81.1903 87.5052 81.1787 87.5144 81.1649 87.5191C81.1512 87.5238 81.1362 87.5237 81.1226 87.5189L80.3812 87.2262C80.3726 87.2227 80.3633 87.2211 80.3539 87.2217C80.3446 87.2222 80.3356 87.2248 80.3275 87.2294C80.3193 87.2339 80.3124 87.2401 80.3071 87.2477C80.3017 87.2552 80.2983 87.2639 80.2968 87.2729L80.1598 88.0488C80.1598 88.0648 80.1533 88.0803 80.1418 88.0916C80.1303 88.103 80.1146 88.1094 80.0983 88.1094C80.082 88.1094 80.0664 88.103 80.0548 88.0916C80.0433 88.0803 80.0368 88.0648 80.0368 88.0488L79.9244 87.2695C79.9231 87.2603 79.9198 87.2514 79.9146 87.2436C79.9094 87.2358 79.9025 87.2293 79.8944 87.2245C79.8863 87.2197 79.8772 87.2167 79.8678 87.2158C79.8584 87.2149 79.8489 87.2161 79.8401 87.2193L79.0899 87.4911C79.0759 87.4956 79.0607 87.4951 79.0471 87.4897C79.0334 87.4844 79.0221 87.4745 79.015 87.4618C79.0079 87.4491 79.0056 87.4343 79.0083 87.4201C79.0111 87.4059 79.0188 87.393 79.0301 87.3838L79.6573 86.8989C79.6647 86.8931 79.6706 86.8857 79.6747 86.8773C79.6787 86.8689 79.6808 86.8597 79.6808 86.8504C79.6808 86.8411 79.6787 86.8319 79.6747 86.8235C79.6706 86.8151 79.6647 86.8078 79.6573 86.8019L79.0442 86.298C79.033 86.2884 79.0256 86.2753 79.0232 86.2609C79.0208 86.2465 79.0236 86.2317 79.0311 86.2192C79.0386 86.2066 79.0504 86.197 79.0643 86.1921C79.0783 86.1872 79.0935 86.1873 79.1074 86.1924L79.8488 86.4867C79.8576 86.4899 79.8669 86.4912 79.8762 86.4905C79.8855 86.4898 79.8946 86.4872 79.9027 86.4828C79.9109 86.4783 79.918 86.4722 79.9235 86.4648C79.9291 86.4574 79.933 86.449 79.9349 86.44L80.0702 85.6642C80.0727 85.6496 80.0803 85.6364 80.0917 85.6269C80.1031 85.6174 80.1176 85.6122 80.1326 85.6122C80.1475 85.6122 80.162 85.6174 80.1734 85.6269C80.1848 85.6364 80.1925 85.6496 80.1949 85.6642Z" fill="white"/>
<path d="M83.7263 85.6642L83.8405 86.4434C83.8419 86.4525 83.8452 86.4611 83.8503 86.4687C83.8553 86.4763 83.862 86.4828 83.8699 86.4876C83.8778 86.4923 83.8866 86.4954 83.8958 86.4964C83.905 86.4975 83.9143 86.4965 83.9231 86.4937L84.6733 86.2218C84.6874 86.2152 84.7035 86.2142 84.7183 86.2189C84.7331 86.2236 84.7456 86.2337 84.7532 86.2471C84.7608 86.2605 84.7629 86.2763 84.7592 86.2912C84.7554 86.3061 84.7461 86.319 84.733 86.3274L84.1058 86.814C84.0985 86.8199 84.0926 86.8273 84.0885 86.8357C84.0844 86.844 84.0823 86.8532 84.0823 86.8625C84.0823 86.8718 84.0844 86.881 84.0885 86.8894C84.0926 86.8978 84.0985 86.9052 84.1058 86.911L84.719 87.4149C84.7324 87.4234 84.742 87.4368 84.7457 87.4521C84.7494 87.4675 84.7468 87.4837 84.7386 87.4972C84.7303 87.5107 84.7171 87.5205 84.7016 87.5246C84.6861 87.5286 84.6697 87.5266 84.6557 87.5188L83.9143 87.2262C83.9056 87.2227 83.8962 87.2212 83.8868 87.2217C83.8774 87.2222 83.8682 87.2248 83.86 87.2293C83.8517 87.2338 83.8446 87.24 83.8391 87.2476C83.8336 87.2551 83.8299 87.2638 83.8282 87.2729L83.693 88.0488C83.6905 88.0633 83.6828 88.0765 83.6714 88.086C83.66 88.0955 83.6455 88.1007 83.6306 88.1007C83.6156 88.1007 83.6012 88.0955 83.5898 88.086C83.5783 88.0765 83.5707 88.0633 83.5682 88.0488L83.4558 87.2695C83.4545 87.2602 83.4512 87.2514 83.446 87.2436C83.4408 87.2358 83.4339 87.2293 83.4258 87.2245C83.4177 87.2196 83.4086 87.2167 83.3992 87.2158C83.3898 87.2149 83.3803 87.2161 83.3715 87.2193L82.623 87.4911C82.6089 87.4965 82.5933 87.4966 82.579 87.4915C82.5648 87.4865 82.5529 87.4765 82.5454 87.4635C82.538 87.4505 82.5355 87.4353 82.5384 87.4207C82.5414 87.4061 82.5496 87.393 82.5615 87.3838L83.1905 86.8989C83.1978 86.893 83.2038 86.8857 83.2078 86.8773C83.2119 86.8689 83.214 86.8597 83.214 86.8504C83.214 86.8411 83.2119 86.8319 83.2078 86.8235C83.2038 86.8151 83.1978 86.8078 83.1905 86.8019L82.5773 86.298C82.5661 86.2884 82.5587 86.2753 82.5563 86.2609C82.5539 86.2465 82.5568 86.2317 82.5643 86.2192C82.5718 86.2066 82.5836 86.197 82.5975 86.1921C82.6114 86.1872 82.6267 86.1873 82.6406 86.1923L83.382 86.4867C83.3906 86.4899 83.3999 86.4912 83.409 86.4905C83.4182 86.4898 83.4272 86.4871 83.4352 86.4827C83.4432 86.4782 83.4502 86.4721 83.4556 86.4647C83.4609 86.4574 83.4646 86.4489 83.4663 86.44L83.6034 85.6642C83.6034 85.6481 83.6098 85.6327 83.6214 85.6213C83.6329 85.6099 83.6485 85.6035 83.6648 85.6035C83.6812 85.6035 83.6968 85.6099 83.7083 85.6213C83.7199 85.6327 83.7263 85.6481 83.7263 85.6642Z" fill="white"/>
<path d="M87.2594 85.6641L87.3719 86.4434C87.3731 86.4527 87.3765 86.4615 87.3817 86.4693C87.3868 86.4771 87.3937 86.4836 87.4018 86.4884C87.4099 86.4932 87.419 86.4962 87.4284 86.4971C87.4378 86.498 87.4473 86.4968 87.4562 86.4936L88.2064 86.2218C88.2205 86.2152 88.2366 86.2142 88.2514 86.2189C88.2662 86.2236 88.2787 86.2337 88.2863 86.2471C88.2939 86.2605 88.296 86.2763 88.2922 86.2912C88.2885 86.3061 88.2792 86.319 88.2661 86.3274L87.6371 86.814C87.6298 86.8199 87.6239 86.8272 87.6198 86.8356C87.6158 86.844 87.6137 86.8532 87.6137 86.8625C87.6137 86.8718 87.6158 86.881 87.6198 86.8894C87.6239 86.8978 87.6298 86.9051 87.6371 86.911L88.252 87.4149C88.2655 87.4234 88.2751 87.4368 88.2788 87.4521C88.2824 87.4675 88.2799 87.4836 88.2716 87.4972C88.2634 87.5107 88.2501 87.5205 88.2347 87.5246C88.2192 87.5286 88.2027 87.5266 88.1888 87.5188L87.4474 87.2262C87.4387 87.2223 87.4292 87.2205 87.4197 87.2209C87.4102 87.2213 87.4009 87.2238 87.3925 87.2284C87.3842 87.2329 87.377 87.2393 87.3716 87.247C87.3662 87.2547 87.3627 87.2636 87.3613 87.2729L87.226 88.0487C87.2236 88.0633 87.2159 88.0765 87.2045 88.086C87.1931 88.0955 87.1786 88.1007 87.1637 88.1007C87.1487 88.1007 87.1342 88.0955 87.1228 88.086C87.1114 88.0765 87.1038 88.0633 87.1013 88.0487L86.9889 87.2695C86.9876 87.2602 86.9842 87.2514 86.979 87.2436C86.9739 87.2358 86.967 87.2293 86.9589 87.2244C86.9508 87.2196 86.9417 87.2167 86.9323 87.2158C86.9229 87.2149 86.9134 87.216 86.9045 87.2192L86.1491 87.4894C86.1351 87.4938 86.1199 87.4933 86.1063 87.488C86.0926 87.4826 86.0813 87.4727 86.0742 87.46C86.0671 87.4473 86.0648 87.4326 86.0675 87.4183C86.0703 87.4041 86.078 87.3913 86.0893 87.382L86.7183 86.8971C86.7256 86.8913 86.7315 86.8839 86.7356 86.8755C86.7397 86.8671 86.7418 86.8579 86.7418 86.8486C86.7418 86.8393 86.7397 86.8302 86.7356 86.8218C86.7315 86.8134 86.7256 86.806 86.7183 86.8002L86.1052 86.2962C86.094 86.2867 86.0865 86.2736 86.0841 86.2592C86.0817 86.2448 86.0846 86.23 86.0921 86.2174C86.0996 86.2048 86.1114 86.1953 86.1253 86.1904C86.1393 86.1855 86.1545 86.1855 86.1684 86.1906L86.9098 86.485C86.9185 86.4882 86.9279 86.4895 86.9372 86.4888C86.9465 86.4881 86.9555 86.4854 86.9637 86.481C86.9718 86.4766 86.9789 86.4704 86.9845 86.4631C86.9901 86.4557 86.9939 86.4472 86.9959 86.4382L87.1312 85.6624C87.1314 85.6456 87.1384 85.6297 87.1506 85.618C87.1628 85.6063 87.1792 85.5998 87.1962 85.6001C87.2132 85.6003 87.2294 85.6072 87.2412 85.6192C87.2531 85.6312 87.2596 85.6474 87.2594 85.6641Z" fill="white"/>
<path d="M72.7705 78.5277C73.0209 78.5277 73.2238 78.3277 73.2238 78.0809C73.2238 77.8342 73.0209 77.6342 72.7705 77.6342C72.5202 77.6342 72.3173 77.8342 72.3173 78.0809C72.3173 78.3277 72.5202 78.5277 72.7705 78.5277Z" fill="white"/>
<path d="M74.2356 78.5277C74.486 78.5277 74.6889 78.3277 74.6889 78.0809C74.6889 77.8342 74.486 77.6342 74.2356 77.6342C73.9853 77.6342 73.7823 77.8342 73.7823 78.0809C73.7823 78.3277 73.9853 78.5277 74.2356 78.5277Z" fill="white"/>
<path d="M75.7008 78.5277C75.9512 78.5277 76.1541 78.3277 76.1541 78.0809C76.1541 77.8342 75.9512 77.6342 75.7008 77.6342C75.4505 77.6342 75.2476 77.8342 75.2476 78.0809C75.2476 78.3277 75.4505 78.5277 75.7008 78.5277Z" fill="white"/>
<path d="M76.7112 78.0809C76.7108 77.9921 76.7373 77.9051 76.7871 77.8311C76.837 77.7571 76.908 77.6993 76.9913 77.6652C77.0745 77.631 77.1661 77.622 77.2545 77.6392C77.343 77.6565 77.4242 77.6992 77.488 77.7621C77.5517 77.8249 77.5951 77.905 77.6126 77.9921C77.6301 78.0793 77.6209 78.1696 77.5863 78.2517C77.5516 78.3337 77.493 78.4037 77.4179 78.4529C77.3428 78.502 77.2546 78.5281 77.1644 78.5277C77.0444 78.5273 76.9294 78.4801 76.8445 78.3964C76.7595 78.3127 76.7116 78.1993 76.7112 78.0809Z" fill="white"/>
<path d="M78.6297 78.5277C78.88 78.5277 79.0829 78.3277 79.0829 78.0809C79.0829 77.8342 78.88 77.6342 78.6297 77.6342C78.3793 77.6342 78.1764 77.8342 78.1764 78.0809C78.1764 78.3277 78.3793 78.5277 78.6297 78.5277Z" fill="white"/>
<path d="M80.0949 78.5277C80.3452 78.5277 80.5481 78.3277 80.5481 78.0809C80.5481 77.8342 80.3452 77.6342 80.0949 77.6342C79.8445 77.6342 79.6416 77.8342 79.6416 78.0809C79.6416 78.3277 79.8445 78.5277 80.0949 78.5277Z" fill="white"/>
<path d="M81.5583 78.5277C81.8086 78.5277 82.0115 78.3277 82.0115 78.0809C82.0115 77.8342 81.8086 77.6342 81.5583 77.6342C81.3079 77.6342 81.105 77.8342 81.105 78.0809C81.105 78.3277 81.3079 78.5277 81.5583 78.5277Z" fill="white"/>
<path d="M83.0233 78.5277C83.2737 78.5277 83.4766 78.3277 83.4766 78.0809C83.4766 77.8342 83.2737 77.6342 83.0233 77.6342C82.773 77.6342 82.5701 77.8342 82.5701 78.0809C82.5701 78.3277 82.773 78.5277 83.0233 78.5277Z" fill="white"/>
<path d="M101.211 93.1401H83.3766C82.6226 93.1401 82.0115 93.7425 82.0115 94.4856V97.3447C82.0115 98.0878 82.6226 98.6903 83.3766 98.6903H101.211C101.964 98.6903 102.576 98.0878 102.576 97.3447V94.4856C102.576 93.7425 101.964 93.1401 101.211 93.1401Z" fill="#80BBFF"/>
<path d="M97.6742 101.077H86.8396C86.6969 101.077 86.5813 101.191 86.5813 101.331V101.38C86.5813 101.52 86.6969 101.634 86.8396 101.634H97.6742C97.8168 101.634 97.9324 101.52 97.9324 101.38V101.331C97.9324 101.191 97.8168 101.077 97.6742 101.077Z" fill="#B8D9FF"/>
<path d="M101.541 103.175H82.9692C82.8266 103.175 82.7109 103.289 82.7109 103.43V103.478C82.7109 103.619 82.8266 103.733 82.9692 103.733H101.541C101.684 103.733 101.799 103.619 101.799 103.478V103.43C101.799 103.289 101.684 103.175 101.541 103.175Z" fill="#B8D9FF"/>
<path d="M147.961 122.716C151.668 98.6037 138.021 101.181 121.158 93.7843C113.459 88.4852 113.38 78.216 104.705 73.0174C102.801 71.819 100.063 69.4154 97.8128 70.9254C96.7991 71.9783 97.5669 73.22 97.7812 74.4616C98.9987 78.429 102.402 81.0162 104.644 84.3325C109.317 93.3773 111.306 104.421 107.064 114.006C106.483 115.135 105.905 117.104 104.858 117.542C96.3388 114.759 90.109 92.9132 78.7157 97.7465C76.5002 98.6626 82.8496 106.114 84.6117 108.502C86.5566 113.626 88.3398 118.642 91.7341 123.118C93.8546 126.498 95.8205 129.998 98.0816 133.24C100.717 137.05 103.927 140.534 107.987 142.884C110.281 144.069 111.775 146.039 112.838 148.4H149.296C147.59 139.864 146.952 130.992 147.961 122.716Z" fill="#FFC6BF"/>
<path d="M85.9733 111.828C85.9733 111.85 85.9733 111.873 85.9838 111.897L85.7853 111.677C85.8784 111.706 85.982 111.758 85.9733 111.828Z" fill="#F0B2AA"/>
<path d="M117.639 148.403H112.84C111.785 146.043 110.283 144.074 107.989 142.888C103.925 140.534 100.721 137.052 98.0836 133.244C93.9778 126.278 88.4209 119.679 85.9858 111.898C94.3731 120.12 97.4266 133.836 109.681 138.787C112.826 139.469 115.61 143.414 117.639 148.403Z" fill="#F0B2AA"/>
<path d="M112.212 107.396C110.25 111.588 110.534 116.042 105.158 117.521C111.708 108.454 110.18 91.2785 103.015 82.1644C100.446 79.5252 97.8814 76.3527 97.4528 72.6797C99.7261 79.5027 107.216 81.5236 108.451 88.8142C109.125 92.9877 114.175 103.205 112.212 107.396Z" fill="#F0B2AA"/>
<path d="M141.457 101.284C138.119 101.499 136.634 99.7258 133.287 99.5526C128.303 99.9786 124.459 97.0278 121.155 93.7738C127.33 97.5733 135.318 97.4901 141.457 101.284Z" fill="#F0B2AA"/>
<path d="M84.8807 103.151C84.9457 104.041 81.9239 105.027 81.9239 105.027C72.934 94.477 83.1414 96.7196 84.8807 103.151Z" fill="#FEDCD8"/>
<path d="M105.148 73.3481C103.792 74.3542 101.546 75.7725 99.9581 74.8911C99.1535 74.0252 97.2842 71.8398 97.813 70.9254C99.9212 69.5366 101.819 70.6483 105.148 73.3481Z" fill="#FEDCD8"/>
<g style="mix-blend-mode:multiply">
<path d="M76.9184 12.6475C76.6152 9.58304 77.2258 6.49801 78.6752 3.7706C76.704 3.34633 74.2831 2.27958 71.8006 0.68985L65.6357 1.61286H65.6217L59.4041 0.710631C56.9322 2.31075 54.5095 3.38616 52.54 3.81736C54.0079 6.53679 54.6369 9.61997 54.3496 12.6873C54.1423 14.6874 53.5414 16.6285 52.5804 18.402C52.5804 19.2592 52.6788 23.8223 56.4262 27.5023C57.6373 28.6953 59.0752 29.6411 60.6576 30.2856C62.24 30.9302 63.9359 31.2607 65.648 31.2584H65.6726C67.3885 31.2584 69.0875 30.9241 70.6719 30.2747C72.2563 29.6253 73.6949 28.6737 74.905 27.4746C78.6383 23.7825 78.7174 19.2177 78.7156 18.3604C77.7445 16.5898 77.1339 14.6491 76.9184 12.6475Z" fill="#C8CBE3"/>
</g>
<path d="M41.5129 59.9116C41.5028 59.9136 41.4937 59.9191 41.4872 59.927C41.4807 59.9349 41.4772 59.9449 41.4772 59.9551C41.4772 59.9654 41.4807 59.9753 41.4872 59.9832C41.4937 59.9912 41.5028 59.9966 41.5129 59.9987C41.523 59.9966 41.532 59.9912 41.5385 59.9832C41.545 59.9753 41.5486 59.9654 41.5486 59.9551C41.5486 59.9449 41.545 59.9349 41.5385 59.927C41.532 59.9191 41.523 59.9136 41.5129 59.9116Z" fill="#D94559"/>
<path d="M60.6217 41.7509C56.472 38.6338 51.0591 37.3662 45.8641 37.7957C42.5067 38.0727 39.1563 39.0564 36.4191 40.9942C33.6819 42.932 31.6071 45.8846 31.1327 49.1749C30.6584 52.4652 31.9374 56.0377 34.6464 58.0154C37.5084 60.1073 41.3928 60.1921 44.9171 59.6778C49.3778 59.0284 53.6891 57.5686 58.1569 56.9677C60.0051 56.7183 61.957 56.6317 63.6646 57.3729C65.3723 58.1141 66.7269 58.9851 67.282 61.4355C70.0403 50.9447 64.7715 44.8629 60.6217 41.7509Z" fill="#D94559"/>
<path d="M53.1409 59.9826C52.7184 60.1056 52.3046 60.256 51.9023 60.4328C51.4894 60.5852 51.0678 60.722 50.6496 60.8606C49.8063 61.1359 48.9666 61.4113 48.1057 61.6312C46.3939 62.0757 44.6348 62.3192 42.865 62.3568C39.7518 62.4053 36.6246 61.7178 33.9453 60.1246C32.475 59.2522 31.1807 58.1197 30.1277 56.7841C30.0785 56.72 29.9695 56.7841 30.0152 56.8482C30.8348 58.1072 31.8852 59.2048 33.1126 60.0848C34.3692 60.9867 35.757 61.696 37.2289 62.1888C40.5459 63.3179 44.0965 63.2989 47.4978 62.5352C48.5112 62.3159 49.5089 62.0313 50.4845 61.6831C50.9641 61.51 51.4315 61.3091 51.89 61.0996C52.3485 60.89 52.8949 60.6995 53.3148 60.3861C53.3607 60.3583 53.3949 60.3152 53.4113 60.2646C53.4277 60.2141 53.4251 60.1594 53.4041 60.1105C53.383 60.0617 53.3449 60.0219 53.2966 59.9984C53.2483 59.9749 53.193 59.9693 53.1409 59.9826Z" fill="#D94559"/>
<path d="M69.3707 49.1748C68.9533 47.4747 68.1748 45.8811 67.0868 44.4992C66.5426 43.8074 65.9241 43.1757 65.2421 42.615C64.9223 42.3518 64.592 42.0955 64.2477 41.8721C63.8939 41.6136 63.5039 41.4071 63.0899 41.2591C63.0671 41.2508 63.0421 41.2507 63.0193 41.259C62.9964 41.2672 62.9774 41.2833 62.9655 41.3042C62.9536 41.3251 62.9497 41.3495 62.9545 41.373C62.9593 41.3964 62.9724 41.4175 62.9915 41.4323C63.2902 41.6972 63.6591 41.9102 63.9806 42.1475C65.014 42.8967 65.9226 43.7999 66.6739 44.8247C67.6772 46.1747 68.386 47.7148 68.7558 49.348C68.8401 49.7428 69.4673 49.5749 69.3707 49.1748Z" fill="#D94559"/>
<path d="M57.1608 58.9055C56.9555 58.8347 56.7345 58.8197 56.5213 58.8622C56.3194 58.8803 56.1191 58.9133 55.9222 58.9609C55.7322 59.0089 55.5469 59.0738 55.3688 59.1548C55.1652 59.2224 54.9833 59.3419 54.8417 59.5012C54.8197 59.5391 54.8081 59.5821 54.8081 59.6258C54.8081 59.6695 54.8197 59.7125 54.8417 59.7505C54.8637 59.7884 54.8954 59.8201 54.9336 59.8423C54.9718 59.8644 55.0152 59.8764 55.0596 59.877C55.128 59.8729 55.1952 59.8571 55.2581 59.8302C55.3003 59.8112 55.3389 59.7887 55.3793 59.7679C55.4514 59.7332 55.4971 59.7142 55.555 59.6899C55.7186 59.6261 55.8858 59.5718 56.0557 59.5272C56.1383 59.5081 56.2226 59.4908 56.3052 59.4752C56.3738 59.4628 56.443 59.4541 56.5125 59.4492C56.5969 59.4492 56.6882 59.4388 56.7673 59.4388C56.8724 59.4509 56.9789 59.4444 57.0817 59.4198C57.136 59.4044 57.1845 59.3738 57.2213 59.3316C57.2581 59.2895 57.2817 59.2377 57.2891 59.1825C57.2968 59.1291 57.2888 59.0746 57.2661 59.0255C57.2434 58.9764 57.2068 58.9347 57.1608 58.9055Z" fill="#D94559"/>
<path d="M35.9255 54.3354C35.8361 54.3207 35.7492 54.2939 35.6672 54.2558C35.5704 54.21 35.4906 54.1355 35.4388 54.0428C35.4388 53.944 35.4845 53.8938 35.5776 53.8938C35.6991 53.9014 35.8182 53.9308 35.929 53.9804C36.0333 54.0391 36.1499 54.0735 36.2698 54.0808C36.3664 54.0782 36.4614 54.0564 36.5492 54.0169C36.637 53.9773 36.7159 53.9207 36.7811 53.8505C36.9465 53.6863 37.07 53.4857 37.1412 53.2652C37.2961 52.8618 37.3816 52.4357 37.3942 52.0045C37.3931 51.587 37.334 51.1715 37.2186 50.7698C37.1032 50.3642 36.9461 49.9714 36.7495 49.5974C36.7073 49.5056 36.6353 49.3688 36.5351 49.1852C36.3231 48.7696 36.1627 48.4452 36.0537 48.212C35.9368 47.9622 35.8393 47.7041 35.7621 47.4397C35.6418 47.0467 35.5826 46.6379 35.5864 46.2275C35.586 45.9582 35.6312 45.6907 35.7199 45.4361C35.8051 45.1867 35.9504 44.9615 36.1433 44.7797C36.3318 44.5993 36.5834 44.497 36.8461 44.494C36.9764 44.5033 37.1024 44.5437 37.2133 44.6117C37.3556 44.6914 37.4276 44.7676 37.4276 44.8421C37.4276 44.9165 37.403 44.9425 37.3521 44.9425C37.2809 44.9368 37.2118 44.9155 37.15 44.8802C37.0844 44.8419 37.0101 44.8204 36.9339 44.8178C36.8383 44.8177 36.7437 44.8365 36.6555 44.8731C36.5674 44.9097 36.4877 44.9633 36.4209 45.0308C36.2712 45.1747 36.1607 45.3533 36.0994 45.5503C36.038 45.7353 36.0078 45.9289 36.0098 46.1235C36.0115 46.4621 36.0539 46.7993 36.1363 47.1279C36.2162 47.4615 36.331 47.7859 36.4789 48.096L36.9216 49.0051L37.0481 49.2684C37.2238 49.6251 37.3626 49.9212 37.4592 50.1533C37.5629 50.4083 37.6452 50.6712 37.7052 50.9395C37.7957 51.307 37.8428 51.6835 37.8458 52.0617C37.8381 52.5749 37.7081 53.0791 37.4663 53.5336C37.3464 53.7661 37.1724 53.9672 36.9585 54.1207C36.7549 54.2681 36.5084 54.3465 36.2558 54.3441C36.1456 54.3493 36.0352 54.3464 35.9255 54.3354Z" fill="white"/>
<path d="M39.9066 53.9562C39.8722 53.9547 39.8378 53.9588 39.8047 53.9683H39.7028C39.5183 53.9683 39.3989 53.9268 39.3514 53.8436C39.3528 53.8122 39.3629 53.7817 39.3805 53.7555C39.3981 53.7292 39.4227 53.7082 39.4516 53.6947L39.5148 53.6324H39.882L39.9329 53.5821L39.9575 53.4696L39.9716 53.3189C39.9716 52.8133 39.9575 52.3595 39.9329 51.9595L39.9083 51.4989L39.882 50.588C39.882 50.2636 39.8949 49.777 39.9206 49.1281L39.9452 47.6821C39.9524 47.1988 39.9313 46.7154 39.882 46.2344C39.758 46.204 39.6302 46.1912 39.5025 46.1963L39.3637 46.2102C39.309 46.218 39.2538 46.222 39.1986 46.2223C39.0387 46.2223 38.9579 46.1513 38.9579 46.0093C38.9579 45.9764 38.9965 45.9435 39.0721 45.9106C39.1313 45.8815 39.1958 45.8644 39.2618 45.8604C39.5834 45.8607 39.9048 45.8774 40.2246 45.9106C40.423 45.9197 40.6189 45.9576 40.8061 46.0231C40.9572 46.0716 41.0345 46.1426 41.0345 46.2344C41.0273 46.2698 41.0143 46.3037 40.9958 46.3348L40.7042 46.3591C40.593 46.2963 40.4643 46.2702 40.337 46.2846L40.2738 46.321C40.3107 46.5395 40.3237 46.7613 40.3124 46.9825C40.3124 47.5321 40.3083 48.0268 40.3001 48.4666L40.2738 49.9524C40.2738 50.3265 40.2913 50.7785 40.3247 51.3118C40.3505 51.918 40.3634 52.3751 40.3634 52.6834V52.8462C40.3539 52.9202 40.3498 52.9949 40.3511 53.0696C40.3415 53.1863 40.354 53.3037 40.388 53.4159L40.3757 53.4401C40.3757 53.525 40.4688 53.5666 40.655 53.5666C40.7185 53.5672 40.782 53.5626 40.8448 53.5527H41.0345C41.2787 53.5527 41.3999 53.6116 41.3999 53.7259C41.4012 53.7597 41.3952 53.7935 41.3822 53.8249C41.3691 53.8562 41.3494 53.8845 41.3244 53.9077C41.2682 53.9547 41.196 53.9789 41.1223 53.9752C41.0542 53.9759 40.9863 53.9678 40.9203 53.951C40.8486 53.9424 40.7764 53.9384 40.7042 53.9389C40.6255 53.9462 40.5488 53.9673 40.4776 54.0012C40.4072 54.0408 40.3296 54.0661 40.2492 54.0757C40.0524 54.0809 39.9435 54.0393 39.9066 53.9562Z" fill="white"/>
<path d="M43.1953 54.0237C43.0946 53.9666 43.0064 53.8903 42.9359 53.7993C42.8653 53.7084 42.8137 53.6045 42.7842 53.4938C42.6669 53.0839 42.5887 52.6642 42.5505 52.24C42.4631 51.5905 42.4126 50.9366 42.3994 50.2814C42.3994 49.9992 42.4152 49.6753 42.4486 49.3082L42.5259 48.522C42.5681 47.8986 42.6161 47.427 42.67 47.1072C42.7204 46.7991 42.8464 46.5078 43.0372 46.2586C43.1448 46.1303 43.2786 46.0257 43.43 45.9517C43.5813 45.8777 43.7468 45.836 43.9156 45.8292C43.9823 45.8183 44.05 45.8136 44.1176 45.8153C44.3794 45.8153 44.5112 45.8742 44.5112 45.9885C44.5096 46.0154 44.5012 46.0416 44.4868 46.0646C44.4723 46.0875 44.4524 46.1066 44.4286 46.1201C44.3771 46.1557 44.3158 46.1751 44.2529 46.1755L44.1264 46.1634L44.014 46.1513C43.8727 46.1501 43.7357 46.1986 43.6275 46.2881C43.5011 46.3967 43.4034 46.534 43.3429 46.6881C43.1726 47.0777 43.0574 47.4885 43.0003 47.909C42.9335 48.4331 42.8913 48.8909 42.8738 49.2822L42.8615 50.2416C42.8562 50.5457 42.8691 50.8499 42.9001 51.1525C42.9695 51.2823 43.0102 51.4251 43.0196 51.5716C43.0407 51.7586 43.06 52.0132 43.0776 52.3387C43.0876 52.5891 43.1253 52.8376 43.19 53.0799C43.244 53.2749 43.3538 53.4504 43.5062 53.5856C43.7065 53.7381 43.9564 53.8132 44.209 53.7969C44.3299 53.8001 44.4482 53.7623 44.5442 53.6898C44.6401 53.6173 44.7079 53.5145 44.736 53.3986C44.8523 53.1232 44.9206 52.8305 44.9381 52.5327C44.9644 52.1586 44.9767 51.84 44.9767 51.5837V50.891C44.851 50.7947 44.6924 50.75 44.534 50.7663H44.4321C44.3864 50.775 44.3399 50.7791 44.2933 50.7784C44.0913 50.7784 43.9894 50.7282 43.9894 50.6295C43.9894 50.4875 44.0913 50.4165 44.2933 50.4165C44.4356 50.4165 44.5551 50.4165 44.6447 50.4304L44.9223 50.4425C45.0512 50.4597 45.1782 50.4887 45.3018 50.5291C45.4037 50.562 45.4546 50.6087 45.4546 50.6659C45.4468 50.8224 45.4209 50.9775 45.3773 51.1283C45.3446 51.2847 45.3235 51.4433 45.3141 51.6027C45.3141 51.9491 45.3141 52.2677 45.3404 52.55C45.3668 52.8323 45.3527 53.1613 45.3527 53.5111C44.9229 53.9429 44.4924 54.1588 44.0614 54.1588C43.7661 54.177 43.4704 54.1309 43.1953 54.0237Z" fill="white"/>
<path d="M49.9346 54.0549C49.8973 53.9843 49.8695 53.9092 49.8521 53.8315C49.8454 53.7713 49.8282 53.7127 49.8011 53.6583L49.8152 53.6202C49.7168 53.1302 49.5727 52.6502 49.3847 52.1863L49.1563 51.5369C49.0642 51.3297 48.9838 51.1175 48.9156 50.9014L48.8155 50.6018C48.0542 48.2928 47.5775 47.0414 47.3854 46.8474C47.3105 47.1299 47.2762 47.4214 47.2835 47.7133C47.2835 47.9055 47.2835 48.0717 47.2958 48.212L47.3081 48.6986L47.2958 48.9982C47.287 49.09 47.2835 49.1904 47.2835 49.2978C47.2825 49.4563 47.2907 49.6147 47.3081 49.7723L47.3345 50.1706H47.2958C47.2958 51.556 47.3257 52.3214 47.3854 52.4669V53.589C47.4217 53.6714 47.4385 53.7608 47.4346 53.8505C47.4351 53.9148 47.4106 53.9767 47.3661 54.0237C47.3442 54.0482 47.3171 54.0676 47.2867 54.0804C47.2564 54.0933 47.2235 54.0994 47.1904 54.0982C47.0147 54.0982 46.9234 53.8748 46.9234 53.4245L46.9497 53.0262C46.9666 52.8895 46.9748 52.7518 46.9743 52.6141C46.9743 52.2158 46.9614 51.6172 46.9357 50.8183C46.9099 50.0194 46.8976 49.4208 46.8988 49.0225C46.8988 48.78 46.9111 48.4112 46.9357 47.9107C46.9602 47.4102 46.9743 47.0552 46.9743 46.8145V46.6517C46.9743 46.2448 47.0499 45.9781 47.2027 45.8534L47.2396 45.8915L47.3661 45.8655C47.4102 45.8798 47.4496 45.9055 47.4803 45.94C47.4959 45.9545 47.5085 45.9719 47.5172 45.9912C47.526 46.0105 47.5307 46.0314 47.5312 46.0525L47.5558 46.127C47.557 46.1484 47.5618 46.1695 47.5699 46.1893C47.7977 47.0422 48.1022 47.8732 48.4799 48.6727C48.9613 49.7948 49.2612 50.5389 49.3795 50.9049C49.4638 51.1958 49.5305 51.4538 49.5815 51.6789C49.6916 52.2472 49.8832 52.797 50.1507 53.312L50.1753 53.2756C50.3888 51.0156 50.4861 48.7465 50.467 46.4768L50.4547 46.3279C50.4452 46.2742 50.441 46.2196 50.4424 46.1651C50.4424 45.9919 50.5003 45.9036 50.6181 45.9036C50.6576 45.9046 50.6962 45.9154 50.7303 45.9351C50.7644 45.9548 50.7929 45.9827 50.8131 46.0162C50.8671 46.0884 50.896 46.1758 50.8956 46.2655V47.1002L50.8324 47.2007C50.8324 47.9904 50.7861 49.2874 50.6936 51.0919C50.6011 52.8963 50.5126 53.8777 50.4283 54.0358L50.2122 54.086V54.0982L50.1999 54.086L50.0734 54.1241C50.0461 54.1257 50.0189 54.1201 49.9945 54.108C49.9702 54.0958 49.9495 54.0775 49.9346 54.0549Z" fill="white"/>
<path d="M56.0028 54.1969C55.8389 54.1191 55.6944 54.0067 55.5794 53.8678C55.4604 53.7288 55.3622 53.5737 55.2878 53.4072C55.2058 53.2298 55.1382 53.0462 55.0857 52.8582C54.9896 52.5115 54.926 52.1567 54.896 51.7984L54.8714 51.4105C54.8747 51.3569 54.8747 51.3031 54.8714 51.2495C54.8714 51.2235 54.8714 51.2079 54.8714 51.1992C54.8292 50.7917 54.7765 49.8935 54.7133 48.5047C54.65 47.1158 54.6184 46.0346 54.6184 45.2611V45.0741C54.6184 44.8576 54.6817 44.7503 54.8081 44.7503C54.9838 44.7503 55.0752 44.849 55.0752 45.0499V45.1364L55.0629 45.2369C55.0629 46.202 55.0922 47.3432 55.1507 48.6605C55.2093 49.9778 55.2679 50.9279 55.3264 51.5109C55.3714 51.8895 55.443 52.2644 55.5408 52.6331C55.5969 52.8551 55.6709 53.0722 55.7621 53.2825C55.8354 53.4469 55.9411 53.5952 56.0731 53.7189C56.1904 53.8373 56.3483 53.9083 56.5158 53.9181C56.6513 53.92 56.7849 53.8859 56.9023 53.8194C57.0114 53.7567 57.1007 53.6656 57.1606 53.5561C57.228 53.4462 57.2772 53.3263 57.3064 53.2011C57.3433 53.0645 57.3669 52.9248 57.3767 52.7838C57.3767 52.7007 57.389 52.5638 57.389 52.3716V50.9499C57.389 50.3184 57.372 49.5408 57.338 48.6172L57.2871 47.0206L57.2625 45.9608C57.2367 45.499 57.2238 45.1451 57.2238 44.8992C57.2216 44.8608 57.2272 44.8224 57.2402 44.7861C57.2531 44.7498 57.2733 44.7165 57.2994 44.6879C57.3221 44.6645 57.3493 44.6458 57.3795 44.633C57.4097 44.6202 57.4422 44.6136 57.4751 44.6135C57.5081 44.6124 57.541 44.6185 57.5714 44.6314C57.6017 44.6442 57.6288 44.6636 57.6508 44.6879C57.6999 44.7473 57.7243 44.8228 57.7193 44.8992V45.8482C57.7193 46.2638 57.7193 46.6379 57.7316 46.9703V48.0925C57.7316 48.9007 57.7404 49.6078 57.7579 50.2139C57.7755 50.82 57.7796 51.5127 57.7702 52.292C57.7702 52.4998 57.7702 52.6816 57.7456 52.8392C57.7263 53.0086 57.6922 53.176 57.6437 53.3397C57.6023 53.5177 57.5316 53.6879 57.4347 53.8436C57.346 53.984 57.2258 54.1025 57.0833 54.1899C56.9233 54.2816 56.7413 54.3294 56.5562 54.3285C56.3637 54.3291 56.1739 54.284 56.0028 54.1969Z" fill="white"/>
<path d="M59.7223 54.2298C59.6248 53.6361 59.5783 53.0353 59.5835 52.434C59.5835 52.1673 59.5964 51.7805 59.6222 51.2737L59.6468 50.1134C59.5968 50.0256 59.5668 49.9281 59.559 49.8277C59.6433 49.6949 59.6854 49.3122 59.6854 48.6796C59.6854 47.166 59.6644 46.3579 59.6222 46.2551C59.6978 46.0473 59.7575 45.9434 59.7979 45.9434H60.3548C60.4952 45.959 60.6305 46.0038 60.7519 46.075C60.9088 46.1506 61.0557 46.2448 61.1893 46.3556C61.4002 46.5484 61.5056 47.039 61.5056 47.8275C61.5102 48.1524 61.4973 48.4773 61.4669 48.8008C61.4572 48.9285 61.43 49.0543 61.3861 49.1748C61.3376 49.2839 61.2787 49.3883 61.2104 49.4865C61.0467 49.7087 60.8235 49.8814 60.5656 49.9853C60.3971 50.0687 60.2205 50.1354 60.0386 50.1844V51.6703C60.0386 51.8781 60.0579 52.285 60.1018 52.8929L60.1264 53.2912L60.151 54.1016C60.151 54.2523 60.072 54.3267 59.9103 54.3267L59.7223 54.2298ZM60.7484 49.4277C60.8175 49.323 60.873 49.2101 60.9135 49.0917C60.9608 48.958 60.9943 48.8199 61.0136 48.6796C61.0676 48.404 61.0929 48.1237 61.0892 47.8431V47.5072C61.0892 47.3911 61.0892 47.2786 61.0769 47.1695C61.0691 47.0643 61.052 46.96 61.0259 46.8578C60.9981 46.7615 60.9535 46.6706 60.8942 46.5894C60.8323 46.5182 60.7572 46.4594 60.6728 46.4162C60.5579 46.3636 60.4322 46.3381 60.3056 46.3417C60.2663 46.3376 60.2264 46.3421 60.1891 46.355C60.1517 46.3678 60.1177 46.3888 60.0895 46.4162C60.0396 46.494 60.0174 46.586 60.0263 46.6777C60.0263 46.8768 60.0403 47.1764 60.0649 47.5764L60.0895 48.4735C60.0895 48.69 60.0895 48.8856 60.0649 49.0605L60.0403 49.6476L60.1282 49.7723C60.2524 49.77 60.3741 49.7373 60.4824 49.6771C60.5906 49.617 60.682 49.5312 60.7484 49.4277Z" fill="white"/>
<path d="M128.975 12.3842C124.593 4.8512 108.637 5.63048 107.135 15.5672C106.406 19.1657 109.533 22.2153 112.39 23.8795C116.808 26.4597 112.789 28.9933 108.614 28.4079C117.829 33.0698 134.862 22.5062 128.975 12.3842Z" fill="#52A1FA"/>
<path d="M132.81 16.0157C132.791 15.5103 132.732 15.0072 132.634 14.5108C132.436 13.5182 132.087 12.5608 131.599 11.6707C130.666 9.98013 129.247 8.59919 127.52 7.70162C126.578 7.19828 125.547 6.87954 124.482 6.76302C124.364 6.7509 124.345 6.93619 124.454 6.96217C126.211 7.43493 127.868 8.22634 129.198 9.47318C130.567 10.7599 131.516 12.4197 131.924 14.2406C132.044 14.7658 132.118 15.2999 132.146 15.8373C132.175 16.3724 132.086 16.9127 132.121 17.4443C132.122 17.5164 132.15 17.5857 132.198 17.6396C132.247 17.6936 132.313 17.7285 132.386 17.7381C132.458 17.7478 132.532 17.7315 132.593 17.6922C132.655 17.6529 132.7 17.5932 132.72 17.524C132.857 17.0547 132.827 16.5005 132.81 16.0157Z" fill="#52A1FA"/>
<path d="M132.421 19.4306C132.421 19.389 132.416 19.3475 132.406 19.3059C132.406 19.2592 132.37 19.2349 132.356 19.1951C132.342 19.1553 132.268 19.1154 132.232 19.1622C132.195 19.2089 132.177 19.2055 132.154 19.2349C132.133 19.2656 132.114 19.2974 132.096 19.3302C132.058 19.396 132.023 19.4618 131.986 19.5276C131.907 19.6765 131.85 19.8376 131.784 19.9917L131.752 20.0609C131.736 20.0956 131.719 20.1319 131.701 20.1666C131.666 20.2382 131.629 20.3074 131.59 20.3744C131.552 20.4413 131.511 20.5089 131.469 20.577C131.446 20.6099 131.423 20.6411 131.402 20.674C131.366 20.7365 131.345 20.8065 131.341 20.8783C131.313 21.1034 131.611 21.2351 131.787 21.1294C131.936 21.0038 132.048 20.8403 132.11 20.6567C132.188 20.497 132.256 20.3334 132.316 20.1666C132.376 20.0085 132.414 19.843 132.428 19.6748C132.433 19.5933 132.431 19.5116 132.421 19.4306Z" fill="#52A1FA"/>
<path d="M111.155 25.2215C110.92 25.1138 110.68 25.0184 110.436 24.9358C110.2 24.831 109.97 24.7124 109.747 24.5808C109.31 24.3246 108.902 24.0208 108.533 23.6751C108.16 23.3291 107.824 22.9455 107.532 22.5304C107.234 22.1145 106.977 21.6721 106.762 21.2091C106.724 21.1208 106.587 21.1831 106.608 21.2732C106.749 21.787 106.96 22.2793 107.237 22.7365C107.522 23.1961 107.86 23.6215 108.245 24.0041C108.626 24.378 109.048 24.7101 109.501 24.9947C109.738 25.1425 109.984 25.2761 110.237 25.3947C110.484 25.53 110.751 25.627 111.028 25.6822C111.286 25.7151 111.355 25.3341 111.155 25.2215Z" fill="#52A1FA"/>
<path d="M122.794 12.1505L118.379 18.2288L115.313 15.3853L113.463 17.7076L118.674 21.1052L125.327 14.0588L122.794 12.1505Z" fill="white"/>
<g style="mix-blend-mode:multiply">
<path d="M146.585 52.3335C146.585 52.3254 146.585 52.3173 146.585 52.3093L146.575 52.24C146.575 52.221 146.566 52.2019 146.563 52.1829C146.559 52.1638 146.55 52.1396 146.543 52.1188L146.522 52.0651C146.522 52.046 146.505 52.0253 146.496 52.0062L146.47 51.9577C146.459 51.9387 146.447 51.9214 146.434 51.9023L146.403 51.859L146.362 51.8105L146.322 51.7707L146.278 51.7274L146.232 51.6928L146.183 51.6564L146.134 51.627L146.081 51.5975L146.036 51.5767L142.04 48.2241V40.2027C142.04 40.1288 142.011 40.0579 141.958 40.0056C141.905 39.9533 141.833 39.9239 141.758 39.9239H128.932C128.892 39.9245 128.852 39.9333 128.815 39.9499V39.9239L128.732 40.0053L127.595 41.1257L125.38 43.2869H125.406C125.389 43.3232 125.38 43.3628 125.38 43.403V48.2397L121.691 51.3482H121.661C121.634 51.3509 121.607 51.3556 121.58 51.362C121.565 51.3645 121.55 51.3679 121.536 51.3724C121.514 51.3771 121.492 51.3835 121.471 51.3914L121.427 51.407C121.407 51.4146 121.387 51.4233 121.367 51.433L121.325 51.4538L121.262 51.4902L121.223 51.5144C121.197 51.5335 121.172 51.5542 121.148 51.575L121.111 51.6096L121.069 51.6529L121.035 51.6945L121 51.7413C120.99 51.7568 120.979 51.7707 120.97 51.7863L120.94 51.84L120.918 51.8867C120.867 52.0008 120.841 52.1241 120.842 52.2487V66.5424C120.842 66.7213 120.895 66.8964 120.995 67.0455C121.096 67.1946 121.239 67.3112 121.406 67.3805C121.517 67.4276 121.637 67.4523 121.757 67.4533H145.665C145.91 67.4528 146.145 67.3567 146.318 67.186C146.491 67.0152 146.589 66.7838 146.589 66.5424V52.4132C146.585 52.3855 146.585 52.3595 146.585 52.3335Z" fill="#D5D8ED"/>
</g>
<path d="M118.602 49.6528L130.498 39.6503C130.732 39.4533 131.031 39.3451 131.339 39.3451C131.648 39.3451 131.946 39.4533 132.181 39.6503L144.099 49.6511C144.243 49.7708 144.358 49.92 144.437 50.088C144.515 50.2561 144.556 50.4391 144.556 50.6243V63.6417C144.556 63.8097 144.523 63.976 144.457 64.1312C144.392 64.2864 144.296 64.4273 144.176 64.546C144.055 64.6647 143.912 64.7588 143.754 64.823C143.597 64.8871 143.428 64.92 143.258 64.9198H119.445C119.275 64.92 119.106 64.8871 118.948 64.823C118.791 64.7588 118.648 64.6647 118.527 64.546C118.407 64.4273 118.311 64.2864 118.246 64.1312C118.18 63.976 118.147 63.8097 118.147 63.6417V50.6243C118.147 50.4396 118.188 50.2571 118.266 50.0894C118.345 49.9216 118.459 49.7727 118.602 49.6528Z" fill="#E6A532"/>
<path d="M123.085 58.412H139.6C139.677 58.412 139.751 58.3819 139.805 58.3283C139.859 58.2747 139.89 58.202 139.89 58.1262V37.8805C139.89 37.8429 139.883 37.8055 139.868 37.7707C139.854 37.7358 139.833 37.7041 139.806 37.6774C139.779 37.6507 139.747 37.6295 139.711 37.615C139.676 37.6005 139.638 37.5931 139.6 37.5931H126.424C126.346 37.594 126.273 37.6244 126.218 37.6779L122.88 40.9682C122.825 41.0219 122.794 41.0947 122.794 41.1708V58.1262C122.794 58.2022 122.825 58.2748 122.88 58.3284C122.934 58.3819 123.008 58.412 123.085 58.412Z" fill="white"/>
<path d="M122.796 41.0513L126.304 37.5931V41.0513H122.796Z" fill="#C8CBE3"/>
<path d="M124.965 56.526H138.077C138.097 56.5258 138.117 56.5296 138.136 56.537C138.155 56.5445 138.172 56.5556 138.186 56.5697C138.2 56.5838 138.212 56.6005 138.22 56.6189C138.227 56.6374 138.231 56.6572 138.231 56.6772C138.232 56.6973 138.228 56.7173 138.22 56.736C138.212 56.7546 138.201 56.7716 138.187 56.7858C138.172 56.8001 138.155 56.8113 138.136 56.8189C138.117 56.8265 138.097 56.8303 138.077 56.8301H124.965C124.924 56.8301 124.885 56.814 124.856 56.7853C124.827 56.7566 124.811 56.7177 124.811 56.6772C124.811 56.6369 124.828 56.5985 124.857 56.5702C124.886 56.5419 124.925 56.526 124.965 56.526Z" fill="#C8CBE3"/>
<path d="M134.154 53.5613H138.077C138.097 53.5611 138.117 53.5648 138.136 53.5723C138.155 53.5798 138.172 53.5909 138.186 53.605C138.2 53.619 138.212 53.6358 138.22 53.6542C138.227 53.6727 138.231 53.6925 138.231 53.7125C138.232 53.7326 138.228 53.7526 138.22 53.7713C138.212 53.7899 138.201 53.8069 138.187 53.8211C138.172 53.8353 138.155 53.8466 138.136 53.8542C138.117 53.8618 138.097 53.8656 138.077 53.8654H134.154C134.133 53.8656 134.113 53.8618 134.094 53.8542C134.075 53.8466 134.058 53.8353 134.044 53.8211C134.03 53.8069 134.018 53.7899 134.01 53.7713C134.003 53.7526 133.999 53.7326 133.999 53.7125C133.999 53.6925 134.003 53.6727 134.011 53.6542C134.019 53.6358 134.03 53.619 134.045 53.605C134.059 53.5909 134.076 53.5798 134.095 53.5723C134.113 53.5648 134.134 53.5611 134.154 53.5613Z" fill="#C8CBE3"/>
<path d="M127.221 53.5613H133.302C133.342 53.5613 133.381 53.5772 133.41 53.6056C133.438 53.6339 133.455 53.6724 133.455 53.7125C133.455 53.7325 133.451 53.7523 133.443 53.7709C133.436 53.7894 133.425 53.8063 133.41 53.8205C133.396 53.8347 133.379 53.846 133.361 53.8537C133.342 53.8614 133.322 53.8654 133.302 53.8654H127.221C127.201 53.8656 127.181 53.8618 127.162 53.8542C127.143 53.8466 127.126 53.8353 127.111 53.8211C127.097 53.8069 127.086 53.7899 127.078 53.7713C127.07 53.7526 127.066 53.7326 127.067 53.7125C127.067 53.6925 127.071 53.6727 127.078 53.6542C127.086 53.6358 127.098 53.619 127.112 53.605C127.126 53.5909 127.143 53.5798 127.162 53.5723C127.181 53.5648 127.201 53.5611 127.221 53.5613Z" fill="#C8CBE3"/>
<path d="M131.552 55.1268H138.077C138.118 55.1268 138.157 55.1429 138.186 55.1716C138.215 55.2003 138.231 55.2391 138.231 55.2797C138.231 55.2997 138.227 55.3195 138.22 55.3379C138.212 55.3564 138.2 55.3731 138.186 55.3872C138.172 55.4013 138.155 55.4123 138.136 55.4198C138.117 55.4273 138.097 55.4311 138.077 55.4308H131.552C131.511 55.4308 131.472 55.4149 131.444 55.3866C131.415 55.3582 131.399 55.3198 131.399 55.2797C131.399 55.2394 131.415 55.2008 131.444 55.1722C131.472 55.1436 131.511 55.1273 131.552 55.1268Z" fill="#C8CBE3"/>
<path d="M124.965 55.1268H129.99C130.031 55.1273 130.069 55.1436 130.098 55.1722C130.127 55.2008 130.143 55.2394 130.143 55.2797C130.143 55.3198 130.127 55.3582 130.098 55.3866C130.069 55.4149 130.03 55.4308 129.99 55.4308H124.965C124.925 55.4308 124.886 55.415 124.857 55.3867C124.828 55.3584 124.811 55.3199 124.811 55.2797C124.811 55.2393 124.828 55.2007 124.856 55.1721C124.885 55.1435 124.924 55.1273 124.965 55.1268Z" fill="#C8CBE3"/>
<path d="M124.946 53.5614H126.221C126.257 53.5614 126.291 53.5753 126.316 53.6C126.341 53.6248 126.355 53.6584 126.355 53.6934C126.355 53.7284 126.341 53.762 126.316 53.7868C126.291 53.8115 126.257 53.8255 126.221 53.8255H124.946C124.91 53.8255 124.876 53.8116 124.851 53.7869C124.826 53.7622 124.811 53.7286 124.811 53.6934C124.811 53.6582 124.826 53.6247 124.851 53.5999C124.876 53.5752 124.91 53.5614 124.946 53.5614Z" fill="#C8CBE3"/>
<path d="M124.965 51.9941H138.077C138.097 51.9939 138.117 51.9977 138.136 52.0053C138.155 52.0129 138.172 52.0241 138.187 52.0384C138.201 52.0526 138.212 52.0695 138.22 52.0882C138.228 52.1069 138.232 52.1268 138.231 52.147C138.231 52.167 138.227 52.1868 138.22 52.2052C138.212 52.2237 138.2 52.2404 138.186 52.2545C138.172 52.2685 138.155 52.2796 138.136 52.2871C138.117 52.2946 138.097 52.2984 138.077 52.2981H124.965C124.925 52.2981 124.886 52.2823 124.857 52.254C124.828 52.2257 124.811 52.1872 124.811 52.147C124.811 52.1064 124.827 52.0675 124.856 52.0389C124.885 52.0102 124.924 51.9941 124.965 51.9941Z" fill="#C8CBE3"/>
<path d="M134.154 49.0294H138.077C138.118 49.0294 138.157 49.0455 138.186 49.0741C138.215 49.1028 138.231 49.1417 138.231 49.1822C138.231 49.2022 138.227 49.222 138.22 49.2405C138.212 49.259 138.2 49.2757 138.186 49.2897C138.172 49.3038 138.155 49.3149 138.136 49.3224C138.117 49.3299 138.097 49.3336 138.077 49.3334H134.154C134.134 49.3336 134.113 49.3299 134.095 49.3224C134.076 49.3149 134.059 49.3038 134.045 49.2897C134.03 49.2757 134.019 49.259 134.011 49.2405C134.003 49.222 133.999 49.2022 133.999 49.1822C133.999 49.1417 134.015 49.1028 134.044 49.0741C134.073 49.0455 134.113 49.0294 134.154 49.0294Z" fill="#C8CBE3"/>
<path d="M127.221 49.0294H133.302C133.342 49.0298 133.381 49.0461 133.41 49.0747C133.438 49.1034 133.455 49.142 133.454 49.1822C133.454 49.2223 133.438 49.2608 133.41 49.2891C133.381 49.3175 133.342 49.3334 133.302 49.3334H127.221C127.201 49.3336 127.181 49.3299 127.162 49.3224C127.143 49.3149 127.126 49.3038 127.112 49.2897C127.098 49.2757 127.086 49.259 127.078 49.2405C127.071 49.222 127.067 49.2022 127.067 49.1822C127.067 49.1417 127.083 49.1028 127.112 49.0741C127.141 49.0455 127.18 49.0294 127.221 49.0294Z" fill="#C8CBE3"/>
<path d="M131.552 50.5966H138.077C138.097 50.5964 138.117 50.6001 138.136 50.6076C138.155 50.6151 138.172 50.6262 138.186 50.6403C138.2 50.6543 138.212 50.6711 138.22 50.6895C138.227 50.708 138.231 50.7278 138.231 50.7478C138.232 50.7679 138.228 50.7879 138.22 50.8066C138.212 50.8252 138.201 50.8422 138.187 50.8564C138.172 50.8707 138.155 50.8819 138.136 50.8895C138.117 50.8971 138.097 50.9009 138.077 50.9007H131.552C131.532 50.9007 131.512 50.8967 131.493 50.889C131.474 50.8813 131.457 50.87 131.443 50.8558C131.429 50.8416 131.418 50.8247 131.41 50.8062C131.402 50.7876 131.399 50.7678 131.399 50.7478C131.399 50.7077 131.415 50.6692 131.444 50.6409C131.472 50.6126 131.511 50.5966 131.552 50.5966Z" fill="#C8CBE3"/>
<path d="M124.965 50.5966H129.99C130.03 50.5966 130.069 50.6125 130.098 50.6409C130.127 50.6692 130.143 50.7077 130.143 50.7478C130.143 50.7678 130.139 50.7876 130.132 50.8062C130.124 50.8247 130.113 50.8416 130.099 50.8558C130.084 50.87 130.067 50.8813 130.049 50.889C130.03 50.8967 130.01 50.9007 129.99 50.9007H124.965C124.924 50.9007 124.885 50.8846 124.856 50.8559C124.827 50.8272 124.811 50.7883 124.811 50.7478C124.811 50.7075 124.828 50.6691 124.857 50.6408C124.886 50.6125 124.925 50.5966 124.965 50.5966Z" fill="#C8CBE3"/>
<path d="M124.946 49.0294H126.221C126.239 49.0294 126.257 49.0328 126.273 49.0396C126.289 49.0463 126.304 49.0562 126.316 49.0686C126.329 49.0811 126.339 49.0958 126.345 49.1121C126.352 49.1283 126.355 49.1456 126.355 49.1631C126.355 49.1982 126.341 49.2317 126.316 49.2565C126.291 49.2813 126.257 49.2952 126.221 49.2952H124.946C124.91 49.2952 124.876 49.2813 124.851 49.2566C124.826 49.2319 124.811 49.1983 124.811 49.1631C124.811 49.1277 124.825 49.0936 124.85 49.0685C124.876 49.0435 124.91 49.0294 124.946 49.0294Z" fill="#C8CBE3"/>
<path d="M124.965 47.4639H138.077C138.097 47.4637 138.117 47.4674 138.136 47.4749C138.155 47.4824 138.172 47.4935 138.186 47.5076C138.2 47.5216 138.212 47.5384 138.22 47.5568C138.227 47.5753 138.231 47.5951 138.231 47.6151C138.232 47.6352 138.228 47.6552 138.22 47.6739C138.212 47.6925 138.201 47.7095 138.187 47.7237C138.172 47.738 138.155 47.7492 138.136 47.7568C138.117 47.7644 138.097 47.7682 138.077 47.768H124.965C124.924 47.768 124.885 47.7519 124.856 47.7232C124.827 47.6945 124.811 47.6556 124.811 47.6151C124.811 47.5748 124.828 47.5364 124.857 47.5081C124.886 47.4798 124.925 47.4639 124.965 47.4639Z" fill="#C8CBE3"/>
<path d="M134.154 44.4992H138.077C138.097 44.499 138.117 44.5027 138.136 44.5102C138.155 44.5177 138.172 44.5288 138.186 44.5428C138.2 44.5569 138.212 44.5736 138.22 44.5921C138.227 44.6105 138.231 44.6303 138.231 44.6503C138.232 44.6705 138.228 44.6905 138.22 44.7091C138.212 44.7278 138.201 44.7447 138.187 44.759C138.172 44.7732 138.155 44.7845 138.136 44.7921C138.117 44.7997 138.097 44.8035 138.077 44.8032H134.154C134.133 44.8035 134.113 44.7997 134.094 44.7921C134.075 44.7845 134.058 44.7732 134.044 44.759C134.03 44.7447 134.018 44.7278 134.01 44.7091C134.003 44.6905 133.999 44.6705 133.999 44.6503C133.999 44.6303 134.003 44.6105 134.011 44.5921C134.019 44.5736 134.03 44.5569 134.045 44.5428C134.059 44.5288 134.076 44.5177 134.095 44.5102C134.113 44.5027 134.134 44.499 134.154 44.4992Z" fill="#C8CBE3"/>
<path d="M127.221 44.4992H133.302C133.342 44.4992 133.381 44.5151 133.41 44.5435C133.438 44.5718 133.455 44.6102 133.455 44.6503C133.455 44.6703 133.451 44.6902 133.443 44.7087C133.436 44.7273 133.425 44.7441 133.41 44.7583C133.396 44.7726 133.379 44.7839 133.361 44.7916C133.342 44.7993 133.322 44.8032 133.302 44.8032H127.221C127.201 44.8035 127.181 44.7997 127.162 44.7921C127.143 44.7845 127.126 44.7732 127.111 44.759C127.097 44.7447 127.086 44.7278 127.078 44.7091C127.07 44.6905 127.066 44.6705 127.067 44.6503C127.067 44.6303 127.071 44.6105 127.078 44.5921C127.086 44.5736 127.098 44.5569 127.112 44.5428C127.126 44.5288 127.143 44.5177 127.162 44.5102C127.181 44.5027 127.201 44.499 127.221 44.4992Z" fill="#C8CBE3"/>
<path d="M131.552 46.0577H138.077C138.118 46.0577 138.157 46.0738 138.186 46.1023C138.215 46.1309 138.231 46.1697 138.231 46.2101C138.231 46.2505 138.215 46.2893 138.186 46.3179C138.157 46.3464 138.118 46.3625 138.077 46.3625H131.552C131.511 46.362 131.472 46.3458 131.444 46.3173C131.415 46.2887 131.399 46.2502 131.399 46.2101C131.399 46.17 131.415 46.1315 131.444 46.103C131.472 46.0744 131.511 46.0582 131.552 46.0577Z" fill="#C8CBE3"/>
<path d="M124.965 46.0577H129.99C130.031 46.0582 130.069 46.0744 130.098 46.103C130.127 46.1315 130.143 46.17 130.143 46.2101C130.143 46.2502 130.127 46.2887 130.098 46.3173C130.069 46.3458 130.031 46.362 129.99 46.3625H124.965C124.924 46.362 124.885 46.3458 124.856 46.3174C124.828 46.2889 124.811 46.2504 124.811 46.2101C124.811 46.1698 124.828 46.1313 124.856 46.1028C124.885 46.0744 124.924 46.0582 124.965 46.0577Z" fill="#C8CBE3"/>
<path d="M124.946 44.4992H126.221C126.257 44.4992 126.291 44.5131 126.316 44.5378C126.341 44.5626 126.355 44.5962 126.355 44.6312C126.355 44.6662 126.341 44.6998 126.316 44.7246C126.291 44.7493 126.257 44.7633 126.221 44.7633H124.946C124.91 44.7633 124.876 44.7494 124.851 44.7247C124.826 44.7 124.811 44.6664 124.811 44.6312C124.811 44.596 124.826 44.5625 124.851 44.5377C124.876 44.513 124.91 44.4992 124.946 44.4992Z" fill="#C8CBE3"/>
<path d="M124.965 42.9406H138.077C138.118 42.9406 138.157 42.9567 138.186 42.9854C138.215 43.0141 138.231 43.053 138.231 43.0935C138.231 43.1135 138.227 43.1333 138.22 43.1518C138.212 43.1702 138.2 43.1869 138.186 43.201C138.172 43.2151 138.155 43.2262 138.136 43.2337C138.117 43.2411 138.097 43.2449 138.077 43.2447H124.965C124.925 43.2447 124.886 43.2288 124.857 43.2005C124.828 43.1722 124.811 43.1338 124.811 43.0935C124.811 43.0531 124.828 43.0145 124.856 42.9859C124.885 42.9573 124.924 42.9411 124.965 42.9406Z" fill="#C8CBE3"/>
<path d="M134.154 39.9672H138.077C138.118 39.9672 138.157 39.9833 138.186 40.0119C138.215 40.0404 138.231 40.0792 138.231 40.1196C138.231 40.16 138.215 40.1988 138.186 40.2274C138.157 40.256 138.118 40.272 138.077 40.272H134.154C134.113 40.272 134.073 40.256 134.044 40.2274C134.015 40.1988 133.999 40.16 133.999 40.1196C133.999 40.0792 134.015 40.0404 134.044 40.0119C134.073 39.9833 134.113 39.9672 134.154 39.9672Z" fill="#C8CBE3"/>
<path d="M127.221 39.9672H133.302C133.342 39.9677 133.381 39.9839 133.41 40.0125C133.438 40.041 133.455 40.0795 133.454 40.1196C133.455 40.1597 133.438 40.1982 133.41 40.2268C133.381 40.2553 133.342 40.2716 133.302 40.272H127.221C127.18 40.272 127.141 40.256 127.112 40.2274C127.083 40.1988 127.067 40.16 127.067 40.1196C127.067 40.0792 127.083 40.0404 127.112 40.0119C127.141 39.9833 127.18 39.9672 127.221 39.9672Z" fill="#C8CBE3"/>
<path d="M131.552 41.5344H138.077C138.097 41.5342 138.117 41.538 138.136 41.5456C138.155 41.5532 138.172 41.5645 138.187 41.5787C138.201 41.5929 138.212 41.6099 138.22 41.6285C138.228 41.6472 138.232 41.6672 138.231 41.6873C138.231 41.7073 138.227 41.7271 138.22 41.7456C138.212 41.764 138.2 41.7808 138.186 41.7948C138.172 41.8089 138.155 41.82 138.136 41.8275C138.117 41.835 138.097 41.8387 138.077 41.8385H131.552C131.511 41.8385 131.472 41.8226 131.444 41.7942C131.415 41.7659 131.399 41.7274 131.399 41.6873C131.399 41.6673 131.402 41.6475 131.41 41.6289C131.418 41.6104 131.429 41.5935 131.443 41.5793C131.457 41.5651 131.474 41.5538 131.493 41.5461C131.512 41.5384 131.532 41.5344 131.552 41.5344Z" fill="#C8CBE3"/>
<path d="M124.965 41.5344H129.99C130.01 41.5344 130.03 41.5384 130.049 41.5461C130.067 41.5538 130.084 41.5651 130.099 41.5793C130.113 41.5935 130.124 41.6104 130.132 41.6289C130.139 41.6475 130.143 41.6673 130.143 41.6873C130.143 41.7274 130.127 41.7658 130.098 41.7942C130.069 41.8225 130.03 41.8385 129.99 41.8385H124.965C124.925 41.8385 124.886 41.8226 124.857 41.7943C124.828 41.766 124.811 41.7276 124.811 41.6873C124.811 41.6468 124.827 41.6079 124.856 41.5792C124.885 41.5505 124.924 41.5344 124.965 41.5344Z" fill="#C8CBE3"/>
<path d="M124.946 39.9672H126.221C126.257 39.9677 126.291 39.982 126.316 40.007C126.341 40.0321 126.355 40.0658 126.355 40.101C126.355 40.136 126.341 40.1696 126.316 40.1944C126.291 40.2191 126.257 40.233 126.221 40.233H124.946C124.91 40.233 124.876 40.2192 124.851 40.1945C124.826 40.1698 124.811 40.1362 124.811 40.101C124.811 40.0657 124.826 40.0319 124.851 40.0069C124.876 39.9819 124.91 39.9677 124.946 39.9672Z" fill="#C8CBE3"/>
<path d="M144.556 50.4113V64.9215C144.556 65.1695 144.456 65.4074 144.278 65.5828C144.1 65.7581 143.859 65.8566 143.607 65.8566H119.071C118.819 65.8566 118.578 65.7581 118.4 65.5828C118.222 65.4074 118.122 65.1695 118.122 64.9215V50.252C118.122 50.0809 118.17 49.9131 118.26 49.7669C118.35 49.6206 118.479 49.5015 118.633 49.4226C118.787 49.3437 118.96 49.3079 119.134 49.3192C119.307 49.3305 119.474 49.3884 119.616 49.4866L129.702 56.4585L130.006 56.6698L130.069 56.7131L130.8 57.217C130.959 57.326 131.148 57.3844 131.341 57.3844C131.534 57.3844 131.723 57.326 131.882 57.217L132.627 56.7131L132.696 56.6646L133.18 56.3373L143.07 49.6355C143.213 49.5387 143.38 49.4823 143.553 49.4724C143.726 49.4626 143.898 49.4996 144.051 49.5796C144.205 49.6595 144.333 49.7794 144.422 49.926C144.511 50.0726 144.557 50.2405 144.556 50.4113Z" fill="#FFC052"/>
<path d="M119.002 50.0286L129.442 57.2447L129.758 57.4629L129.823 57.5079L130.578 58.0275C130.743 58.1399 130.939 58.2002 131.139 58.2002C131.339 58.2002 131.535 58.1399 131.699 58.0275L132.469 57.5079L132.541 57.4594L133.042 57.1131L143.279 50.1775C143.474 50.0446 143.711 49.9858 143.946 50.0119C144.182 50.038 144.4 50.1473 144.56 50.3195C144.546 50.1563 144.489 49.9996 144.394 49.865C144.299 49.7303 144.171 49.6226 144.021 49.5524C143.87 49.4823 143.704 49.4523 143.539 49.4653C143.373 49.4784 143.214 49.5341 143.077 49.6268L133.187 56.3286L132.703 56.6559L132.634 56.7044L131.889 57.2084C131.73 57.3173 131.541 57.3758 131.348 57.3758C131.155 57.3758 130.966 57.3173 130.807 57.2084L130.071 56.7131L130.008 56.6698L129.704 56.4585L119.616 49.4866C119.5 49.407 119.368 49.3537 119.23 49.3305C119.091 49.3073 118.949 49.3148 118.813 49.3524C118.678 49.39 118.552 49.4569 118.446 49.548C118.34 49.6392 118.256 49.7525 118.2 49.8797C118.336 49.8454 118.479 49.841 118.618 49.8667C118.756 49.8924 118.888 49.9477 119.002 50.0286Z" fill="#FFCE7A"/>
<path d="M144.556 62.3654V64.9215C144.556 65.1695 144.456 65.4073 144.278 65.5827C144.1 65.7581 143.859 65.8566 143.607 65.8566H119.071C118.819 65.8566 118.578 65.7581 118.4 65.5827C118.222 65.4073 118.122 65.1695 118.122 64.9215V62.1819L130.069 56.7131L130.143 56.6767L132.142 56.4879L132.627 56.7183L144.556 62.3654Z" fill="#E6A532"/>
<path d="M144.556 63.6349V64.9215C144.556 65.1696 144.456 65.4074 144.278 65.5828C144.1 65.7582 143.859 65.8567 143.607 65.8567H119.071C118.819 65.8567 118.578 65.7582 118.4 65.5828C118.222 65.4074 118.122 65.1696 118.122 64.9215V63.5604C121.257 61.775 127.314 58.2423 130.006 56.6698L130.445 56.4135C130.719 56.2525 131.033 56.1675 131.352 56.1675C131.672 56.1675 131.985 56.2525 132.26 56.4135L132.696 56.6681L144.556 63.6349Z" fill="#FFC052"/>
<path d="M132.696 56.6698L132.26 56.4152C132.035 56.2831 131.783 56.2017 131.522 56.1769C131.262 56.152 130.999 56.1843 130.752 56.2715C130.861 56.3087 130.965 56.3569 131.063 56.4152L131.499 56.6698L142.237 62.975C142.579 63.1759 142.862 63.4609 143.059 63.8021C143.256 64.1433 143.36 64.529 143.36 64.9215C143.36 65.1695 143.26 65.4074 143.082 65.5827C142.904 65.7581 142.663 65.8566 142.411 65.8566H143.607C143.859 65.8566 144.1 65.7581 144.278 65.5827C144.456 65.4074 144.556 65.1695 144.556 64.9215V63.6348L132.696 56.6698Z" fill="#FFCE7A"/>
<path d="M119.199 64.9215C119.199 64.5083 119.309 64.1023 119.517 63.744C119.726 63.3857 120.026 63.0877 120.389 62.8798C123.685 60.987 128.7 58.0621 131.083 56.6698L131.52 56.4135C131.636 56.3452 131.76 56.2906 131.889 56.2507C131.65 56.176 131.398 56.1519 131.149 56.18C130.901 56.208 130.66 56.2876 130.445 56.4135L130.006 56.6698C127.314 58.2422 121.257 61.7749 118.122 63.5604V64.9215C118.122 65.1695 118.222 65.4074 118.4 65.5827C118.578 65.7581 118.819 65.8566 119.071 65.8566H120.146C120.022 65.8566 119.898 65.8324 119.783 65.7854C119.668 65.7384 119.564 65.6695 119.476 65.5826C119.388 65.4958 119.318 65.3927 119.271 65.2792C119.223 65.1658 119.199 65.0442 119.199 64.9215Z" fill="#FFCE7A"/>
<path d="M156.716 48.1115C156.751 48.1703 156.773 48.2364 156.779 48.3047C156.785 48.3731 156.775 48.4419 156.75 48.5059C156.725 48.5698 156.686 48.6273 156.634 48.6739C156.583 48.7205 156.522 48.755 156.456 48.7748L154.932 49.2129C154.856 49.2354 154.774 49.2376 154.696 49.2191C154.619 49.2006 154.547 49.1621 154.489 49.1076C154.432 49.053 154.389 48.9844 154.367 48.9086C154.345 48.8328 154.344 48.7526 154.363 48.6761L154.739 47.1573C154.758 47.0808 154.797 47.0106 154.853 46.9538C154.908 46.8969 154.977 46.8554 155.054 46.8335C155.131 46.8115 155.212 46.8099 155.29 46.8288C155.367 46.8476 155.439 46.8863 155.496 46.9409L156.642 48.0215C156.67 48.0487 156.694 48.0789 156.716 48.1115ZM154.722 48.8285L154.737 48.8475C154.75 48.8594 154.765 48.8677 154.782 48.8717C154.798 48.8757 154.816 48.8751 154.832 48.87L156.354 48.4319C156.37 48.4272 156.384 48.4184 156.396 48.4065C156.408 48.3945 156.416 48.3797 156.42 48.3636C156.424 48.3475 156.424 48.3307 156.419 48.3147C156.415 48.2987 156.406 48.2842 156.394 48.2726L155.249 47.192C155.236 47.1801 155.221 47.1717 155.204 47.1678C155.188 47.1638 155.17 47.1644 155.154 47.1695C155.138 47.1741 155.123 47.183 155.111 47.1952C155.1 47.2074 155.092 47.2225 155.089 47.2387L154.711 48.7575C154.705 48.7816 154.709 48.8069 154.722 48.8285Z" fill="#D94559"/>
<path d="M24.3547 45.2975C24.3913 45.3562 24.4136 45.4225 24.42 45.4911C24.4264 45.5598 24.4166 45.629 24.3914 45.6933C24.3663 45.7576 24.3264 45.8154 24.275 45.862C24.2235 45.9087 24.1618 45.9431 24.0947 45.9624L22.5715 46.404C22.4949 46.4255 22.414 46.4268 22.3367 46.4079C22.2594 46.389 22.1885 46.3505 22.131 46.2962C22.0735 46.242 22.0313 46.1738 22.0087 46.0986C21.9862 46.0233 21.9839 45.9436 22.0023 45.8672L22.38 44.3485C22.3983 44.2717 22.4371 44.2012 22.4924 44.1443C22.5477 44.0873 22.6175 44.046 22.6945 44.0246C22.7709 44.0025 22.8519 44.0006 22.9293 44.0191C23.0068 44.0377 23.0778 44.076 23.1354 44.1303L24.2809 45.2126C24.3096 45.2372 24.3344 45.2658 24.3547 45.2975ZM22.3624 46.0196C22.3663 46.0269 22.3717 46.0334 22.3782 46.0386C22.3901 46.0505 22.4051 46.0589 22.4216 46.0629C22.438 46.0669 22.4552 46.0663 22.4713 46.0611L23.9946 45.623C24.0106 45.6183 24.0251 45.6096 24.0368 45.5978C24.0485 45.586 24.0569 45.5714 24.0613 45.5555C24.0653 45.5391 24.0648 45.522 24.0598 45.5059C24.0549 45.4897 24.0457 45.4752 24.0332 45.4637L22.8877 44.3831C22.8759 44.3712 22.8609 44.3628 22.8444 44.3588C22.828 44.3549 22.8107 44.3555 22.7946 44.3606C22.7784 44.365 22.7637 44.3736 22.752 44.3855C22.7402 44.3973 22.7319 44.412 22.7279 44.4281L22.3501 45.9469C22.3443 45.9717 22.3488 45.9979 22.3624 46.0196Z" fill="#D94559"/>
<path d="M92.6214 5.67372C92.658 5.73248 92.6803 5.79876 92.6867 5.86741C92.6931 5.93606 92.6833 6.00523 92.6582 6.06955C92.633 6.13388 92.5932 6.19162 92.5417 6.2383C92.4902 6.28498 92.4285 6.31934 92.3614 6.3387L90.8382 6.77683C90.7616 6.79826 90.6807 6.79958 90.6034 6.78067C90.5261 6.76176 90.4552 6.72327 90.3977 6.66902C90.3402 6.61476 90.298 6.54663 90.2755 6.47138C90.2529 6.39613 90.2507 6.31636 90.269 6.24L90.6467 4.72127C90.6657 4.64495 90.7047 4.57489 90.7598 4.51811C90.8149 4.46132 90.8842 4.4198 90.9607 4.39771C91.0372 4.37561 91.1182 4.37371 91.1957 4.3922C91.2732 4.41069 91.3444 4.44893 91.4022 4.50307L92.5476 5.58367C92.5766 5.60995 92.6015 5.64029 92.6214 5.67372ZM90.6291 6.40105C90.6335 6.40807 90.6389 6.41448 90.645 6.4201C90.6572 6.43151 90.6722 6.43959 90.6885 6.44354C90.7048 6.44749 90.7219 6.44717 90.7381 6.44261L92.2613 6.00448C92.2775 5.9996 92.2922 5.99065 92.3039 5.97851C92.3156 5.96637 92.3239 5.95146 92.328 5.93521C92.3319 5.91909 92.3313 5.90226 92.3263 5.88644C92.3214 5.87062 92.3123 5.85637 92.2999 5.84516L91.1545 4.76456C91.1423 4.7532 91.1273 4.74515 91.111 4.74123C91.0947 4.7373 91.0776 4.73762 91.0615 4.74217C91.0454 4.74671 91.0307 4.75532 91.019 4.76714C91.0072 4.77896 90.9988 4.79359 90.9946 4.80959L90.6168 6.32832C90.6111 6.35321 90.6155 6.37934 90.6291 6.40105Z" fill="#D94559"/>
<path d="M141.608 26.6745L142.169 26.122C142.202 26.0929 142.229 26.0573 142.248 26.0174C142.267 25.9776 142.278 25.9343 142.279 25.8902C142.28 25.8462 142.273 25.8024 142.256 25.7615C142.24 25.7206 142.215 25.6834 142.183 25.6523C142.151 25.6212 142.114 25.5969 142.072 25.5808C142.03 25.5646 141.986 25.5571 141.941 25.5586C141.897 25.5601 141.853 25.5706 141.812 25.5895C141.772 25.6083 141.736 25.6352 141.707 25.6683L141.148 26.2207L140.587 25.6683C140.557 25.6385 140.521 25.6149 140.482 25.5988C140.442 25.5826 140.4 25.5743 140.357 25.5743C140.315 25.5743 140.272 25.5826 140.233 25.5988C140.193 25.6149 140.157 25.6385 140.127 25.6683C140.097 25.6981 140.073 25.7335 140.057 25.7724C140.04 25.8113 140.032 25.853 140.032 25.8952C140.032 25.9373 140.04 25.979 140.057 26.0179C140.073 26.0569 140.097 26.0922 140.127 26.122L140.686 26.6745L140.127 27.2269C140.082 27.2717 140.05 27.3288 140.038 27.3911C140.025 27.4533 140.032 27.5178 140.056 27.5764C140.081 27.635 140.123 27.6851 140.176 27.7203C140.23 27.7555 140.293 27.7742 140.357 27.7741C140.4 27.7743 140.442 27.7661 140.482 27.7501C140.521 27.734 140.557 27.7104 140.587 27.6806L141.148 27.1282L141.707 27.6806C141.768 27.7408 141.85 27.7746 141.937 27.7746C142.023 27.7746 142.106 27.7408 142.167 27.6806C142.228 27.6204 142.262 27.5388 142.262 27.4537C142.262 27.3686 142.228 27.287 142.167 27.2269L141.608 26.6745Z" fill="#FFB86B"/>
<path d="M42.1693 27.7741L42.7297 27.2217C42.7907 27.1615 42.825 27.0799 42.825 26.9948C42.825 26.9097 42.7907 26.8281 42.7297 26.768C42.6687 26.7078 42.5859 26.674 42.4996 26.674C42.4132 26.674 42.3304 26.7078 42.2694 26.768L41.709 27.3204L41.1485 26.768C41.0875 26.7078 41.0047 26.674 40.9184 26.674C40.8321 26.674 40.7493 26.7078 40.6882 26.768C40.6272 26.8281 40.5929 26.9097 40.5929 26.9948C40.5929 27.0799 40.6272 27.1615 40.6882 27.2217L41.2487 27.7741L40.69 28.3248C40.635 28.3862 40.6059 28.4659 40.6084 28.5477C40.6109 28.6295 40.6449 28.7073 40.7035 28.7653C40.7621 28.8232 40.8409 28.8571 40.9239 28.8598C41.0069 28.8626 41.0878 28.8342 41.1503 28.7803L41.709 28.2278L42.2694 28.7803C42.3306 28.8401 42.4133 28.8737 42.4996 28.8737C42.5858 28.8737 42.6685 28.8401 42.7297 28.7803C42.7905 28.7196 42.8247 28.6378 42.8247 28.5525C42.8247 28.4673 42.7905 28.3854 42.7297 28.3248L42.1693 27.7741Z" fill="#FFB86B"/>
<path d="M132.826 73.9386C132.572 73.939 132.324 73.8652 132.114 73.7267C131.903 73.5882 131.738 73.3912 131.641 73.1605C131.544 72.9299 131.518 72.676 131.567 72.431C131.617 72.186 131.739 71.9609 131.918 71.7841C132.097 71.6074 132.325 71.487 132.573 71.4381C132.822 71.3893 133.079 71.4142 133.314 71.5097C133.548 71.6052 133.748 71.767 133.889 71.9746C134.029 72.1823 134.105 72.4264 134.105 72.6762C134.104 73.0106 133.969 73.3311 133.73 73.5677C133.49 73.8044 133.165 73.9377 132.826 73.9386ZM132.826 71.8103C132.652 71.8103 132.482 71.8611 132.338 71.9563C132.193 72.0514 132.081 72.1866 132.014 72.3448C131.948 72.5031 131.93 72.6771 131.964 72.8451C131.998 73.0131 132.082 73.1674 132.204 73.2885C132.327 73.4095 132.484 73.492 132.654 73.5254C132.825 73.5588 133.001 73.5417 133.162 73.4762C133.322 73.4106 133.459 73.2996 133.556 73.1572C133.653 73.0149 133.704 72.8474 133.704 72.6762C133.703 72.4472 133.61 72.2278 133.446 72.0662C133.281 71.9045 133.058 71.8138 132.826 71.8138V71.8103Z" fill="#2363A8"/>
<path d="M50.2457 72.9637C49.9927 72.9637 49.7454 72.8897 49.5351 72.7512C49.3248 72.6127 49.1608 72.4158 49.064 72.1854C48.9672 71.955 48.9419 71.7016 48.9913 71.457C49.0406 71.2125 49.1624 70.9878 49.3413 70.8115C49.5202 70.6352 49.7481 70.5151 49.9962 70.4665C50.2443 70.4178 50.5014 70.4428 50.7351 70.5382C50.9688 70.6336 51.1686 70.7952 51.3091 71.0026C51.4497 71.2099 51.5247 71.4536 51.5247 71.703C51.5247 72.0373 51.3899 72.358 51.1501 72.5944C50.9102 72.8308 50.5849 72.9637 50.2457 72.9637ZM50.2457 70.8371C50.0719 70.8371 49.9021 70.8879 49.7576 70.983C49.6132 71.0782 49.5006 71.2134 49.4341 71.3716C49.3676 71.5298 49.3502 71.7039 49.3841 71.8719C49.418 72.0398 49.5017 72.1941 49.6245 72.3152C49.7474 72.4363 49.9039 72.5188 50.0743 72.5522C50.2447 72.5856 50.4213 72.5685 50.5818 72.5029C50.7423 72.4374 50.8795 72.3264 50.9761 72.184C51.0726 72.0416 51.1241 71.8742 51.1241 71.703C51.1241 71.4733 51.0316 71.2531 50.8668 71.0907C50.7021 70.9283 50.4787 70.8371 50.2457 70.8371Z" fill="#2363A8"/>
<path d="M63.8175 0.955136V30.6076C62.1051 30.6097 60.4091 30.279 58.8264 29.6345C57.2437 28.99 55.8055 28.0443 54.5939 26.8515C50.8465 23.1715 50.7517 18.6084 50.7499 17.7512C51.7101 15.9776 52.3105 14.0365 52.5173 12.0365C52.8072 8.97117 52.1832 5.8891 50.7218 3.16829C52.6913 2.73709 55.114 1.66168 57.5841 0.0632935L63.8034 0.965526L63.8175 0.955136Z" fill="#5A8DE0"/>
<path d="M76.8834 17.7024C76.8834 18.5682 76.8079 23.1244 73.0745 26.8182C71.8638 28.0183 70.4245 28.9708 68.8392 29.6211C67.254 30.2713 65.554 30.6064 63.8369 30.6072H63.8141V0.954782L69.986 0.0317688C72.4649 1.62323 74.8911 2.68825 76.8606 3.11252C75.4111 5.83993 74.8006 8.92496 75.1037 11.9894C75.3146 13.9896 75.9192 15.9301 76.8834 17.7024Z" fill="#5280CC"/>
<path d="M63.8175 2.17397V29.1059C62.305 29.111 60.8065 28.8213 59.408 28.2533C58.0096 27.6854 56.7389 26.8504 55.6692 25.7965C52.8019 22.9807 52.3416 19.5329 52.2802 18.1094C53.2304 16.2591 53.826 14.2519 54.037 12.1886C54.309 9.44394 53.9008 6.67526 52.8476 4.12044C54.6699 3.4579 56.4112 2.59649 58.0392 1.55228L63.8175 2.17397Z" fill="#4B7FD1"/>
<path d="M75.3548 18.0591C75.2986 19.4826 74.8506 22.9322 71.9939 25.7584C70.9265 26.8205 69.6559 27.6633 68.2557 28.2379C66.8555 28.8125 65.3535 29.1075 63.8368 29.1058H63.8157V2.17395L69.5343 1.53494C71.1673 2.56856 72.9121 3.41948 74.7364 4.07193C73.6922 6.63015 73.2943 9.40014 73.5768 12.1435C73.7948 14.2065 74.3976 16.212 75.3548 18.0591Z" fill="#396CBD"/>
<path d="M63.8158 3.00692V28.3248C62.4038 28.3286 61.005 28.057 59.7 27.5256C58.395 26.9942 57.2096 26.2135 56.212 25.2285C53.6259 22.6898 53.1393 19.5831 53.0497 18.2098C54.1006 16.1104 54.708 13.8226 54.8351 11.485C54.9623 9.14732 54.6065 6.80857 53.7893 4.6105C55.3527 3.99344 56.8547 3.23518 58.2764 2.3454L63.7929 3.00865L63.8158 3.00692Z" fill="white"/>
<path d="M74.5766 18.1647C74.4975 19.5397 74.0232 22.6482 71.4476 25.1956C70.4512 26.1855 69.2655 26.9708 67.9591 27.5058C66.6527 28.0409 65.2515 28.3151 63.8368 28.3127H63.8175V3.00168L69.2831 2.32111C70.7085 3.207 72.2141 3.96064 73.7807 4.57236C72.9713 6.77317 72.624 9.11315 72.7599 11.4503C72.8958 13.7874 73.512 16.073 74.5713 18.1682L74.5766 18.1647Z" fill="#F3F0FF"/>
<path d="M60.1858 14.5645L70.0243 14.5316C69.8333 14.2654 69.5791 14.0493 69.2839 13.9023C68.9887 13.7553 68.6614 13.6818 68.3307 13.6882H67.7369L67.7228 11.9288V10.6005C67.72 9.97789 67.4667 9.38178 67.0183 8.94313C66.57 8.50447 65.9634 8.25912 65.3317 8.26097L61.818 8.27309C61.5051 8.27422 61.1956 8.33608 60.907 8.45514C60.6184 8.5742 60.3564 8.74813 60.136 8.96698C59.9156 9.18584 59.7411 9.44535 59.6224 9.73068C59.5038 10.016 59.4433 10.3216 59.4445 10.63L59.455 13.7177H58.8489C58.5178 13.7137 58.1908 13.7897 57.8965 13.9391C57.6021 14.0886 57.3494 14.3069 57.1605 14.5749H59.4585L60.1858 14.5645ZM61.9656 9.39525L65.1912 9.38486C65.3731 9.38418 65.5534 9.41885 65.7218 9.48691C65.8901 9.55496 66.0432 9.65506 66.1723 9.78148C66.3013 9.9079 66.4039 10.0581 66.474 10.2237C66.5441 10.3892 66.5804 10.5667 66.5809 10.746V11.9305V13.6934L60.5899 13.7125L60.5794 10.7685C60.5787 10.5886 60.614 10.4102 60.6834 10.2438C60.7527 10.0773 60.8547 9.92596 60.9834 9.7984C61.1122 9.67083 61.2652 9.56956 61.4337 9.50038C61.6023 9.4312 61.783 9.39547 61.9656 9.39525Z" fill="#5A8DE0"/>
<path d="M70.3212 15.4494C70.32 15.2564 70.2837 15.0652 70.2141 14.8848L56.9796 14.9281C56.9116 15.1094 56.8771 15.3012 56.8777 15.4944V17.1274C56.8882 20.4454 59.9065 23.1261 63.617 23.114C65.3665 23.1209 67.0565 22.4885 68.3606 21.339C68.9715 20.805 69.4615 20.1501 69.7984 19.417C70.1353 18.6839 70.3117 17.889 70.316 17.0841L70.3212 15.4494ZM63.617 20.6238C63.1722 20.6255 62.7368 20.4971 62.366 20.2549C61.9952 20.0127 61.7056 19.6675 61.5339 19.263C61.3621 18.8586 61.3159 18.413 61.4011 17.9826C61.4863 17.5522 61.6991 17.1565 62.0125 16.8453C62.326 16.5342 62.726 16.3217 63.162 16.2347C63.598 16.1476 64.0504 16.19 64.4619 16.3565C64.8735 16.5229 65.2257 16.806 65.474 17.1698C65.7224 17.5335 65.8557 17.9618 65.857 18.4002C65.8582 18.6912 65.8012 18.9796 65.6892 19.2489C65.5772 19.5182 65.4125 19.7631 65.2045 19.9696C64.9965 20.1761 64.7492 20.3401 64.4768 20.4524C64.2044 20.5646 63.9123 20.6229 63.617 20.6238Z" fill="#5A8DE0"/>
<path d="M63.5766 17.3854C63.4422 17.3945 63.316 17.4528 63.223 17.549C63.13 17.6452 63.0769 17.7721 63.0742 17.905C63.0716 17.9979 63.0943 18.0898 63.1401 18.1712C63.1858 18.2525 63.2528 18.3203 63.3342 18.3673L63.2411 19.5709C63.2401 19.5826 63.2416 19.5944 63.2455 19.6055C63.2494 19.6166 63.2556 19.6268 63.2637 19.6354C63.2718 19.644 63.2816 19.6509 63.2925 19.6556C63.3034 19.6603 63.3152 19.6627 63.3272 19.6627H63.8999C63.9118 19.6627 63.9235 19.6603 63.9343 19.6556C63.9452 19.6509 63.9549 19.644 63.9629 19.6353C63.9708 19.6267 63.9768 19.6165 63.9805 19.6054C63.9842 19.5942 63.9855 19.5825 63.9842 19.5709L63.8823 18.3691C63.9613 18.3229 64.0266 18.2573 64.0719 18.1786C64.1172 18.1 64.1409 18.011 64.1406 17.9205C64.1414 17.8483 64.1272 17.7766 64.0989 17.71C64.0706 17.6433 64.0287 17.5831 63.9759 17.5329C63.923 17.4828 63.8604 17.4439 63.7917 17.4185C63.7231 17.3931 63.6499 17.3819 63.5766 17.3854Z" fill="#5A8DE0"/>
</svg>
