<svg width="169" height="150" viewBox="0 0 169 150" fill="none" xmlns="http://www.w3.org/2000/svg">
<g clip-path="url(#clip0_48_6642)">
<path opacity="0.57" d="M56.1522 135.729C56.9411 137.68 58.2711 139.364 59.9852 140.582C82.8648 141.187 99.7543 141.254 111.436 141.142C113.008 140.241 114.332 138.961 115.287 137.42C121.197 138.617 126.895 137.911 132.066 135.403C135.331 135.614 138.428 135.849 141.34 136.101C164.222 120.132 176.86 74.803 156.586 53.7114C133.791 29.9958 166.494 5.10549 106.975 11.5684C67.8432 15.8182 83.0727 -14.7734 36.0597 9.3986C25.0843 15.0396 -2.48314 31.4473 9.86003 76.7182C13.5326 90.1891 -16.8694 108.938 26.2515 136.228C27.8112 136.087 29.4262 135.952 31.0965 135.821C39.1339 140.458 47.9248 140.449 56.1522 135.729Z" fill="#1977F3" fill-opacity="0.2"/>
<path opacity="0.4" d="M59.9852 140.582C58.2712 139.364 56.9412 137.68 56.1522 135.729C47.9206 140.449 39.1339 140.458 31.0944 135.819C29.4249 135.95 27.8099 136.085 26.2494 136.226C32.7545 138.55 41.3079 140.036 52.4892 140.371C55.0572 140.447 57.5558 140.518 59.9852 140.582Z" fill="url(#paint0_linear_48_6642)"/>
<path opacity="0.47" d="M141.335 136.101L141.314 136.115L132.387 135.403C127.143 138.121 121.106 138.891 115.348 137.575C114.532 138.977 113.429 140.19 112.112 141.136L111.436 141.142C109.847 142.051 108.049 142.529 106.219 142.527H66.0787C63.895 142.528 61.7652 141.849 59.9852 140.582C57.5537 140.518 55.0561 140.448 52.4924 140.371C41.3111 140.036 32.7577 138.55 26.2526 136.226C10.2115 137.682 0.217529 139.732 0.217529 142.004C0.217529 146.42 37.9531 149.999 84.5027 149.999C131.052 149.999 168.788 146.42 168.788 142.004C168.785 139.667 158.202 137.563 141.335 136.101Z" fill="#DCE7F5" fill-opacity="0.5"/>
<g opacity="0.6">
<path d="M105.971 133.636L105.751 132.943C105.8 133.181 105.874 133.413 105.971 133.636Z" fill="#8BB0C0"/>
<path opacity="0.8" d="M105.67 132.688L105.751 132.943C105.732 132.854 105.717 132.763 105.705 132.673L105.67 132.688Z" fill="#E7FCFF"/>
<path d="M112.568 130.238L112.58 130.245L112.587 130.229L112.568 130.238Z" fill="#E7FCFF"/>
<path d="M107.88 116.304L107.533 115.797C107.629 115.978 107.746 116.148 107.88 116.304Z" fill="#AFE7E1"/>
<path opacity="0.8" d="M107.406 115.611L107.533 115.798C107.496 115.729 107.463 115.658 107.428 115.586L107.406 115.611Z" fill="#E7FCFF"/>
<path d="M120.301 104.179L120.314 104.181L120.316 104.164L120.301 104.179Z" fill="#E7FCFF"/>
<path d="M155.655 110.232L142.496 107.766C139.569 107.204 136.573 107.093 133.612 107.435C128.897 112.525 122.876 115.621 115.965 116.4C113.04 119.321 110.397 122.913 108.106 127.139L105.911 131.188C105.69 131.597 105.635 132.139 105.7 132.673L112.771 129.757L113.746 127.305C114.87 124.435 116.476 121.778 118.495 119.451L121.814 115.67L118.1 120.762C116.804 122.551 115.726 124.489 114.891 126.535L113.73 129.362L122.957 125.559L123.775 123.505C124.715 121.104 126.058 118.882 127.747 116.934L130.524 113.773L127.418 118.031C126.333 119.527 125.432 121.149 124.733 122.861L123.759 125.228L133.106 121.371L133.785 119.666C134.559 117.686 135.665 115.854 137.056 114.247L139.346 111.639L136.785 115.151C135.89 116.386 135.146 117.723 134.569 119.135L133.76 121.099L141.504 117.904L142.032 116.58C142.636 115.038 143.499 113.611 144.584 112.36L146.368 110.329L144.373 113.065C143.676 114.026 143.097 115.067 142.648 116.166L142.015 117.692L150.083 114.363C150.094 114.36 150.106 114.359 150.118 114.361C150.129 114.363 150.14 114.367 150.15 114.373C150.16 114.379 150.169 114.387 150.175 114.397C150.182 114.406 150.187 114.417 150.189 114.429C150.197 114.454 150.196 114.481 150.186 114.505C150.176 114.53 150.158 114.55 150.135 114.563L142.091 118.035L143.373 118.775C144.283 119.305 145.269 119.694 146.297 119.926L149.252 120.586L146.824 120.323C145.359 120.157 143.947 119.675 142.685 118.91L141.588 118.253L133.909 121.568L135.514 122.497C136.683 123.178 137.948 123.677 139.267 123.976L143.058 124.821L139.937 124.483C138.055 124.271 136.242 123.652 134.623 122.669L133.251 121.849L123.984 125.85L125.873 126.945C127.29 127.772 128.824 128.377 130.423 128.74L135.018 129.767L131.236 129.357C128.954 129.1 126.756 128.35 124.792 127.159L123.187 126.198L114.054 130.142L116.27 131.429C117.964 132.417 119.799 133.139 121.712 133.571L127.199 134.8L122.677 134.31C119.949 134.002 117.321 133.106 114.973 131.681L113.099 130.557L105.968 133.636C106.196 134.154 106.541 134.569 106.952 134.707L112.862 136.684C125.565 140.929 137.652 137.194 146.616 126.253L156.684 113.98C159.226 110.53 157.571 110.569 155.655 110.232Z" fill="#1977F3"/>
<path d="M112.586 130.229L112.58 130.245L112.567 130.237L112.586 130.229ZM122.808 125.938L122.801 125.956L122.787 125.946L122.808 125.938ZM132.992 121.662L132.985 121.682L132.968 121.672L132.992 121.662ZM141.426 118.121L141.418 118.143L141.4 118.132L141.426 118.121ZM150.208 114.423C150.206 114.412 150.201 114.401 150.194 114.391C150.188 114.382 150.179 114.374 150.169 114.367C150.159 114.361 150.148 114.357 150.137 114.356C150.125 114.354 150.113 114.355 150.102 114.358L142.034 117.687L142.667 116.161C143.116 115.062 143.695 114.02 144.392 113.06L146.387 110.324L144.603 112.355C143.518 113.606 142.655 115.033 142.051 116.575L141.523 117.899L133.779 121.093L134.588 119.13C135.165 117.718 135.909 116.38 136.804 115.146L139.365 111.634L137.075 114.242C135.684 115.848 134.578 117.681 133.804 119.661L133.125 121.366L123.758 125.225L124.732 122.858C125.431 121.146 126.332 119.524 127.417 118.028L130.523 113.77L127.746 116.931C126.057 118.878 124.713 121.101 123.774 123.502L122.956 125.555L113.729 129.358L114.89 126.532C115.725 124.486 116.803 122.548 118.099 120.758L121.813 115.667L118.494 119.448C116.475 121.775 114.869 124.432 113.745 127.302L112.77 129.754L105.699 132.67C105.711 132.76 105.725 132.851 105.744 132.94L105.965 133.633L113.096 130.554L114.978 131.681C117.325 133.106 119.954 134.002 122.682 134.31L127.204 134.8L121.716 133.571C119.804 133.139 117.969 132.417 116.275 131.429L114.058 130.142L123.206 126.194L124.811 127.155C126.775 128.346 128.973 129.096 131.255 129.353L135.037 129.763L130.442 128.736C128.843 128.373 127.309 127.767 125.892 126.94L124.002 125.846L133.27 121.844L134.642 122.665C136.261 123.648 138.074 124.267 139.956 124.479L143.077 124.817L139.286 123.972C137.967 123.673 136.702 123.174 135.533 122.493L133.928 121.563L141.607 118.249L142.704 118.906C143.966 119.671 145.378 120.153 146.843 120.319L149.271 120.582L146.316 119.922C145.288 119.69 144.302 119.301 143.392 118.77L142.11 118.031L150.154 114.559C150.177 114.546 150.194 114.526 150.204 114.502C150.214 114.477 150.215 114.45 150.207 114.426L150.208 114.423Z" fill="#E7FCFF"/>
<path d="M133.612 107.435C136.399 104.428 138.728 100.724 140.513 96.3911L146.157 82.6941C147.505 78.944 146.115 79.5356 144.418 79.899L132.728 82.2695C120.456 84.7572 111.543 94.872 108.176 110.131L107.262 114.271C107.183 114.717 107.243 115.176 107.434 115.586L112.729 110.755L112.983 108.367C113.276 105.538 114.014 102.772 115.169 100.173L117.095 95.8798L115.139 101.409C114.463 103.328 114.003 105.316 113.767 107.337L113.442 110.103L120.353 103.794L120.564 101.794C120.81 99.4277 121.427 97.1146 122.393 94.9407L124.004 91.349L122.37 95.9717C121.806 97.5769 121.421 99.24 121.224 100.93L120.952 103.246L127.953 96.8559L128.13 95.1963C128.333 93.2441 128.841 91.336 129.638 89.5426L130.967 86.5848L129.619 90.3972C129.152 91.7212 128.834 93.0931 128.669 94.4875L128.444 96.408L134.248 91.1145L134.385 89.8257C134.543 88.3053 134.94 86.8195 135.561 85.4227L136.595 83.1156L135.54 86.0851C135.176 87.1165 134.929 88.185 134.801 89.2711L134.626 90.7627L140.669 85.2474C140.676 85.2405 140.685 85.2354 140.695 85.2325C140.705 85.2296 140.715 85.2289 140.725 85.2305C140.735 85.2322 140.745 85.236 140.754 85.2419C140.762 85.2477 140.769 85.2554 140.774 85.2643C140.787 85.2846 140.792 85.3086 140.79 85.3324C140.787 85.3562 140.776 85.3784 140.759 85.3953L134.771 91.0236L136.026 91.2138C136.934 91.3524 137.859 91.3456 138.765 91.1937L141.413 90.7522L139.302 91.3511C138.058 91.7047 136.751 91.7769 135.476 91.5624L134.396 91.3807L128.679 96.7534L130.25 96.9922C131.416 97.1697 132.603 97.1612 133.766 96.9668L137.166 96.3985L134.451 97.1675C132.853 97.6223 131.175 97.7151 129.538 97.439L128.19 97.2119L121.291 103.697L123.142 103.978C124.555 104.193 125.993 104.183 127.403 103.947L131.525 103.259L128.234 104.191C126.297 104.742 124.262 104.854 122.277 104.52L120.694 104.255L113.884 110.655L116.059 110.986C117.749 111.243 119.469 111.23 121.154 110.949L126.082 110.126L122.161 111.233C119.846 111.892 117.414 112.026 115.041 111.626L113.19 111.309L107.88 116.304C108.197 116.662 108.581 116.894 108.961 116.871L114.418 116.534C114.938 116.502 115.454 116.457 115.965 116.399C122.876 115.621 128.897 112.525 133.612 107.435Z" fill="#1977F3"/>
<path d="M138.781 91.1863C137.875 91.3382 136.95 91.345 136.042 91.2064L134.787 91.0162L140.775 85.3879C140.792 85.3709 140.803 85.3488 140.805 85.325C140.808 85.3012 140.803 85.2772 140.79 85.2569C140.785 85.248 140.778 85.2403 140.769 85.2345C140.761 85.2286 140.751 85.2248 140.741 85.2231C140.731 85.2215 140.721 85.2222 140.711 85.2251C140.701 85.228 140.692 85.2331 140.684 85.24L134.642 90.7553L134.817 89.2637C134.944 88.1776 135.192 87.1091 135.555 86.0777L136.611 83.1082L135.577 85.4153C134.956 86.812 134.559 88.2979 134.401 89.8183L134.264 91.1071L128.459 96.4006L128.685 94.4801C128.85 93.0857 129.168 91.7138 129.635 90.3898L130.983 86.5773L129.654 89.5352C128.857 91.3286 128.348 93.2367 128.146 95.1889L127.969 96.8485L120.968 103.238L121.24 100.923C121.437 99.2326 121.821 97.5695 122.386 95.9643L124.02 91.3416L122.409 94.9333C121.443 97.1072 120.826 99.4203 120.58 101.787L120.369 103.787L113.458 110.095L113.783 107.33C114.019 105.309 114.479 103.32 115.155 101.401L117.108 95.8756L115.182 100.169C114.027 102.768 113.29 105.533 112.997 108.363L112.742 110.75L107.448 115.582C107.478 115.654 107.512 115.725 107.553 115.794L107.9 116.301L113.21 111.31L115.061 111.627C117.434 112.027 119.866 111.893 122.181 111.234L126.117 110.12L121.189 110.943C119.503 111.224 117.784 111.236 116.094 110.98L113.919 110.649L120.729 104.248L122.312 104.514C124.297 104.848 126.332 104.736 128.268 104.185L131.56 103.252L127.438 103.941C126.028 104.177 124.59 104.187 123.176 103.972L121.325 103.691L128.225 97.2055L129.573 97.4327C131.21 97.7087 132.888 97.616 134.485 97.1612L137.201 96.3921L133.8 96.9605C132.637 97.1548 131.451 97.1634 130.285 96.9858L128.714 96.7471L134.431 91.3744L135.511 91.556C136.786 91.7706 138.093 91.6984 139.337 91.3448L141.447 90.7458L138.781 91.1863ZM112.677 111.213V111.229H112.664L112.677 111.213ZM120.315 104.163V104.181H120.301L120.315 104.163ZM127.926 97.139V97.158H127.911L127.926 97.139ZM134.23 91.3215V91.3427H134.212L134.23 91.3215Z" fill="#E7FCFF"/>
</g>
<g opacity="0.6">
<path opacity="0.8" d="M58.5964 118.5L58.5637 118.484C58.5468 118.568 58.5257 118.65 58.5015 118.732L58.5964 118.5Z" fill="#DFF3F7"/>
<path d="M52.2333 115.811L52.2158 115.802L52.2202 115.817L52.2333 115.811Z" fill="#DFF3F7"/>
<path d="M42.7358 111.188L42.7413 111.206L42.7555 111.199L42.7358 111.188Z" fill="#DFF3F7"/>
<path d="M33.5017 106.634L33.4795 106.622L33.4858 106.641L33.5017 106.634Z" fill="#DFF3F7"/>
<path d="M25.7597 102.84L25.7355 102.828L25.7418 102.85L25.7597 102.84Z" fill="#DFF3F7"/>
<path d="M58.2924 111.973L57.8154 112.328C57.9884 112.229 58.1487 112.11 58.2924 111.973Z" fill="#A0D4CE"/>
<path opacity="0.8" d="M58.4687 111.844L58.4466 111.814C58.398 111.869 58.341 111.92 58.2925 111.974L58.4687 111.844Z" fill="#DFF3F7"/>
<path d="M54.0142 106.374L54.0026 106.358L54.0005 106.373L54.0142 106.374Z" fill="#DFF3F7"/>
<path d="M47.6062 97.8034L47.5924 97.7844L47.5903 97.8013L47.6062 97.8034Z" fill="#DFF3F7"/>
<path d="M39.2447 104.092C39.586 104.384 39.9335 104.671 40.2874 104.951C43.0396 107.106 46.1012 108.832 49.3685 110.071C49.6535 110.177 49.9405 110.282 50.2297 110.388C50.4408 110.465 50.6553 110.541 50.8734 110.613L56.225 112.42L56.4667 112.503C56.8561 112.634 57.311 112.538 57.7194 112.307L53.3514 106.279L51.3557 106.02C48.7876 105.686 46.3071 104.863 44.0475 103.597L40.2156 101.45L45.1461 103.627C46.831 104.37 48.609 104.88 50.4313 105.142L52.7678 105.478L47.1639 97.7443L45.4617 97.5235C43.3131 97.2433 41.2379 96.5542 39.3481 95.4931L36.1431 93.6973L40.2673 95.5153C41.6765 96.1372 43.1638 96.5637 44.6881 96.783L46.6764 97.0777L40.9987 89.2426L39.5423 89.0492C37.7704 88.8193 36.0588 88.2521 34.4999 87.3781L31.8553 85.8991L35.2577 87.3981C36.4205 87.9104 37.6475 88.2618 38.9049 88.4429L40.5934 88.6859L35.8898 82.1944L34.729 82.0434C33.3495 81.8632 32.017 81.4211 30.8031 80.7409L28.7431 79.5873L31.3931 80.7493C32.2985 81.1482 33.2539 81.4221 34.233 81.5638L35.5817 81.7571L30.6543 74.9572C30.6409 74.9387 30.635 74.9158 30.6377 74.893C30.6405 74.8703 30.6517 74.8495 30.6691 74.8347C30.6778 74.8279 30.6878 74.823 30.6985 74.8201C30.7092 74.8173 30.7203 74.8167 30.7312 74.8183C30.7422 74.8198 30.7527 74.8236 30.7621 74.8293C30.7716 74.835 30.7798 74.8426 30.7862 74.8516L35.7959 81.5659L35.9542 80.1757C36.0721 79.1526 36.0611 78.1188 35.9215 77.0985L35.5141 74.1237L36.0597 76.4995C36.383 77.909 36.4544 79.3646 36.2708 80.799L36.1167 81.9969L40.9259 88.4408L41.1369 86.6449C41.289 85.3315 41.2752 84.0041 41.0958 82.6941L40.5681 78.8753L41.2678 81.924C41.6815 83.7337 41.7719 85.6024 41.5348 87.4436L41.3364 88.9922L47.1407 96.7713L47.3908 94.6111C47.5744 93.0184 47.5577 91.4089 47.3412 89.8204L46.708 85.1903L47.5523 88.8876C48.0531 91.0822 48.1624 93.3481 47.8752 95.5808L47.6367 97.439L53.3672 105.119L53.6648 102.539C53.8853 100.635 53.8654 98.7114 53.6057 96.8125L52.8469 91.2771L53.86 95.696C54.4598 98.3192 54.5909 101.028 54.2473 103.697L53.9613 105.915L58.3515 111.798C58.6407 111.469 58.8317 111.067 58.8317 110.666V106.679C58.8444 91.9849 51.9098 80.3014 39.7302 74.4966L28.13 68.9665C26.4509 68.1457 25.1434 67.2108 25.6805 70.9736L28.3938 84.9294C28.9255 87.71 29.7827 90.4182 30.9477 92.998C32.8702 97.2585 35.7023 101.045 39.2447 104.092Z" fill="#1977F3"/>
<path d="M54.0574 105.931L54.0025 106.354L54.0141 106.37H54.0004V106.383L53.9888 106.369L53.9065 106.358V106.343L53.9603 105.921L54.2463 103.702C54.5899 101.033 54.4588 98.3245 53.859 95.7013L52.8459 91.2824L53.6047 96.8179C53.8644 98.7167 53.8843 100.641 53.6638 102.544L53.3672 105.118L47.6368 97.438L47.8753 95.5798C48.1625 93.3471 48.0531 91.0812 47.5523 88.8866L46.7081 85.1893L47.3413 89.8194C47.5578 91.4079 47.5744 93.0173 47.3909 94.61L47.1408 96.7714L41.4187 89.1031L41.4314 89.007L41.6298 87.4637C41.8668 85.6221 41.7764 83.7531 41.3628 81.943L40.6642 78.8943L41.1866 82.7131C41.3659 84.0235 41.3798 85.3512 41.2277 86.665L41.0167 88.4609L36.2075 82.017L36.3616 80.819C36.5452 79.3847 36.4738 77.9291 36.1505 76.5196L35.606 74.1459L36.0133 77.1196C36.1535 78.1399 36.1645 79.1738 36.046 80.1968L35.8846 81.5892L30.8749 74.8738C30.8685 74.8648 30.8602 74.8572 30.8508 74.8515C30.8413 74.8458 30.8307 74.842 30.8198 74.8406C30.8088 74.8391 30.7976 74.8399 30.787 74.8428C30.7763 74.8458 30.7664 74.851 30.7578 74.8579C30.7402 74.8724 30.7289 74.8931 30.7261 74.9157C30.7234 74.9383 30.7294 74.9611 30.743 74.9794L35.6703 81.7803L34.3216 81.586C33.3425 81.4452 32.3871 81.1716 31.4817 80.7726L28.8318 79.6106L30.8918 80.7631C32.1056 81.4444 33.4386 81.8865 34.8187 82.0656L35.9796 82.2166L40.6832 88.7081L38.9946 88.4662C37.737 88.2852 36.51 87.9334 35.3474 87.4203L31.945 85.9213L34.5897 87.4003C36.1485 88.2746 37.8601 88.8422 39.6321 89.0725L40.9913 89.2489L46.6764 97.0777L44.6882 96.7915C43.1638 96.5722 41.6765 96.1457 40.2674 95.5238L36.1431 93.6973L39.3482 95.4932C41.2382 96.5531 43.3133 97.2412 45.4617 97.5203L47.164 97.7411L52.7678 105.475L50.4313 105.139C48.6092 104.878 46.8311 104.369 45.1462 103.627L40.2157 101.455L44.0476 103.602C46.3071 104.868 48.7877 105.691 51.3557 106.025L53.3514 106.284L53.8917 106.354L53.4443 106.296L57.8133 112.324L58.2903 111.969C58.3442 111.919 58.3959 111.864 58.4444 111.81L54.0574 105.931ZM36.1822 82.2314V82.2114L36.198 82.2335L36.1822 82.2314ZM41.2826 89.2775H41.2974V89.2922L41.2826 89.2775ZM47.5903 97.8003V97.7844L47.603 97.8024L47.5903 97.8003Z" fill="white"/>
<path d="M51.6081 116.06L49.7454 116.995C49.2719 117.231 48.7931 117.447 48.3091 117.643C50.0234 118.738 51.6516 119.962 53.1794 121.305L57.1412 120.283C57.7079 120.136 58.187 119.464 58.4076 118.716L58.1501 119.35L51.6081 116.06Z" fill="url(#paint1_linear_48_6642)"/>
<path d="M50.2297 110.394C50.6062 111.245 50.9376 112.115 51.2228 113L51.9753 115.337L58.4687 118.469C58.5743 117.975 58.5595 117.47 58.379 117.077L56.5849 113.184C56.4682 112.929 56.3489 112.677 56.2272 112.427L50.8756 110.619C50.6582 110.547 50.4429 110.472 50.2297 110.394Z" fill="url(#paint2_linear_48_6642)"/>
<path d="M39.745 111.94L41.6119 111.038L33.1112 106.766L31.7562 107.445C30.1486 108.262 28.386 108.728 26.585 108.812L23.6048 108.939L27.2562 108.379C28.5272 108.181 29.7615 107.794 30.9182 107.231L32.5012 106.464L25.4579 102.924L24.3709 103.469C23.1203 104.104 21.7491 104.467 20.348 104.534L18.0263 104.632L20.8704 104.196C21.8594 104.041 22.8198 103.74 23.7198 103.302L24.9862 102.689L17.62 98.9792C17.5992 98.9662 17.5836 98.9462 17.5759 98.9229C17.5682 98.8996 17.5689 98.8743 17.5778 98.8514C17.581 98.8408 17.5863 98.831 17.5934 98.8225C17.6005 98.814 17.6093 98.8071 17.6191 98.802C17.629 98.797 17.6397 98.794 17.6508 98.7932C17.6618 98.7925 17.6729 98.7939 17.6833 98.7975L25.0949 102.372L24.6073 100.919C24.2589 99.8696 23.7836 98.8671 23.1921 97.9334L21.4962 95.2756L23.0444 97.269C23.9828 98.4929 24.7006 99.8714 25.1656 101.342L25.5709 102.603L32.6828 106.034L32.0548 104.162C31.6071 102.815 30.9965 101.528 30.2365 100.329L28.0562 96.9129L30.0444 99.4726C31.2501 101.044 32.1719 102.814 32.7682 104.703L33.2959 106.327L41.8831 110.468L41.1254 108.212C40.6475 106.775 40.0174 105.394 39.2459 104.092C35.7031 101.045 32.8709 97.2565 30.9488 92.9949C29.0844 92.8608 27.2114 92.9061 25.3556 93.1301L12.7106 94.6322C10.8711 94.8308 9.30502 94.6946 11.4727 98.0475L20.1412 110.053C21.2608 111.612 22.5034 113.078 23.857 114.438C28.0055 112.949 32.2448 112.516 36.445 113.112C37.585 112.845 38.6918 112.452 39.745 111.94Z" fill="#1977F3"/>
<path d="M50.7342 115.621L42.3422 111.404L40.7592 112.201C39.8109 112.678 38.8175 113.06 37.7937 113.34C41.0842 113.981 44.3368 115.254 47.5028 117.143C47.8545 117.002 48.2007 116.847 48.5412 116.678L50.7342 115.621Z" fill="#1977F3"/>
<path d="M42.6177 110.823L51.0951 114.912L50.1918 112.217C49.9462 111.486 49.6718 110.772 49.3686 110.075C46.101 108.835 43.0394 107.107 40.2875 104.951C40.9826 106.197 41.5521 107.508 41.9876 108.867L42.6177 110.823Z" fill="#1977F3"/>
<path d="M51.9752 115.337L51.2228 113C50.9376 112.115 50.6061 111.245 50.2297 110.394C49.9405 110.289 49.6535 110.183 49.3685 110.077C49.6711 110.773 49.9454 111.486 50.1917 112.219L51.0951 114.915L42.6176 110.825L41.9844 108.869C41.5488 107.51 40.9793 106.199 40.2842 104.953C39.9325 104.671 39.5849 104.385 39.2416 104.094C40.0131 105.396 40.6432 106.778 41.1211 108.214L41.8778 110.47L33.4003 106.374L33.3887 106.338L32.861 104.714C32.264 102.825 31.3418 101.055 30.1362 99.4842L28.15 96.9235L30.3303 100.341C31.0932 101.54 31.7061 102.828 32.155 104.177L32.7882 106.05L25.6731 102.618L25.2679 101.357C24.8027 99.8866 24.0848 98.5085 23.1467 97.2848L21.5985 95.2903L23.2976 97.9514C23.8892 98.8847 24.3648 99.8869 24.7139 100.936L25.2004 102.39L17.7888 98.8155C17.7783 98.8117 17.7672 98.8101 17.7561 98.8108C17.7451 98.8115 17.7342 98.8145 17.7244 98.8196C17.7145 98.8246 17.7057 98.8316 17.6986 98.8402C17.6916 98.8488 17.6863 98.8587 17.6832 98.8693C17.6743 98.8922 17.6737 98.9175 17.6814 98.9409C17.6891 98.9642 17.7047 98.9841 17.7254 98.9972L25.1033 102.704L23.8369 103.317C22.9369 103.755 21.9765 104.057 20.9875 104.211L18.1434 104.648L20.4651 104.548C21.8662 104.483 23.2375 104.121 24.488 103.485L25.575 102.94L32.6183 106.478L31.0353 107.245C29.8786 107.809 28.6443 108.196 27.3733 108.395L23.7218 108.955L26.7032 108.827C28.5019 108.742 30.2623 108.277 31.868 107.461L33.1903 106.797L41.6329 111.038L39.7661 111.94C38.7125 112.452 37.6053 112.845 36.465 113.112C36.9139 113.177 37.362 113.253 37.8095 113.34C38.8333 113.06 39.8267 112.678 40.775 112.201L42.358 111.404L50.75 115.621L48.5549 116.678C48.2122 116.844 47.8661 116.999 47.5164 117.143C47.7866 117.304 48.056 117.47 48.3248 117.639C48.8081 117.443 49.2869 117.227 49.7611 116.99L51.6238 116.056L58.1668 119.343L58.4243 118.709C58.4486 118.627 58.4697 118.544 58.4866 118.462L51.9752 115.337ZM25.7417 102.849L25.7344 102.828L25.7597 102.84L25.7417 102.849ZM42.74 111.205V111.188L42.76 111.198L42.74 111.205ZM52.1251 115.801L52.1198 115.786L52.1367 115.795L52.1251 115.801Z" fill="white"/>
<path d="M59.5008 129.918L59.4312 130.581L52.5029 129.448L51.0318 130.866C49.2068 132.645 47.0307 134.023 44.6428 134.912L40.6969 136.355L45.3731 134.041C47.0039 133.229 48.5066 132.18 49.8329 130.93L51.5732 129.297L42.6852 127.845L41.4304 129.053C39.9037 130.541 38.0829 131.692 36.0851 132.434L32.7882 133.645L36.7004 131.71C38.0642 131.03 39.3208 130.154 40.4299 129.108L41.9148 127.718L32.9107 126.246L31.8384 127.278C30.5791 128.506 29.0778 129.457 27.4303 130.07L24.7086 131.066L27.9337 129.469C29.0587 128.909 30.0952 128.185 31.01 127.323L32.2764 126.143L24.8163 124.924L23.9572 125.751C22.9759 126.707 21.8059 127.447 20.5221 127.924L18.4019 128.699L20.9147 127.456C21.7912 127.02 22.5987 126.456 23.3114 125.785L24.3181 124.841L16.5034 123.564C16.4805 123.558 16.4605 123.544 16.447 123.525C16.4335 123.506 16.4273 123.482 16.4295 123.459C16.4295 123.447 16.4318 123.436 16.4363 123.426C16.4407 123.415 16.4473 123.406 16.4555 123.398C16.4637 123.391 16.4734 123.385 16.484 123.381C16.4946 123.377 16.5059 123.375 16.5171 123.376L24.3266 124.52L23.4823 123.311C22.8802 122.439 22.1711 121.646 21.3717 120.951L19.089 118.975L21.054 120.375C22.2523 121.241 23.2863 122.314 24.1071 123.544L24.8205 124.601L32.3133 125.698L31.2306 124.141C30.4579 123.022 29.5482 122.004 28.5226 121.111L25.5898 118.576L28.1131 120.372C29.6512 121.482 30.9789 122.858 32.0337 124.436L32.9529 125.793L42.0023 127.118L40.7032 125.232C39.766 123.875 38.6627 122.641 37.419 121.559L33.8647 118.484L36.9251 120.662C38.7884 122.008 40.3966 123.676 41.6741 125.588L42.7812 127.223L51.7146 128.531L50.1569 126.29C49.0364 124.667 47.7175 123.192 46.2311 121.897L41.9812 118.221L45.638 120.825C47.8672 122.434 49.7917 124.429 51.3209 126.715L52.6485 128.663L59.4913 129.665C59.4554 129.175 59.3077 128.714 59.0354 128.397L56.3306 125.304C55.5609 124.423 54.7768 123.59 53.9783 122.805C52.5718 121.416 51.0622 120.136 49.4625 118.975C49.212 118.794 48.9605 118.618 48.7079 118.447C45.753 116.426 42.6651 114.998 39.516 114.18C39.0875 114.069 38.658 113.969 38.2274 113.88C34.1613 113.045 29.9524 113.224 25.9718 114.402C24.6431 114.79 23.3438 115.272 22.084 115.845L10.7972 120.966C9.14984 121.691 7.66605 122.027 10.5682 124.508L21.8022 133.125C31.8121 140.805 43.2846 141.412 53.8368 134.816L58.7494 131.748C59.2349 131.445 59.4987 130.678 59.5008 129.918Z" fill="#1977F3"/>
<path d="M59.5937 129.938C59.5937 129.855 59.5937 129.773 59.5853 129.69L52.7415 128.688L52.9958 129.063H53.0148L53.0042 129.072L53.0127 129.085H52.9947L52.5958 129.469L59.5241 130.601L59.5937 129.938Z" fill="#DFF3F7"/>
<path d="M52.9197 129.067L52.9113 129.055L52.9028 129.043L52.6485 128.668L51.3272 126.715C49.798 124.429 47.8735 122.434 45.6443 120.825L41.9875 118.221L46.2374 121.897C47.7238 123.192 49.0427 124.667 50.1632 126.29L51.7209 128.531L42.7875 127.223L41.6804 125.588C40.4029 123.676 38.7947 122.008 36.9314 120.662L33.871 118.484L37.4253 121.559C38.6668 122.642 39.7679 123.876 40.7032 125.232L42.0076 127.109L33.0436 125.797L32.1307 124.448C31.0757 122.871 29.748 121.495 28.2102 120.385L25.6869 118.589L28.6186 121.124C29.6445 122.017 30.5546 123.035 31.3276 124.155L32.4093 125.712L24.9165 124.614L24.2031 123.558C23.3824 122.328 22.3484 121.254 21.15 120.389L19.185 118.989L21.4687 120.964C22.2676 121.66 22.9767 122.453 23.5794 123.324L24.4236 124.534L16.6142 123.39C16.6029 123.389 16.5917 123.39 16.581 123.394C16.5704 123.398 16.5607 123.404 16.5525 123.412C16.5444 123.42 16.5379 123.429 16.5336 123.439C16.5294 123.45 16.5273 123.461 16.5276 123.472C16.5249 123.496 16.5308 123.519 16.5442 123.539C16.5576 123.558 16.5776 123.572 16.6005 123.578L24.4089 124.86L23.4021 125.803C22.6892 126.474 21.8817 127.038 21.0054 127.475L18.4937 128.718L20.6128 127.942C21.8963 127.465 23.0657 126.724 24.0458 125.768L24.9049 124.941L32.3661 126.163L31.106 127.344C30.1908 128.206 29.154 128.93 28.0287 129.49L24.8025 131.087L27.5242 130.091C29.1722 129.478 30.6741 128.527 31.9334 127.298L33.0035 126.267H33.0088L41.9168 127.723L40.432 129.113C39.3229 130.159 38.0663 131.036 36.7024 131.715L32.7882 133.645L36.0882 132.438C38.086 131.696 39.9068 130.545 41.4335 129.057L42.6883 127.849L51.5731 129.297L49.8287 130.93C48.5024 132.18 46.9997 133.229 45.3688 134.041L40.6926 136.355L44.6385 134.912C47.0264 134.023 49.2026 132.645 51.0275 130.866L52.4987 129.448L52.8965 129.065L52.9197 129.067ZM25.059 124.793L25.0452 124.807L25.0336 124.789L25.059 124.793ZM43.0123 127.531L43.0017 127.541L42.9912 127.528L43.0123 127.531Z" fill="white"/>
</g>
<path d="M54.6885 55.8009H53.6331C53.4806 55.8009 53.3343 55.7402 53.2264 55.6323C53.1186 55.5243 53.058 55.3779 53.058 55.2252V47.8844C53.058 47.7317 53.1186 47.5853 53.2264 47.4773C53.3343 47.3694 53.4806 47.3087 53.6331 47.3087H54.6885V55.8009Z" fill="#1977F3"/>
<path d="M54.6885 66.0963H53.6331C53.4806 66.0963 53.3343 66.0357 53.2264 65.9277C53.1186 65.8197 53.058 65.6733 53.058 65.5206V58.1798C53.058 58.0271 53.1186 57.8807 53.2264 57.7727C53.3343 57.6648 53.4806 57.6041 53.6331 57.6041H54.6885V66.0963Z" fill="#1977F3"/>
<path d="M115.598 49.3496H116.532C116.624 49.3496 116.714 49.3676 116.799 49.4027C116.883 49.4377 116.96 49.4891 117.025 49.5538C117.089 49.6186 117.141 49.6954 117.176 49.78C117.211 49.8646 117.229 49.9553 117.229 50.0468V65.0621C117.229 65.247 117.155 65.4244 117.025 65.5551C116.894 65.6859 116.717 65.7593 116.532 65.7593H115.598V49.3496Z" fill="#1977F3"/>
<path d="M105.228 19.6676H65.0867C59.1504 19.6676 54.3381 24.6104 54.3381 30.7057V131.493C54.3381 137.59 59.1504 142.531 65.0867 142.531H105.228C111.165 142.531 115.977 137.59 115.977 131.493V30.7057C115.977 24.6104 111.165 19.6676 105.228 19.6676Z" fill="#1977F3"/>
<path d="M64.7311 139.479C60.477 139.479 57.0166 135.98 57.0166 131.679V30.7004C57.0166 26.3999 60.477 22.9012 64.7311 22.9012H105.584C109.838 22.9012 113.299 26.3999 113.299 30.7004V131.679C113.299 135.98 109.838 139.479 105.584 139.479H64.7311Z" fill="white"/>
<path d="M105.361 140.749H64.9537C59.905 140.749 55.7976 136.532 55.7976 131.348V30.8514C55.7976 25.6668 59.905 21.4497 64.9537 21.4497H105.361C110.41 21.4497 114.517 25.6678 114.517 30.8514V131.348C114.517 136.532 110.41 140.749 105.361 140.749ZM64.9537 22.7005C60.5772 22.7005 57.0165 26.3566 57.0165 30.8514V131.348C57.0165 135.841 60.5772 139.498 64.9537 139.498H105.361C109.738 139.498 113.298 135.841 113.298 131.348V30.8514C113.298 26.3566 109.738 22.7005 105.361 22.7005H64.9537Z" fill="#373737"/>
<path d="M88.246 62.7286C89.162 62.7086 90.0696 62.0948 90.8126 61.6089C91.4679 61.18 92.0937 60.7078 92.7122 60.2292L92.6657 60.1342C92.2843 59.3599 91.6662 58.7275 90.9012 58.3288L88.0064 56.9988C87.6233 56.7992 87.4862 56.2277 87.7078 55.8537L88.6681 54.1466C89.2696 53.1298 89.628 51.9874 89.7153 50.8089C89.8027 49.6304 89.6165 48.4477 89.1715 47.3531C87.712 43.7667 82.6897 43.7857 81.2565 47.3816L81.2491 47.3996C80.7918 48.5483 80.6189 49.7907 80.7454 51.0208C80.8718 52.2509 81.2938 53.4321 81.9752 54.4635L82.8881 55.8432C82.9484 55.9343 82.9883 56.0375 83.0049 56.1456C83.0216 56.2537 83.0146 56.3641 82.9845 56.4693C82.9545 56.5744 82.9019 56.6717 82.8306 56.7546C82.7593 56.8375 82.6709 56.9038 82.5715 56.9492L79.4804 58.3658C78.6651 58.739 77.9968 59.373 77.5808 60.168L77.5302 60.263C78.9549 61.293 80.3627 62.4476 82.1377 62.7424C82.1889 62.7482 82.2379 62.7662 82.2806 62.7949C82.3234 62.8236 82.3587 62.8621 82.3836 62.9072H87.9178C87.9511 62.8503 87.9993 62.8037 88.0571 62.7722C88.1149 62.7408 88.1802 62.7257 88.246 62.7286Z" fill="#1977F3"/>
<path d="M94.1569 41.4934C92.9783 40.294 91.5731 39.3415 90.023 38.6913C88.473 38.0411 86.8091 37.7062 85.1285 37.7062C83.4479 37.7062 81.784 38.0411 80.234 38.6913C78.6839 39.3415 77.2787 40.294 76.1001 41.4934C73.7035 43.931 72.3602 47.214 72.3602 50.6342C72.3602 54.0543 73.7035 57.3374 76.1001 59.775C77.2787 60.9743 78.6839 61.9269 80.234 62.5771C81.784 63.2273 83.4479 63.5621 85.1285 63.5621C86.8091 63.5621 88.473 63.2273 90.023 62.5771C91.5731 61.9269 92.9783 60.9743 94.1569 59.775C96.553 57.3371 97.8959 54.0541 97.8959 50.6342C97.8959 47.2142 96.553 43.9312 94.1569 41.4934ZM74.0665 50.6342C74.0665 44.4586 79.0266 39.4366 85.1285 39.4366C91.2304 39.4366 96.1894 44.4607 96.1894 50.6342C96.1894 56.8076 91.2294 61.8317 85.1285 61.8317C79.0276 61.8317 74.0665 56.8087 74.0665 50.6342ZM84.7813 38.6073H84.8246H84.7813ZM97.0105 50.5127C97.0105 50.5528 97.0105 50.593 97.0105 50.6342C97.0105 50.6754 97.0105 50.7145 97.0105 50.7546C97.0105 50.7145 97.0105 50.6743 97.0105 50.6342C97.0105 50.594 97.0116 50.5528 97.0105 50.5127ZM97.0105 50.9352V51.0219V50.9352ZM96.9989 51.2448C96.9989 51.2585 96.9989 51.2712 96.9989 51.2838C96.9957 51.2743 96.9968 51.2617 96.9968 51.2479L96.9989 51.2448ZM96.9989 49.9771C96.9989 49.9898 96.9989 50.0035 96.9989 50.0162C96.9968 50.0067 96.9957 49.993 96.9947 49.9803L96.9989 49.9771ZM97.0094 50.2391V50.3257V50.2391ZM85.4789 38.6084H85.4356H85.4789ZM73.2602 50.0067C73.2602 50.0067 73.2602 50.013 73.2602 50.0162C73.2602 50.0194 73.2602 50.0099 73.2602 50.0067ZM73.2497 50.2845C73.2497 50.2982 73.2497 50.312 73.2497 50.3268C73.2486 50.312 73.2486 50.2982 73.2497 50.2803V50.2845ZM73.2602 51.2617C73.2602 51.2617 73.2602 51.2543 73.2602 51.2511C73.2602 51.2479 73.2602 51.2574 73.2602 51.2617ZM73.2497 50.9828C73.2497 50.969 73.2497 50.9553 73.2497 50.9416C73.2486 50.9553 73.2486 50.969 73.2497 50.9828ZM84.7686 62.6599H84.8256H84.7686ZM85.4873 62.6599H85.4314H85.4873Z" fill="#1977F3"/>
<g opacity="0.9">
<path d="M111.505 86.4231H58.7494V78.1422H111.505V86.4231ZM58.8665 86.3027H111.389V78.2574H58.8665V86.3027Z" fill="#1977F3"/>
</g>
<path opacity="0.5" d="M66.6876 85.5495C66.6569 85.5494 66.6265 85.5432 66.5982 85.5312C66.5699 85.5193 66.5442 85.5019 66.5226 85.48C66.5011 85.4581 66.484 85.4322 66.4725 85.4037C66.461 85.3752 66.4552 85.3447 66.4555 85.3139V79.2514C66.4552 79.2206 66.461 79.1901 66.4725 79.1615C66.484 79.1329 66.501 79.1069 66.5226 79.0849C66.5441 79.063 66.5698 79.0455 66.5981 79.0334C66.6264 79.0214 66.6569 79.015 66.6876 79.0148C66.7185 79.0149 66.749 79.0211 66.7774 79.0331C66.8059 79.0451 66.8317 79.0626 66.8534 79.0846C66.875 79.1066 66.8921 79.1326 66.9037 79.1612C66.9153 79.1899 66.9211 79.2205 66.9209 79.2514V85.3139C66.921 85.3447 66.9151 85.3753 66.9034 85.4038C66.8918 85.4323 66.8746 85.4582 66.853 85.4801C66.8313 85.502 66.8056 85.5193 66.7772 85.5312C66.7488 85.5432 66.7184 85.5494 66.6876 85.5495Z" fill="#1977F3" fill-opacity="0.5"/>
<path d="M64.8936 81.7719H64.6266C64.6266 80.6711 63.9016 79.7753 63.0088 79.7753C62.1159 79.7753 61.392 80.6711 61.392 81.7719H61.125C61.0933 81.7722 61.0629 81.785 61.0406 81.8075C61.0183 81.8301 61.0057 81.8606 61.0057 81.8923V84.6716C61.0057 84.7034 61.0183 84.7339 61.0406 84.7564C61.0629 84.779 61.0933 84.7918 61.125 84.7921H64.8936C64.9253 84.7918 64.9556 84.779 64.978 84.7564C65.0003 84.7339 65.0128 84.7034 65.0128 84.6716V81.8923C65.0128 81.8606 65.0003 81.8301 64.978 81.8075C64.9556 81.785 64.9253 81.7722 64.8936 81.7719ZM61.754 81.7719C61.754 80.9057 62.3175 80.2 63.0088 80.2C63.7 80.2 64.2646 80.9057 64.2646 81.7719H61.754Z" fill="#1977F3"/>
<path d="M73.295 83.0903L72.2598 83.7167L71.8756 83.0903L72.9478 82.4057L71.8756 81.7201L72.2598 81.0948L73.295 81.7201V80.4092H74.0718V81.7201L75.107 81.0948L75.4922 81.7201L74.3862 82.4057L75.4922 83.0903L75.107 83.7167L74.0718 83.0903V84.4012H73.295V83.0903Z" fill="#1977F3"/>
<path d="M96.6242 83.0903L95.5889 83.7167L95.2037 83.0903L96.277 82.4057L95.2037 81.7201L95.5889 81.0948L96.6242 81.7201V80.4092H97.3999V81.7201L98.4352 81.0948L98.8203 81.7201L97.7144 82.4057L98.8203 83.0903L98.4352 83.7167L97.3999 83.0903V84.4012H96.6242V83.0903Z" fill="#1977F3"/>
<path d="M101.179 83.0903L100.144 83.7167L99.7585 83.0903L100.832 82.4057L99.7585 81.7201L100.144 81.0948L101.179 81.7201V80.4092H101.956V81.7201L102.991 81.0948L103.376 81.7201L102.269 82.4057L103.376 83.0903L102.991 83.7167L101.956 83.0903V84.4012H101.179V83.0903Z" fill="#1977F3"/>
<path d="M77.9871 83.0903L76.9518 83.7167L76.5667 83.0903L77.6399 82.4057L76.5667 81.7201L76.9518 81.0948L77.9871 81.7201V80.4092H78.7639V81.7201L79.7991 81.0948L80.1843 81.7201L79.0773 82.4057L80.1843 83.0903L79.7991 83.7167L78.7639 83.0903V84.4012H77.9871V83.0903Z" fill="#1977F3"/>
<path d="M82.6791 83.0903L81.6439 83.7167L81.2587 83.0903L82.3319 82.4057L81.2587 81.7201L81.6439 81.0948L82.6791 81.7201V80.4092H83.4559V81.7201L84.4912 81.0948L84.8763 81.7201L83.7704 82.4057L84.8763 83.0903L84.4912 83.7167L83.4559 83.0903V84.4012H82.6791V83.0903Z" fill="#1977F3"/>
<path d="M87.3712 83.0903L86.3359 83.7167L85.9507 83.0903L87.024 82.4057L85.9507 81.7201L86.3359 81.0948L87.3712 81.7201V80.4092H88.1479V81.7201L89.1832 81.0948L89.5684 81.7201L88.4624 82.4057L89.5684 83.0903L89.1832 83.7167L88.1479 83.0903V84.4012H87.3712V83.0903Z" fill="#1977F3"/>
<path d="M92.0631 83.0903L91.0278 83.7167L90.6426 83.0903L91.7159 82.4057L90.6426 81.7201L91.0278 81.0948L92.0631 81.7201V80.4092H92.8366V81.7201L93.8719 81.0948L94.2571 81.7201L93.1511 82.4057L94.2571 83.0903L93.8719 83.7167L92.8366 83.0903V84.4012H92.0599L92.0631 83.0903Z" fill="#1977F3"/>
<path d="M111.505 75.7844H58.7494V67.4992H111.505V75.7844ZM58.8665 75.6671H111.389V67.6207H58.8665V75.6671Z" fill="#1977F3"/>
<path d="M65.2714 73.6198C65.1575 73.3882 64.9726 73.199 64.7437 73.08L63.7939 72.63C63.5554 72.7198 63.3317 72.8413 63.0552 72.8413C62.7533 72.8413 62.5792 72.742 62.3164 72.63C62.3101 72.63 62.2478 72.6649 62.2415 72.667L61.317 73.0895C61.0735 73.2019 60.8739 73.3917 60.7493 73.6293L60.7345 73.6579L60.7419 73.6748L61.526 73.9251C62.5323 74.2442 63.615 74.2271 64.6107 73.8765L65.2439 73.6515C65.2471 73.6504 65.2499 73.6486 65.2523 73.6463C65.2547 73.644 65.2566 73.6412 65.2579 73.6381C65.2592 73.6351 65.2598 73.6318 65.2598 73.6284C65.2597 73.6251 65.259 73.6218 65.2577 73.6188L65.2714 73.6198Z" fill="#1977F3"/>
<path d="M64.2255 69.9352C64.1346 69.7029 63.9768 69.5029 63.7722 69.3604C63.5677 69.2178 63.3255 69.1392 63.0763 69.1345C62.9879 69.1321 62.8995 69.1389 62.8124 69.1546C62.5997 69.1933 62.4006 69.2863 62.2342 69.4245C62.0678 69.5627 61.9399 69.7415 61.8626 69.9437V69.949C61.7257 70.2925 61.674 70.6641 61.7119 71.0321C61.7497 71.4 61.8761 71.7533 62.08 72.0617L62.3534 72.4747L62.3608 72.4874C62.3766 72.5174 62.3994 72.5431 62.4272 72.5624C62.6106 72.6914 62.8289 72.7614 63.0531 72.7631C63.3144 72.7602 63.5666 72.6665 63.7665 72.498C63.7872 72.4815 63.8044 72.461 63.8171 72.4378L64.082 71.9666C64.2623 71.6625 64.3697 71.3208 64.3959 70.9681C64.4221 70.6155 64.3663 70.2616 64.2329 69.9342L64.2255 69.9352Z" fill="#1977F3"/>
<path opacity="0.5" d="M66.6876 74.9108C66.6569 74.9106 66.6265 74.9044 66.5982 74.8925C66.5699 74.8806 66.5442 74.8631 66.5226 74.8413C66.5011 74.8194 66.484 74.7934 66.4725 74.7649C66.461 74.7364 66.4552 74.7059 66.4555 74.6752V68.6126C66.4552 68.5819 66.461 68.5514 66.4725 68.5229C66.484 68.4944 66.5011 68.4685 66.5226 68.4466C66.5442 68.4247 66.5699 68.4073 66.5982 68.3953C66.6265 68.3834 66.6569 68.3772 66.6876 68.3771C66.7184 68.3772 66.7488 68.3834 66.7772 68.3953C66.8056 68.4072 66.8313 68.4246 66.853 68.4465C66.8746 68.4684 66.8918 68.4943 66.9034 68.5228C66.9151 68.5513 66.921 68.5818 66.9209 68.6126V74.6752C66.921 74.706 66.9151 74.7365 66.9034 74.765C66.8918 74.7935 66.8746 74.8194 66.853 74.8413C66.8313 74.8632 66.8056 74.8806 66.7772 74.8925C66.7488 74.9044 66.7184 74.9106 66.6876 74.9108Z" fill="#1977F3" fill-opacity="0.5"/>
<path d="M100.071 90.5483H69.4083C67.5245 90.5483 65.9974 92.0769 65.9974 93.9625V95.2808C65.9974 97.1665 67.5245 98.6951 69.4083 98.6951H100.071C101.955 98.6951 103.482 97.1665 103.482 95.2808V93.9625C103.482 92.0769 101.955 90.5483 100.071 90.5483Z" fill="#1977F3"/>
<path d="M78.0335 95.0273C78.139 95.5269 78.4736 95.8217 79.0825 95.8217C79.7621 95.8217 80.0217 95.4783 80.0217 95.0706C80.0217 94.648 79.836 94.3829 79.0192 94.179C78.234 93.9804 77.8952 93.7226 77.8952 93.1807C77.8952 92.6863 78.2509 92.23 79.0456 92.23C79.8624 92.23 80.2064 92.7349 80.255 93.1913H79.9616C79.8772 92.7877 79.6176 92.4983 79.034 92.4983C78.4989 92.4983 78.2066 92.7508 78.2066 93.1691C78.2066 93.5874 78.4503 93.7438 79.1353 93.916C80.179 94.179 80.3331 94.6026 80.3331 95.0537C80.3331 95.6072 79.9352 96.0847 79.0762 96.0847C78.1485 96.0847 77.8098 95.5375 77.7401 95.0283L78.0335 95.0273Z" fill="white"/>
<path d="M81.0349 92.08H81.2998V92.6008H81.0349V92.08ZM81.0349 93.3477H81.2998V96.0319H81.0349V93.3477Z" fill="white"/>
<path d="M84.1946 95.8544C84.1946 96.7132 83.8189 97.1643 83.0496 97.1643C82.3604 97.1643 82.0734 96.7724 82.0101 96.3636H82.2834C82.3794 96.7344 82.6812 96.9118 83.0633 96.9118C83.7524 96.9118 83.9434 96.4608 83.9434 95.7783V95.4995C83.7999 95.8481 83.5403 96.0361 83.058 96.0361C82.4375 96.0361 81.9604 95.5269 81.9604 94.6945C81.9604 93.7924 82.4691 93.2874 83.0949 93.2874C83.6363 93.2874 83.8695 93.5452 83.9392 93.7596C83.9392 93.6043 83.9498 93.4163 83.955 93.3519H84.2041C84.2041 93.449 84.1935 93.8726 84.1935 94.1304L84.1946 95.8544ZM82.238 94.6839C82.238 95.3178 82.5725 95.7836 83.0823 95.7836C83.745 95.7836 83.9466 95.3389 83.9466 94.6406C83.9466 93.9424 83.7355 93.5399 83.1023 93.5399C82.4871 93.5399 82.238 94.0712 82.238 94.6839Z" fill="white"/>
<path d="M85.0641 94.029C85.0641 93.7924 85.0641 93.5663 85.0641 93.3519H85.3248C85.3353 93.4385 85.3406 93.7871 85.3353 93.8621C85.4514 93.5885 85.6688 93.2874 86.2155 93.2874C86.6872 93.2874 87.1062 93.5557 87.1062 94.2973V96.0361H86.8413V94.3396C86.8413 93.8621 86.645 93.5505 86.1838 93.5505C85.5506 93.5505 85.3395 94.0786 85.3395 94.667V96.0403H85.0736L85.0641 94.029Z" fill="white"/>
<path d="M89.354 92.08H89.6199V92.6008H89.354V92.08ZM89.354 93.3477H89.6199V96.0319H89.354V93.3477Z" fill="white"/>
<path d="M90.4844 94.029C90.4844 93.7924 90.4844 93.5663 90.4844 93.3519H90.744C90.7545 93.4385 90.7598 93.7871 90.7545 93.8621C90.8706 93.5885 91.088 93.2874 91.6347 93.2874C92.1064 93.2874 92.5254 93.5557 92.5254 94.2973V96.0361H92.2605V94.3396C92.2605 93.8621 92.0642 93.5505 91.603 93.5505C90.9698 93.5505 90.7588 94.0786 90.7588 94.667V96.0403H90.4939L90.4844 94.029Z" fill="white"/>
<path d="M73.295 72.329L72.2598 72.9543L71.8756 72.329L72.9478 71.6434L71.8756 70.9588L72.2598 70.3324L73.295 70.9588V69.6479H74.0718V70.9588L75.107 70.3324L75.4922 70.9588L74.3862 71.6434L75.4922 72.329L75.107 72.9543L74.0718 72.329V73.6399H73.295V72.329Z" fill="#1977F3"/>
<path d="M77.9871 72.329L76.9518 72.9543L76.5667 72.329L77.6399 71.6434L76.5667 70.9588L76.9518 70.3324L77.9871 70.9588V69.6479H78.7639V70.9588L79.7991 70.3324L80.1843 70.9588L79.0773 71.6434L80.1843 72.329L79.7991 72.9543L78.7639 72.329V73.6399H77.9871V72.329Z" fill="#1977F3"/>
<path d="M82.6791 72.329L81.6439 72.9543L81.2587 72.329L82.3319 71.6434L81.2587 70.9588L81.6439 70.3324L82.6791 70.9588V69.6479H83.4559V70.9588L84.4912 70.3324L84.8763 70.9588L83.7704 71.6434L84.8763 72.329L84.4912 72.9543L83.4559 72.329V73.6399H82.6791V72.329Z" fill="#1977F3"/>
<path d="M87.3712 72.329L86.3359 72.9543L85.9507 72.329L87.024 71.6434L85.9507 70.9588L86.3359 70.3324L87.3712 70.9588V69.6479H88.1479V70.9588L89.1832 70.3324L89.5684 70.9588L88.4624 71.6434L89.5684 72.329L89.1832 72.9543L88.1479 72.329V73.6399H87.3712V72.329Z" fill="#1977F3"/>
<path d="M92.0631 72.329L91.0278 72.9543L90.6426 72.329L91.7159 71.6434L90.6426 70.9588L91.0278 70.3324L92.0631 70.9588V69.6479H92.8366V70.9588L93.8719 70.3324L94.2571 70.9588L93.1511 71.6434L94.2571 72.329L93.8719 72.9543L92.8366 72.329V73.6399H92.0599L92.0631 72.329Z" fill="#1977F3"/>
<path d="M49.6894 94.3459L50.006 92.6494C50.0223 92.5573 50.0525 92.4682 50.0957 92.3853L50.1168 92.3462C51.0898 90.5504 53.0865 89.7496 54.9207 90.3327L55.2024 90.4225C59.0301 91.6405 62.0969 94.7769 63.4583 98.8672C64.3332 100.346 65.9183 101.138 67.5171 100.889C70.6947 100.394 73.7436 102.423 74.8042 105.732C75.2744 107.21 75.2795 108.798 74.819 110.28L74.5868 111.02C73.3795 114.891 70.1101 117.55 66.3657 117.706C64.4857 117.778 62.635 117.223 61.1039 116.128L56.6282 112.968L48.1961 106.658C46.1477 105.124 45.1071 102.432 45.5335 99.7556C45.5335 99.7556 46.9339 91.8328 49.7548 94.0248L49.6894 94.3459Z" fill="#373737"/>
<path d="M47.6685 109.344C49.3254 110.22 51.1669 110.869 52.9452 110.957C54.1693 111.018 55.4305 110.836 56.6452 110.631C57.3839 110.505 58.2039 110.371 58.9669 110.061L57.5791 109.701C56.3687 109.384 55.4115 108.078 55.1519 106.381L54.9408 105.016L50.3374 105.177L50.2498 106.287C49.567 107.752 49.3824 108.773 46.6997 108.705H46.6132C46.952 108.939 47.3044 109.152 47.6685 109.344Z" fill="#FFBE9D"/>
<path d="M53.7767 94.4822L53.6934 94.4632C50.787 93.7977 48.0104 96.0477 47.793 99.2824C47.7471 99.9675 47.7471 100.655 47.793 101.34C47.8985 103.04 50.1073 106.882 52.7309 107.441C52.7477 107.443 52.7647 107.443 52.7815 107.441C53.705 107.374 54.7434 106.956 56.1523 104.989C56.7611 104.122 57.1833 103.137 57.3922 102.098C57.6012 101.059 57.5922 99.9882 57.3659 98.9528L57.196 98.1626C56.8024 96.3171 55.4716 94.8815 53.7767 94.4822Z" fill="#FFBE9D"/>
<path d="M52.7341 97.6218C53.4046 98.2748 54.2525 98.7157 55.1719 98.8894L56.9353 99.2148L55.3967 98.6105C54.5207 98.2597 53.7629 97.666 53.2121 96.8992L51.4677 94.5097L53.3008 96.5052C54.0946 97.3773 55.0782 98.055 56.1755 98.4859L56.3866 98.5662C56.5913 98.6465 56.8034 98.9285 56.9881 99.2887C57.4134 100.145 57.5405 101.119 57.349 102.056L57.0546 103.558L57.9917 101.128C58.194 100.356 58.2126 99.5476 58.046 98.7673C57.8794 97.987 57.5322 97.2567 57.0324 96.6351L56.2335 95.6664C54.7624 93.8822 52.427 93.2928 50.3881 94.1875C50.3849 94.9333 52.7341 97.6218 52.7341 97.6218Z" fill="#373737"/>
<path d="M50.1147 97.2087C49.8813 97.7867 49.494 98.2895 48.995 98.6623L48.0388 99.3669L48.7944 98.5641C49.2226 98.1039 49.5209 97.5381 49.6588 96.9246L50.0957 95.0136L49.5068 96.7186C49.2525 97.4626 48.8423 98.1437 48.3037 98.7162L48.1982 98.8218C48.0979 98.9275 48.042 99.1546 48.0219 99.4197C47.984 99.9438 48.0983 100.468 48.3512 100.928C48.4534 101.121 48.5277 101.327 48.5718 101.541L48.748 102.341L48.4103 101.601C48.3371 101.439 48.2465 101.285 48.1401 101.142L47.8826 100.793C47.5725 100.382 47.3627 99.9049 47.27 99.3986C47.1772 98.8924 47.2042 98.3714 47.3486 97.8774L47.5808 97.0767C48.0029 95.5978 49.2356 94.5762 50.6508 94.5107C50.8344 94.9502 50.1147 97.2087 50.1147 97.2087Z" fill="#373737"/>
<path d="M70.0531 126.148C69.1444 121.76 64.6339 116.17 62.956 113.225C61.755 111.113 60.8981 109.407 58.6987 108.567C57.4566 108.093 54.7128 108.752 54.5734 108.778C54.5734 108.778 52.1071 109.472 50.4851 109.088C49.0245 108.742 47.508 107.973 45.7192 108.435C44.7694 108.291 41.6425 111.12 40.4425 113.229C38.7646 116.173 34.2541 121.763 33.3454 126.151C32.9539 128.044 34.8335 129.252 36.3278 130.394L42.4487 134.864L41.9211 136.352C44.9214 137.428 62.0357 137.244 62.0357 137.244C61.5586 136.526 61.1353 135.773 60.7693 134.992L67.0707 130.394C68.564 129.249 70.4446 128.041 70.0531 126.148ZM38.6411 125.127C39.8241 121.989 43.1115 117.771 43.789 116.919C43.865 117.543 43.4724 117.718 43.2772 119.594C42.9194 123.058 47.7739 126.214 43.6581 131.478L39.5044 128.105C39.0585 127.768 38.7335 127.296 38.5779 126.759C38.4223 126.222 38.4445 125.65 38.6411 125.127ZM63.8984 128.105L59.4459 131.72C55.7174 127.316 60.8031 122.931 60.1266 119.128L59.5103 116.796C59.8438 117.21 63.4963 121.783 64.7564 125.127C64.9536 125.649 64.9765 126.222 64.8219 126.758C64.6673 127.295 64.3433 127.767 63.8984 128.105Z" fill="#F99746"/>
<path d="M42.9015 119.21H60.7999C61.3184 119.21 61.8318 119.312 62.3108 119.511C62.7898 119.709 63.225 120 63.5916 120.367C63.9582 120.734 64.249 121.17 64.4474 121.649C64.6458 122.129 64.7479 122.643 64.7479 123.162V137.028H38.9535V123.161C38.9538 122.113 39.3698 121.108 40.1102 120.367C40.8506 119.626 41.8546 119.21 42.9015 119.21Z" fill="white"/>
<path d="M52.3773 129.549H51.3219C50.9476 129.544 50.5905 129.391 50.3291 129.122C50.0677 128.854 49.9233 128.493 49.9278 128.118C49.9255 127.933 49.9597 127.748 50.0284 127.576C50.0972 127.404 50.1993 127.246 50.3287 127.114C50.4582 126.981 50.6125 126.875 50.7829 126.801C50.9534 126.728 51.1365 126.689 51.3219 126.687H52.3773C52.5627 126.689 52.7459 126.728 52.9163 126.801C53.0867 126.875 53.2411 126.981 53.3705 127.114C53.5 127.246 53.602 127.404 53.6708 127.576C53.7396 127.748 53.7737 127.933 53.7714 128.118C53.7759 128.493 53.6316 128.854 53.3701 129.122C53.1087 129.391 52.7516 129.544 52.3773 129.549Z" fill="#1977F3"/>
<path d="M65.2239 142.136L65.9057 143.935L64.234 146.317L61.5355 145.612L62.9666 141.552L65.2239 142.136Z" fill="url(#paint3_linear_48_6642)"/>
<path d="M63.1724 141.49L61.793 145.833L46.0855 142.674C42.6224 141.978 39.2561 140.865 36.0598 139.36L30.4053 136.698C29.7609 136.386 29.2536 135.847 28.98 135.185C28.7064 134.523 28.6856 133.783 28.9215 133.106C29.1243 132.496 29.5295 131.974 30.0699 131.626C30.6103 131.278 31.2534 131.125 31.8923 131.193L36.8313 131.761C41.585 132.308 46.2171 133.632 50.5432 135.679L63.1724 141.49Z" fill="#373737"/>
<path d="M40.011 142.136L39.1636 144.542L41.0009 146.317L43.6994 145.612L42.2673 141.552L40.011 142.136Z" fill="url(#paint4_linear_48_6642)"/>
<path d="M42.0614 141.49L43.4407 145.833L59.1504 142.674C62.6134 141.978 65.9797 140.865 69.1761 139.36L74.8305 136.698C75.4748 136.386 75.9819 135.847 76.2555 135.185C76.5291 134.523 76.55 133.783 76.3143 133.106C76.1114 132.496 75.7061 131.974 75.1658 131.626C74.6254 131.278 73.9825 131.125 73.3436 131.193L68.4046 131.761C63.6508 132.308 59.0188 133.632 54.6927 135.679L42.0614 141.49Z" fill="#373737"/>
<path d="M72.1521 141.105L71.7553 141.164L71.5959 147.67H72.8623C73.282 147.669 73.697 147.581 74.0812 147.412C74.4655 147.243 74.8108 146.997 75.0954 146.688C75.6576 146.077 75.9628 145.273 75.9475 144.442C75.9322 143.612 75.5975 142.819 75.0131 142.229L74.7514 141.968C74.416 141.631 74.006 141.377 73.5545 141.227C73.103 141.077 72.6226 141.035 72.1521 141.105Z" fill="white"/>
<path d="M64.6393 141.974L63.7201 146.22L70.8193 147.619C71.5723 147.768 72.3535 147.616 72.9965 147.196L73.502 146.868C73.8476 146.637 74.144 146.34 74.3739 145.994C74.6038 145.648 74.7626 145.259 74.8412 144.851C74.9198 144.443 74.9165 144.023 74.8315 143.616C74.7465 143.209 74.5816 142.823 74.3462 142.481C74.0425 142.032 73.6223 141.675 73.1309 141.447C72.6394 141.22 72.0952 141.131 71.557 141.19L64.6393 141.974Z" fill="#1977F3"/>
<path d="M66.7489 145.62L66.9177 145.553C66.9267 145.549 66.9349 145.544 66.9418 145.537C66.9487 145.531 66.9543 145.523 66.9581 145.514C66.9619 145.505 66.964 145.495 66.9641 145.486C66.9642 145.476 66.9625 145.467 66.9589 145.458L65.95 142.778C65.9466 142.769 65.9415 142.761 65.935 142.754C65.9285 142.747 65.9207 142.741 65.9121 142.738C65.9034 142.734 65.8942 142.732 65.8847 142.732C65.8753 142.731 65.8659 142.733 65.8571 142.736L65.6882 142.803C65.6705 142.81 65.6563 142.824 65.6486 142.842C65.641 142.86 65.6404 142.88 65.6471 142.898L66.656 145.578C66.6593 145.587 66.6643 145.595 66.6708 145.602C66.6772 145.609 66.685 145.615 66.6936 145.619C66.7023 145.622 66.7116 145.625 66.7211 145.625C66.7305 145.625 66.74 145.624 66.7489 145.62Z" fill="white"/>
<path d="M66.8755 145.62L66.7066 145.553C66.6887 145.545 66.6743 145.531 66.6666 145.514C66.6589 145.496 66.6585 145.476 66.6655 145.458L67.6743 142.778C67.6777 142.769 67.6828 142.761 67.6893 142.754C67.6958 142.747 67.7036 142.741 67.7123 142.738C67.7209 142.734 67.7302 142.732 67.7396 142.732C67.749 142.731 67.7584 142.733 67.7672 142.736L67.9361 142.803C67.954 142.81 67.9684 142.824 67.9761 142.842C67.9838 142.86 67.9842 142.88 67.9772 142.898L66.9683 145.578C66.965 145.587 66.96 145.595 66.9536 145.602C66.9471 145.609 66.9393 145.615 66.9307 145.619C66.9221 145.622 66.9127 145.625 66.9033 145.625C66.8938 145.625 66.8843 145.624 66.8755 145.62Z" fill="white"/>
<path d="M65.857 145.62L65.6882 145.553C65.6702 145.545 65.6559 145.531 65.6482 145.514C65.6405 145.496 65.6401 145.476 65.647 145.458L66.6559 142.778C66.6593 142.769 66.6644 142.761 66.6709 142.754C66.6774 142.747 66.6852 142.741 66.6938 142.738C66.7024 142.734 66.7117 142.732 66.7212 142.732C66.7306 142.731 66.74 142.733 66.7488 142.736L66.9176 142.803C66.9356 142.81 66.9499 142.824 66.9576 142.842C66.9653 142.86 66.9657 142.88 66.9588 142.898L65.9499 145.578C65.9466 145.587 65.9416 145.595 65.9351 145.602C65.9287 145.609 65.9209 145.615 65.9123 145.619C65.9036 145.622 65.8943 145.625 65.8848 145.625C65.8753 145.625 65.8659 145.624 65.857 145.62Z" fill="white"/>
<path d="M67.7662 145.62L67.935 145.553C67.944 145.549 67.9522 145.544 67.9591 145.537C67.9661 145.531 67.9716 145.523 67.9754 145.514C67.9793 145.505 67.9813 145.495 67.9814 145.486C67.9816 145.476 67.9798 145.467 67.9762 145.458L66.9673 142.778C66.9639 142.769 66.9588 142.761 66.9523 142.754C66.9458 142.747 66.938 142.741 66.9294 142.738C66.9208 142.734 66.9115 142.732 66.9021 142.732C66.8926 142.731 66.8832 142.733 66.8744 142.736L66.7056 142.803C66.6878 142.81 66.6736 142.824 66.666 142.842C66.6583 142.86 66.6578 142.88 66.6644 142.898L67.6733 145.578C67.6766 145.587 67.6816 145.595 67.6881 145.602C67.6945 145.609 67.7023 145.615 67.711 145.619C67.7196 145.622 67.7289 145.625 67.7384 145.625C67.7479 145.625 67.7573 145.624 67.7662 145.62Z" fill="white"/>
<path d="M68.7835 145.62L68.9524 145.553C68.9613 145.549 68.9695 145.544 68.9765 145.537C68.9834 145.531 68.9889 145.523 68.9928 145.514C68.9966 145.505 68.9986 145.495 68.9988 145.486C68.9989 145.476 68.9971 145.467 68.9935 145.458L67.9846 142.778C67.9813 142.769 67.9762 142.761 67.9697 142.754C67.9632 142.747 67.9554 142.741 67.9467 142.738C67.9381 142.734 67.9288 142.732 67.9194 142.732C67.91 142.731 67.9006 142.733 67.8918 142.736L67.7229 142.803C67.7052 142.81 67.691 142.824 67.6833 142.842C67.6756 142.86 67.6751 142.88 67.6818 142.898L68.6907 145.578C68.6939 145.587 68.699 145.595 68.7054 145.602C68.7119 145.609 68.7196 145.615 68.7283 145.619C68.7369 145.622 68.7463 145.625 68.7557 145.625C68.7652 145.625 68.7747 145.624 68.7835 145.62Z" fill="white"/>
<path d="M67.8918 145.62L67.723 145.553C67.705 145.545 67.6907 145.531 67.683 145.514C67.6753 145.496 67.6749 145.476 67.6818 145.458L68.6907 142.778C68.6941 142.769 68.6992 142.761 68.7057 142.754C68.7122 142.747 68.72 142.741 68.7286 142.738C68.7372 142.734 68.7465 142.732 68.756 142.732C68.7654 142.731 68.7748 142.733 68.7836 142.736L68.9524 142.803C68.9704 142.81 68.9847 142.824 68.9924 142.842C69.0001 142.86 69.0005 142.88 68.9936 142.898L67.9847 145.578C67.9814 145.587 67.9764 145.595 67.9699 145.602C67.9635 145.609 67.9557 145.615 67.9471 145.619C67.9384 145.622 67.9291 145.625 67.9196 145.625C67.9101 145.625 67.9007 145.624 67.8918 145.62Z" fill="white"/>
<path d="M69.8009 145.62L69.9697 145.553C69.9787 145.549 69.9869 145.544 69.9938 145.537C70.0007 145.531 70.0063 145.523 70.0101 145.514C70.0139 145.505 70.016 145.495 70.0161 145.486C70.0162 145.476 70.0145 145.467 70.0109 145.458L69.002 142.778C68.9986 142.769 68.9935 142.761 68.987 142.754C68.9805 142.747 68.9727 142.741 68.9641 142.738C68.9554 142.734 68.9462 142.732 68.9367 142.732C68.9273 142.731 68.9179 142.733 68.9091 142.736L68.7402 142.803C68.7225 142.81 68.7083 142.824 68.7006 142.842C68.693 142.86 68.6924 142.88 68.6991 142.898L69.708 145.578C69.7113 145.587 69.7163 145.595 69.7227 145.602C69.7292 145.609 69.737 145.615 69.7456 145.619C69.7543 145.622 69.7636 145.625 69.7731 145.625C69.7825 145.625 69.792 145.624 69.8009 145.62Z" fill="white"/>
<path d="M68.9092 145.62L68.7403 145.553C68.7224 145.545 68.708 145.531 68.7003 145.514C68.6926 145.496 68.6922 145.476 68.6991 145.458L69.708 142.778C69.7113 142.769 69.7163 142.761 69.7228 142.754C69.7293 142.747 69.7371 142.741 69.7458 142.737C69.7544 142.733 69.7638 142.731 69.7732 142.731C69.7827 142.731 69.7921 142.733 69.8009 142.736L69.9698 142.803C69.9877 142.81 70.0021 142.824 70.0098 142.842C70.0175 142.86 70.0179 142.88 70.0109 142.898L69.002 145.578C68.9987 145.587 68.9937 145.595 68.9873 145.602C68.9808 145.609 68.973 145.615 68.9644 145.619C68.9558 145.622 68.9464 145.625 68.9369 145.625C68.9275 145.625 68.918 145.624 68.9092 145.62Z" fill="white"/>
<path d="M33.2347 141.105L33.6315 141.164L33.7908 147.67H32.5244C32.1048 147.669 31.6898 147.581 31.3055 147.412C30.9212 147.243 30.576 146.997 30.2913 146.688C29.7291 146.077 29.4239 145.273 29.4393 144.442C29.4546 143.612 29.7893 142.819 30.3737 142.229L30.6343 141.968C30.97 141.631 31.3801 141.377 31.8318 141.227C32.2835 141.077 32.764 141.035 33.2347 141.105Z" fill="white"/>
<path d="M40.7423 141.974L41.6615 146.22L34.5623 147.619C33.8093 147.768 33.028 147.616 32.3851 147.196L31.8796 146.868C31.5341 146.637 31.2379 146.34 31.008 145.994C30.7782 145.648 30.6194 145.259 30.5408 144.851C30.4623 144.443 30.4656 144.023 30.5504 143.616C30.6353 143.209 30.8002 142.823 31.0354 142.481C31.3393 142.032 31.7597 141.675 32.2513 141.447C32.743 141.22 33.2873 141.131 33.8257 141.19L40.7423 141.974Z" fill="#1977F3"/>
<path d="M38.6327 145.62L38.4639 145.553C38.4549 145.549 38.4467 145.544 38.4398 145.537C38.4329 145.531 38.4273 145.523 38.4235 145.514C38.4197 145.505 38.4176 145.495 38.4175 145.486C38.4174 145.476 38.4191 145.467 38.4227 145.458L39.4316 142.778C39.435 142.769 39.4401 142.761 39.4466 142.754C39.4531 142.747 39.4609 142.741 39.4695 142.738C39.4781 142.734 39.4874 142.732 39.4969 142.732C39.5063 142.731 39.5157 142.733 39.5245 142.736L39.6933 142.803C39.7111 142.81 39.7253 142.824 39.733 142.842C39.7406 142.86 39.7412 142.88 39.7345 142.898L38.7245 145.578C38.7215 145.587 38.7167 145.595 38.7103 145.602C38.704 145.609 38.6963 145.615 38.6877 145.619C38.6791 145.623 38.6698 145.625 38.6604 145.625C38.6509 145.625 38.6415 145.624 38.6327 145.62Z" fill="white"/>
<path d="M38.5071 145.62L38.6759 145.553C38.6939 145.545 38.7082 145.531 38.7159 145.514C38.7236 145.496 38.7241 145.476 38.7171 145.458L37.7071 142.778C37.704 142.769 37.6991 142.761 37.6927 142.754C37.6863 142.747 37.6786 142.741 37.67 142.737C37.6614 142.733 37.6522 142.731 37.6428 142.731C37.6334 142.731 37.624 142.733 37.6153 142.736L37.4465 142.803C37.4285 142.81 37.4142 142.824 37.4065 142.842C37.3988 142.86 37.3984 142.88 37.4053 142.898L38.4142 145.578C38.4174 145.587 38.4223 145.595 38.4288 145.602C38.4352 145.609 38.443 145.615 38.4517 145.619C38.4603 145.623 38.4697 145.625 38.4792 145.625C38.4888 145.625 38.4982 145.624 38.5071 145.62Z" fill="white"/>
<path d="M39.5244 145.62L39.6933 145.553C39.7112 145.545 39.7256 145.531 39.7333 145.514C39.741 145.496 39.7414 145.476 39.7344 145.458L38.7245 142.778C38.7213 142.769 38.7164 142.761 38.71 142.754C38.7037 142.747 38.6959 142.741 38.6874 142.737C38.6788 142.733 38.6695 142.731 38.6601 142.731C38.6507 142.731 38.6414 142.733 38.6327 142.736L38.4638 142.803C38.4459 142.81 38.4315 142.824 38.4238 142.842C38.4161 142.86 38.4157 142.88 38.4227 142.898L39.4316 145.578C39.4347 145.587 39.4397 145.595 39.4461 145.602C39.4525 145.609 39.4603 145.615 39.469 145.619C39.4777 145.623 39.487 145.625 39.4966 145.625C39.5061 145.625 39.5156 145.624 39.5244 145.62Z" fill="white"/>
<path d="M37.6154 145.62L37.4465 145.553C37.4376 145.549 37.4294 145.544 37.4224 145.537C37.4155 145.531 37.41 145.523 37.4061 145.514C37.4023 145.505 37.4003 145.495 37.4002 145.486C37.4 145.476 37.4018 145.467 37.4054 145.458L38.4143 142.778C38.4177 142.769 38.4228 142.761 38.4293 142.754C38.4358 142.747 38.4436 142.741 38.4522 142.738C38.4608 142.734 38.4701 142.732 38.4795 142.732C38.489 142.731 38.4984 142.733 38.5072 142.736L38.676 142.803C38.6938 142.81 38.708 142.824 38.7156 142.842C38.7233 142.86 38.7238 142.88 38.7172 142.898L37.7072 145.578C37.7042 145.587 37.6993 145.595 37.693 145.602C37.6867 145.609 37.679 145.615 37.6704 145.619C37.6618 145.623 37.6525 145.625 37.643 145.625C37.6336 145.625 37.6242 145.624 37.6154 145.62Z" fill="white"/>
<path d="M36.5981 145.62L36.4292 145.553C36.4202 145.549 36.4121 145.544 36.4051 145.537C36.3982 145.531 36.3926 145.523 36.3888 145.514C36.385 145.505 36.383 145.495 36.3828 145.486C36.3827 145.476 36.3845 145.467 36.388 145.458L37.3969 142.778C37.4003 142.769 37.4054 142.761 37.4119 142.754C37.4184 142.747 37.4262 142.741 37.4348 142.738C37.4435 142.734 37.4528 142.732 37.4622 142.732C37.4716 142.731 37.481 142.733 37.4898 142.736L37.6587 142.803C37.6764 142.81 37.6906 142.824 37.6983 142.842C37.706 142.86 37.7065 142.88 37.6998 142.898L36.693 145.578C36.69 145.587 36.6851 145.596 36.6786 145.603C36.672 145.611 36.664 145.616 36.655 145.62C36.646 145.624 36.6363 145.626 36.6265 145.626C36.6167 145.626 36.607 145.624 36.5981 145.62Z" fill="white"/>
<path d="M37.4898 145.62L37.6586 145.553C37.6766 145.545 37.6909 145.531 37.6986 145.514C37.7063 145.496 37.7067 145.476 37.6998 145.458L36.693 142.778C36.6898 142.769 36.6849 142.761 36.6785 142.754C36.6722 142.747 36.6644 142.741 36.6559 142.737C36.6473 142.733 36.638 142.731 36.6286 142.731C36.6192 142.731 36.6099 142.733 36.6012 142.736L36.4323 142.803C36.4144 142.81 36.4 142.824 36.3923 142.842C36.3846 142.86 36.3842 142.88 36.3912 142.898L37.4001 145.578C37.4065 145.595 37.4195 145.61 37.4363 145.617C37.453 145.625 37.4723 145.626 37.4898 145.62Z" fill="white"/>
<path d="M35.5806 145.62L35.4118 145.553C35.4028 145.549 35.3946 145.544 35.3877 145.537C35.3807 145.531 35.3752 145.523 35.3714 145.514C35.3675 145.505 35.3655 145.495 35.3654 145.486C35.3652 145.476 35.367 145.467 35.3706 145.458L36.3795 142.778C36.3829 142.769 36.388 142.761 36.3945 142.754C36.401 142.747 36.4088 142.741 36.4174 142.738C36.426 142.734 36.4353 142.732 36.4447 142.732C36.4542 142.731 36.4636 142.733 36.4724 142.736L36.6412 142.803C36.659 142.81 36.6732 142.824 36.6808 142.842C36.6885 142.86 36.6891 142.88 36.6824 142.898L35.6724 145.578C35.6694 145.587 35.6645 145.595 35.6582 145.602C35.6519 145.609 35.6442 145.615 35.6356 145.619C35.627 145.623 35.6177 145.625 35.6082 145.625C35.5988 145.625 35.5894 145.624 35.5806 145.62Z" fill="white"/>
<path d="M36.4724 145.62L36.6413 145.553C36.6592 145.545 36.6736 145.531 36.6813 145.514C36.689 145.496 36.6894 145.476 36.6824 145.458L35.6725 142.778C35.6693 142.769 35.6644 142.761 35.658 142.754C35.6516 142.747 35.6439 142.741 35.6354 142.737C35.6268 142.733 35.6175 142.731 35.6081 142.731C35.5987 142.731 35.5894 142.733 35.5807 142.736L35.4118 142.803C35.3939 142.81 35.3795 142.824 35.3718 142.842C35.3641 142.86 35.3637 142.88 35.3706 142.898L36.3796 145.578C36.3827 145.587 36.3877 145.595 36.3941 145.602C36.4005 145.609 36.4083 145.615 36.417 145.619C36.4257 145.623 36.435 145.625 36.4446 145.625C36.4541 145.625 36.4636 145.624 36.4724 145.62Z" fill="white"/>
</g>
<defs>
<linearGradient id="paint0_linear_48_6642" x1="43.8249" y1="126.833" x2="42.022" y2="156.254" gradientUnits="userSpaceOnUse">
<stop stop-color="#EEE5F9"/>
<stop offset="0.27" stop-color="#E6DCF9"/>
<stop offset="0.72" stop-color="#D1C4F8"/>
<stop offset="1" stop-color="#C1B1F8"/>
</linearGradient>
<linearGradient id="paint1_linear_48_6642" x1="20.6932" y1="91.6939" x2="52.74" y2="117.643" gradientUnits="userSpaceOnUse">
<stop stop-color="#FE89A2"/>
<stop offset="1" stop-color="#F43361"/>
</linearGradient>
<linearGradient id="paint2_linear_48_6642" x1="22.5573" y1="88.3056" x2="55.0533" y2="114.618" gradientUnits="userSpaceOnUse">
<stop stop-color="#FE89A2"/>
<stop offset="1" stop-color="#F43361"/>
</linearGradient>
<linearGradient id="paint3_linear_48_6642" x1="63.7158" y1="145.18" x2="63.8216" y2="136.268" gradientUnits="userSpaceOnUse">
<stop stop-color="#FFC9D5"/>
<stop offset="1" stop-color="#FAE8F3"/>
</linearGradient>
<linearGradient id="paint4_linear_48_6642" x1="41.4336" y1="144.907" x2="41.5404" y2="135.997" gradientUnits="userSpaceOnUse">
<stop stop-color="#FFC9D5"/>
<stop offset="1" stop-color="#FAE8F3"/>
</linearGradient>
<clipPath id="clip0_48_6642">
<rect width="168.571" height="150" fill="white" transform="translate(0.214355)"/>
</clipPath>
</defs>
</svg>
