<svg width="158" height="154" viewBox="0 0 158 154" fill="none" xmlns="http://www.w3.org/2000/svg">
<g opacity="0.3">
<path d="M81.2998 2C122.692 2 156.3 35.6075 156.3 77C156.3 118.393 122.692 152 81.2998 152C39.9073 152 6.2998 118.393 6.2998 77C6.2998 35.6075 39.9073 2 81.2998 2Z" fill="#FFF6EB"/>
<path d="M81.2998 2C122.692 2 156.3 35.6075 156.3 77C156.3 118.393 122.692 152 81.2998 152C39.9073 152 6.2998 118.393 6.2998 77C6.2998 35.6075 39.9073 2 81.2998 2Z" stroke="#1977F3" stroke-width="2.577" stroke-miterlimit="10"/>
</g>
<path d="M24.0746 4.65399C27.8246 4.65399 30.8692 7.69866 30.8692 11.4486C30.8692 15.1985 27.8246 18.2432 24.0746 18.2432C20.3247 18.2432 17.28 15.1985 17.28 11.4486C17.28 7.69866 20.3247 4.65399 24.0746 4.65399Z" fill="url(#paint0_linear_494_11150)"/>
<path d="M28.7333 71.7156C29.9122 71.7156 30.8694 72.6728 30.8694 73.8517C30.8694 75.0306 29.9122 75.9878 28.7333 75.9878C27.5544 75.9878 26.5972 75.0306 26.5972 73.8517C26.5972 72.6728 27.5544 71.7156 28.7333 71.7156Z" fill="url(#paint1_linear_494_11150)"/>
<path d="M131.266 18.2433C133.637 18.2433 135.563 20.1687 135.563 22.5401C135.563 24.9114 133.637 26.8368 131.266 26.8368C128.895 26.8368 126.969 24.9114 126.969 22.5401C126.969 20.1687 128.895 18.2433 131.266 18.2433Z" fill="url(#paint2_linear_494_11150)"/>
<path d="M143.571 129.218C146.142 129.218 148.229 131.305 148.229 133.876C148.229 136.447 146.142 138.535 143.571 138.535C141 138.535 138.913 136.447 138.913 133.876C138.913 131.305 141 129.218 143.571 129.218Z" fill="url(#paint3_linear_494_11150)"/>
<path d="M3.32443 109.682C4.77261 109.682 5.94843 110.858 5.94843 112.306C5.94843 113.754 4.77261 114.93 3.32443 114.93C1.87625 114.93 0.700439 113.754 0.700439 112.306C0.700439 110.858 1.87625 109.682 3.32443 109.682Z" fill="url(#paint4_linear_494_11150)"/>
<path d="M105.48 109.836H56.9103C52.4504 109.836 48.835 106.221 48.835 101.761V61.281C48.835 56.8211 52.4504 53.2057 56.9103 53.2057H105.48C109.94 53.2057 113.555 56.8211 113.555 61.281V101.761C113.555 106.221 109.94 109.836 105.48 109.836Z" fill="#1977F3"/>
<path d="M98.0052 53.2057V45.2094C98.0052 36.0089 90.5467 28.5504 81.3462 28.5504C72.1457 28.5504 64.6873 36.0089 64.6873 45.2094V53.2057" stroke="#1977F3" stroke-width="19" stroke-miterlimit="10" stroke-linecap="round"/>
<g opacity="0.5">
<path d="M100.005 87.396C97.7797 87.396 95.9595 85.5758 95.9595 83.3509C95.9595 81.1261 97.7797 79.3058 100.005 79.3058C102.229 79.3058 104.05 81.1261 104.05 83.3509C104.05 85.5758 102.229 87.396 100.005 87.396Z" fill="white"/>
<path d="M87.465 87.396C85.2402 87.396 83.4199 85.5758 83.4199 83.3509C83.4199 81.1261 85.2402 79.3058 87.465 79.3058C89.6899 79.3058 91.5101 81.1261 91.5101 83.3509C91.5101 85.5758 89.6899 87.396 87.465 87.396Z" fill="white"/>
<path d="M74.9255 87.396C72.7006 87.396 70.8804 85.5758 70.8804 83.3509C70.8804 81.1261 72.7006 79.3058 74.9255 79.3058C77.1503 79.3058 78.9706 81.1261 78.9706 83.3509C78.9706 85.5758 77.1503 87.396 74.9255 87.396Z" fill="white"/>
<path d="M62.3857 87.396C60.1608 87.396 58.3406 85.5758 58.3406 83.3509C58.3406 81.1261 60.1608 79.3058 62.3857 79.3058C64.6105 79.3058 66.4308 81.1261 66.4308 83.3509C66.4308 85.5758 64.6105 87.396 62.3857 87.396Z" fill="white"/>
</g>
<path d="M100.004 87.396C97.7795 87.396 95.9592 85.5757 95.9592 83.3509C95.9592 81.126 97.7795 79.3058 100.004 79.3058C102.229 79.3058 104.049 81.126 104.049 83.3509C104.049 85.5757 102.229 87.396 100.004 87.396Z" fill="white" fill-opacity="0.4"/>
<path d="M87.4648 87.396C85.2399 87.396 83.4197 85.5757 83.4197 83.3509C83.4197 81.126 85.2399 79.3058 87.4648 79.3058C89.6896 79.3058 91.5099 81.126 91.5099 83.3509C91.5099 85.5757 89.6896 87.396 87.4648 87.396Z" fill="white" fill-opacity="0.6"/>
<path d="M74.9255 87.396C72.7006 87.396 70.8804 85.5757 70.8804 83.3509C70.8804 81.126 72.7006 79.3058 74.9255 79.3058C77.1503 79.3058 78.9706 81.126 78.9706 83.3509C78.9706 85.5757 77.1503 87.396 74.9255 87.396Z" fill="white" fill-opacity="0.8"/>
<path d="M62.3857 87.396C60.1608 87.396 58.3406 85.5757 58.3406 83.3509C58.3406 81.126 60.1608 79.3058 62.3857 79.3058C64.6105 79.3058 66.4308 81.126 66.4308 83.3509C66.4308 85.5757 64.6105 87.396 62.3857 87.396Z" fill="white"/>
<path d="M122.799 104.445C122.318 103.943 121.82 103.424 121.632 102.969C121.459 102.552 121.449 101.859 121.438 101.19C121.419 99.9446 121.399 98.5326 120.417 97.5513C119.435 96.5694 118.023 96.5484 116.778 96.5295C116.109 96.5191 115.416 96.5088 114.999 96.3361C114.544 96.1482 114.025 95.6499 113.523 95.1684C112.64 94.3227 111.641 93.3638 110.308 93.3638C108.975 93.3638 107.975 94.3227 107.093 95.1684C106.591 95.6499 106.072 96.1482 105.617 96.3361C105.2 96.5088 104.507 96.5191 103.838 96.5295C102.592 96.5484 101.18 96.5694 100.199 97.5513C99.2172 98.5326 99.1963 99.9446 99.1774 101.19C99.167 101.859 99.1567 102.551 98.984 102.969C98.7959 103.424 98.2978 103.943 97.8163 104.445C96.9706 105.328 96.0117 106.327 96.0117 107.66C96.0117 108.993 96.9706 109.992 97.8163 110.875C98.2978 111.377 98.7959 111.896 98.984 112.351C99.1567 112.768 99.167 113.461 99.1774 114.13C99.1963 115.375 99.2172 116.787 100.199 117.769C101.18 118.751 102.592 118.772 103.838 118.79C104.507 118.801 105.199 118.811 105.617 118.984C106.072 119.172 106.591 119.67 107.093 120.152C107.975 120.997 108.975 121.956 110.308 121.956C111.641 121.956 112.64 120.997 113.523 120.152C114.025 119.67 114.543 119.172 114.999 118.984C115.416 118.811 116.109 118.801 116.778 118.79C118.023 118.772 119.435 118.751 120.417 117.769C121.399 116.787 121.419 115.375 121.438 114.13C121.449 113.461 121.459 112.769 121.632 112.351C121.82 111.896 122.318 111.377 122.799 110.875C123.645 109.992 124.604 108.993 124.604 107.66C124.604 106.327 123.645 105.328 122.799 104.445Z" fill="#F99746"/>
<path d="M104.998 107.998L108.88 111.939L116.815 104.032" stroke="white" stroke-width="4" stroke-linecap="round" stroke-linejoin="round"/>
<defs>
<linearGradient id="paint0_linear_494_11150" x1="18.6791" y1="7.27507" x2="29.1774" y2="15.4291" gradientUnits="userSpaceOnUse">
<stop stop-color="#1977F3"/>
<stop offset="1" stop-color="#A0C9FE"/>
</linearGradient>
<linearGradient id="paint1_linear_494_11150" x1="27.037" y1="72.5396" x2="30.3375" y2="75.1031" gradientUnits="userSpaceOnUse">
<stop stop-color="#1977F3"/>
<stop offset="1" stop-color="#A0C9FE"/>
</linearGradient>
<linearGradient id="paint2_linear_494_11150" x1="127.854" y1="19.9008" x2="134.493" y2="25.0572" gradientUnits="userSpaceOnUse">
<stop stop-color="#1977F3"/>
<stop offset="1" stop-color="#A0C9FE"/>
</linearGradient>
<linearGradient id="paint3_linear_494_11150" x1="139.872" y1="131.015" x2="147.069" y2="136.605" gradientUnits="userSpaceOnUse">
<stop stop-color="#1977F3"/>
<stop offset="1" stop-color="#A0C9FE"/>
</linearGradient>
<linearGradient id="paint4_linear_494_11150" x1="1.24074" y1="110.694" x2="5.29504" y2="113.843" gradientUnits="userSpaceOnUse">
<stop stop-color="#1977F3"/>
<stop offset="1" stop-color="#A0C9FE"/>
</linearGradient>
</defs>
</svg>
