<svg width="275" height="164" viewBox="0 0 275 164" fill="none" xmlns="http://www.w3.org/2000/svg">
<path d="M119.1 16.28H216.376V39.016H251.536V80.568" stroke="#F5F5F5" stroke-width="7" stroke-linecap="square" stroke-dasharray="20 20"/>
<path d="M24.5911 109.752H65.2806V78.2619H24.5911V109.752Z" fill="#F5F5F5"/>
<path d="M34.7859 109.529C34.8422 109.529 34.8875 102.51 34.8875 93.8537C34.8875 85.194 34.8422 78.1764 34.7859 78.1764C34.7296 78.1764 34.6843 85.194 34.6843 93.8537C34.6843 102.51 34.7296 109.529 34.7859 109.529Z" fill="#EBEBEB"/>
<path d="M28.0414 106.122H31.1605V102.584H28.0414V106.122Z" fill="#FAFAFA"/>
<path d="M52.8675 78.3426V85.0623H48.2459V78.3426H52.8675Z" fill="#EBEBEB"/>
<path d="M52.8675 102.939V109.658H48.2459V102.939H52.8675Z" fill="#EBEBEB"/>
<path d="M80.7861 162.179H13.6165V110.195H80.7861V162.179Z" fill="#EBEBEB"/>
<path d="M63.9574 161.812C63.8839 161.812 63.8242 150.225 63.8242 135.934C63.8242 121.639 63.8839 110.054 63.9574 110.054C64.0308 110.054 64.0906 121.639 64.0906 135.934C64.0906 150.225 64.0308 161.812 63.9574 161.812Z" fill="#E0E0E0"/>
<path d="M75.0914 156.188H69.9416V150.347H75.0914V156.188Z" fill="#FAFAFA"/>
<path d="M34.1081 110.329V121.421H41.7378V110.329H34.1081Z" fill="#E0E0E0"/>
<path d="M34.1081 150.932V162.024H41.7378V150.932H34.1081Z" fill="#E0E0E0"/>
<path d="M166.721 32.5107C166.721 32.5107 164.168 30.1504 159.582 36.4272C154.997 42.7044 153.042 46.437 153.042 46.437C153.042 46.437 151.89 47.7206 151.057 46.6222C150.224 45.5237 149.305 42.643 147.555 42.8483C145.741 43.0612 144.858 44.9067 144.73 47.8095C144.603 50.7123 144.09 57.0617 144.042 57.6358C143.994 58.1991 143.544 58.9669 142.857 58.3095C142.17 57.6522 138.525 51.9683 135.94 53.8575C133.356 55.7469 134.326 63.8955 134.415 64.7884C134.504 65.6813 134.278 66.019 133.839 66.1643C133.399 66.3096 132.353 64.2842 131.25 62.7101C130.147 61.1361 128.593 59.5037 127.193 60.7192C125.794 61.9347 124.479 67.7142 128.502 78.1101L130.68 82.8056L135.839 83.3579C146.948 83.8658 151.991 80.7727 152.694 79.055C153.396 77.3373 151.358 76.3809 149.518 75.8347C147.679 75.2884 145.431 74.9407 145.428 74.4762C145.425 74.0117 145.672 73.6893 146.544 73.4893C147.417 73.2892 155.428 71.6129 156.39 68.5543C157.351 65.4956 150.817 63.8438 149.976 63.4007C149.135 62.9576 149.718 62.2847 150.235 62.0597C150.762 61.8306 156.6 59.3183 159.303 58.2712C162.007 57.224 163.469 55.7961 163.092 54.0042C162.728 52.2761 159.712 52.3213 158.408 51.8803C157.104 51.4393 157.95 49.9352 157.95 49.9352C157.95 49.9352 160.855 46.8865 165.326 40.5266C169.796 34.1668 166.666 32.4666 166.666 32.4666" fill="#EBEBEB"/>
<path d="M131.093 81.8082C134.395 77.1487 139.011 70.7509 144.134 63.7004C149.255 56.6524 153.887 50.2671 157.215 45.6269C158.873 43.31 160.216 41.433 161.15 40.1279C161.612 39.4846 161.972 38.9825 162.222 38.6341C162.343 38.4692 162.436 38.341 162.505 38.248C162.569 38.1618 162.606 38.12 162.606 38.12C162.606 38.12 162.579 38.1687 162.519 38.2585C162.455 38.354 162.366 38.4854 162.251 38.6545C162.008 39.0074 161.656 39.5161 161.206 40.168C160.297 41.4808 158.968 43.3714 157.316 45.7003C154.015 50.3598 149.398 56.7565 144.277 63.8045C139.154 70.855 134.523 77.241 131.195 81.8812" fill="#E0E0E0"/>
<path d="M148.681 46.9231C148.693 46.9216 148.719 47.0523 148.757 47.2902C148.795 47.5279 148.841 47.873 148.892 48.2999C148.993 49.154 149.101 50.3373 149.197 51.6454C149.284 52.9319 149.364 54.0954 149.425 54.995C149.454 55.3929 149.479 55.7309 149.499 56.0089C149.517 56.2485 149.521 56.3819 149.509 56.3833C149.497 56.3848 149.47 56.2543 149.43 56.0168C149.393 55.7788 149.348 55.4337 149.301 55.0059C149.208 54.1503 149.115 52.9658 149.02 51.6582C148.923 50.3731 148.835 49.2113 148.768 48.3121C148.737 47.9145 148.71 47.5756 148.689 47.2976C148.672 47.0576 148.669 46.9246 148.681 46.9231Z" fill="#E0E0E0"/>
<path d="M149.957 56.5435C149.951 56.4949 152.372 56.1669 155.365 55.8115C158.358 55.4559 160.788 55.2071 160.794 55.2557C160.8 55.3043 158.379 55.6319 155.386 55.9875C152.394 56.343 149.963 56.592 149.957 56.5435Z" fill="#E0E0E0"/>
<path d="M141.604 67.0262C141.607 67.0143 141.742 67.0297 141.984 67.0673C142.262 67.1131 142.603 67.1693 143.005 67.2352C143.867 67.3763 145.059 67.5678 146.381 67.7314C147.703 67.8983 148.905 68.0082 149.775 68.0816C150.181 68.1166 150.525 68.1463 150.806 68.1706C151.05 68.1933 151.185 68.2118 151.184 68.2238C151.183 68.2361 151.048 68.2411 150.803 68.2394C150.558 68.2377 150.204 68.2282 149.767 68.2064C148.893 68.1647 147.685 68.0739 146.359 67.9068C145.033 67.7426 143.841 67.5315 142.983 67.3585C142.554 67.2703 142.208 67.1943 141.97 67.1348C141.732 67.0764 141.602 67.0381 141.604 67.0262Z" fill="#E0E0E0"/>
<path d="M138.539 58.575C138.55 58.5705 138.605 58.6837 138.695 58.892C138.785 59.1004 138.91 59.4037 139.061 59.7802C139.362 60.5328 139.767 61.5773 140.204 62.7343C140.642 63.8916 141.028 64.9429 141.3 65.7068C141.436 66.0889 141.543 66.3994 141.613 66.615C141.683 66.8306 141.717 66.9518 141.705 66.9563C141.694 66.9607 141.639 66.8476 141.549 66.6392C141.459 66.4308 141.334 66.1276 141.183 65.7511C140.881 64.9984 140.476 63.9538 140.039 62.7965C139.602 61.6396 139.215 60.5886 138.944 59.8244C138.808 59.4424 138.702 59.1323 138.631 58.9166C138.561 58.701 138.527 58.5794 138.539 58.575Z" fill="#E0E0E0"/>
<path d="M129.992 66.8863C130.004 66.8818 130.073 67.0273 130.188 67.2943C130.313 67.5952 130.471 67.9763 130.66 68.4311C131.051 69.3937 131.58 70.7281 132.155 72.2057C132.729 73.6838 133.24 75.0253 133.602 75.9996C133.77 76.4626 133.91 76.8503 134.021 77.1565C134.116 77.4311 134.164 77.5851 134.152 77.5896C134.141 77.5941 134.072 77.4485 133.957 77.1815C133.832 76.8807 133.674 76.4995 133.485 76.0447C133.093 75.0821 132.564 73.7478 131.99 72.2697C131.416 70.792 130.905 69.4506 130.543 68.4763C130.375 68.0133 130.235 67.6256 130.124 67.3193C130.028 67.0447 129.981 66.8907 129.992 66.8863Z" fill="#E0E0E0"/>
<path d="M134.117 77.3015C134.119 77.2894 134.291 77.304 134.599 77.3417C134.94 77.3854 135.377 77.4411 135.902 77.5084C137.002 77.6487 138.522 77.8376 140.205 77.9996C141.888 78.1642 143.415 78.2743 144.522 78.347C145.049 78.3825 145.489 78.4117 145.832 78.4346C146.142 78.4569 146.313 78.4751 146.312 78.4875C146.312 78.4998 146.141 78.5049 145.83 78.5037C145.519 78.5025 145.07 78.4931 144.516 78.4719C143.406 78.4311 141.875 78.3408 140.188 78.1758C138.501 78.0134 136.981 77.8047 135.884 77.6325C135.336 77.5453 134.893 77.4694 134.588 77.41C134.283 77.3513 134.116 77.3135 134.117 77.3015Z" fill="#E0E0E0"/>
<path d="M267.474 91.5628C267.474 83.0827 259.836 76.3924 251.087 78.0404C245.583 79.0768 241.197 83.5868 240.234 89.1214C239.631 92.5808 240.343 95.8352 241.915 98.5212H241.908L241.947 98.5729C242.473 99.4632 243.133 100.099 243.799 101.034L251.769 111.628C252.761 112.946 254.734 112.946 255.725 111.628L263.563 101.209C263.563 101.209 265.025 99.4589 265.556 98.5588L265.584 98.5212H265.579C266.775 96.4773 267.474 94.1045 267.474 91.5628ZM253.747 97.5596C250.411 97.5596 247.706 94.8458 247.706 91.4981C247.706 88.1505 250.411 85.4366 253.747 85.4366C257.083 85.4366 259.788 88.1505 259.788 91.4981C259.788 94.8458 257.083 97.5596 253.747 97.5596Z" fill="#F5F5F5"/>
<path d="M202.663 30.3203C202.994 30.5919 201.896 47.8968 203.291 47.1508C203.292 47.1508 237.141 47.1504 237.141 47.1504C237.492 47.1504 237.775 46.8631 237.77 46.511L237.693 40.5793C237.691 40.446 237.647 40.3167 237.567 40.2096L232.713 33.6966C232.827 33.2026 226.843 33.4959 226.62 33.4006C225.066 33.2505 226.927 29.8311 225.366 29.6891H203.292C202.945 29.6891 202.663 29.9718 202.663 30.3203Z" fill="#F5F5F5"/>
<path d="M238.444 48.7729H201.982V47.6439H238.444V48.7729Z" fill="#F5F5F5"/>
<path d="M227.569 34.8142V40.0125C227.569 40.2147 227.735 40.3774 227.937 40.3739L235.409 40.2398C235.695 40.2347 235.861 39.9133 235.7 39.6754L232.207 34.5033C232.138 34.401 232.022 34.3418 231.899 34.3449L227.92 34.4527C227.725 34.4582 227.569 34.6182 227.569 34.8142Z" fill="#EBEBEB"/>
<path d="M214.041 48.0759C214.041 50.0743 212.426 51.6949 210.434 51.6949C208.442 51.6949 206.827 50.0743 206.827 48.0759C206.827 46.0775 208.442 44.457 210.434 44.457C212.426 44.457 214.041 46.0775 214.041 48.0759Z" fill="#EBEBEB"/>
<path d="M212.557 48.0759C212.557 49.2523 211.606 50.206 210.434 50.206C209.262 50.206 208.311 49.2523 208.311 48.0759C208.311 46.8995 209.262 45.9458 210.434 45.9458C211.606 45.9458 212.557 46.8995 212.557 48.0759Z" fill="#FAFAFA"/>
<path d="M225.967 47.1504C225.876 47.1504 225.802 43.2414 225.802 38.4202C225.802 33.5974 225.876 29.6891 225.967 29.6891C226.058 29.6891 226.131 33.5974 226.131 38.4202C226.131 43.2414 226.058 47.1504 225.967 47.1504Z" fill="#EBEBEB"/>
<path d="M233.693 48.0759C233.693 50.0743 232.078 51.6949 230.087 51.6949C228.095 51.6949 226.48 50.0743 226.48 48.0759C226.48 46.0775 228.095 44.457 230.087 44.457C232.078 44.457 233.693 46.0775 233.693 48.0759Z" fill="#EBEBEB"/>
<path d="M232.21 48.0759C232.21 49.2523 231.259 50.206 230.087 50.206C228.914 50.206 227.964 49.2523 227.964 48.0759C227.964 46.8995 228.914 45.9458 230.087 45.9458C231.259 45.9458 232.21 46.8995 232.21 48.0759Z" fill="#FAFAFA"/>
<path d="M230.096 41.3982C230.096 41.4895 229.579 41.5632 228.943 41.5632C228.305 41.5632 227.789 41.4895 227.789 41.3982C227.789 41.3069 228.305 41.2332 228.943 41.2332C229.579 41.2332 230.096 41.3069 230.096 41.3982Z" fill="#EBEBEB"/>
<path d="M274.247 162.179C274.247 162.235 213.019 162.281 137.507 162.281C61.9685 162.281 0.752991 162.235 0.752991 162.179C0.752991 162.16 7.82171 162.142 20.1191 162.127C20.8489 162.126 21.5224 161.3 22.2885 161.3C22.9245 161.299 23.6476 162.122 24.3082 162.122C31.4727 162.114 39.5403 162.031 49.2945 162.024C49.5484 162.024 50.3255 161.36 50.581 161.36C50.9505 161.359 51.3322 162.1 51.7049 162.1C75.166 162.086 105.011 162.077 137.507 162.077C213.019 162.077 274.247 162.122 274.247 162.179Z" fill="#373737"/>
<path d="M55.372 160.474C60.3767 156.456 61.1249 149.562 60.5206 143.448C60.42 142.427 60.4619 141.342 59.9185 140.476C59.3748 139.611 58.2034 139.072 57.3178 139.564C56.5832 139.971 56.31 140.877 55.9336 141.635C55.4328 142.645 54.6448 143.505 53.6896 144.084C53.0617 144.465 52.2715 144.724 51.6073 144.412C50.6957 143.983 50.5135 142.772 50.4538 141.754C50.3431 139.857 50.2316 137.96 50.1206 136.064C50.0609 135.046 49.9967 134.008 49.6187 133.063C49.2408 132.118 48.4853 131.267 47.5026 131.06C46.5196 130.853 45.3622 131.49 45.223 132.499C45.1651 132.919 45.2772 133.343 45.2763 133.767C45.2755 134.191 45.1097 134.671 44.7171 134.815C44.32 134.961 43.8951 134.7 43.5725 134.422C42.4586 133.464 41.6624 132.188 40.913 130.916C40.1636 129.644 39.432 128.339 38.4093 127.281C37.3866 126.224 36.0143 125.423 34.5562 125.436C33.0977 125.45 31.6079 126.451 31.3334 127.906C31.058 129.364 31.9865 130.764 32.9699 131.865C34.4288 133.498 36.1213 134.916 37.9774 136.06C38.312 136.267 38.6744 136.49 38.821 136.859C39.0853 137.522 38.4881 138.238 37.8348 138.505C37.095 138.807 36.269 138.783 35.4839 138.928C34.6989 139.074 33.8647 139.48 33.614 140.25C33.2657 141.317 34.2032 142.349 35.103 143.007C36.9042 144.323 38.9291 145.324 41.0602 145.951C41.8243 146.176 42.6254 146.364 43.2612 146.85C43.897 147.336 44.3197 148.226 44.0024 148.967C43.6851 149.708 42.7666 149.999 41.9754 149.905C41.1847 149.811 40.4571 149.432 39.6936 149.199C38.2652 148.763 36.471 148.979 35.6559 150.246C35.1204 151.079 35.1401 152.188 35.4984 153.115C35.8563 154.042 36.5115 154.817 37.1993 155.527C39.6043 158.008 42.6027 159.936 45.9101 160.847C49.2171 161.758 52.2338 161.865 55.372 160.474Z" fill="#1977F3"/>
<path d="M55.1461 162.223C54.7674 159.81 54.6552 159.768 53.5493 156.738C52.4495 153.705 50.9683 150.48 49.304 147.161C48.8849 146.333 48.4709 145.515 48.0628 144.709C47.6536 143.905 47.2473 143.107 46.8023 142.352C45.9186 140.837 44.9535 139.448 43.9967 138.159C43.0398 136.868 42.0851 135.679 41.1844 134.574C40.2805 133.469 39.4186 132.456 38.5941 131.566C36.9497 129.779 35.4558 128.499 34.3947 127.661C33.8648 127.241 33.4434 126.928 33.1545 126.72C33.0157 126.622 32.9065 126.544 32.8245 126.486C32.7497 126.434 32.7103 126.408 32.7086 126.411C32.7064 126.414 32.7418 126.444 32.8131 126.501C32.8922 126.563 32.9977 126.646 33.1319 126.751C33.4128 126.969 33.8274 127.291 34.3501 127.719C35.3959 128.573 36.8705 129.865 38.4977 131.658C39.3138 132.551 40.1676 133.566 41.0646 134.673C41.9597 135.783 42.9087 136.974 43.8596 138.264C44.8106 139.553 45.7681 140.939 46.6449 142.447C47.0866 143.198 47.4878 143.989 47.8975 144.796C48.3052 145.602 48.7184 146.419 49.1374 147.247C50.8004 150.563 52.2821 153.778 53.3881 156.798C54.4989 159.816 54.6219 159.843 55.0159 162.245" fill="black"/>
<path d="M46.7421 142.349C46.7547 142.35 46.7793 142.193 46.8132 141.909C46.8483 141.624 46.886 141.21 46.9244 140.699C47.0024 139.676 47.0619 138.26 47.1216 136.7C47.1812 135.138 47.261 133.727 47.3543 132.708C47.3995 132.199 47.44 131.787 47.472 131.503C47.502 131.218 47.5127 131.059 47.5 131.057C47.4873 131.055 47.4524 131.21 47.3998 131.492C47.3457 131.773 47.2851 132.185 47.223 132.694C47.0953 133.712 46.9942 135.128 46.9347 136.692C46.8795 138.232 46.8299 139.626 46.792 140.691C46.7719 141.172 46.7545 141.577 46.7406 141.903C46.7295 142.189 46.7291 142.348 46.7421 142.349Z" fill="black"/>
<path d="M33.5486 140.763C33.5491 140.776 33.7358 140.785 34.0726 140.791C34.4091 140.799 34.8961 140.808 35.4974 140.838C36.6999 140.888 38.3586 141.016 40.1822 141.238C42.0061 141.463 43.6485 141.736 44.8302 141.969C45.4222 142.08 45.8988 142.184 46.2286 142.254C46.5581 142.324 46.7421 142.358 46.7456 142.345C46.7486 142.332 46.5708 142.275 46.2456 142.182C45.9202 142.09 45.4469 141.967 44.8565 141.837C43.6783 141.571 42.034 141.275 40.2046 141.049C38.3754 140.827 36.7084 140.72 35.5011 140.704C34.8975 140.691 34.4088 140.703 34.0715 140.718C33.7343 140.735 33.5485 140.75 33.5486 140.763Z" fill="black"/>
<path d="M53.3661 156.514C53.3721 156.516 53.3992 156.459 53.4453 156.349C53.4975 156.216 53.5609 156.056 53.6378 155.861C53.8032 155.436 54.0262 154.816 54.2918 154.046C54.8243 152.506 55.4935 150.355 56.1993 147.972C56.9059 145.588 57.5537 143.435 58.0534 141.886C58.2987 141.133 58.5006 140.514 58.6506 140.053C58.7146 139.854 58.7668 139.689 58.8101 139.553C58.8446 139.439 58.86 139.377 58.854 139.375C58.8479 139.373 58.8209 139.43 58.7747 139.541C58.7226 139.673 58.6591 139.833 58.5823 140.028C58.4169 140.452 58.1939 141.073 57.9282 141.843C57.3957 143.383 56.7265 145.533 56.0204 147.917C55.3142 150.3 54.6664 152.454 54.1666 154.003C53.9209 154.756 53.7195 155.375 53.5694 155.835C53.5055 156.035 53.4532 156.2 53.4099 156.335C53.3755 156.45 53.36 156.512 53.3661 156.514Z" fill="black"/>
<path d="M35.6819 152.054C35.6808 152.06 35.7413 152.08 35.8583 152.113C35.9967 152.15 36.1666 152.195 36.3724 152.249C36.8471 152.37 37.4875 152.532 38.2671 152.729C39.8669 153.136 42.0696 153.721 44.5031 154.372C46.9374 155.024 49.1477 155.59 50.7562 155.963C51.5605 156.149 52.2126 156.294 52.6653 156.384C52.8745 156.425 53.0471 156.458 53.1872 156.486C53.3069 156.507 53.3709 156.514 53.372 156.508C53.3732 156.502 53.3126 156.481 53.1956 156.448C53.0576 156.412 52.8877 156.367 52.6815 156.313C52.2068 156.192 51.5668 156.03 50.7872 155.832C49.1874 155.426 46.9844 154.84 44.5501 154.189C42.1166 153.538 39.9066 152.972 38.2981 152.599C37.4939 152.412 36.8417 152.268 36.3886 152.177C36.1795 152.137 36.0072 152.103 35.8667 152.076C35.747 152.055 35.6834 152.047 35.6819 152.054Z" fill="black"/>
<path d="M118.804 162.179H64.4344C57.8653 162.149 52.3132 156.528 52.3409 149.937L52.9199 12.5356C52.9476 5.94021 58.2998 0.616851 64.8727 0.647039L119.493 0.90027C126.062 0.930847 131.364 6.29772 131.336 12.8892L130.757 150.291C130.729 156.886 125.377 162.21 118.804 162.179Z" fill="black"/>
<path d="M119.415 6.12131L108.825 6.07231C107.405 6.06604 106.248 7.2683 106.242 8.75751L106.234 10.6854C106.228 12.175 105.072 13.3776 103.651 13.371L83.0094 13.2749C81.5893 13.2686 80.4427 12.0554 80.449 10.5658L80.4572 8.63835C80.4634 7.14874 79.3172 5.93511 77.8971 5.92884L74.1725 5.91159L64.904 5.86886C60.3007 5.8477 56.5523 9.57561 56.5328 14.1946L55.9679 148.308C55.9483 152.925 59.6612 156.684 64.2621 156.705L118.773 156.957C123.376 156.979 127.124 153.251 127.144 148.632L127.709 14.5176C127.728 9.90097 124.016 6.14287 119.415 6.12131Z" fill="#F5F5F5"/>
<path d="M96.28 131.614C96.2175 133.233 96.1585 134.752 96.1093 136.015H103.94L102.981 131.189L96.28 131.614Z" fill="#F5F5F5"/>
<path d="M64.4571 133.634L64.5255 136.015H95.3276C95.3795 134.678 95.4374 133.194 95.4963 131.664L64.4571 133.634Z" fill="#F5F5F5"/>
<path d="M103.375 131.163L104.338 136.014H118.774L118.6 130.197L103.375 131.163Z" fill="#F5F5F5"/>
<path d="M97.0621 63.3506L99.7917 47.4706L92.6425 46.9391V63.3506H97.0621Z" fill="#F5F5F5"/>
<path d="M63.8132 124.818L56.0538 127.868L56.0308 133.383L64.0441 132.875L63.8132 124.818Z" fill="#F5F5F5"/>
<path d="M63.7773 123.577L63.353 108.787L63.3472 108.788V103.572L56.153 104.336L56.0593 126.603L63.7745 123.57L63.7773 123.577Z" fill="#F5F5F5"/>
<path d="M63.3472 91.927L56.2093 90.9815L56.1581 103.153L63.3472 102.389V91.927Z" fill="#F5F5F5"/>
<path d="M116.551 103.791L116.25 108.03L107.82 108.942L108.472 112.296L118.042 111.572L117.898 106.763L118.662 103.577L116.551 103.791Z" fill="#F5F5F5"/>
<path d="M101.356 112.834L108.08 112.326L106.615 104.798L100.747 105.392L101.356 112.834Z" fill="#F5F5F5"/>
<path d="M101.42 113.616L101.934 119.893L102.846 128.503L103.22 130.388L118.576 129.413L118.066 112.356L101.42 113.616Z" fill="#F5F5F5"/>
<path d="M74.9902 83.9788L75.5809 84.9948L63.7378 91.9262V108.367L76.2368 107.48L100.327 105.041L99.4444 94.2633L76.431 91.2465L76.583 90.0807L99.3463 93.0646L97.8536 74.8248L75.3231 76.9988L75.2484 76.218L97.7899 74.0431L97.0109 64.5266H75.3387L56.3058 68.002L56.214 89.7957L63.4206 90.7502L74.9902 83.9788ZM64.9509 106.798C64.9509 106.798 65.0403 93.241 64.9509 92.7349L74.6144 87.5766L75.8669 106.105L64.9509 106.798Z" fill="#F5F5F5"/>
<path d="M115.761 103.871L107.006 104.758L107.669 108.17L115.517 107.321L115.761 103.871Z" fill="#F5F5F5"/>
<path d="M96.3914 128.71C96.3644 129.421 96.3371 130.131 96.3105 130.826L102.827 130.413L102.492 128.726L96.3914 128.71Z" fill="#F5F5F5"/>
<path d="M82.3547 63.3506L83.504 58.1283H92.2518V46.9101L64.8954 44.8768V55.4102L56.3511 57.3494L56.3113 66.806L75.2332 63.3506H82.3547Z" fill="#F5F5F5"/>
<path d="M100.609 32.1364L100.375 31.1752L110.822 27.0271L104.027 13.3408C103.904 13.3592 103.779 13.3717 103.651 13.371L92.1073 13.3173L92.4218 32.4719L100.609 32.1364Z" fill="#F5F5F5"/>
<path d="M116.44 24.7954L116.428 6.1072L108.825 6.07192C107.405 6.06565 106.249 7.26831 106.243 8.75752L106.234 10.685C106.231 11.6042 105.788 12.4133 105.116 12.897L111.915 26.5923L116.44 24.7954Z" fill="#F5F5F5"/>
<path d="M77.1694 25.5978L76.2884 5.92139L74.1729 5.91158L65.9103 5.87317L62.3904 23.4689L77.1694 25.5978ZM75.286 7.91549L75.5676 23.9397L64.5856 22.327L66.9905 7.91549H75.286Z" fill="#F5F5F5"/>
<path d="M77.5682 25.6551L77.5702 25.8229C77.5889 27.3583 77.6202 30.1219 77.6432 33.0776L92.0311 32.4876L91.7166 13.3149L83.0094 13.2745C81.5893 13.2683 80.4431 12.055 80.4494 10.5654L80.4576 8.63797C80.4638 7.14837 79.3172 5.93513 77.8972 5.92885L76.6794 5.92297L77.5627 25.6543L77.5682 25.6551Z" fill="#F5F5F5"/>
<path d="M61.2286 23.3015L64.7137 5.87711C60.1988 5.95864 56.5519 9.63991 56.5328 14.1946L56.4965 22.8805L56.5328 22.6249L61.2286 23.3015Z" fill="#F5F5F5"/>
<path d="M63.7234 44.7894L56.4062 44.2457L56.3562 56.1421L63.7234 54.4702V44.7894Z" fill="#F5F5F5"/>
<path d="M61.1517 23.6864L56.4957 23.0157L56.4144 42.2809L57.4169 42.3554L61.1517 23.6864Z" fill="#F5F5F5"/>
<path d="M75.931 123.353L76.054 107.886L63.7433 108.759L64.1782 123.912L75.931 123.353Z" fill="#F5F5F5"/>
<path d="M78.1956 119.783L95.6303 128.164C95.8377 122.687 96.0237 117.566 96.0061 117.24L96.3839 117.22L96.5687 116.85C96.8163 116.974 96.8163 116.975 96.6863 120.708C96.6136 122.79 96.5108 125.562 96.4058 128.335H102.435L101.545 119.93L100.359 105.431L77.5795 107.738L78.1956 119.783Z" fill="#F5F5F5"/>
<path d="M120.93 94.1136L120.734 92.0744L99.8358 94.2555L100.715 105.001L118.759 103.174L120.93 94.1136Z" fill="#F5F5F5"/>
<path d="M92.2518 59.3044H84.4455L83.5548 63.3506H92.2518V59.3044Z" fill="#F5F5F5"/>
<path d="M117.703 60.6697L98.1524 59.3126L97.3555 63.9472L98.1786 74.0055L118.798 72.0161L117.703 60.6697ZM98.8713 63.9386L99.9206 61.0139L116.902 62.0915L117.885 70.4587L99.4463 72.6527L98.8713 63.9386Z" fill="#F5F5F5"/>
<path d="M119.732 81.6934L118.874 72.7966L98.2431 74.7872L99.0178 84.2547L119.732 81.6934Z" fill="#F5F5F5"/>
<path d="M64.0664 133.659L56.0624 134.167L56.0296 133.644L56.0198 136.014H64.134L64.0664 133.659Z" fill="#F5F5F5"/>
<path d="M127.566 20.378L127.683 20.6767L127.709 14.5176C127.729 9.90098 124.016 6.14248 119.415 6.12092L116.818 6.10916L116.831 24.6406L127.566 20.378Z" fill="#F5F5F5"/>
<path d="M95.6139 128.59L77.8175 120.036L77.1905 107.777L76.4451 107.852L76.3189 123.726L64.1895 124.304L64.1996 124.657L64.2023 124.664L64.2 124.666L64.4344 132.849L95.5268 130.876C95.5557 130.117 95.585 129.352 95.6139 128.59ZM64.9513 125.313L81.9285 124.117L92.9738 129.259L64.9513 130.781V125.313Z" fill="#F5F5F5"/>
<path d="M122.508 40.9603L123.236 36.6271C116.854 34.3422 116.412 27.6641 116.431 25.6425L112.265 27.2968L118.537 39.9305L122.508 40.9603Z" fill="#F5F5F5"/>
<path d="M99.7401 93.0838L108.417 92.1779L106.707 84.4888L99.1135 85.4276L99.7401 93.0838Z" fill="#F5F5F5"/>
<path d="M117.735 47.6024L101.528 47.5996L100.184 47.4997L98.3528 58.1476L117.589 59.4831L117.142 54.8536L119.036 48.0148L117.735 47.6024Z" fill="#F5F5F5"/>
<path d="M117.337 45.6424L117.54 40.5597L111.171 27.7311L101.295 31.6527L104.69 45.6424H117.337ZM110.787 29.2917L116.623 40.4327L115.78 43.9046L105.793 43.5275L103.297 32.9894L110.787 29.2917Z" fill="#F5F5F5"/>
<path d="M119.859 106.966L120.158 116.949L127.179 116.553L127.201 116.944L120.169 117.341L120.527 129.289L127.165 128.868L127.214 129.65L120.55 130.073L120.728 136.014H127.197L127.338 102.699L120.721 103.369L119.859 106.966Z" fill="#F5F5F5"/>
<path d="M77.1819 25.9953L62.3135 23.8538L58.5947 42.4429L77.2471 43.8294C77.3217 40.9674 77.2569 32.1885 77.1819 25.9953Z" fill="#F5F5F5"/>
<path d="M101.637 45.6424H103.886L100.703 32.5245L92.428 32.8639L92.6265 44.9724L101.637 45.6424Z" fill="#F5F5F5"/>
<path d="M55.9796 145.557L55.9678 148.308C55.9675 148.393 55.9776 148.476 55.9796 148.56V145.557Z" fill="#F5F5F5"/>
<path d="M77.628 43.858L92.235 44.9434L92.0373 32.88L77.6464 33.47C77.6768 37.5495 77.6889 41.9011 77.628 43.858Z" fill="#F5F5F5"/>
<path d="M119.845 82.8643L107.096 84.4406L108.808 92.1367L120.621 90.9038L119.845 82.8643Z" fill="#F5F5F5"/>
<path d="M123.301 36.234L124.118 31.3712L127.637 31.646L127.681 21.1749L116.826 25.4853C116.605 32.8538 121.217 35.4449 123.301 36.234Z" fill="#F5F5F5"/>
<path d="M119.121 55.0272L119.565 59.6203L127.517 60.1722L127.557 50.7145L120.899 48.6051L119.121 55.0272Z" fill="#F5F5F5"/>
<path d="M122.906 94.2519L120.818 102.965L127.339 102.305L127.378 93.1681C125.376 92.6393 123.63 92.2084 122.692 92.0269L122.906 94.2519Z" fill="#F5F5F5"/>
<path d="M118.505 45.7909L127.565 48.6619L127.587 43.4915L118.688 41.1841L118.505 45.7909Z" fill="#F5F5F5"/>
<path d="M122.576 90.8302C123.306 90.9407 124.69 91.2355 127.383 91.9458L127.467 71.9679L120.818 72.6092L122.576 90.8302Z" fill="#F5F5F5"/>
<path d="M120.742 71.8287L127.47 71.18L127.512 61.351L119.679 60.8073L120.742 71.8287Z" fill="#F5F5F5"/>
<path d="M124.052 36.4817C125.327 36.8706 126.514 37.172 127.613 37.3931L127.634 32.4324L124.77 32.2085L124.052 36.4817Z" fill="#F5F5F5"/>
<path d="M123.267 41.1571L127.592 42.2786L127.611 37.7961C126.492 37.5711 125.285 37.2661 123.986 36.8714L123.267 41.1571Z" fill="#F5F5F5"/>
<path d="M64.0668 133.659L64.1344 136.015H64.525L64.4571 133.634L95.4963 131.664C95.4373 133.194 95.3799 134.678 95.3275 136.015H96.1093C96.1585 134.752 96.2175 133.233 96.28 131.614L102.981 131.189L103.94 136.015H104.338L103.374 131.164L118.6 130.197L118.774 136.015H120.728L120.55 130.074L127.215 129.651L127.165 128.868L120.527 129.289L120.169 117.341L127.201 116.944L127.179 116.553L120.158 116.95L119.859 106.966L120.721 103.369L127.338 102.699L127.339 102.305L120.818 102.966L122.906 94.2523L122.692 92.0269C123.63 92.2084 125.376 92.6393 127.378 93.1681L127.383 91.9462C124.69 91.2359 123.306 90.9411 122.576 90.8306L120.818 72.6092L127.467 71.9679L127.47 71.1796L120.743 71.8288L119.679 60.8069L127.512 61.351L127.517 60.1722L119.565 59.6203L119.121 55.0272L120.899 48.6051L127.557 50.7145L127.565 48.662L118.505 45.7909L118.688 41.1846L127.587 43.4919L127.592 42.2786L123.267 41.1571L123.987 36.871C125.285 37.2657 126.492 37.5711 127.611 37.7961L127.613 37.3927C126.514 37.1716 125.327 36.8706 124.052 36.4817L124.77 32.2085L127.634 32.4324L127.637 31.6464L124.118 31.3716L123.301 36.2344C121.217 35.4453 116.605 32.8542 116.826 25.4857L127.681 21.1753L127.683 20.6767L127.565 20.378L116.831 24.641L116.819 6.10917L116.428 6.10761L116.44 24.7958L111.915 26.5927L105.116 12.8974C104.797 13.1272 104.427 13.2812 104.027 13.3408L110.821 27.0271L100.375 31.1752L100.609 32.1364L92.4214 32.472L92.1073 13.3173L91.7166 13.3153L92.0311 32.488L77.6432 33.078C77.6202 30.1223 77.5889 27.3583 77.5702 25.8229L77.5682 25.6555L77.5628 25.6547L76.6795 5.92337L76.2884 5.92141L77.169 25.5978L62.3904 23.4689L65.91 5.87319L64.904 5.86888C64.8399 5.86849 64.7774 5.87633 64.7137 5.87751L61.2282 23.3015L56.5328 22.6253L56.4961 22.8809L56.4957 23.0161L61.1512 23.6865L57.4169 42.3555L56.4144 42.281L56.4062 44.2457L63.7234 44.7898V54.4702L56.3562 56.1425L56.3511 57.3495L64.8954 55.4102V44.8768L92.2518 46.9101V58.128H83.5036L82.3547 63.3506H75.2332L56.3113 66.8061L56.3062 68.0021L75.3387 64.5266H97.0113L97.7899 74.0436L75.2484 76.2184L75.3235 76.9988L97.854 74.8252L99.3467 93.0646L76.5834 90.0807L76.4314 91.2469L99.4448 94.2633L100.327 105.041L76.2372 107.48L63.7382 108.367V91.9262L75.5813 84.9953L74.9906 83.9792L63.4206 90.7502L56.2144 89.7961L56.2093 90.9815L63.3476 91.927V102.389L56.1581 103.153L56.1531 104.336L63.3476 103.572V108.788L63.3534 108.787L63.7777 123.577L63.7746 123.57L56.0593 126.603L56.0538 127.868L63.8132 124.818L64.0441 132.875L56.0308 133.383L56.0296 133.644L56.0624 134.167L64.0668 133.659ZM96.3105 130.826C96.337 130.131 96.3644 129.421 96.3913 128.71L102.492 128.726L102.827 130.413L96.3105 130.826ZM103.22 130.388L102.846 128.503L101.934 119.893L101.42 113.616L118.066 112.357L118.576 129.413L103.22 130.388ZM107.006 104.758L115.761 103.872L115.517 107.321L107.669 108.17L107.006 104.758ZM106.615 104.798L108.08 112.326L101.356 112.834L100.747 105.392L106.615 104.798ZM118.042 111.572L108.472 112.296L107.82 108.943L116.25 108.03L116.551 103.792L118.662 103.578L117.899 106.763L118.042 111.572ZM106.707 84.4888L108.417 92.1779L99.7401 93.0838L99.1135 85.4276L106.707 84.4888ZM108.808 92.1371L107.096 84.4406L119.845 82.8643L120.621 90.9039L108.808 92.1371ZM117.589 59.4831L98.3529 58.1476L100.183 47.4997L101.528 47.5996L117.735 47.6024L119.036 48.0148L117.142 54.8532L117.589 59.4831ZM116.431 25.6425C116.412 27.6641 116.854 34.3418 123.235 36.6268L122.507 40.9603L118.537 39.9305L112.265 27.2968L116.431 25.6425ZM111.171 27.7311L117.54 40.5597L117.337 45.6424H104.691L101.295 31.6527L111.171 27.7311ZM100.703 32.5245L103.886 45.6424H101.637L92.6265 44.9724L92.428 32.864L100.703 32.5245ZM92.0374 32.88L92.2354 44.9434L77.628 43.858C77.6889 41.9011 77.6768 37.5495 77.6464 33.47L92.0374 32.88ZM62.3135 23.8538L77.1815 25.9957C77.2565 32.1889 77.3217 40.9674 77.2471 43.8294L58.5947 42.4433L62.3135 23.8538ZM99.7921 47.4707L97.0621 63.3506H92.6425V46.9391L99.7921 47.4707ZM84.4455 59.304H92.2518V63.3506H83.5548L84.4455 59.304ZM97.3555 63.9476L98.1525 59.3126L117.703 60.6701L118.798 72.0165L98.1786 74.0059L97.3555 63.9476ZM118.874 72.797L119.732 81.6938L99.0174 84.2548L98.2427 74.7876L118.874 72.797ZM99.8358 94.2555L120.734 92.0748L120.931 94.1136L118.759 103.174L100.715 105.001L99.8358 94.2555ZM101.545 119.93L102.435 128.335H96.4054C96.5105 125.562 96.6136 122.79 96.6863 120.708C96.8164 116.975 96.816 116.974 96.5683 116.85L96.3839 117.22L96.0057 117.24C96.0233 117.566 95.8374 122.687 95.6299 128.163L78.1956 119.783L77.5796 107.738L100.359 105.431L101.545 119.93ZM76.054 107.886L75.9309 123.353L64.1781 123.912L63.7437 108.759L76.054 107.886ZM64.1996 124.666L64.2023 124.665L64.1996 124.658L64.1895 124.304L76.3185 123.726L76.4447 107.853L77.1901 107.777L77.8175 120.036L95.6139 128.59C95.585 129.352 95.5553 130.117 95.5264 130.876L64.4344 132.849L64.1996 124.666Z" fill="white"/>
<path d="M81.9284 124.117L64.9512 125.313V130.781L92.9738 129.259L81.9284 124.117Z" fill="#EBEBEB"/>
<path d="M116.902 62.0915L99.9206 61.0139L98.8713 63.9386L99.4463 72.6531L117.885 70.4591L116.902 62.0915Z" fill="#EBEBEB"/>
<path d="M64.2621 156.705L118.773 156.957C123.376 156.979 127.124 153.251 127.144 148.632L127.197 136.014H120.728H118.774H104.338H103.94H96.1097H95.3276H64.5254H64.1344H56.0199L55.9796 145.557V148.56C56.0941 153.06 59.746 156.684 64.2621 156.705Z" fill="#EBEBEB"/>
<path d="M75.5676 23.9397L75.286 7.9155H66.9905L64.5852 22.327L75.5676 23.9397Z" fill="#EBEBEB"/>
<path d="M115.78 43.9046L116.623 40.4327L110.787 29.2917L103.297 32.9898L105.794 43.5275L115.78 43.9046Z" fill="#EBEBEB"/>
<path d="M64.9512 92.7349C65.0407 93.241 64.9512 106.798 64.9512 106.798L75.8672 106.105L74.6144 87.5766L64.9512 92.7349Z" fill="#EBEBEB"/>
<path d="M101.359 103.745L100.782 95.3425L119.504 92.9277V94.3766L117.24 102.103L101.359 103.745Z" fill="#EBEBEB"/>
<path d="M87.5099 34.0729C87.5099 35.3363 86.4887 36.361 85.2296 36.361C83.9705 36.361 82.9493 35.3363 82.9493 34.0729C82.9493 32.8094 83.9705 31.7848 85.2296 31.7848C86.4887 31.7848 87.5099 32.8094 87.5099 34.0729Z" fill="#50E3C2"/>
<path d="M87.5077 33.975C87.5616 35.2376 86.5857 36.3046 85.3274 36.3587C84.069 36.4128 83.0056 35.4336 82.9517 34.171C82.8978 32.9083 83.8737 31.8413 85.132 31.7872C86.3904 31.7331 87.4538 32.7123 87.5077 33.975Z" fill="white"/>
<path d="M86.7461 33.9941C86.7461 34.8345 86.0672 35.5158 85.2296 35.5158C84.392 35.5158 83.713 34.8345 83.713 33.9941C83.713 33.1536 84.392 32.4723 85.2296 32.4723C86.0672 32.4723 86.7461 33.1536 86.7461 33.9941Z" fill="#1977F3"/>
<path d="M120.478 125.466C120.478 126.007 120.042 126.444 119.504 126.444C118.966 126.444 118.53 126.007 118.53 125.466C118.53 124.926 118.966 124.489 119.504 124.489C120.042 124.489 120.478 124.926 120.478 125.466Z" fill="#50E3C2"/>
<path d="M118.918 125.149L118.684 119.669L102.225 120.472C101.796 120.494 101.366 120.401 100.982 120.207L77.6381 108.377C77.0978 108.103 76.7431 107.556 76.7119 106.95L73.5338 45.1171C73.5185 44.8207 73.6311 44.5314 73.8428 44.3241C74.0538 44.1167 74.3464 44.0124 74.6394 44.032L84.6436 44.7756V33.8016H85.8156V44.9277C85.8156 45.2143 85.6956 45.4907 85.4862 45.6859C85.2768 45.8811 84.9932 45.9799 84.7084 45.9599L74.7124 45.2166L77.8823 106.889C77.8917 107.075 78.0007 107.243 78.1667 107.327L101.509 119.157C101.713 119.26 101.938 119.31 102.168 119.298L118.763 118.488C119.043 118.477 119.306 118.57 119.511 118.758C119.716 118.946 119.836 119.203 119.848 119.481L120.089 125.098L118.918 125.149Z" fill="#1977F3"/>
<path d="M79.626 96.4763C79.626 98.1133 78.3036 99.4402 76.6722 99.4402C75.0408 99.4402 73.7184 98.1133 73.7184 96.4763C73.7184 94.8393 75.0408 93.5124 76.6722 93.5124C78.3036 93.5124 79.626 94.8393 79.626 96.4763Z" fill="#1977F3"/>
<path d="M78.724 96.4763C78.724 97.6135 77.8055 98.5351 76.6722 98.5351C75.5389 98.5351 74.6204 97.6135 74.6204 96.4763C74.6204 95.3391 75.5389 94.4175 76.6722 94.4175C77.8055 94.4175 78.724 95.3391 78.724 96.4763Z" fill="#FAFAFA"/>
<path d="M76.6722 98.6821C75.46 98.6821 74.4739 97.6923 74.4739 96.4763C74.4739 95.2599 75.46 94.2705 76.6722 94.2705C77.8845 94.2705 78.8705 95.2599 78.8705 96.4763C78.8705 97.6923 77.8845 98.6821 76.6722 98.6821ZM76.6722 94.5645C75.6217 94.5645 74.7669 95.4222 74.7669 96.4763C74.7669 97.5304 75.6217 98.3881 76.6722 98.3881C77.7227 98.3881 78.5775 97.5304 78.5775 96.4763C78.5775 95.4222 77.7227 94.5645 76.6722 94.5645Z" fill="#50E3C2"/>
<path d="M88.6414 108.846C88.6414 108.098 89.2159 107.541 89.9972 107.541C90.771 107.541 91.3455 108.095 91.3455 108.846C91.3455 109.597 90.771 110.151 89.9972 110.151C89.2159 110.151 88.6414 109.594 88.6414 108.846ZM90.9817 108.846C90.9817 108.281 90.5604 107.865 89.9972 107.865C89.4265 107.865 89.0052 108.281 89.0052 108.846C89.0052 109.411 89.4265 109.827 89.9972 109.827C90.5604 109.827 90.9817 109.411 90.9817 108.846Z" fill="white"/>
<path d="M93.8457 109.156C93.8457 109.747 93.4351 110.144 92.8719 110.144C92.5881 110.144 92.3412 110.035 92.1849 109.816V110.122H91.8505V107.417H92.1993V108.481C92.3593 108.273 92.5994 108.171 92.8719 108.171C93.4351 108.171 93.8457 108.565 93.8457 109.156ZM93.4932 109.156C93.4932 108.744 93.2132 108.477 92.8425 108.477C92.4756 108.477 92.1962 108.744 92.1962 109.156C92.1962 109.568 92.4756 109.838 92.8425 109.838C93.2132 109.838 93.4932 109.568 93.4932 109.156Z" fill="white"/>
<path d="M93.6638 110.735L93.7763 110.465C93.8451 110.523 93.9476 110.556 94.0601 110.556C94.2458 110.556 94.347 110.44 94.347 110.217V108.19H94.6958V110.21C94.6958 110.604 94.4783 110.852 94.082 110.852C93.922 110.852 93.762 110.815 93.6638 110.735ZM94.2851 107.592C94.2851 107.464 94.387 107.362 94.5214 107.362C94.6558 107.362 94.7577 107.461 94.7577 107.585C94.7577 107.716 94.6595 107.818 94.5214 107.818C94.387 107.818 94.2851 107.72 94.2851 107.592Z" fill="white"/>
<path d="M97.0942 109.273H95.5315C95.5753 109.611 95.8478 109.838 96.2291 109.838C96.4541 109.838 96.6435 109.761 96.7854 109.604L96.9779 109.831C96.8035 110.035 96.5385 110.144 96.2185 110.144C95.5972 110.144 95.1827 109.732 95.1827 109.156C95.1827 108.583 95.5928 108.172 96.1491 108.172C96.7054 108.172 97.1017 108.573 97.1017 109.167C97.1017 109.196 97.0979 109.24 97.0942 109.273ZM95.5315 109.021H96.7673C96.731 108.697 96.4873 108.467 96.1491 108.467C95.8147 108.467 95.5678 108.693 95.5315 109.021Z" fill="white"/>
<path d="M97.4067 109.156C97.4067 108.58 97.8318 108.172 98.4243 108.172C98.7694 108.172 99.0569 108.314 99.2094 108.584L98.9438 108.755C98.8206 108.566 98.6312 108.478 98.4206 108.478C98.0424 108.478 97.7593 108.744 97.7593 109.156C97.7593 109.575 98.0424 109.838 98.4206 109.838C98.6312 109.838 98.8206 109.75 98.9438 109.56L99.2094 109.729C99.0569 109.998 98.7694 110.144 98.4243 110.144C97.8318 110.144 97.4067 109.732 97.4067 109.156Z" fill="white"/>
<path d="M100.768 110.009C100.663 110.1 100.503 110.144 100.346 110.144C99.9576 110.144 99.7363 109.929 99.7363 109.538V108.477H99.4094V108.189H99.7363V107.767H100.085V108.189H100.638V108.477H100.085V109.524C100.085 109.732 100.194 109.848 100.386 109.848C100.488 109.848 100.586 109.816 100.659 109.757L100.768 110.009Z" fill="white"/>
<path d="M101.128 107.592C101.128 107.464 101.23 107.362 101.364 107.362C101.498 107.362 101.6 107.46 101.6 107.584C101.6 107.715 101.502 107.817 101.364 107.817C101.23 107.817 101.128 107.72 101.128 107.592ZM101.19 108.189H101.538V110.122H101.19V108.189Z" fill="white"/>
<path d="M103.908 108.189L103.065 110.122H102.709L101.865 108.189H102.229L102.89 109.739L103.566 108.189H103.908Z" fill="white"/>
<path d="M105.913 109.273H104.351C104.394 109.611 104.667 109.838 105.048 109.838C105.273 109.838 105.463 109.761 105.605 109.604L105.797 109.831C105.623 110.035 105.358 110.144 105.038 110.144C104.416 110.144 104.002 109.732 104.002 109.156C104.002 108.583 104.412 108.172 104.969 108.172C105.525 108.172 105.921 108.573 105.921 109.167C105.921 109.196 105.917 109.24 105.913 109.273ZM104.351 109.021H105.586C105.55 108.697 105.306 108.467 104.969 108.467C104.634 108.467 104.387 108.693 104.351 109.021Z" fill="white"/>
<path d="M89.1739 24.7858C89.1739 22.3766 87.0043 20.4762 84.5185 20.9441C82.9549 21.2385 81.7096 22.5194 81.4355 24.092C81.2641 25.0749 81.4668 25.9992 81.9133 26.7625H81.9112L81.9222 26.7772C82.0717 27.0302 82.2593 27.2111 82.4484 27.4767L84.7123 30.486C84.9942 30.8603 85.5548 30.8603 85.8367 30.486L88.0631 27.5264C88.0631 27.5264 88.4789 27.0286 88.6294 26.773L88.6373 26.7625H88.6357C88.9754 26.1817 89.1739 25.5078 89.1739 24.7858ZM85.2745 26.4896C84.3267 26.4896 83.5582 25.7185 83.5582 24.7675C83.5582 23.8165 84.3267 23.0453 85.2745 23.0453C86.2223 23.0453 86.9908 23.8165 86.9908 24.7675C86.9908 25.7185 86.2223 26.4896 85.2745 26.4896Z" fill="#1977F3"/>
<path d="M69.2673 141.974H68.7224V141.776H70.0373V141.974H69.4924V143.371H69.2673V141.974Z" fill="black"/>
<path d="M70.0166 142.767C70.0166 142.408 70.2826 142.152 70.6436 142.152C71.0046 142.152 71.2683 142.408 71.2683 142.767C71.2683 143.128 71.0046 143.385 70.6436 143.385C70.2826 143.385 70.0166 143.128 70.0166 142.767ZM71.048 142.767C71.048 142.51 70.8753 142.344 70.6436 142.344C70.412 142.344 70.2369 142.51 70.2369 142.767C70.2369 143.025 70.412 143.194 70.6436 143.194C70.8753 143.194 71.048 143.025 71.048 142.767Z" fill="black"/>
<path d="M72.2473 143.301C72.1813 143.357 72.0813 143.385 71.9836 143.385C71.7406 143.385 71.6023 143.25 71.6023 143.007V142.343H71.398V142.163H71.6023V141.899H71.8203V142.163H72.1657V142.343H71.8203V142.998C71.8203 143.127 71.8883 143.201 72.0086 143.201C72.0723 143.201 72.1336 143.18 72.179 143.143L72.2473 143.301Z" fill="black"/>
<path d="M73.4647 142.642V143.371H73.258V143.212C73.1853 143.321 73.0509 143.385 72.8626 143.385C72.5899 143.385 72.4177 143.239 72.4177 143.03C72.4177 142.836 72.5423 142.676 72.9013 142.676H73.2467V142.633C73.2467 142.448 73.1396 142.341 72.924 142.341C72.781 142.341 72.6357 142.391 72.5427 142.471L72.4517 142.307C72.5767 142.207 72.756 142.152 72.949 142.152C73.2783 142.152 73.4647 142.312 73.4647 142.642ZM73.2467 143.002V142.834H72.9107C72.695 142.834 72.6333 142.918 72.6333 143.02C72.6333 143.141 72.7333 143.216 72.899 143.216C73.0627 143.216 73.192 143.141 73.2467 143.002Z" fill="black"/>
<path d="M73.8686 141.68H74.0866V143.371H73.8686V141.68Z" fill="black"/>
<path d="M76.249 141.68V143.371H76.04V143.18C75.9423 143.317 75.788 143.385 75.6106 143.385C75.2586 143.385 75.002 143.136 75.002 142.767C75.002 142.398 75.2586 142.152 75.6106 142.152C75.7809 142.152 75.931 142.216 76.031 142.346V141.68H76.249ZM76.0329 142.767C76.0329 142.51 75.8583 142.343 75.629 142.343C75.3973 142.343 75.2223 142.51 75.2223 142.767C75.2223 143.025 75.3973 143.194 75.629 143.194C75.8583 143.194 76.0329 143.025 76.0329 142.767Z" fill="black"/>
<path d="M76.6236 141.79C76.6236 141.71 76.6873 141.646 76.7713 141.646C76.8553 141.646 76.9189 141.708 76.9189 141.785C76.9189 141.867 76.8576 141.931 76.7713 141.931C76.6873 141.931 76.6236 141.869 76.6236 141.79ZM76.6623 142.164H76.8803V143.371H76.6623V142.164Z" fill="black"/>
<path d="M77.1439 143.244L77.2346 143.07C77.3369 143.144 77.5006 143.196 77.6573 143.196C77.8592 143.196 77.9432 143.134 77.9432 143.032C77.9432 142.761 77.1822 142.996 77.1822 142.515C77.1822 142.298 77.3756 142.152 77.6842 142.152C77.8409 142.152 78.0182 142.193 78.1225 142.262L78.0296 142.435C77.9206 142.364 77.8002 142.339 77.6823 142.339C77.4912 142.339 77.3982 142.41 77.3982 142.506C77.3982 142.791 78.1612 142.558 78.1612 143.027C78.1612 143.246 77.9616 143.385 77.6412 143.385C77.4412 143.385 77.2439 143.323 77.1439 143.244Z" fill="black"/>
<path d="M79.1105 143.301C79.0445 143.357 78.9445 143.385 78.8468 143.385C78.6038 143.385 78.4655 143.25 78.4655 143.007V142.343H78.2612V142.163H78.4655V141.899H78.6835V142.163H79.0289V142.343H78.6835V142.998C78.6835 143.127 78.7515 143.201 78.8718 143.201C78.9355 143.201 78.9969 143.18 79.0422 143.143L79.1105 143.301Z" fill="black"/>
<path d="M80.3279 142.642V143.371H80.1212V143.212C80.0485 143.321 79.9145 143.385 79.7262 143.385C79.4536 143.385 79.2809 143.239 79.2809 143.03C79.2809 142.836 79.4059 142.676 79.7645 142.676H80.1099V142.633C80.1099 142.448 80.0028 142.341 79.7872 142.341C79.6442 142.341 79.4989 142.391 79.4059 142.471L79.3149 142.307C79.4399 142.207 79.6192 142.152 79.8122 142.152C80.1415 142.152 80.3279 142.312 80.3279 142.642ZM80.1099 143.002V142.834H79.7739C79.5583 142.834 79.4965 142.918 79.4965 143.02C79.4965 143.141 79.5965 143.216 79.7622 143.216C79.9259 143.216 80.0552 143.141 80.1099 143.002Z" fill="black"/>
<path d="M81.8745 142.676V143.371H81.6566V142.701C81.6566 142.464 81.5386 142.348 81.3319 142.348C81.1002 142.348 80.9502 142.487 80.9502 142.749V143.371H80.7322V142.163H80.9412V142.346C81.0299 142.223 81.1842 142.152 81.3749 142.152C81.6679 142.152 81.8745 142.321 81.8745 142.676Z" fill="black"/>
<path d="M82.1742 142.767C82.1742 142.408 82.4398 142.152 82.8102 142.152C83.0258 142.152 83.2052 142.241 83.3009 142.41L83.1348 142.517C83.0579 142.398 82.9395 142.344 82.8079 142.344C82.5715 142.344 82.3945 142.51 82.3945 142.767C82.3945 143.03 82.5715 143.194 82.8079 143.194C82.9395 143.194 83.0579 143.139 83.1348 143.02L83.3009 143.125C83.2052 143.294 83.0258 143.385 82.8102 143.385C82.4398 143.385 82.1742 143.128 82.1742 142.767Z" fill="black"/>
<path d="M84.6475 142.84H83.6708C83.6982 143.052 83.8685 143.194 84.1068 143.194C84.2474 143.194 84.3658 143.146 84.4545 143.048L84.5748 143.189C84.4658 143.317 84.3002 143.385 84.1002 143.385C83.7118 143.385 83.4528 143.128 83.4528 142.767C83.4528 142.41 83.7091 142.152 84.0568 142.152C84.4045 142.152 84.6522 142.403 84.6522 142.774C84.6522 142.793 84.6498 142.82 84.6475 142.84ZM83.6708 142.683H84.4432C84.4205 142.48 84.2678 142.337 84.0568 142.337C83.8478 142.337 83.6935 142.478 83.6708 142.683Z" fill="black"/>
<path d="M89.4726 147.291V148.966H88.6272V147.422C88.6272 146.949 88.4162 146.731 88.0748 146.731C87.6954 146.731 87.4298 146.976 87.4298 147.498V148.966H86.5844V147.422C86.5844 146.949 86.384 146.731 86.032 146.731C85.6581 146.731 85.3925 146.976 85.3925 147.498V148.966H84.5471V146.041H85.3546V146.378C85.5714 146.128 85.8964 145.997 86.2703 145.997C86.6766 145.997 87.0231 146.155 87.229 146.476C87.4622 146.177 87.8416 145.997 88.2807 145.997C88.9741 145.997 89.4726 146.4 89.4726 147.291Z" fill="black"/>
<path d="M71.758 144.685H71.6788L70.1342 145.33V146.034L71.0173 145.714V149.045H71.758V144.685Z" fill="#273339"/>
<path d="M79.0805 146.406C79.075 145.841 78.957 145.407 78.7256 145.105C78.4951 144.802 78.1623 144.652 77.7262 144.652C77.2901 144.652 76.9572 144.804 76.7249 145.109C76.4935 145.414 76.3782 145.861 76.3782 146.449V147.226C76.3838 147.791 76.5018 148.225 76.7323 148.529C76.9628 148.832 77.2956 148.984 77.7317 148.984C78.1733 148.984 78.508 148.829 78.7366 148.52C78.9653 148.211 79.0805 147.766 79.0805 147.182V146.406ZM78.2867 147.332C78.283 147.663 78.2379 147.907 78.1521 148.068C78.0664 148.228 77.9262 148.309 77.7317 148.309C77.5362 148.309 77.3933 148.225 77.3048 148.058C77.2163 147.891 77.1711 147.635 77.1711 147.291V146.266C77.1767 145.943 77.2246 145.706 77.3131 145.554C77.4016 145.402 77.5399 145.326 77.7262 145.326C77.9189 145.326 78.0599 145.406 78.1503 145.566C78.2415 145.725 78.2867 145.98 78.2867 146.329V147.332ZM82.8357 146.406C82.8302 145.841 82.7122 145.407 82.4808 145.105C82.2503 144.802 81.9175 144.652 81.4814 144.652C81.0453 144.652 80.7124 144.804 80.4801 145.109C80.2487 145.414 80.1334 145.861 80.1334 146.449V147.226C80.139 147.791 80.257 148.225 80.4875 148.529C80.718 148.832 81.0508 148.984 81.4869 148.984C81.9285 148.984 82.2632 148.829 82.4918 148.52C82.7205 148.211 82.8357 147.766 82.8357 147.182V146.406ZM82.0419 147.332C82.0382 147.663 81.9931 147.907 81.9073 148.068C81.8206 148.228 81.6814 148.309 81.4869 148.309C81.2914 148.309 81.1485 148.225 81.06 148.058C80.9715 147.891 80.9263 147.635 80.9263 147.291V146.266C80.9319 145.943 80.9798 145.706 81.0683 145.554C81.1568 145.402 81.2951 145.326 81.4814 145.326C81.674 145.326 81.8151 145.406 81.9055 145.566C81.9967 145.725 82.0419 145.98 82.0419 146.329V147.332Z" fill="#273339"/>
<path d="M75.0016 144.691H74.9145L73.2177 145.318V146.002L74.1878 145.691V148.93H75.0016V144.691Z" fill="#273339"/>
<path d="M66.8206 144.864C66.8206 146.677 65.3556 148.147 63.5487 148.147C61.7419 148.147 60.2769 146.677 60.2769 144.864C60.2769 143.051 61.7419 141.581 63.5487 141.581C65.3556 141.581 66.8206 143.051 66.8206 144.864Z" fill="#1977F3"/>
<path d="M62.2279 145.461C62.2279 145.442 62.5334 145.424 63.0678 145.409C63.6023 145.393 64.3656 145.381 65.2806 145.372L65.2134 145.518C64.9552 145.219 64.6739 144.893 64.3789 144.551L64.3262 144.49L64.3774 144.426C64.6395 144.097 64.9161 143.751 65.2017 143.393L65.2806 143.558C65.1626 143.558 65.0364 143.559 64.9091 143.559C63.9449 143.555 63.0335 143.551 62.2279 143.548L62.3189 143.457C62.3107 144.453 62.2975 145.29 62.2818 145.879C62.2662 146.467 62.2478 146.807 62.2279 146.807C62.208 146.807 62.1892 146.467 62.1736 145.879C62.158 145.29 62.1451 144.453 62.1369 143.457L62.1361 143.366L62.2279 143.366C63.0335 143.362 63.9449 143.359 64.9091 143.355C65.0364 143.355 65.1626 143.355 65.2806 143.355H65.4935L65.3599 143.521C65.0724 143.877 64.7934 144.222 64.5293 144.549L64.5274 144.424C64.8173 144.77 65.0938 145.1 65.3478 145.403L65.472 145.551L65.2806 145.549C64.3656 145.541 63.6023 145.528 63.0678 145.513C62.5334 145.498 62.2279 145.48 62.2279 145.461Z" fill="#FAFAFA"/>
<path d="M116.452 139.263H106.565C105.521 139.263 104.673 140.113 104.673 141.161V148.972C104.673 150.02 105.521 150.87 106.565 150.87H106.816V152.732L108.968 150.87H116.452C117.497 150.87 118.344 150.02 118.344 148.972V141.161C118.344 140.113 117.497 139.263 116.452 139.263Z" fill="#50E3C2"/>
<path d="M107.508 142.845V146.85C107.508 146.936 107.578 147.006 107.664 147.006H116.032C116.118 147.006 116.188 146.935 116.187 146.848L116.168 145.382C116.167 145.349 116.156 145.317 116.137 145.29L114.937 143.68C114.908 143.641 114.862 143.618 114.814 143.618L113.431 143.607C113.345 143.606 113.276 143.537 113.276 143.451V142.845C113.276 142.759 113.207 142.689 113.121 142.689H107.664C107.578 142.689 107.508 142.759 107.508 142.845Z" fill="#FAFAFA"/>
<path d="M113.665 143.956V145.241C113.665 145.292 113.706 145.331 113.756 145.331L115.603 145.298C115.674 145.297 115.715 145.217 115.675 145.158L114.812 143.88C114.794 143.854 114.766 143.84 114.735 143.84L113.752 143.867C113.704 143.868 113.665 143.908 113.665 143.956Z" fill="#50E3C2"/>
<path d="M116.353 147.407H107.34V147.128H116.353V147.407Z" fill="#FAFAFA"/>
<path d="M110.321 147.235C110.321 147.729 109.921 148.13 109.429 148.13C108.937 148.13 108.538 147.729 108.538 147.235C108.538 146.741 108.937 146.34 109.429 146.34C109.921 146.34 110.321 146.741 110.321 147.235Z" fill="#50E3C2"/>
<path d="M109.954 147.235C109.954 147.526 109.719 147.761 109.429 147.761C109.139 147.761 108.904 147.526 108.904 147.235C108.904 146.944 109.139 146.709 109.429 146.709C109.719 146.709 109.954 146.944 109.954 147.235Z" fill="#FAFAFA"/>
<path d="M113.269 147.006C113.246 147.006 113.228 146.039 113.228 144.848C113.228 143.656 113.246 142.689 113.269 142.689C113.291 142.689 113.31 143.656 113.31 144.848C113.31 146.039 113.291 147.006 113.269 147.006Z" fill="#50E3C2"/>
<path d="M115.179 147.235C115.179 147.729 114.78 148.13 114.287 148.13C113.795 148.13 113.396 147.729 113.396 147.235C113.396 146.741 113.795 146.34 114.287 146.34C114.78 146.34 115.179 146.741 115.179 147.235Z" fill="#50E3C2"/>
<path d="M114.812 147.235C114.812 147.526 114.577 147.761 114.287 147.761C113.997 147.761 113.763 147.526 113.763 147.235C113.763 146.944 113.997 146.709 114.287 146.709C114.577 146.709 114.812 146.944 114.812 147.235Z" fill="#FAFAFA"/>
<path d="M114.29 145.584C114.29 145.607 114.162 145.625 114.004 145.625C113.847 145.625 113.719 145.607 113.719 145.584C113.719 145.562 113.847 145.544 114.004 145.544C114.162 145.544 114.29 145.562 114.29 145.584Z" fill="#50E3C2"/>
<path d="M189.601 146.014C189.469 154.747 196.752 161.929 205.867 162.055C214.982 162.181 222.478 155.203 222.609 146.47C222.741 137.737 215.458 130.555 206.343 130.429C197.227 130.303 189.732 137.28 189.601 146.014Z" fill="black"/>
<path d="M189.603 145.973C189.603 145.987 189.601 146.001 189.601 146.014C189.469 154.747 196.752 161.929 205.867 162.055C214.982 162.181 222.478 155.203 222.61 146.47C222.61 146.456 222.608 146.444 222.608 146.43L189.603 145.973Z" fill="black"/>
<path d="M194.517 146.082C194.425 152.213 199.538 157.255 205.937 157.344C212.337 157.433 217.6 152.534 217.692 146.402C217.785 140.271 212.672 135.229 206.272 135.14C199.872 135.051 194.61 139.95 194.517 146.082Z" fill="#FAFAFA"/>
<path d="M199.046 146.145C198.99 149.88 202.105 152.951 206.003 153.005C209.901 153.059 213.107 150.074 213.163 146.339C213.219 142.604 210.105 139.533 206.207 139.479C202.309 139.425 199.103 142.409 199.046 146.145Z" fill="black"/>
<path d="M213.673 152.688C212.113 154.195 211.089 154.862 208.843 155.075M213.673 152.688C212.113 154.195 211.089 154.862 208.843 155.075L213.673 152.688Z" stroke="black" stroke-width="1.61623"/>
<path d="M199.391 139.315C200.951 137.808 201.975 137.14 204.221 136.927M199.391 139.315C200.951 137.808 201.975 137.14 204.221 136.927L199.391 139.315Z" stroke="black" stroke-width="1.61623"/>
<path d="M199.362 153.558C197.788 152.064 197.092 151.084 196.873 148.931M199.362 153.558C197.788 152.064 197.092 151.084 196.873 148.931L199.362 153.558Z" stroke="black" stroke-width="1.61623"/>
<path d="M213.525 139.445C215.098 140.939 215.795 141.919 216.014 144.072M213.525 139.445C215.098 140.939 215.795 141.919 216.014 144.072L213.525 139.445Z" stroke="black" stroke-width="1.61623"/>
<path d="M91.0561 146.014C90.9245 154.747 98.2074 161.929 107.322 162.055C116.437 162.181 123.933 155.204 124.065 146.471C124.196 137.737 116.913 130.556 107.798 130.43C98.6829 130.304 91.1877 137.281 91.0561 146.014Z" fill="black"/>
<path d="M91.0589 145.974C91.0585 145.987 91.0565 146.001 91.0561 146.015C90.9245 154.748 98.2074 161.929 107.322 162.055C116.437 162.181 123.933 155.204 124.065 146.471C124.066 146.457 124.063 146.444 124.063 146.43L91.0589 145.974Z" fill="black"/>
<path d="M95.9734 146.082C95.881 152.214 100.994 157.256 107.393 157.344C113.793 157.433 119.056 152.534 119.148 146.403C119.241 140.271 114.128 135.229 107.728 135.141C101.329 135.052 96.0658 139.951 95.9734 146.082Z" fill="#FAFAFA"/>
<path d="M100.502 146.145C100.446 149.88 103.561 152.951 107.459 153.005C111.357 153.059 114.563 150.075 114.619 146.34C114.675 142.605 111.561 139.533 107.663 139.48C103.765 139.426 100.558 142.41 100.502 146.145Z" fill="black"/>
<path d="M95.2177 156.979C95.212 156.984 95.1515 156.925 95.0405 156.808C94.9327 156.69 94.7611 156.524 94.5694 156.287C94.1705 155.826 93.6352 155.122 93.0794 154.19C91.9632 152.345 90.8571 149.461 90.8708 146.161C90.8853 142.86 92.0173 139.986 93.1492 138.149C93.7131 137.222 94.2537 136.522 94.6566 136.064C94.8503 135.829 95.0231 135.665 95.1321 135.547C95.2439 135.431 95.3057 135.373 95.3109 135.378C95.3162 135.382 95.2657 135.45 95.1644 135.573C95.0663 135.699 94.9036 135.872 94.7207 136.113C94.3393 136.584 93.8209 137.291 93.2784 138.219C92.1888 140.058 91.0956 142.904 91.0811 146.162C91.0678 149.419 92.1355 152.273 93.2093 154.121C93.7438 155.054 94.2561 155.766 94.6336 156.239C94.8144 156.482 94.9755 156.655 95.0728 156.782C95.1733 156.907 95.2229 156.974 95.2177 156.979Z" fill="black"/>
<path d="M117.034 148.715C116.499 150.775 115.975 151.849 114.156 153.13M117.034 148.715C116.499 150.775 115.975 151.849 114.156 153.13L117.034 148.715Z" stroke="black" stroke-width="1.61617"/>
<path d="M97.4904 144.449C98.026 142.39 98.5492 141.315 100.369 140.034M97.4904 144.449C98.026 142.39 98.5492 141.315 100.369 140.034L97.4904 144.449Z" stroke="black" stroke-width="1.61617"/>
<path d="M110.283 137.193C112.432 137.708 113.554 138.21 114.893 139.951M110.283 137.193C112.432 137.708 113.554 138.21 114.893 139.951L110.283 137.193Z" stroke="black" stroke-width="1.61617"/>
<path d="M105.584 155.791C103.435 155.275 102.313 154.773 100.974 153.032M105.584 155.791C103.435 155.275 102.313 154.773 100.974 153.032L105.584 155.791Z" stroke="black" stroke-width="1.61617"/>
<path d="M168.201 81.2394C168.159 80.3838 168.817 79.6557 169.67 79.6131C170.523 79.5705 171.249 80.2296 171.291 81.0852C171.333 81.9408 170.675 82.6689 169.822 82.7114C168.969 82.754 168.243 82.095 168.201 81.2394Z" fill="#FFBE9D"/>
<path d="M169.949 79.6266C169.949 79.6266 176.301 80.3707 176.814 80.4808C177.328 80.5909 179.368 81.4403 179.5 82.0454C179.631 82.6504 179.618 84.4513 179.618 84.4513C179.618 84.4513 179.272 84.764 179.018 84.1875C178.763 83.6109 178.74 82.4466 178.74 82.4466L177.603 82.0718L178.265 83.1262L178.491 85.6625C178.491 85.6625 177.708 85.6302 177.527 85.0296C177.347 84.429 177.316 83.7511 177.316 83.7511L176.468 83.1006L177.117 83.8967L177.412 85.7164C177.412 85.7164 176.828 85.9386 176.621 85.5417C176.415 85.1448 176.34 83.9355 176.34 83.9355L174.006 83.2462L172.528 84.1709L169.499 82.6957L169.949 79.6266Z" fill="#FFBE9D"/>
<path d="M198.536 123.132C198.536 123.132 214.89 118.168 221.654 135.997L187.43 146.633L198.536 123.132Z" fill="#1977F3"/>
<path d="M130.278 140.199C130.19 140.244 121.872 138.908 121.872 138.908C120.96 140.1 119.573 140.83 118.078 140.901C114.486 141.074 110.971 141.233 107.93 141.369C105.092 141.497 102.893 143.905 103.013 146.753V146.757C103.127 149.449 105.28 151.603 107.963 151.709L125.652 152.408C128.561 152.523 132.428 150.749 134.244 148.466L130.278 140.199Z" fill="black"/>
<path d="M125.577 152.577C125.529 152.537 126.418 151.969 127.176 150.539C127.554 149.833 127.865 148.911 127.959 147.856C128.056 146.804 127.904 145.614 127.39 144.509C126.857 143.412 126.031 142.545 125.155 141.959C124.278 141.367 123.369 141.031 122.584 140.881C120.999 140.572 120.001 140.908 120 140.846C119.998 140.839 120.058 140.821 120.174 140.793C120.291 140.771 120.461 140.714 120.688 140.693C121.137 140.623 121.805 140.602 122.611 140.739C123.415 140.874 124.353 141.204 125.26 141.802C126.165 142.395 127.022 143.285 127.574 144.421C128.106 145.566 128.256 146.795 128.146 147.873C128.039 148.957 127.705 149.895 127.303 150.608C126.902 151.323 126.465 151.83 126.128 152.136C125.97 152.3 125.818 152.397 125.728 152.474C125.633 152.547 125.581 152.582 125.577 152.577Z" fill="black"/>
<path d="M86.8201 133.106C86.8201 133.106 86.0591 117.486 100.689 114.231V112.228H151.94V117.004C151.94 117.004 144.418 126.093 146.874 133.641C149.331 141.189 150.098 141.959 150.098 141.959H179.267C179.267 141.959 182.798 137.492 182.951 130.868C183.105 124.244 180.362 112.917 178.314 105.677C176.453 99.0937 175.275 93.5893 175.275 93.5893L184.026 90.6622C184.026 90.6622 200.218 111.906 200.879 113.1C201.541 114.295 203.789 117.082 203.26 123.188C202.731 129.294 188.18 148.141 184.344 150.265C180.508 152.388 177.069 152.521 173.63 153.052C170.644 153.513 148.562 153.208 142.786 153.12C140.78 153.089 138.799 152.575 137.083 151.531C135.356 150.48 134.057 148.741 132.623 145.885L129.581 139.912L86.8201 133.106Z" fill="#1977F3"/>
<path d="M90.7424 132.019L84.2862 142.165C83.4596 143.463 84.7972 145.098 86.2064 144.485C86.8896 144.188 87.6253 143.724 88.3714 143.011C91.3241 140.193 96.5864 132.769 96.5864 132.769L90.7424 132.019Z" fill="black"/>
<path d="M137.032 133.846C137.029 133.845 137.042 133.795 137.07 133.698C137.102 133.593 137.145 133.452 137.2 133.272C137.31 132.897 137.442 132.334 137.538 131.598C137.702 130.138 137.627 127.907 136.539 125.476C136.009 124.263 135.223 123.024 134.161 121.887C133.094 120.759 131.776 119.715 130.238 118.884C128.705 118.047 126.974 117.39 125.119 116.972C123.263 116.555 121.29 116.366 119.272 116.366C117.251 116.366 115.281 116.546 113.392 116.799C111.501 117.054 109.687 117.369 107.979 117.76C104.56 118.531 101.586 119.672 99.2851 120.988C96.9762 122.295 95.3397 123.72 94.3174 124.791C93.8017 125.325 93.4325 125.769 93.1852 126.072C93.0684 126.219 92.9766 126.334 92.9078 126.42C92.8442 126.498 92.8102 126.536 92.8074 126.535C92.8074 126.535 93.2434 125.829 94.2599 124.736C95.2686 123.644 96.9008 122.193 99.214 120.862C101.519 119.523 104.506 118.361 107.936 117.577C109.65 117.179 111.47 116.86 113.365 116.6C115.261 116.344 117.239 116.162 119.272 116.162C121.303 116.162 123.29 116.353 125.163 116.778C127.035 117.202 128.781 117.869 130.328 118.719C131.88 119.564 133.21 120.624 134.284 121.772C135.354 122.928 136.143 124.188 136.671 125.417C137.754 127.884 137.807 130.14 137.617 131.608C137.508 132.348 137.362 132.912 137.239 133.284C137.176 133.462 137.127 133.601 137.09 133.705C137.055 133.8 137.036 133.847 137.032 133.846Z" fill="black"/>
<path d="M134.079 130.339C134.058 130.331 134.165 130.093 134.273 129.644C134.393 129.198 134.444 128.518 134.331 127.702C134.219 126.884 133.906 125.936 133.379 124.979C133.121 124.498 132.803 124.018 132.434 123.553C132.071 123.084 131.643 122.637 131.164 122.233C130.201 121.422 129.128 120.85 128.116 120.444C127.097 120.049 126.136 119.813 125.319 119.678C124.503 119.541 123.833 119.483 123.369 119.455C122.906 119.426 122.648 119.415 122.648 119.399C122.648 119.392 122.713 119.386 122.836 119.382C122.958 119.379 123.14 119.369 123.372 119.375C123.838 119.379 124.514 119.415 125.342 119.535C126.169 119.653 127.146 119.878 128.184 120.269C129.215 120.672 130.31 121.247 131.295 122.077C131.787 122.491 132.222 122.949 132.591 123.429C132.965 123.905 133.285 124.396 133.544 124.889C134.072 125.87 134.377 126.843 134.474 127.683C134.571 128.521 134.495 129.215 134.349 129.664C134.303 129.896 134.204 130.055 134.164 130.171C134.115 130.285 134.086 130.342 134.079 130.339Z" fill="#F5F5F5"/>
<path d="M124.043 116.654C126.907 117.203 129.411 118.233 131.76 119.807C134.11 121.38 135.907 123.608 136.93 126.25C137.953 128.892 137.8 132.391 136.723 134.58L140.345 134.881C141.564 130.801 140.236 125.794 137.307 122.6C133.87 118.853 129.142 116.654 124.043 116.654Z" fill="black"/>
<path d="M151.94 112.228C151.94 112.228 152.786 111.216 152.867 109.925C152.947 108.633 152.36 107.018 150.975 107.018H133.278C130.411 107.018 128.086 109.351 128.086 112.228H151.94Z" fill="black"/>
<path d="M175.275 93.5889L172.198 87.1483C171.356 85.3173 172.027 83.144 173.753 82.1111L182.956 76.6027C183.437 76.3146 183.987 76.1629 184.548 76.1629H186.537L187.333 89.1804L184.265 90.358L186.206 93.5269L175.275 93.5889Z" fill="#1977F3"/>
<path d="M186.565 76.6353C186.565 76.6353 189.714 77.3593 190.11 82.2303C190.507 87.1013 187.333 88.6171 187.333 88.6171L186.565 76.6353Z" fill="#EBEBEB"/>
<path d="M176.348 84.6254C176.348 84.6254 169.982 87.6524 169.206 88.1491C168.667 88.4937 168.204 89.0973 168.627 90.1585C169.348 91.9679 172.324 90.2659 172.324 90.2659L178.248 87.2937C178.248 87.2937 180.526 86.215 179.685 84.8653C178.744 83.3541 176.348 84.6254 176.348 84.6254Z" fill="black"/>
<path d="M176.652 75.1656C176.652 77.5941 175.54 79.5631 174.167 79.5631C172.794 79.5631 171.682 77.5941 171.682 75.1656C171.682 72.7372 172.794 70.7682 174.167 70.7682C175.54 70.7682 176.652 72.7372 176.652 75.1656Z" fill="black"/>
<path d="M174.575 78.1892L175.941 82.9371C176.55 82.6266 176.677 82.0166 176.576 81.5353C176.233 79.9089 176.04 78.7505 175.664 77.3268C175.618 77.1825 174.575 78.1892 174.575 78.1892Z" fill="black"/>
<path d="M147.548 135.669C147.413 135.278 147.275 134.877 147.145 134.467C147.023 134.084 146.88 133.686 146.776 133.305C146.589 132.624 146.48 131.922 146.434 131.516C144.13 140.931 147.648 147.561 153.69 148.027C162.517 148.708 173.279 149.203 177.632 148.056C185.567 145.967 188.478 139.329 189.172 138.234C189.867 137.139 196.179 125.565 192.311 114.419C188.443 103.273 181.702 91.4399 181.702 91.4395L175.275 93.5889C175.275 93.5889 176.453 99.0937 178.314 105.677C180.362 112.917 183.105 124.244 182.951 130.868C182.798 137.492 179.267 141.959 179.267 141.959H150.098C150.098 141.959 149.473 141.33 147.548 135.669Z" fill="black"/>
<path d="M85.6536 130.656L85.8591 128.422L139.1 134.577C142.105 134.931 144.193 137.749 143.666 140.738L143.427 142.092L88.3242 134.058C86.674 133.817 85.5004 132.322 85.6536 130.656Z" fill="#50E3C2"/>
<path d="M85.6536 130.656L85.8591 128.422L139.1 134.577C142.105 134.931 144.193 137.749 143.666 140.738L143.427 142.092L88.3242 134.058C86.674 133.817 85.5004 132.322 85.6536 130.656Z" fill="black"/>
<path d="M189.172 145.601C189.172 145.601 200.893 132.667 203.309 122.497C204.121 122.489 206.013 122.571 206.939 122.767C206.939 122.767 200.008 141.671 189.172 145.601Z" fill="black"/>
<path d="M203.139 117.938C203.146 117.937 203.168 118.05 203.203 118.265C203.233 118.481 203.297 118.798 203.336 119.211C203.413 120.036 203.463 121.248 203.245 122.722C203.034 124.195 202.532 125.914 201.699 127.693C200.885 129.482 199.764 131.329 198.596 133.259C196.249 137.134 193.635 140.304 191.736 142.567C190.781 143.697 189.994 144.6 189.447 145.22C189.181 145.518 188.97 145.755 188.813 145.931C188.666 146.091 188.587 146.174 188.581 146.169C188.576 146.164 188.645 146.073 188.782 145.904C188.932 145.721 189.134 145.476 189.387 145.168C189.929 144.517 190.69 143.601 191.626 142.475C193.496 140.189 196.084 137.012 198.422 133.153C199.59 131.222 200.712 129.386 201.529 127.614C202.366 125.851 202.876 124.156 203.103 122.7C203.336 121.243 203.309 120.041 203.258 119.218C203.23 118.806 203.179 118.488 203.162 118.271C203.14 118.054 203.132 117.94 203.139 117.938Z" fill="black"/>
<path d="M182.879 145.507C182.839 145.548 181.999 144.786 181.002 143.806C180.004 142.826 179.227 141.999 179.267 141.959C179.306 141.919 180.146 142.68 181.144 143.66C182.141 144.64 182.918 145.467 182.879 145.507Z" fill="black"/>
<path d="M148.096 145.109C148.047 145.087 148.369 144.299 148.956 143.435C149.539 142.568 150.15 141.977 150.188 142.015C150.232 142.055 149.698 142.697 149.124 143.549C148.547 144.399 148.149 145.135 148.096 145.109Z" fill="black"/>
<path d="M106.135 148.482C106.079 148.485 105.994 147.641 105.944 146.598C105.895 145.554 105.9 144.706 105.956 144.704C106.013 144.701 106.098 145.545 106.148 146.588C106.197 147.631 106.192 148.479 106.135 148.482Z" fill="black"/>
<path d="M107.548 148.485C107.492 148.492 107.339 147.65 107.206 146.605C107.073 145.559 107.01 144.706 107.066 144.699C107.121 144.692 107.274 145.534 107.407 146.579C107.541 147.624 107.604 148.477 107.548 148.485Z" fill="black"/>
<path d="M129.504 112.228C129.504 112.285 123.031 112.33 115.048 112.33C107.062 112.33 100.59 112.285 100.59 112.228C100.59 112.172 107.062 112.127 115.048 112.127C123.031 112.127 129.504 112.172 129.504 112.228Z" fill="black"/>
<path d="M124.491 112.228H92.8101C90.9592 112.228 89.4586 110.723 89.4586 108.865V88.1075C89.4586 86.2502 90.9592 84.7446 92.8101 84.7446H124.491C126.342 84.7446 127.842 86.2502 127.842 88.1075V108.865C127.842 110.723 126.342 112.228 124.491 112.228Z" fill="#373737"/>
<path d="M124.176 85.0515H93.1246C92.4671 85.0515 91.9338 84.5164 91.9338 83.8567V80.1742C91.9338 79.5145 92.4671 78.9794 93.1246 78.9794H124.176C124.834 78.9794 125.367 79.5145 125.367 80.1742V83.8567C125.367 84.5164 124.834 85.0515 124.176 85.0515Z" fill="#F5F5F5"/>
<path d="M110.144 112.208C110.088 112.208 110.043 104.769 110.043 95.5947C110.043 86.4168 110.088 78.9794 110.144 78.9794C110.201 78.9794 110.246 86.4168 110.246 95.5947C110.246 104.769 110.201 112.208 110.144 112.208Z" fill="black"/>
<path d="M106.181 112.182C106.124 112.179 106.402 104.744 106.8 95.5771C107.198 86.4066 107.566 78.977 107.622 78.9794C107.679 78.9818 107.401 86.4152 107.003 95.5857C106.605 104.753 106.237 112.184 106.181 112.182Z" fill="black"/>
<path d="M127.842 90.8778C127.842 90.9342 119.212 90.9797 108.569 90.9797C97.9224 90.9797 89.2949 90.9342 89.2949 90.8778C89.2949 90.8213 97.9224 90.7759 108.569 90.7759C119.212 90.7759 127.842 90.8213 127.842 90.8778Z" fill="black"/>
<path d="M124.176 85.0515C124.176 85.0444 124.244 85.0491 124.372 85.0237C124.498 84.9974 124.692 84.9453 124.89 84.7861C125.085 84.6324 125.287 84.362 125.328 83.9939C125.342 83.6258 125.326 83.1867 125.327 82.7003C125.325 82.2111 125.322 81.6685 125.319 81.075C125.317 80.7783 125.315 80.4686 125.313 80.1468C125.307 79.8387 125.164 79.5231 124.912 79.3091C124.787 79.2009 124.635 79.1221 124.471 79.0786C124.308 79.0315 124.133 79.0398 123.945 79.0402C123.576 79.0413 123.195 79.0429 122.803 79.0441C122.019 79.0464 121.19 79.0488 120.321 79.0515C113.353 79.0594 103.742 79.0696 93.1266 79.0813C92.8214 79.079 92.5226 79.2146 92.3202 79.4396C92.1132 79.667 92.0167 79.9633 92.0354 80.2824C92.0354 80.9402 92.035 81.5937 92.035 82.2424C92.035 82.567 92.0346 82.8904 92.0346 83.2122V83.694C92.0331 83.8598 92.0335 84.0017 92.0737 84.144C92.1487 84.4266 92.3433 84.6736 92.5964 84.8139C92.7226 84.8845 92.8625 84.9292 93.0058 84.9445C93.1433 84.9566 93.3121 84.9492 93.4653 84.9515C95.969 84.9535 98.3849 84.9554 100.686 84.9574C105.286 84.9656 109.429 84.9731 112.912 84.9794C116.386 84.9931 119.199 85.0041 121.154 85.0119C122.12 85.0201 122.874 85.0268 123.395 85.0311C123.645 85.0354 123.838 85.0389 123.977 85.0413C124.109 85.0448 124.176 85.0515 124.176 85.0515C124.176 85.0515 124.109 85.0585 123.977 85.0621C123.838 85.0644 123.645 85.068 123.395 85.0723C122.874 85.0766 122.12 85.0832 121.154 85.0915C119.199 85.0993 116.386 85.1099 112.912 85.1236C109.429 85.1299 105.286 85.1373 100.686 85.1456C98.3849 85.1475 95.969 85.1495 93.4653 85.1514C93.3055 85.1487 93.1605 85.1585 92.9843 85.144C92.8148 85.126 92.6488 85.073 92.4991 84.9896C92.1991 84.8237 91.969 84.5321 91.8795 84.1965C91.8315 84.0303 91.8315 83.848 91.8331 83.694V83.2122C91.8331 82.8904 91.8327 82.567 91.8327 82.2424C91.8327 81.5937 91.8323 80.9402 91.8323 80.2824C91.8096 79.9449 91.9245 79.5623 92.1698 79.302C92.4093 79.0351 92.7656 78.8744 93.1266 78.8771C103.742 78.8889 113.353 78.8994 120.321 78.9073C121.19 78.91 122.019 78.912 122.803 78.9143C123.195 78.9155 123.576 78.9171 123.945 78.9183C124.126 78.9194 124.319 78.9112 124.502 78.9645C124.683 79.0139 124.85 79.1025 124.986 79.2224C125.261 79.46 125.415 79.8081 125.418 80.1444C125.417 80.467 125.416 80.7775 125.416 81.075C125.412 81.6685 125.409 82.2111 125.407 82.7003C125.4 83.1899 125.41 83.6191 125.388 84.0013C125.338 84.3878 125.121 84.665 124.915 84.8186C124.705 84.9778 124.505 85.0244 124.376 85.044C124.244 85.0629 124.176 85.0515 124.176 85.0515Z" fill="black"/>
<path d="M151.58 127.649L151.458 127.879L149.107 132.321L145.81 135.507L152.399 144.309L157.89 143.396C157.89 143.396 157.273 142.138 154.518 141.895L153.464 136.634L157.336 130.612" fill="black"/>
<path d="M145.81 135.507L152.399 144.309L157.89 143.396L157.134 142.67L152.628 143.167L146.511 134.829L145.81 135.507Z" fill="#E0E0E0"/>
<path d="M154.081 139.476C154.05 139.539 153.703 139.412 153.281 139.495C152.856 139.565 152.576 139.807 152.524 139.759C152.466 139.726 152.72 139.344 153.237 139.253C153.752 139.157 154.124 139.425 154.081 139.476Z" fill="black"/>
<path d="M153.775 138.179C153.726 138.227 153.428 137.942 152.976 137.93C152.524 137.913 152.208 138.177 152.163 138.126C152.14 138.104 152.188 138.001 152.328 137.891C152.465 137.781 152.704 137.676 152.984 137.685C153.264 137.694 153.496 137.815 153.626 137.934C153.758 138.053 153.799 138.159 153.775 138.179Z" fill="black"/>
<path d="M153.531 136.488C153.476 136.528 153.236 136.241 152.831 136.172C152.427 136.098 152.104 136.285 152.066 136.229C152.047 136.204 152.104 136.115 152.247 136.033C152.386 135.95 152.619 135.885 152.874 135.93C153.129 135.975 153.325 136.117 153.429 136.242C153.535 136.368 153.558 136.471 153.531 136.488Z" fill="black"/>
<path d="M154.784 134.936C154.723 134.97 154.517 134.682 154.139 134.518C153.766 134.342 153.415 134.377 153.399 134.309C153.37 134.248 153.78 134.083 154.24 134.294C154.701 134.5 154.849 134.917 154.784 134.936Z" fill="black"/>
<path d="M155.313 133.685C155.288 133.708 155.07 133.516 154.738 133.188C154.55 132.996 154.359 132.802 154.164 132.603C154.064 132.487 153.934 132.394 153.836 132.201C153.79 132.103 153.772 131.981 153.814 131.861C153.851 131.734 153.993 131.634 154.116 131.631C154.362 131.626 154.516 131.728 154.673 131.813C154.827 131.906 154.959 132.02 155.07 132.14C155.292 132.382 155.422 132.652 155.49 132.887C155.624 133.365 155.511 133.669 155.49 133.66C155.446 133.658 155.49 133.361 155.326 132.942C155.245 132.736 155.112 132.502 154.907 132.296C154.805 132.194 154.686 132.099 154.552 132.02C154.421 131.946 154.253 131.868 154.139 131.876C154.084 131.883 154.06 131.901 154.043 131.943C154.026 131.988 154.03 132.048 154.054 132.102C154.103 132.214 154.232 132.333 154.33 132.45C154.512 132.661 154.689 132.867 154.866 133.071C155.165 133.429 155.338 133.662 155.313 133.685Z" fill="black"/>
<path d="M155.537 133.816C155.511 133.819 155.483 133.525 155.726 133.144C155.963 132.783 156.542 132.342 157.305 132.578C157.362 132.613 157.415 132.685 157.423 132.761C157.432 132.837 157.409 132.899 157.385 132.946C157.335 133.043 157.27 133.097 157.217 133.153C157.105 133.264 156.985 133.359 156.866 133.44C156.627 133.602 156.385 133.704 156.177 133.763C155.758 133.88 155.487 133.84 155.488 133.812C155.485 133.773 155.745 133.749 156.122 133.598C156.309 133.523 156.524 133.413 156.736 133.255C156.842 133.176 156.947 133.086 157.047 132.983C157.097 132.929 157.149 132.879 157.169 132.835C157.187 132.782 157.183 132.797 157.171 132.784C157.15 132.767 157.073 132.756 157.003 132.752C156.932 132.747 156.862 132.747 156.794 132.754C156.656 132.766 156.526 132.8 156.408 132.847C156.17 132.941 155.99 133.096 155.865 133.248C155.616 133.558 155.576 133.825 155.537 133.816Z" fill="black"/>
<path d="M150.162 134.609C150.222 134.97 149.979 135.311 149.619 135.371C149.259 135.431 148.919 135.188 148.859 134.826C148.799 134.465 149.042 134.124 149.402 134.064C149.762 134.004 150.101 134.248 150.162 134.609Z" fill="#E0E0E0"/>
<path d="M171.582 131.883L173.344 143.363L187.589 141.236C187.303 139.884 179.527 138.242 179.527 138.242L178.699 130.841L171.582 131.883Z" fill="black"/>
<path d="M175.031 138.28C174.766 138.397 174.622 138.736 174.727 139.006C174.833 139.276 175.175 139.427 175.442 139.314C175.708 139.202 175.894 138.8 175.759 138.544C175.624 138.287 175.212 138.133 174.98 138.306" fill="#E0E0E0"/>
<path d="M173.344 143.363L173.211 142.199L186.919 140.595C186.919 140.595 187.594 140.777 187.589 141.236L173.344 143.363Z" fill="#E0E0E0"/>
<path d="M179.747 138.135C179.755 138.205 179.412 138.288 179.103 138.564C178.787 138.831 178.655 139.16 178.587 139.142C178.521 139.138 178.563 138.705 178.943 138.378C179.32 138.048 179.753 138.068 179.747 138.135Z" fill="black"/>
<path d="M181.333 138.532C181.359 138.598 181.075 138.761 180.883 139.091C180.68 139.416 180.668 139.744 180.599 139.752C180.535 139.772 180.426 139.371 180.673 138.964C180.917 138.556 181.322 138.466 181.333 138.532Z" fill="black"/>
<path d="M182.448 140.199C182.387 140.224 182.238 139.889 182.36 139.48C182.479 139.07 182.785 138.871 182.823 138.925C182.871 138.976 182.69 139.213 182.595 139.55C182.492 139.885 182.516 140.182 182.448 140.199Z" fill="black"/>
<path d="M179.372 136.469C179.352 136.537 179.019 136.488 178.629 136.574C178.238 136.651 177.952 136.83 177.907 136.775C177.859 136.731 178.12 136.427 178.579 136.333C179.039 136.236 179.398 136.409 179.372 136.469Z" fill="black"/>
<path d="M178.781 134.824C178.786 134.852 178.518 134.937 178.067 134.926C177.843 134.921 177.575 134.888 177.287 134.808C177.143 134.768 176.994 134.716 176.845 134.651C176.773 134.618 176.689 134.587 176.604 134.514C176.516 134.453 176.445 134.275 176.518 134.148C176.574 134.028 176.696 133.961 176.798 133.943C176.903 133.924 176.991 133.932 177.071 133.94C177.236 133.955 177.392 133.986 177.538 134.027C177.828 134.11 178.073 134.234 178.26 134.362C178.636 134.619 178.787 134.863 178.765 134.881C178.737 134.908 178.544 134.714 178.17 134.511C177.984 134.409 177.75 134.311 177.481 134.246C177.346 134.214 177.202 134.191 177.052 134.18C176.896 134.163 176.767 134.181 176.738 134.254C176.728 134.282 176.728 134.292 176.766 134.332C176.805 134.368 176.872 134.398 176.943 134.431C177.081 134.494 177.218 134.547 177.351 134.591C177.618 134.678 177.868 134.727 178.08 134.753C178.505 134.806 178.777 134.786 178.781 134.824Z" fill="black"/>
<path d="M178.706 134.937C178.683 134.952 178.508 134.722 178.415 134.274C178.37 134.052 178.352 133.776 178.396 133.476C178.419 133.326 178.456 133.17 178.513 133.014C178.576 132.86 178.649 132.656 178.915 132.585C179.055 132.558 179.189 132.651 179.242 132.74C179.304 132.83 179.326 132.911 179.355 132.992C179.406 133.155 179.426 133.318 179.426 133.473C179.427 133.784 179.34 134.056 179.231 134.258C179.008 134.67 178.73 134.797 178.721 134.774C178.692 134.743 178.915 134.572 179.075 134.184C179.154 133.993 179.213 133.747 179.201 133.478C179.196 133.343 179.172 133.203 179.126 133.066C179.081 132.917 179.007 132.803 178.953 132.827C178.881 132.837 178.778 132.969 178.738 133.099C178.684 133.238 178.645 133.378 178.619 133.513C178.568 133.785 178.565 134.038 178.586 134.248C178.629 134.671 178.742 134.921 178.706 134.937Z" fill="black"/>
<path d="M160.373 104.921L148.156 131.631L156.224 136.491L173.116 104.352" fill="#373737"/>
<path d="M158.651 78.0932C157.995 76.0112 155.78 74.8575 153.704 75.5166C151.628 76.1758 150.476 78.3976 151.132 80.4795C151.788 82.5615 154.002 83.7153 156.079 83.0561C158.155 82.3969 159.307 80.1752 158.651 78.0932Z" fill="#1977F3"/>
<path d="M153.78 83.1071L171.013 85.05L171.435 79.2987L157.31 76.1672L153.78 83.1071Z" fill="#1977F3"/>
<path d="M157.542 76.3584C157.542 76.3584 149.068 64.7222 149.043 64.5963L145.629 74.1691L152.135 82.1109L157.542 76.3584Z" fill="#1977F3"/>
<path d="M142.522 86.2063C148.137 86.2063 152.696 90.7811 152.696 96.4156C152.696 102.05 148.137 106.625 142.522 106.625C136.906 106.625 132.347 102.05 132.347 96.4156C132.347 90.7811 136.906 86.2063 142.522 86.2063Z" fill="#D69108"/>
<path d="M132.595 97.4559L132.725 84.1738C132.725 84.1738 131.017 75.5384 130.511 72.1441C129.726 66.8729 128.651 64.3711 137.254 60.624L139.135 59.8961L142.045 59.9349C145.517 60.1967 149.174 63.3453 149.258 65.4331L152.607 95.3607L132.595 97.4559Z" fill="#1977F3"/>
<path d="M145.192 61.0356C145.199 61.0336 145.215 61.0775 145.239 61.1634C145.268 61.2489 145.292 61.3786 145.313 61.5479C145.353 61.8855 145.332 62.3939 145.124 62.9733C144.913 63.5456 144.502 64.19 143.837 64.6687C143.175 65.1508 142.264 65.4005 141.33 65.3405C140.394 65.277 139.534 64.9239 138.896 64.4256C138.251 63.9325 137.81 63.3355 137.513 62.8063C137.222 62.2712 137.066 61.8012 136.984 61.4731C136.944 61.3084 136.918 61.1799 136.907 61.0913C136.894 61.0031 136.89 60.956 136.897 60.9549C136.941 60.94 137.038 61.7016 137.638 62.7341C137.943 63.2414 138.383 63.8094 139.009 64.2751C139.627 64.7451 140.449 65.0756 141.343 65.1367C142.235 65.1939 143.099 64.9619 143.729 64.515C144.364 64.0709 144.77 63.4644 144.989 62.9211C145.206 62.3715 145.249 61.8839 145.235 61.5534C145.221 61.221 145.171 61.0403 145.192 61.0356Z" fill="black"/>
<path d="M149.808 90.5477C149.818 90.552 149.753 90.7273 149.595 91.0252C149.438 91.3239 149.167 91.7351 148.765 92.1863C147.969 93.0957 146.552 94.0812 144.79 94.6265C143.027 95.1702 141.354 95.2713 140.163 95.3223C139.565 95.3446 139.082 95.3493 138.747 95.3478C138.413 95.3462 138.228 95.3383 138.228 95.3242C138.228 95.3101 138.412 95.2909 138.745 95.2682C139.118 95.2443 139.591 95.2141 140.156 95.178C141.342 95.0906 142.997 94.9663 144.729 94.4317C146.459 93.8958 147.854 92.9534 148.659 92.0879C149.48 91.2263 149.769 90.5234 149.808 90.5477Z" fill="black"/>
<path d="M150.703 78.1527C150.689 78.1542 150.66 78.0088 150.619 77.7442C150.576 77.4345 150.523 77.0602 150.461 76.6223C150.332 75.6235 150.166 74.3385 149.982 72.9171C149.805 71.4679 149.666 70.1531 149.58 69.2002C149.537 68.7239 149.507 68.3378 149.491 68.0704C149.475 67.8031 149.473 67.6549 149.487 67.6533C149.501 67.6518 149.53 67.7976 149.57 68.0622C149.612 68.3719 149.664 68.7462 149.723 69.1845C149.848 70.1837 150.007 71.4699 150.183 72.8924C150.36 74.3405 150.514 75.6533 150.604 76.6058C150.65 77.0821 150.682 77.4682 150.698 77.7356C150.714 78.0029 150.717 78.1511 150.703 78.1527Z" fill="black"/>
<path d="M166.513 107.087L140.594 108.972C139.907 109.015 139.214 108.957 138.55 108.775C131.27 106.773 132.255 97.4599 132.957 95.9667L168.825 94.933C170.527 94.884 171.743 95.1863 173.048 96.1067L166.513 107.087Z" fill="#373737"/>
<path d="M166.427 107.2C166.425 107.2 158.067 107.814 155.299 108.017C153.931 108.11 152.841 108.184 152.079 108.236C151.714 108.258 151.429 108.275 151.221 108.287C151.132 108.29 151.059 108.294 151 108.296C150.95 108.297 150.925 108.296 150.925 108.294C150.924 108.291 150.949 108.286 150.998 108.279C151.057 108.273 151.13 108.265 151.219 108.255C151.426 108.235 151.711 108.208 152.074 108.174C152.835 108.109 153.924 108.016 155.291 107.9C158.058 107.679 166.586 106.996 166.586 106.996L166.427 107.2Z" fill="black"/>
<path d="M163.278 101.523C163.278 105.051 166.129 107.912 169.645 107.912C173.161 107.912 176.012 105.051 176.012 101.523C176.012 97.9945 173.161 95.1341 169.645 95.1341C166.129 95.1341 163.278 97.9945 163.278 101.523Z" fill="#373737"/>
<path d="M173.413 96.3713C175.092 97.5543 176.307 99.3716 176.611 101.547L180.529 137.107L171.762 138.518L166.513 107.087L173.413 96.3713Z" fill="#373737"/>
<path d="M166.586 106.996C166.586 106.996 167.517 112.543 168.017 115.526C169.107 122.124 170.094 128.097 170.811 132.436C171.157 134.592 171.438 136.34 171.635 137.565C171.726 138.161 171.798 138.629 171.849 138.962C171.87 139.113 171.886 139.233 171.899 139.325C171.909 139.408 171.913 139.451 171.909 139.451C171.906 139.451 171.896 139.41 171.878 139.329C171.86 139.237 171.837 139.118 171.808 138.968C171.748 138.637 171.664 138.171 171.556 137.578C171.344 136.356 171.042 134.611 170.669 132.46C169.937 128.123 168.929 122.154 167.816 115.56C167.32 112.576 166.427 107.2 166.427 107.2L166.586 106.996Z" fill="black"/>
<path d="M169.25 104.298C169.286 104.345 168.603 104.933 167.829 105.726C167.052 106.515 166.476 107.21 166.429 107.174C166.386 107.142 166.896 106.383 167.684 105.582C168.469 104.779 169.218 104.256 169.25 104.298Z" fill="black"/>
<path d="M165.527 85.3362C165.441 84.4248 166.107 83.615 167.017 83.5272C167.926 83.4394 168.733 84.107 168.82 85.0185C168.906 85.9299 168.239 86.7397 167.33 86.8275C166.421 86.9152 165.614 86.2477 165.527 85.3362Z" fill="#FFBE9D"/>
<path d="M167.255 83.5253C167.255 83.5253 173.236 83.9583 173.754 84.0444C174.272 84.1306 176.349 84.8843 176.508 85.4824C176.667 86.0806 176.736 87.8801 176.736 87.8801C176.736 87.8801 176.404 88.2079 176.124 87.644C175.843 87.08 175.767 85.9187 175.767 85.9187L174.615 85.5971L175.324 86.619L175.665 89.1418C175.665 89.1418 174.882 89.1458 174.674 88.5544C174.466 87.9629 174.404 87.287 174.404 87.287L173.527 86.6771L174.212 87.442L174.59 89.2456C174.59 89.2456 174.016 89.4945 173.791 89.1077C173.567 88.721 173.437 87.5168 173.437 87.5168L171.074 86.9366L169.639 87.9282L166.947 86.8237L167.255 83.5253Z" fill="#FFBE9D"/>
<path d="M141.683 85.4044C140.809 83.1646 141.914 80.6363 144.15 79.7571C146.386 78.8779 148.907 79.9806 149.78 82.2204C150.654 84.4601 149.55 86.9884 147.314 87.8676C145.078 88.7468 142.557 87.6441 141.683 85.4044Z" fill="#1977F3"/>
<path d="M141.683 85.4044C140.809 83.1646 141.914 80.6363 144.15 79.7571C146.386 78.8779 148.907 79.9806 149.78 82.2204C150.654 84.4601 149.55 86.9884 147.314 87.8676C145.078 88.7468 142.557 87.6441 141.683 85.4044Z" stroke="black" stroke-width="0.2" stroke-miterlimit="10"/>
<path d="M144.407 87.9826C145.881 88.4674 147.733 88.3981 149.592 88.5016C149.592 88.5016 167.564 88.4271 168.064 87.9601C168.415 87.632 167.844 83.0266 167.844 83.0266L147.079 79.7458" fill="#1977F3"/>
<path d="M146.978 79.6677L167.843 83.0265C167.843 83.0265 168.332 87.9324 168.064 87.9601C166.395 88.1332 147.291 89.0704 144.396 87.9555" stroke="black" stroke-width="0.2" stroke-miterlimit="10"/>
<path d="M136.801 63.9404C136.801 63.9404 133.249 68.485 132.641 73.2447L139.734 83.8095C140.532 84.8625 141.305 85.69 142.137 86.3908L148.899 80.6803C148.642 80.3197 136.801 63.9404 136.801 63.9404Z" fill="#1977F3"/>
<path d="M136.898 63.9895C137.523 64.8353 148.83 80.7438 148.83 80.7438" stroke="black" stroke-width="0.2" stroke-miterlimit="10"/>
<path d="M142.304 86.4484C142.304 86.4484 141.009 85.4239 139.774 83.7508C136.963 79.9414 132.817 73.4979 132.755 73.3134" stroke="black" stroke-width="0.2" stroke-miterlimit="10"/>
<path d="M137.193 58.1168C137.193 58.7895 137.384 61.3061 137.384 61.3061C137.532 63.417 139.282 65.0528 141.391 65.0528C143.713 65.0528 145.552 63.083 145.4 60.7585C145.319 59.528 145.231 58.0619 145.176 57.2399C144.051 54.9333 141.241 55.2626 141.241 55.2626C141.241 55.2626 137.71 54.9667 137.193 58.1168Z" fill="#FFBE9D"/>
<path d="M145.318 59.0239C145.318 59.0239 142.028 59.6746 139.934 58.3543C139.934 58.3543 142.262 60.8024 145.374 60.5205L145.318 59.0239Z" fill="#EB996E"/>
<path d="M141.943 59.9161C141.958 59.9157 141.97 59.9153 141.985 59.9141C145.109 59.7059 147.768 57.7075 147.786 56.2759C147.807 54.5723 147.532 50.8307 147.278 47.775C147.075 45.3407 145.045 43.4701 142.61 43.4701H141.298C141.279 43.4701 141.261 43.4709 141.243 43.4721C138.012 43.6767 135.578 46.5097 135.857 49.7495L136.334 55.608C136.339 55.6727 136.487 56.1768 136.512 56.2367C138.151 60.1909 141.621 59.9235 141.943 59.9161Z" fill="#FFBE9D"/>
<path d="M135.722 52.0259C136.047 51.9471 136.609 52.2486 136.748 52.5539C136.887 52.8593 136.917 53.2054 137.056 53.5112C137.194 53.8169 137.507 54.0933 137.832 54.0161C138.057 53.9628 138.217 53.7519 138.276 53.528C138.336 53.3042 138.311 53.0674 138.283 52.8377C138.157 51.8385 137.947 50.8479 137.908 49.8417C137.868 48.8354 138.01 47.7899 138.537 46.9326C139.064 46.0753 140.031 45.445 141.031 45.5258C141.694 45.5795 142.302 45.9264 142.96 46.0189C143.741 46.1286 144.566 45.8519 145.124 45.2937C145.195 45.2223 145.528 45.002 145.528 45.002C145.528 44.9503 145.479 44.5034 145.304 44.3407C143.998 43.1287 141.645 42.7904 139.919 43.2259C138.194 43.6614 136.577 44.884 135.835 46.5061C135.093 48.1282 135.313 50.3842 135.722 52.0259Z" fill="black"/>
<path d="M139.184 46.2948C139.473 46.7637 141.041 47.7084 141.588 47.7582C142.135 47.808 142.701 47.5869 143.069 47.178C143.231 47.5826 143.664 47.8605 144.098 47.8378C144.532 47.815 144.934 47.4932 145.052 47.0738C145.29 47.305 145.537 47.543 145.848 47.657C146.159 47.7715 146.553 47.728 146.757 47.4665C146.965 47.2 147.103 46.7002 146.9 46.4305C146.696 46.1608 145.973 44.6222 145.662 44.4916C144.69 44.0844 143.559 44.6132 142.515 44.7551C141.472 44.897 139.678 45.5195 139.025 46.3493" fill="black"/>
<path d="M146.061 51.2466C146.069 51.4825 145.877 51.684 145.631 51.6974C145.386 51.7103 145.181 51.5304 145.172 51.2944C145.164 51.0584 145.356 50.8569 145.601 50.8436C145.847 50.8303 146.053 51.0106 146.061 51.2466Z" fill="black"/>
<path d="M146.225 50.3634C146.17 50.4218 145.832 50.1713 145.353 50.1725C144.874 50.167 144.522 50.414 144.47 50.3552C144.445 50.3289 144.501 50.2242 144.654 50.1121C144.805 50.0008 145.062 49.8926 145.361 49.8938C145.659 49.8953 145.91 50.0055 146.055 50.1184C146.202 50.2321 146.252 50.3375 146.225 50.3634Z" fill="black"/>
<path d="M141.561 51.2466C141.569 51.4825 141.377 51.684 141.131 51.6974C140.886 51.7107 140.68 51.5304 140.672 51.2944C140.664 51.0584 140.856 50.8569 141.101 50.8436C141.347 50.8303 141.552 51.0106 141.561 51.2466Z" fill="black"/>
<path d="M141.514 50.4532C141.459 50.5116 141.121 50.2611 140.642 50.2623C140.163 50.2568 139.811 50.5037 139.759 50.4449C139.734 50.4191 139.789 50.3136 139.943 50.2019C140.094 50.0906 140.351 49.9824 140.65 49.9836C140.948 49.9851 141.199 50.0953 141.344 50.2082C141.491 50.3215 141.541 50.4273 141.514 50.4532Z" fill="black"/>
<path d="M143.253 54.0196C143.251 53.9921 143.549 53.9408 144.032 53.8788C144.154 53.8663 144.27 53.8416 144.29 53.7577C144.319 53.6691 144.268 53.537 144.209 53.3939C144.093 53.0968 143.973 52.7852 143.847 52.4586C143.344 51.1274 142.98 50.0329 143.034 50.0129C143.087 49.993 143.539 51.0561 144.041 52.3873C144.162 52.7158 144.278 53.0286 144.388 53.3281C144.434 53.4676 144.514 53.6256 144.451 53.8099C144.418 53.9016 144.329 53.9682 144.25 53.9894C144.171 54.0133 144.103 54.0149 144.042 54.0184C143.556 54.0447 143.255 54.047 143.253 54.0196Z" fill="black"/>
<path d="M141.843 54.3524C141.921 54.3477 141.922 54.8698 142.367 55.2403C142.812 55.6119 143.366 55.5535 143.37 55.6264C143.377 55.6589 143.247 55.7279 143.013 55.7342C142.783 55.742 142.447 55.6679 142.175 55.4414C141.904 55.214 141.787 54.911 141.769 54.697C141.749 54.4786 141.808 54.3493 141.843 54.3524Z" fill="black"/>
<path d="M141.638 48.5684C141.59 48.6994 141.112 48.6374 140.55 48.7052C139.986 48.7621 139.533 48.9271 139.458 48.8099C139.425 48.7539 139.504 48.6308 139.687 48.5041C139.869 48.3779 140.159 48.2576 140.496 48.2199C140.834 48.1831 141.143 48.2368 141.348 48.3203C141.554 48.4038 141.658 48.5065 141.638 48.5684Z" fill="black"/>
<path d="M146.049 48.9718C145.964 49.0812 145.634 48.9679 145.237 48.9624C144.84 48.9432 144.504 49.0361 144.427 48.9216C144.393 48.8663 144.446 48.7566 144.593 48.6531C144.737 48.55 144.979 48.4661 145.252 48.4743C145.525 48.483 145.761 48.5821 145.899 48.6939C146.04 48.806 146.086 48.9185 146.049 48.9718Z" fill="black"/>
<path d="M136.908 52.0984C136.855 52.0753 134.765 51.4622 134.833 53.6017C134.901 55.7413 137.028 55.2313 137.03 55.1697C137.031 55.1082 136.908 52.0984 136.908 52.0984Z" fill="#FFBE9D"/>
<path d="M136.353 54.3803C136.343 54.3736 136.316 54.4073 136.255 54.4383C136.194 54.4685 136.089 54.4912 135.977 54.4532C135.749 54.3775 135.548 54.0247 135.525 53.6394C135.514 53.4449 135.548 53.258 135.612 53.1023C135.673 52.9436 135.77 52.8311 135.883 52.8072C135.995 52.7774 136.077 52.8432 136.105 52.9024C136.135 52.9612 136.123 53.0047 136.135 53.0079C136.141 53.013 136.179 52.9706 136.159 52.8828C136.149 52.8405 136.123 52.7911 136.071 52.7515C136.019 52.7115 135.943 52.6923 135.864 52.7033C135.7 52.7197 135.557 52.8765 135.487 53.0475C135.408 53.2195 135.364 53.4297 135.377 53.648C135.404 54.0784 135.637 54.4751 135.948 54.5547C136.1 54.5892 136.223 54.5394 136.286 54.4869C136.351 54.432 136.36 54.3838 136.353 54.3803Z" fill="#EB996E"/>
<path d="M147.266 46.7421C147.266 46.7421 139.084 44.1008 135.545 51.2035C135.545 51.2035 135.016 49.4261 135.016 48.4732C135.016 47.837 135.395 44.0471 139.282 42.8551C139.282 42.8551 145.136 40.6124 147.266 46.7421Z" fill="#1977F3"/>
<g opacity="0.4">
<path d="M147.266 46.7421C147.266 46.7421 146.335 45.6308 144.664 45.5567C142.251 45.4497 137.733 46.8111 135.545 51.2035C135.545 51.2035 135.016 49.4261 135.016 48.4732C135.016 47.837 135.395 44.0471 139.282 42.8551C139.282 42.8551 145.136 40.6124 147.266 46.7421Z" fill="black"/>
</g>
<path d="M135.887 50.3724C137.1 48.51 138.773 46.9699 140.654 45.7911C142.534 44.6124 145.644 43.4462 147.788 42.8754C148.431 42.7041 149.102 42.5544 149.758 42.6681C150.414 42.7817 151.055 43.22 151.218 43.8676C151.422 44.6782 149.989 45.9295 149.315 46.4215C148.641 46.9134 147.266 47.6351 147.266 47.6351C147.266 47.6351 147.284 46.1314 144.886 45.8213C141.623 45.3995 135.887 50.3724 135.887 50.3724Z" fill="#1977F3"/>
</svg>
