<svg width="159" height="50" viewBox="0 0 159 50" fill="none" xmlns="http://www.w3.org/2000/svg">
<rect x="0.560425" y="1.31262" width="157" height="48" rx="9.5" fill="white"/>
<path d="M44.0604 34.8126C49.3071 34.8126 53.5604 30.5593 53.5604 25.3126C53.5604 20.0659 49.3071 15.8126 44.0604 15.8126C38.8137 15.8126 34.5604 20.0659 34.5604 25.3126C34.5604 30.5593 38.8137 34.8126 44.0604 34.8126Z" fill="#4285F4"/>
<path d="M47.7584 28.0594L48.1792 25.3126H45.5447V23.5305C45.5447 22.7796 45.9121 22.0462 47.0931 22.0462H48.2914V19.7083C48.2914 19.7083 47.2039 19.5226 46.1646 19.5226C43.995 19.5226 42.5762 20.8372 42.5762 23.2192V25.3126H40.1635V28.0594H42.5762V34.6977C43.0598 34.7739 43.5554 34.8126 44.0604 34.8126C44.5654 34.8126 45.0611 34.7725 45.5447 34.6977V28.0594H47.7584Z" fill="white"/>
<path d="M66.5774 21.1886V24.1846H70.3714V25.6896H66.5774V29.8126H64.6874V19.6906H71.0714V21.1886H66.5774ZM75.1948 26.7466C74.6954 26.77 74.2754 26.8143 73.9348 26.8796C73.5941 26.9403 73.3211 27.0196 73.1158 27.1176C72.9104 27.2156 72.7634 27.33 72.6748 27.4606C72.5861 27.5913 72.5418 27.7336 72.5418 27.8876C72.5418 28.191 72.6304 28.408 72.8078 28.5386C72.9898 28.6693 73.2254 28.7346 73.5148 28.7346C73.8694 28.7346 74.1751 28.6716 74.4318 28.5456C74.6931 28.415 74.9474 28.219 75.1948 27.9576V26.7466ZM71.2328 23.6316C72.0588 22.8756 73.0528 22.4976 74.2148 22.4976C74.6348 22.4976 75.0104 22.5676 75.3418 22.7076C75.6731 22.843 75.9531 23.0343 76.1818 23.2816C76.4104 23.5243 76.5831 23.816 76.6998 24.1566C76.8211 24.4973 76.8818 24.8706 76.8818 25.2766V29.8126H76.0978C75.9344 29.8126 75.8084 29.7893 75.7198 29.7426C75.6311 29.6913 75.5611 29.591 75.5098 29.4416L75.3558 28.9236C75.1738 29.087 74.9964 29.2316 74.8238 29.3576C74.6511 29.479 74.4714 29.5816 74.2848 29.6656C74.0981 29.7496 73.8974 29.8126 73.6828 29.8546C73.4728 29.9013 73.2394 29.9246 72.9828 29.9246C72.6794 29.9246 72.3994 29.885 72.1428 29.8056C71.8861 29.7216 71.6644 29.598 71.4778 29.4346C71.2911 29.2713 71.1464 29.0683 71.0438 28.8256C70.9411 28.583 70.8898 28.3006 70.8898 27.9786C70.8898 27.7966 70.9201 27.617 70.9808 27.4396C71.0414 27.2576 71.1394 27.085 71.2748 26.9216C71.4148 26.7583 71.5944 26.6043 71.8138 26.4596C72.0331 26.315 72.3014 26.189 72.6188 26.0816C72.9408 25.9743 73.3141 25.888 73.7388 25.8226C74.1634 25.7526 74.6488 25.7106 75.1948 25.6966V25.2766C75.1948 24.796 75.0921 24.4413 74.8868 24.2126C74.6814 23.9793 74.3851 23.8626 73.9978 23.8626C73.7178 23.8626 73.4844 23.8953 73.2978 23.9606C73.1158 24.026 72.9548 24.1006 72.8148 24.1846C72.6748 24.264 72.5464 24.3363 72.4298 24.4016C72.3178 24.467 72.1918 24.4996 72.0518 24.4996C71.9304 24.4996 71.8278 24.4693 71.7438 24.4086C71.6598 24.3433 71.5921 24.2686 71.5408 24.1846L71.2328 23.6316ZM83.6551 24.1496C83.6038 24.215 83.5525 24.2663 83.5011 24.3036C83.4545 24.341 83.3845 24.3596 83.2911 24.3596C83.2025 24.3596 83.1161 24.334 83.0321 24.2826C82.9481 24.2266 82.8478 24.166 82.7311 24.1006C82.6145 24.0306 82.4745 23.97 82.3111 23.9186C82.1525 23.8626 81.9541 23.8346 81.7161 23.8346C81.4128 23.8346 81.1468 23.8906 80.9181 24.0026C80.6895 24.11 80.4981 24.2663 80.3441 24.4716C80.1948 24.677 80.0828 24.9266 80.0081 25.2206C79.9335 25.51 79.8961 25.839 79.8961 26.2076C79.8961 26.5903 79.9358 26.931 80.0151 27.2296C80.0991 27.5283 80.2181 27.7803 80.3721 27.9856C80.5261 28.1863 80.7128 28.3403 80.9321 28.4476C81.1515 28.5503 81.3988 28.6016 81.6741 28.6016C81.9495 28.6016 82.1711 28.569 82.3391 28.5036C82.5118 28.4336 82.6565 28.359 82.7731 28.2796C82.8898 28.1956 82.9901 28.121 83.0741 28.0556C83.1628 27.9856 83.2608 27.9506 83.3681 27.9506C83.5081 27.9506 83.6131 28.0043 83.6831 28.1116L84.1801 28.7416C83.9888 28.9656 83.7811 29.1546 83.5571 29.3086C83.3331 29.458 83.0998 29.5793 82.8571 29.6726C82.6191 29.7613 82.3718 29.8243 82.1151 29.8616C81.8631 29.899 81.6111 29.9176 81.3591 29.9176C80.9158 29.9176 80.4981 29.836 80.1061 29.6726C79.7141 29.5046 79.3711 29.262 79.0771 28.9446C78.7831 28.6273 78.5498 28.24 78.3771 27.7826C78.2091 27.3206 78.1251 26.7956 78.1251 26.2076C78.1251 25.6803 78.1998 25.1926 78.3491 24.7446C78.5031 24.292 78.7271 23.9023 79.0211 23.5756C79.3151 23.2443 79.6791 22.9853 80.1131 22.7986C80.5471 22.612 81.0465 22.5186 81.6111 22.5186C82.1478 22.5186 82.6168 22.605 83.0181 22.7776C83.4241 22.9503 83.7881 23.1976 84.1101 23.5196L83.6551 24.1496ZM89.768 25.3956C89.768 25.1716 89.7353 24.9616 89.67 24.7656C89.6093 24.565 89.516 24.39 89.39 24.2406C89.264 24.0913 89.103 23.9746 88.907 23.8906C88.7157 23.802 88.4917 23.7576 88.235 23.7576C87.7357 23.7576 87.3413 23.9 87.052 24.1846C86.7673 24.4693 86.5853 24.873 86.506 25.3956H89.768ZM86.471 26.4386C86.499 26.8073 86.5643 27.127 86.667 27.3976C86.7697 27.6636 86.905 27.8853 87.073 28.0626C87.241 28.2353 87.4393 28.366 87.668 28.4546C87.9013 28.5386 88.158 28.5806 88.438 28.5806C88.718 28.5806 88.9583 28.548 89.159 28.4826C89.3643 28.4173 89.5417 28.345 89.691 28.2656C89.845 28.1863 89.978 28.114 90.09 28.0486C90.2067 27.9833 90.3187 27.9506 90.426 27.9506C90.5707 27.9506 90.678 28.0043 90.748 28.1116L91.245 28.7416C91.0537 28.9656 90.839 29.1546 90.601 29.3086C90.363 29.458 90.1133 29.5793 89.852 29.6726C89.5953 29.7613 89.3317 29.8243 89.061 29.8616C88.795 29.899 88.536 29.9176 88.284 29.9176C87.7847 29.9176 87.3203 29.836 86.891 29.6726C86.4617 29.5046 86.0883 29.2596 85.771 28.9376C85.4537 28.611 85.204 28.2096 85.022 27.7336C84.84 27.253 84.749 26.6976 84.749 26.0676C84.749 25.5776 84.8283 25.118 84.987 24.6886C85.1457 24.2546 85.372 23.879 85.666 23.5616C85.9647 23.2396 86.3263 22.9853 86.751 22.7986C87.1803 22.612 87.6633 22.5186 88.2 22.5186C88.6527 22.5186 89.0703 22.591 89.453 22.7356C89.8357 22.8803 90.1647 23.0926 90.44 23.3726C90.7153 23.648 90.93 23.9886 91.084 24.3946C91.2427 24.796 91.322 25.2556 91.322 25.7736C91.322 26.035 91.294 26.2123 91.238 26.3056C91.182 26.3943 91.0747 26.4386 90.916 26.4386H86.471ZM94.3485 27.9506C94.5445 28.1886 94.7568 28.3566 94.9855 28.4546C95.2188 28.5526 95.4638 28.6016 95.7205 28.6016C95.9865 28.6016 96.2245 28.555 96.4345 28.4616C96.6492 28.3636 96.8312 28.2143 96.9805 28.0136C97.1298 27.8083 97.2442 27.5493 97.3235 27.2366C97.4028 26.9193 97.4425 26.5413 97.4425 26.1026C97.4425 25.314 97.3118 24.7446 97.0505 24.3946C96.7892 24.04 96.4135 23.8626 95.9235 23.8626C95.5922 23.8626 95.3028 23.9396 95.0555 24.0936C94.8082 24.243 94.5725 24.4553 94.3485 24.7306V27.9506ZM94.3485 23.5126C94.6378 23.2093 94.9575 22.969 95.3075 22.7916C95.6622 22.6096 96.0658 22.5186 96.5185 22.5186C96.9338 22.5186 97.3072 22.6003 97.6385 22.7636C97.9745 22.927 98.2592 23.1626 98.4925 23.4706C98.7305 23.774 98.9125 24.1426 99.0385 24.5766C99.1645 25.0106 99.2275 25.4983 99.2275 26.0396C99.2275 26.623 99.1552 27.1526 99.0105 27.6286C98.8658 28.1046 98.6582 28.513 98.3875 28.8536C98.1215 29.1896 97.7995 29.451 97.4215 29.6376C97.0435 29.8243 96.6235 29.9176 96.1615 29.9176C95.9375 29.9176 95.7345 29.8943 95.5525 29.8476C95.3705 29.8056 95.2025 29.745 95.0485 29.6656C94.8945 29.5863 94.7522 29.4906 94.6215 29.3786C94.4955 29.262 94.3742 29.1336 94.2575 28.9936L94.1805 29.4766C94.1525 29.598 94.1035 29.6843 94.0335 29.7356C93.9682 29.787 93.8772 29.8126 93.7605 29.8126H92.6195V19.4106H94.3485V23.5126ZM103.741 22.5186C104.273 22.5186 104.756 22.605 105.19 22.7776C105.629 22.9503 106.002 23.1953 106.31 23.5126C106.623 23.83 106.863 24.2173 107.031 24.6746C107.199 25.132 107.283 25.643 107.283 26.2076C107.283 26.777 107.199 27.2903 107.031 27.7476C106.863 28.205 106.623 28.5946 106.31 28.9166C106.002 29.2386 105.629 29.486 105.19 29.6586C104.756 29.8313 104.273 29.9176 103.741 29.9176C103.204 29.9176 102.717 29.8313 102.278 29.6586C101.839 29.486 101.464 29.2386 101.151 28.9166C100.843 28.5946 100.603 28.205 100.43 27.7476C100.262 27.2903 100.178 26.777 100.178 26.2076C100.178 25.643 100.262 25.132 100.43 24.6746C100.603 24.2173 100.843 23.83 101.151 23.5126C101.464 23.1953 101.839 22.9503 102.278 22.7776C102.717 22.605 103.204 22.5186 103.741 22.5186ZM103.741 28.5876C104.338 28.5876 104.779 28.387 105.064 27.9856C105.353 27.5843 105.498 26.9963 105.498 26.2216C105.498 25.447 105.353 24.8566 105.064 24.4506C104.779 24.0446 104.338 23.8416 103.741 23.8416C103.134 23.8416 102.684 24.047 102.39 24.4576C102.101 24.8636 101.956 25.4516 101.956 26.2216C101.956 26.9916 102.101 27.5796 102.39 27.9856C102.684 28.387 103.134 28.5876 103.741 28.5876ZM111.78 22.5186C112.312 22.5186 112.795 22.605 113.229 22.7776C113.668 22.9503 114.041 23.1953 114.349 23.5126C114.662 23.83 114.902 24.2173 115.07 24.6746C115.238 25.132 115.322 25.643 115.322 26.2076C115.322 26.777 115.238 27.2903 115.07 27.7476C114.902 28.205 114.662 28.5946 114.349 28.9166C114.041 29.2386 113.668 29.486 113.229 29.6586C112.795 29.8313 112.312 29.9176 111.78 29.9176C111.243 29.9176 110.756 29.8313 110.317 29.6586C109.878 29.486 109.503 29.2386 109.19 28.9166C108.882 28.5946 108.642 28.205 108.469 27.7476C108.301 27.2903 108.217 26.777 108.217 26.2076C108.217 25.643 108.301 25.132 108.469 24.6746C108.642 24.2173 108.882 23.83 109.19 23.5126C109.503 23.1953 109.878 22.9503 110.317 22.7776C110.756 22.605 111.243 22.5186 111.78 22.5186ZM111.78 28.5876C112.377 28.5876 112.818 28.387 113.103 27.9856C113.392 27.5843 113.537 26.9963 113.537 26.2216C113.537 25.447 113.392 24.8566 113.103 24.4506C112.818 24.0446 112.377 23.8416 111.78 23.8416C111.173 23.8416 110.723 24.047 110.429 24.4576C110.14 24.8636 109.995 25.4516 109.995 26.2216C109.995 26.9916 110.14 27.5796 110.429 27.9856C110.723 28.387 111.173 28.5876 111.78 28.5876ZM118.37 19.4106V25.3676H118.692C118.809 25.3676 118.9 25.3536 118.965 25.3256C119.035 25.293 119.105 25.23 119.175 25.1366L120.96 22.9316C121.035 22.8336 121.116 22.759 121.205 22.7076C121.298 22.6563 121.417 22.6306 121.562 22.6306H123.144L120.911 25.2976C120.752 25.5076 120.58 25.6686 120.393 25.7806C120.491 25.8506 120.577 25.9323 120.652 26.0256C120.731 26.119 120.806 26.2193 120.876 26.3266L123.27 29.8126H121.709C121.574 29.8126 121.457 29.7916 121.359 29.7496C121.261 29.703 121.179 29.6213 121.114 29.5046L119.28 26.7816C119.215 26.6743 119.147 26.6043 119.077 26.5716C119.007 26.539 118.902 26.5226 118.762 26.5226H118.37V29.8126H116.641V19.4106H118.37Z" fill="#373737"/>
<rect x="0.560425" y="1.31262" width="157" height="48" rx="9.5" stroke="#CDCDCD"/>
</svg>
