<svg width="162" height="50" viewBox="0 0 162 50" fill="none" xmlns="http://www.w3.org/2000/svg">
<rect x="0.560425" y="1.31262" width="160" height="48" rx="9.5" fill="white"/>
<g clip-path="url(#clip0_39_39042)">
<path d="M62.5504 25.4904C62.5504 24.712 62.4857 24.1439 62.3458 23.5548H53.2496V27.0682H58.5889C58.4813 27.9414 57.9 29.2563 56.6082 30.1399L56.5901 30.2575L59.4661 32.4347L59.6654 32.4542C61.4954 30.8026 62.5504 28.3726 62.5504 25.4904Z" fill="#4285F4"/>
<path d="M53.2497 34.7474C55.8655 34.7474 58.0615 33.9058 59.6655 32.4542L56.6083 30.1399C55.7902 30.6974 54.6922 31.0866 53.2497 31.0866C50.6877 31.0866 48.5133 29.4351 47.7381 27.1524L47.6245 27.1619L44.634 29.4235L44.5948 29.5298C46.188 32.6224 49.4605 34.7474 53.2497 34.7474Z" fill="#34A853"/>
<path d="M47.7381 27.1524C47.5336 26.5634 47.4152 25.9321 47.4152 25.28C47.4152 24.6277 47.5336 23.9966 47.7273 23.4075L47.7219 23.2821L44.6939 20.9841L44.5948 21.0302C43.9382 22.3135 43.5614 23.7547 43.5614 25.28C43.5614 26.8053 43.9382 28.2464 44.5948 29.5297L47.7381 27.1524Z" fill="#FBBC05"/>
<path d="M53.2497 19.4733C55.0689 19.4733 56.2961 20.2412 56.9958 20.8829L59.7301 18.2741C58.0508 16.7488 55.8655 15.8126 53.2497 15.8126C49.4605 15.8126 46.188 17.9375 44.5948 21.0302L47.7274 23.4075C48.5133 21.1249 50.6877 19.4733 53.2497 19.4733Z" fill="#EB4335"/>
</g>
<path d="M82.0314 24.7376V28.8326C81.5181 29.2106 80.9698 29.4883 80.3864 29.6656C79.8078 29.8383 79.1871 29.9246 78.5244 29.9246C77.6984 29.9246 76.9494 29.7963 76.2774 29.5396C75.6101 29.283 75.0384 28.926 74.5624 28.4686C74.0911 28.0113 73.7271 27.4653 73.4704 26.8306C73.2138 26.196 73.0854 25.503 73.0854 24.7516C73.0854 23.991 73.2091 23.2933 73.4564 22.6586C73.7038 22.024 74.0538 21.478 74.5064 21.0206C74.9638 20.5633 75.5168 20.2086 76.1654 19.9566C76.8141 19.7046 77.5421 19.5786 78.3494 19.5786C78.7601 19.5786 79.1428 19.6113 79.4974 19.6766C79.8568 19.742 80.1881 19.833 80.4914 19.9496C80.7994 20.0616 81.0794 20.1993 81.3314 20.3626C81.5834 20.526 81.8144 20.7056 82.0244 20.9016L81.4854 21.7556C81.4014 21.891 81.2918 21.975 81.1564 22.0076C81.0211 22.0356 80.8741 22.0006 80.7154 21.9026C80.5614 21.814 80.4074 21.7253 80.2534 21.6366C80.0994 21.548 79.9268 21.471 79.7354 21.4056C79.5488 21.3403 79.3364 21.2866 79.0984 21.2446C78.8651 21.2026 78.5944 21.1816 78.2864 21.1816C77.7871 21.1816 77.3344 21.2656 76.9284 21.4336C76.5271 21.6016 76.1841 21.842 75.8994 22.1546C75.6148 22.4673 75.3954 22.843 75.2414 23.2816C75.0874 23.7203 75.0104 24.2103 75.0104 24.7516C75.0104 25.3303 75.0921 25.8483 75.2554 26.3056C75.4234 26.7583 75.6568 27.1433 75.9554 27.4606C76.2588 27.7733 76.6228 28.0136 77.0474 28.1816C77.4721 28.345 77.9458 28.4266 78.4684 28.4266C78.8418 28.4266 79.1754 28.387 79.4694 28.3076C79.7634 28.2283 80.0504 28.121 80.3304 27.9856V26.1516H79.0564C78.9351 26.1516 78.8394 26.119 78.7694 26.0536C78.7041 25.9836 78.6714 25.8996 78.6714 25.8016V24.7376H82.0314ZM86.6686 22.5186C87.2006 22.5186 87.6836 22.605 88.1176 22.7776C88.5563 22.9503 88.9296 23.1953 89.2376 23.5126C89.5503 23.83 89.7906 24.2173 89.9586 24.6746C90.1266 25.132 90.2106 25.643 90.2106 26.2076C90.2106 26.777 90.1266 27.2903 89.9586 27.7476C89.7906 28.205 89.5503 28.5946 89.2376 28.9166C88.9296 29.2386 88.5563 29.486 88.1176 29.6586C87.6836 29.8313 87.2006 29.9176 86.6686 29.9176C86.1319 29.9176 85.6443 29.8313 85.2056 29.6586C84.7669 29.486 84.3913 29.2386 84.0786 28.9166C83.7706 28.5946 83.5303 28.205 83.3576 27.7476C83.1896 27.2903 83.1056 26.777 83.1056 26.2076C83.1056 25.643 83.1896 25.132 83.3576 24.6746C83.5303 24.2173 83.7706 23.83 84.0786 23.5126C84.3913 23.1953 84.7669 22.9503 85.2056 22.7776C85.6443 22.605 86.1319 22.5186 86.6686 22.5186ZM86.6686 28.5876C87.2659 28.5876 87.7069 28.387 87.9916 27.9856C88.2809 27.5843 88.4256 26.9963 88.4256 26.2216C88.4256 25.447 88.2809 24.8566 87.9916 24.4506C87.7069 24.0446 87.2659 23.8416 86.6686 23.8416C86.0619 23.8416 85.6116 24.047 85.3176 24.4576C85.0283 24.8636 84.8836 25.4516 84.8836 26.2216C84.8836 26.9916 85.0283 27.5796 85.3176 27.9856C85.6116 28.387 86.0619 28.5876 86.6686 28.5876ZM94.7077 22.5186C95.2397 22.5186 95.7227 22.605 96.1567 22.7776C96.5953 22.9503 96.9687 23.1953 97.2767 23.5126C97.5893 23.83 97.8297 24.2173 97.9977 24.6746C98.1657 25.132 98.2497 25.643 98.2497 26.2076C98.2497 26.777 98.1657 27.2903 97.9977 27.7476C97.8297 28.205 97.5893 28.5946 97.2767 28.9166C96.9687 29.2386 96.5953 29.486 96.1567 29.6586C95.7227 29.8313 95.2397 29.9176 94.7077 29.9176C94.171 29.9176 93.6833 29.8313 93.2447 29.6586C92.806 29.486 92.4303 29.2386 92.1177 28.9166C91.8097 28.5946 91.5693 28.205 91.3967 27.7476C91.2287 27.2903 91.1447 26.777 91.1447 26.2076C91.1447 25.643 91.2287 25.132 91.3967 24.6746C91.5693 24.2173 91.8097 23.83 92.1177 23.5126C92.4303 23.1953 92.806 22.9503 93.2447 22.7776C93.6833 22.605 94.171 22.5186 94.7077 22.5186ZM94.7077 28.5876C95.305 28.5876 95.746 28.387 96.0307 27.9856C96.32 27.5843 96.4647 26.9963 96.4647 26.2216C96.4647 25.447 96.32 24.8566 96.0307 24.4506C95.746 24.0446 95.305 23.8416 94.7077 23.8416C94.101 23.8416 93.6507 24.047 93.3567 24.4576C93.0673 24.8636 92.9227 25.4516 92.9227 26.2216C92.9227 26.9916 93.0673 27.5796 93.3567 27.9856C93.6507 28.387 94.101 28.5876 94.7077 28.5876ZM102.139 26.0466C102.354 26.0466 102.54 26.0186 102.699 25.9626C102.858 25.902 102.988 25.8203 103.091 25.7176C103.198 25.615 103.278 25.4913 103.329 25.3466C103.385 25.202 103.413 25.0433 103.413 24.8706C103.413 24.516 103.306 24.236 103.091 24.0306C102.881 23.8206 102.564 23.7156 102.139 23.7156C101.714 23.7156 101.395 23.8206 101.18 24.0306C100.97 24.236 100.865 24.516 100.865 24.8706C100.865 25.0386 100.891 25.195 100.942 25.3396C100.998 25.4843 101.077 25.6103 101.18 25.7176C101.287 25.8203 101.42 25.902 101.579 25.9626C101.742 26.0186 101.929 26.0466 102.139 26.0466ZM104.092 30.1346C104.092 29.9946 104.05 29.8803 103.966 29.7916C103.882 29.703 103.768 29.6353 103.623 29.5886C103.478 29.5373 103.308 29.5 103.112 29.4766C102.921 29.4533 102.715 29.437 102.496 29.4276C102.281 29.4136 102.057 29.402 101.824 29.3926C101.595 29.3833 101.371 29.3646 101.152 29.3366C100.961 29.444 100.804 29.57 100.683 29.7146C100.566 29.8593 100.508 30.0273 100.508 30.2186C100.508 30.3446 100.538 30.4613 100.599 30.5686C100.664 30.6806 100.765 30.7763 100.9 30.8556C101.04 30.935 101.22 30.9956 101.439 31.0376C101.658 31.0843 101.927 31.1076 102.244 31.1076C102.566 31.1076 102.844 31.082 103.077 31.0306C103.31 30.984 103.502 30.9163 103.651 30.8276C103.805 30.7436 103.917 30.641 103.987 30.5196C104.057 30.403 104.092 30.2746 104.092 30.1346ZM105.814 22.8756V23.5196C105.814 23.725 105.69 23.851 105.443 23.8976L104.799 24.0166C104.897 24.264 104.946 24.5346 104.946 24.8286C104.946 25.1833 104.874 25.5053 104.729 25.7946C104.589 26.0793 104.393 26.322 104.141 26.5226C103.889 26.7233 103.59 26.8796 103.245 26.9916C102.904 27.099 102.536 27.1526 102.139 27.1526C101.999 27.1526 101.864 27.1456 101.733 27.1316C101.602 27.1176 101.474 27.099 101.348 27.0756C101.124 27.211 101.012 27.3626 101.012 27.5306C101.012 27.6753 101.077 27.7826 101.208 27.8526C101.343 27.918 101.521 27.9646 101.74 27.9926C101.959 28.0206 102.209 28.0393 102.489 28.0486C102.769 28.0533 103.056 28.0673 103.35 28.0906C103.644 28.114 103.931 28.156 104.211 28.2166C104.491 28.2726 104.741 28.3636 104.96 28.4896C105.179 28.6156 105.354 28.7883 105.485 29.0076C105.62 29.2223 105.688 29.5 105.688 29.8406C105.688 30.158 105.609 30.466 105.45 30.7646C105.296 31.0633 105.07 31.3293 104.771 31.5626C104.477 31.796 104.113 31.9826 103.679 32.1226C103.25 32.2673 102.76 32.3396 102.209 32.3396C101.668 32.3396 101.196 32.286 100.795 32.1786C100.394 32.076 100.06 31.936 99.794 31.7586C99.528 31.586 99.3297 31.3853 99.199 31.1566C99.0684 30.928 99.003 30.69 99.003 30.4426C99.003 30.1066 99.1034 29.8266 99.304 29.6026C99.5094 29.374 99.7894 29.192 100.144 29.0566C99.9527 28.9586 99.801 28.828 99.689 28.6646C99.577 28.5013 99.521 28.2866 99.521 28.0206C99.521 27.9133 99.5397 27.8036 99.577 27.6916C99.619 27.575 99.6774 27.4606 99.752 27.3486C99.8314 27.2366 99.9294 27.1316 100.046 27.0336C100.163 26.931 100.3 26.84 100.459 26.7606C100.095 26.5646 99.808 26.3033 99.598 25.9766C99.3927 25.65 99.29 25.2673 99.29 24.8286C99.29 24.474 99.36 24.1543 99.5 23.8696C99.6447 23.5803 99.843 23.3353 100.095 23.1346C100.352 22.9293 100.653 22.773 100.998 22.6656C101.348 22.5583 101.728 22.5046 102.139 22.5046C102.447 22.5046 102.736 22.5373 103.007 22.6026C103.278 22.6633 103.525 22.7543 103.749 22.8756H105.814ZM108.661 19.4106V29.8126H106.932V19.4106H108.661ZM115.01 25.3956C115.01 25.1716 114.978 24.9616 114.912 24.7656C114.852 24.565 114.758 24.39 114.632 24.2406C114.506 24.0913 114.345 23.9746 114.149 23.8906C113.958 23.802 113.734 23.7576 113.477 23.7576C112.978 23.7576 112.584 23.9 112.294 24.1846C112.01 24.4693 111.828 24.873 111.748 25.3956H115.01ZM111.713 26.4386C111.741 26.8073 111.807 27.127 111.909 27.3976C112.012 27.6636 112.147 27.8853 112.315 28.0626C112.483 28.2353 112.682 28.366 112.91 28.4546C113.144 28.5386 113.4 28.5806 113.68 28.5806C113.96 28.5806 114.201 28.548 114.401 28.4826C114.607 28.4173 114.784 28.345 114.933 28.2656C115.087 28.1863 115.22 28.114 115.332 28.0486C115.449 27.9833 115.561 27.9506 115.668 27.9506C115.813 27.9506 115.92 28.0043 115.99 28.1116L116.487 28.7416C116.296 28.9656 116.081 29.1546 115.843 29.3086C115.605 29.458 115.356 29.5793 115.094 29.6726C114.838 29.7613 114.574 29.8243 114.303 29.8616C114.037 29.899 113.778 29.9176 113.526 29.9176C113.027 29.9176 112.563 29.836 112.133 29.6726C111.704 29.5046 111.331 29.2596 111.013 28.9376C110.696 28.611 110.446 28.2096 110.264 27.7336C110.082 27.253 109.991 26.6976 109.991 26.0676C109.991 25.5776 110.071 25.118 110.229 24.6886C110.388 24.2546 110.614 23.879 110.908 23.5616C111.207 23.2396 111.569 22.9853 111.993 22.7986C112.423 22.612 112.906 22.5186 113.442 22.5186C113.895 22.5186 114.313 22.591 114.695 22.7356C115.078 22.8803 115.407 23.0926 115.682 23.3726C115.958 23.648 116.172 23.9886 116.326 24.3946C116.485 24.796 116.564 25.2556 116.564 25.7736C116.564 26.035 116.536 26.2123 116.48 26.3056C116.424 26.3943 116.317 26.4386 116.158 26.4386H111.713Z" fill="#373737"/>
<rect x="0.560425" y="1.31262" width="160" height="48" rx="9.5" stroke="#CDCDCD"/>
<defs>
<clipPath id="clip0_39_39042">
<rect width="19" height="19" fill="white" transform="translate(43.5604 15.8126)"/>
</clipPath>
</defs>
</svg>
