<svg width="20" height="20" viewBox="0 0 20 20" fill="none" xmlns="http://www.w3.org/2000/svg">
<path fill-rule="evenodd" clip-rule="evenodd" d="M8.16941 12.7105C8.68981 13.0633 9.32404 13.2766 9.99892 13.2766C11.7878 13.2766 13.2433 11.808 13.2433 10.0031C13.2433 9.32213 13.0318 8.6822 12.6822 8.15713L11.7959 9.05139C11.9423 9.33033 12.0236 9.6585 12.0236 10.0031C12.0236 11.1271 11.1129 12.0459 9.99892 12.0459C9.65741 12.0459 9.33217 11.9639 9.05571 11.8162L8.16941 12.7105ZM15.3574 5.45793C16.5364 6.54089 17.5365 8.00125 18.2846 9.75696C18.3496 9.91284 18.3496 10.0933 18.2846 10.241C16.5445 14.3267 13.4465 16.7716 9.99892 16.7716H9.99079C8.42148 16.7716 6.91722 16.2547 5.59184 15.3112L4.01439 16.9028C3.89243 17.0259 3.73794 17.0833 3.58344 17.0833C3.42895 17.0833 3.26633 17.0259 3.15249 16.9028C2.94921 16.6977 2.91669 16.3696 3.07931 16.1316L3.10371 16.0988L15.1297 3.96476C15.1459 3.94835 15.1622 3.93195 15.1703 3.91554L15.1703 3.91553C15.1866 3.89913 15.2029 3.88272 15.211 3.86631L15.9753 3.09511C16.2193 2.85719 16.6014 2.85719 16.8372 3.09511C17.0812 3.33304 17.0812 3.72684 16.8372 3.96476L15.3574 5.45793ZM6.74866 10.0063C6.74866 10.2196 6.77305 10.4329 6.80558 10.6298L3.79705 13.6654C2.98393 12.7137 2.27652 11.5651 1.71547 10.2442C1.65042 10.0965 1.65042 9.91604 1.71547 9.76015C3.45554 5.67444 6.55351 3.23779 9.99299 3.23779H10.0011C11.1639 3.23779 12.2941 3.51673 13.3349 4.0418L10.6191 6.78202C10.4239 6.7492 10.2125 6.72459 10.0011 6.72459C8.20413 6.72459 6.74866 8.19315 6.74866 10.0063Z" fill="#818181"/>
</svg>
