<svg width="21" height="20" viewBox="0 0 21 20" fill="none" xmlns="http://www.w3.org/2000/svg">
<path fill-rule="evenodd" clip-rule="evenodd" d="M7.41467 10C7.41467 11.7778 8.86996 13.2242 10.6667 13.2242C12.4553 13.2242 13.9106 11.7778 13.9106 10C13.9106 8.21414 12.4553 6.76768 10.6667 6.76768C8.86996 6.76768 7.41467 8.21414 7.41467 10ZM15.4472 5.03839C16.87 6.13738 18.0813 7.74546 18.9513 9.75758C19.0163 9.91111 19.0163 10.0889 18.9513 10.2343C17.2114 14.2586 14.1139 16.6667 10.6667 16.6667H10.6586C7.21955 16.6667 4.12199 14.2586 2.38215 10.2343C2.31711 10.0889 2.31711 9.91111 2.38215 9.75758C4.12199 5.73334 7.21955 3.33334 10.6586 3.33334H10.6667C12.3903 3.33334 14.0244 3.93132 15.4472 5.03839ZM10.6677 12.0103C11.7815 12.0103 12.6921 11.1053 12.6921 9.99822C12.6921 8.88307 11.7815 7.97802 10.6677 7.97802C10.5701 7.97802 10.4726 7.9861 10.3831 8.00226C10.3506 8.89115 9.6189 9.60226 8.71646 9.60226H8.67581C8.65142 9.73156 8.63516 9.86085 8.63516 9.99822C8.63516 11.1053 9.54573 12.0103 10.6677 12.0103Z" fill="#1977F3"/>
</svg>
